<svg aria-hidden="true" style="width:0;height:0;position:absolute;overflow:hidden" xmlns="http://www.w3.org/2000/svg"><defs><symbol id="phone" viewBox="0 0 32 32"><path d="m9.052 3.023 1.897-.572a3.716 3.716 0 0 1 4.46 2.033l1.181 2.627a3.714 3.714 0 0 1-.855 4.239l-2.063 1.924a.316.316 0 0 0-.062.083c-.216.441.111 1.619 1.139 3.4 1.159 2.007 2.054 2.801 2.468 2.678l2.708-.828a3.713 3.713 0 0 1 4.098 1.379L25.7 22.31a3.714 3.714 0 0 1-.458 4.87L23.8 28.546a4.284 4.284 0 0 1-3.819 1.084c-4.02-.836-7.621-4.073-10.834-9.638C5.931 14.421 4.929 9.68 6.221 5.779a4.286 4.286 0 0 1 2.832-2.756zm.495 1.641a2.572 2.572 0 0 0-1.699 1.654c-1.113 3.361-.211 7.63 2.783 12.817 2.992 5.182 6.235 8.097 9.699 8.817a2.574 2.574 0 0 0 2.292-.651l1.442-1.366a2 2 0 0 0 .247-2.622l-1.677-2.324a2 2 0 0 0-2.207-.742l-2.714.83c-1.502.448-2.913-.804-4.448-3.462-1.299-2.25-1.75-3.875-1.194-5.01a2 2 0 0 1 .433-.584l2.063-1.924a2 2 0 0 0 .46-2.283l-1.181-2.627a2 2 0 0 0-2.401-1.095l-1.897.572z"/></symbol><symbol id="logo-black" viewBox="0 0 40 32"><path d="M26.428 3.335c-.02.004-.035.018-.035.027s-.014.018-.029.018c-.016 0-.029.014-.029.029s-.012.029-.027.029c-.031 0-.057.08-.039.127.016.041.258.283.283.283.01 0 .018.014.018.029s.014.029.029.029c.016 0 .029.014.029.029s.014.029.029.029c.016 0 .029.01.029.022s.039.059.086.107c.049.047.096.086.107.086s.021.014.021.029c0 .016.014.029.029.029s.029.014.029.029c0 .016.014.029.029.029s.029.008.029.018c0 .012.07.09.158.176.086.088.164.158.176.158.01 0 .018.014.018.029s.014.029.029.029c.016 0 .029.014.029.029s.014.029.029.029c.016 0 .029.008.029.018 0 .012.084.104.188.205.102.104.193.188.205.188.01 0 .018.014.018.029s.014.029.029.029c.016 0 .029.01.029.021 0 .027.166.193.193.193.012 0 .021.014.021.029s.014.029.029.029c.016 0 .029.014.029.029s.014.029.029.029c.016 0 .029.008.029.018 0 .023.311.334.334.334.01 0 .018.014.018.029s.014.029.029.029c.016 0 .029.014.029.029s.014.029.029.029c.016 0 .029.008.029.018 0 .012.084.104.188.205.102.104.193.188.205.188.01 0 .018.014.018.029s.014.029.029.029c.016 0 .029.014.029.029s.014.029.029.029c.016 0 .029.01.029.021s.025.047.057.078c.031.031.066.057.078.057s.021.014.021.029c0 .016.014.029.029.029s.029.014.029.029c0 .016.014.029.029.029s.029.008.029.018c0 .01.084.102.188.205s.195.188.205.188c.01 0 .018.014.018.029s.014.029.029.029c.016 0 .029.014.029.029s.014.029.029.029c.016 0 .029.008.029.018 0 .023.311.334.334.334.01 0 .018.014.018.029s.014.029.029.029c.016 0 .029.014.029.029s.014.029.029.029c.016 0 .029.01.029.021s.039.059.086.107c.049.047.096.086.107.086s.021.014.021.029c0 .016.014.029.029.029s.029.014.029.029c0 .016.014.029.029.029s.029.008.029.018c0 .012.07.09.158.176.086.088.164.158.176.158.01 0 .018.014.018.029s.014.029.029.029c.016 0 .029.014.029.029s.014.029.029.029c.016 0 .029.008.029.02 0 .01.109.129.244.266s.25.27.256.295c.01.039-.055.113-.473.535l-.51.514c-.244.234-.787.783-.787.797 0 .008-.01.016-.02.016-.018 0-.217.193-.315.305a8.593 8.593 0 0 1-.25.248c-.119.117-.217.221-.217.231s-.008.018-.016.018c-.023 0-2.583 2.557-2.583 2.581 0 .01-.008.018-.018.018-.025 0-.451.426-.451.451 0 .01-.008.018-.02.018-.023 0-3.38 3.354-3.38 3.38 0 .01-.008.02-.018.02-.025 0-.451.426-.451.451 0 .01-.01.018-.02.018-.012 0-.42.401-.908.889-.84.842-.891.889-.957.889-.043 0-.074-.012-.08-.029-.008-.016-.023-.029-.039-.029s-.027-.014-.027-.029c0-.016-.014-.029-.029-.029s-.029-.008-.029-.02c0-.025-.873-.899-.899-.899-.012 0-.02-.008-.02-.02 0-.023-1.168-1.192-1.194-1.192-.01 0-.018-.014-.018-.029s-.014-.029-.029-.029c-.016 0-.029-.014-.029-.029s-.014-.029-.029-.029c-.016 0-.029-.014-.029-.029s-.014-.029-.029-.029c-.016 0-.029-.014-.029-.029s-.014-.029-.029-.029c-.016 0-.029-.014-.029-.029s-.014-.029-.029-.029c-.016 0-.029-.014-.029-.029s-.014-.029-.029-.029c-.016 0-.029-.014-.029-.029s-.014-.029-.029-.029c-.016 0-.029-.014-.029-.029s-.014-.029-.029-.029c-.016 0-.029-.008-.029-.018 0-.023-.873-.901-.899-.901-.01 0-.02-.014-.02-.029s-.014-.029-.029-.029c-.016 0-.029-.014-.029-.029s-.014-.029-.029-.029c-.016 0-.029-.014-.029-.029s-.014-.029-.029-.029c-.016 0-.029-.014-.029-.029s-.014-.029-.029-.029c-.016 0-.029-.014-.029-.029s-.014-.029-.029-.029c-.016 0-.029-.014-.029-.029s-.014-.029-.029-.029c-.016 0-.029-.008-.029-.018 0-.023-.817-.842-.84-.842-.012 0-.02-.014-.02-.029s-.014-.029-.029-.029c-.016 0-.029-.014-.029-.029s-.014-.029-.029-.029c-.016 0-.029-.014-.029-.029s-.014-.029-.029-.029c-.016 0-.029-.014-.029-.029s-.014-.029-.029-.029c-.016 0-.029-.014-.029-.029s-.014-.029-.029-.029c-.016 0-.029-.014-.029-.029s-.014-.029-.029-.029c-.016 0-.029-.014-.029-.029s-.014-.029-.029-.029c-.016 0-.029-.008-.029-.02 0-.023-.817-.84-.842-.84-.01 0-.018-.014-.018-.029s-.014-.029-.029-.029c-.016 0-.029-.014-.029-.029s-.014-.029-.029-.029c-.016 0-.029-.014-.029-.029s-.014-.029-.029-.029c-.016 0-.029-.014-.029-.029s-.014-.029-.029-.029c-.016 0-.029-.014-.029-.029s-.014-.029-.029-.029c-.016 0-.029-.014-.029-.029s-.014-.029-.029-.029c-.016 0-.029-.014-.029-.029s-.014-.029-.029-.029c-.016 0-.029-.014-.029-.029s-.014-.029-.029-.029c-.016 0-.029-.008-.029-.018 0-.023-.819-.842-.842-.842-.01 0-.018-.014-.018-.029s-.014-.029-.029-.029c-.016 0-.029-.014-.029-.029s-.014-.029-.029-.029c-.016 0-.029-.014-.029-.029s-.014-.029-.029-.029c-.016 0-.029-.014-.029-.029s-.014-.029-.029-.029c-.016 0-.029-.008-.029-.02a.326.326 0 0 0-.068-.088.326.326 0 0 0-.088-.068c-.012 0-.02-.008-.02-.02 0-.018-.258-.281-.418-.424-.049-.043-.09-.09-.09-.102s-.014-.021-.029-.021c-.016 0-.029-.01-.029-.02 0-.02-.07-.098-.088-.098a.264.264 0 0 1-.088-.088c0-.018-.078-.088-.098-.088-.01 0-.02-.014-.02-.029s-.014-.029-.029-.029c-.016 0-.029-.014-.029-.029s-.014-.029-.029-.029c-.016 0-.029-.014-.029-.029s-.014-.029-.029-.029c-.016 0-.029-.014-.029-.029s-.014-.029-.029-.029c-.016 0-.029-.014-.029-.029s-.014-.029-.029-.029c-.016 0-.029-.014-.029-.029s-.014-.029-.029-.029c-.016 0-.029-.014-.029-.029s-.014-.029-.029-.029c-.016 0-.029-.014-.029-.029s-.008-.029-.02-.029c-.02 0-.098-.07-.098-.088s-.139-.147-.156-.147c-.012 0-.02-.014-.02-.029s-.008-.029-.018-.029a1.59 1.59 0 0 1-.256-.242c0-.02-.311-.324-.33-.324-.012 0-.021-.014-.021-.029s-.014-.029-.029-.029c-.016 0-.029-.014-.029-.029s-.014-.029-.029-.029c-.016 0-.029-.014-.029-.029s-.014-.029-.029-.029c-.016 0-.029-.014-.029-.029s-.014-.029-.029-.029c-.016 0-.029-.014-.029-.029s-.014-.029-.029-.029c-.016 0-.029-.014-.029-.029s-.014-.029-.029-.029c-.016 0-.029-.014-.029-.029s-.014-.029-.029-.029c-.016 0-.029-.008-.029-.018 0-.025-.25-.275-.275-.275-.01 0-.018-.014-.018-.029s-.008-.029-.02-.029a.785.785 0 0 1-.195-.195c0-.012-.014-.02-.029-.02s-.029-.008-.029-.02a.505.505 0 0 0-.156-.156.02.02 0 0 1-.02-.02c0-.012-.018-.037-.039-.059-.055-.055-.047-.215.012-.215.016 0 .027-.014.027-.029s.008-.029.018-.029c.025 0 .393-.367.393-.393 0-.01.01-.018.02-.018.025 0 .098-.072.098-.098 0-.012.01-.02.021-.02a.658.658 0 0 0 .193-.193c0-.012.014-.021.029-.021s.029-.01.029-.02c0-.025.072-.098.098-.098.012 0 .02-.014.02-.029s.014-.029.029-.029c.016 0 .029-.01.029-.02 0-.025.072-.098.098-.098.012 0 .02-.014.02-.029s.014-.029.029-.029c.016 0 .029-.014.029-.029s.008-.029.02-.029c.025 0 .098-.072.098-.098 0-.012.014-.02.029-.02s.029-.014.029-.029c0-.016.008-.029.02-.029.025 0 .098-.072.098-.098 0-.012.014-.02.029-.02s.029-.008.029-.018c0-.021.879-.901.901-.901.01 0 .018-.014.018-.029s.014-.029.029-.029c.016 0 .029-.014.029-.029s.014-.029.029-.029c.016 0 .029-.014.029-.029s.014-.029.029-.029c.016 0 .029-.014.029-.029s.014-.029.029-.029c.016 0 .029-.014.029-.029s.014-.029.029-.029c.016 0 .029-.014.029-.029s.014-.029.029-.029c.016 0 .029-.014.029-.029s.014-.029.029-.029c.016 0 .029-.008.029-.02 0-.021.527-.547.551-.547.008 0 .016-.014.016-.029s.014-.029.029-.029c.016 0 .029-.014.029-.029s.014-.029.029-.029c.016 0 .029-.014.029-.029s.014-.029.029-.029c.016 0 .029-.014.029-.029s.014-.029.029-.029c.016 0 .029-.014.029-.029s.014-.029.029-.029c.016 0 .029-.014.029-.029s.014-.029.029-.029c.016 0 .029-.014.029-.029s.014-.029.029-.029c.016 0 .029-.014.029-.029s.014-.029.029-.029c.016 0 .029-.014.029-.029s.014-.029.029-.029c.016 0 .029-.014.029-.029s.014-.029.029-.029c.016 0 .029-.014.029-.029s.008-.029.02-.029c.02 0 .098-.07.098-.088s.078-.088.098-.088c.012 0 .02-.014.02-.029s.014-.029.029-.029c.016 0 .029-.008.029-.02 0-.02.131-.156.148-.156a.53.53 0 0 0 .092-.09c.104-.115.344-.359.356-.359.016 0 .264-.258.264-.275 0-.01.014-.018.029-.018s.029-.014.029-.029c0-.016.014-.029.029-.029s.029-.014.029-.029c0-.016.01-.029.02-.029.012 0 .041-.022.064-.047s.076-.084.117-.127c.084-.09.084-.088-.039-.213-.039-.037-.082-.063-.113-.063-.041 0-.346.295-1.582 1.536a83.977 83.977 0 0 0-1.534 1.553c0 .01-.014.018-.029.018s-.029.014-.029.029c0 .016-.014.029-.029.029s-.029.008-.029.02a.607.607 0 0 1-.147.156c-.023 0-2.508 2.501-2.518 2.536-.012.035.041.096.318.375.184.184.334.344.334.354s.008.018.018.018c.023 0 1.311 1.285 1.311 1.309 0 .012.008.02.02.02.027 0 6.388 6.359 6.388 6.386 0 .012.01.021.023.021s.723.701 1.577 1.557c1.75 1.752 1.844 1.842 1.899 1.842.023 0 .066-.023.1-.055.092-.086.447-.442.537-.539a.62.62 0 0 1 .092-.09c.018 0 .207-.197.207-.215 0-.012.008-.02.02-.02a.505.505 0 0 0 .156-.156c0-.012.014-.02.029-.02s.029-.014.029-.029c0-.016.01-.029.02-.029.025 0 .098-.072.098-.098 0-.012.014-.02.029-.02s.029-.01.029-.02a.69.69 0 0 1 .119-.133c.164-.152.682-.668.682-.68 0-.016.078-.086.098-.086.012 0 .02-.014.02-.029s.01-.029.02-.029c.025 0 .098-.072.098-.098 0-.012.014-.02.029-.02s.029-.01.029-.02c0-.02.07-.098.088-.098s.088-.078.088-.098c0-.012.014-.02.029-.02s.029-.012.029-.025c.002-.012.029-.045.064-.072.064-.053.359-.344.498-.494a.392.392 0 0 1 .102-.092c.012 0 .02-.014.02-.029s.008-.029.02-.029a.505.505 0 0 0 .156-.156c0-.012.014-.02.029-.02s.029-.014.029-.029c0-.016.01-.029.02-.029.025 0 .098-.072.098-.098 0-.012.014-.02.029-.02s.029-.014.029-.029c0-.016.008-.029.018-.029.025 0 .842-.815.842-.84 0-.012.008-.02.02-.02a.933.933 0 0 0 .215-.215c0-.012.008-.02.018-.02a114.903 114.903 0 0 0 2.253-2.247c.021 0 .387-.371.387-.393 0-.01.014-.018.029-.018s.029-.014.029-.029c0-.016.01-.029.02-.029.025 0 .098-.072.098-.098 0-.012.014-.02.029-.02s.029-.014.029-.029c0-.016.008-.029.018-.029.025 0 1.252-1.229 1.252-1.252 0-.01.014-.018.029-.018s.029-.008.029-.02c0-.01.041-.057.092-.102.148-.133.533-.529.533-.547 0-.008.008-.016.02-.016a.933.933 0 0 0 .215-.215c0-.012.014-.02.029-.02s.029-.014.029-.029c0-.016.008-.029.02-.029.021 0 1.875-1.85 1.875-1.873 0-.041-.141-.195-.479-.529-.201-.199-1.498-1.493-2.882-2.878a238.436 238.436 0 0 0-2.532-2.512c-.01.002-.033.006-.051.012z"/><path d="M20.149 6.593c-.008.016-.02.029-.029.029-.039 0-.33.322-.33.365 0 .014-.008.025-.02.025-.01 0-.02.012-.02.027s-.014.031-.029.039c-.016.006-.029.023-.029.039 0 .014-.014.031-.029.039-.016.006-.029.029-.029.051s-.012.039-.027.039c-.016 0-.033.021-.039.049-.008.027-.021.049-.031.049-.012 0-.02.014-.02.029a.047.047 0 0 1-.025.041c-.014.004-.043.049-.063.096-.021.049-.045.088-.055.088-.008 0-.023.02-.033.043a.623.623 0 0 1-.092.148.092.092 0 0 0-.025.053c0 .016-.012.035-.025.043s-.041.051-.063.094a.652.652 0 0 1-.063.104c-.014.014-.025.039-.025.055s-.008.027-.02.027c-.01 0-.037.043-.063.098-.025.053-.051.098-.059.098-.01 0-.016.01-.016.021 0 .016-.205.365-.375.639a.218.218 0 0 0-.033.086c-.002.018-.014.041-.027.049a.42.42 0 0 0-.068.104 2.65 2.65 0 0 1-.102.19c-.012.02-.027.055-.039.078-.01.025-.027.045-.039.045-.01 0-.02.016-.02.037 0 .02-.014.047-.029.061s-.029.035-.029.051c0 .014-.012.037-.025.051a.752.752 0 0 0-.063.107c-.021.047-.045.084-.053.084-.006 0-.018.025-.025.057-.006.031-.025.063-.041.068s-.027.031-.027.059c0 .025-.014.051-.029.059-.016.006-.029.029-.029.051s-.014.045-.029.051c-.016.008-.029.027-.029.047s-.014.045-.029.059c-.016.014-.029.035-.029.049s-.014.035-.029.049a.092.092 0 0 0-.029.061c0 .021-.008.037-.018.037s-.023.02-.029.043c-.041.148-.125.166-.92.184-.559.012-.656.018-.727.049-.08.035-.084.039-.084.123 0 .049.012.094.025.104.029.02.578.01.932-.016.332-.023.469-.002.469.074 0 .049-.111.283-.141.295-.01.004-.016.023-.016.043 0 .018-.014.045-.029.059s-.029.033-.029.043c0 .01-.014.031-.029.047-.016.018-.029.047-.029.066s-.014.039-.029.047c-.016.006-.029.031-.029.059 0 .025-.014.051-.029.059-.016.006-.029.027-.029.047 0 .021-.014.049-.029.063s-.029.041-.029.061c0 .02-.01.041-.021.047a.186.186 0 0 0-.039.055 11.765 11.765 0 0 0-.233.439c-.045.088-.09.166-.1.172s-.018.023-.018.039c0 .018-.014.043-.029.059a.117.117 0 0 0-.029.068c0 .02-.008.037-.018.037s-.023.025-.031.059c-.008.031-.021.063-.031.068-.035.021-.018.105.031.156.027.027.059.049.068.049.047 0 .154-.074.166-.113.006-.023.02-.043.029-.043.012 0 .02-.018.02-.037 0-.021.012-.051.027-.064a.25.25 0 0 0 .041-.074.15.15 0 0 1 .029-.059.661.661 0 0 0 .057-.102.426.426 0 0 1 .063-.105c.01-.006.018-.027.018-.049 0-.02.008-.037.018-.037s.023-.023.029-.051a.24.24 0 0 1 .041-.08.107.107 0 0 0 .029-.066c0-.02.014-.037.029-.037.018 0 .029-.018.029-.049 0-.027.014-.055.029-.061.016-.008.029-.031.029-.057s.014-.049.029-.057c.016-.006.029-.025.031-.045 0-.02.018-.063.037-.094a9.77 9.77 0 0 0 .227-.42.443.443 0 0 1 .051-.078.162.162 0 0 0 .025-.064c.008-.029.021-.053.029-.053.01 0 .021-.027.029-.059.008-.033.02-.059.025-.059.008 0 .031-.039.053-.088s.049-.088.061-.088c.014 0 .027-.01.031-.021.012-.037.309-.061.832-.066l.492-.006v.111a.301.301 0 0 1-.029.15.185.185 0 0 0-.029.1c0 .033-.008.066-.018.072s-.023.043-.031.082c-.006.039-.02.086-.029.104s-.023.064-.029.104c-.006.041-.02.074-.029.074-.012 0-.02.02-.02.043a.308.308 0 0 1-.027.098.578.578 0 0 0-.043.143c-.006.049-.02.094-.029.098a.277.277 0 0 0-.029.098c-.006.049-.02.088-.027.088s-.021.039-.027.088c-.008.049-.021.088-.029.088-.01 0-.023.031-.029.068-.008.037-.025.092-.041.121s-.029.078-.029.107c0 .031-.008.055-.02.055-.01 0-.02.029-.02.066s-.014.08-.029.098c-.016.016-.029.049-.029.074s-.014.064-.029.086c-.016.02-.029.061-.029.09s-.012.064-.025.078c-.016.014-.031.064-.039.113-.006.047-.021.09-.031.094-.012.004-.021.031-.021.061a.19.19 0 0 1-.027.09.263.263 0 0 0-.035.098c-.014.07-.049.174-.086.25-.016.031-.027.07-.027.088s-.014.059-.029.09c-.043.082-.037.213.01.256.061.055.15.047.205-.021a.211.211 0 0 0 .049-.102c0-.025.014-.059.029-.074a.152.152 0 0 0 .029-.088c0-.033.014-.072.029-.088a.16.16 0 0 0 .029-.092c0-.035.014-.08.029-.1a.18.18 0 0 0 .029-.094c0-.029.01-.055.02-.055.012 0 .02-.023.02-.055a.19.19 0 0 1 .027-.092c.014-.021.033-.07.041-.107s.021-.078.029-.088a.308.308 0 0 0 .027-.096.472.472 0 0 1 .031-.107 6.41 6.41 0 0 0 .176-.529c.023-.08.051-.16.059-.178a.392.392 0 0 0 .029-.104c.008-.039.021-.076.031-.082s.018-.035.018-.066.014-.068.029-.086a.14.14 0 0 0 .029-.084.2.2 0 0 1 .029-.096.182.182 0 0 0 .029-.096c0-.033.014-.076.029-.096a.179.179 0 0 0 .029-.092c0-.027.014-.063.029-.076s.029-.053.029-.088c0-.035.014-.074.029-.088s.029-.057.029-.096.014-.096.029-.127a.247.247 0 0 0 .029-.092c0-.029.049-.158.074-.193.004-.006.141-.016.303-.021.342-.016.404-.033.453-.123.035-.064.035-.066-.018-.121l-.051-.057-.26.004c-.238.004-.262.002-.283-.033-.016-.027-.018-.053-.004-.088.012-.029.02-.076.02-.105s.014-.07.029-.092c.016-.02.029-.061.029-.088s.014-.066.029-.088a.213.213 0 0 0 .029-.111c0-.039.008-.072.02-.072.01 0 .023-.033.029-.074.016-.096.066-.279.09-.32a.186.186 0 0 0 .018-.068.24.24 0 0 1 .027-.088c.016-.027.033-.096.041-.15s.02-.1.029-.1c.008 0 .021-.049.029-.107.006-.059.02-.111.029-.117s.023-.051.031-.098c.006-.049.02-.088.029-.088s.018-.021.018-.049c0-.025.014-.082.029-.121.016-.041.037-.113.049-.162.01-.049.033-.145.049-.215a3.25 3.25 0 0 0 .047-.211.301.301 0 0 1 .037-.106c.014-.014.023-.066.023-.119 0-.059.012-.106.029-.123.02-.02.029-.068.029-.141.002-.061.014-.133.029-.16s.029-.098.029-.156a.772.772 0 0 1 .029-.186c.033-.09.039-.334.01-.352a.24.24 0 0 1-.049-.08c-.027-.064-.029-.066-.147-.066-.088 0-.121.008-.129.029zm-.003.616c-.002.068-.012.133-.021.145s-.023.078-.031.148c-.008.07-.02.145-.029.166s-.027.082-.037.137c-.033.17-.064.293-.08.313a.36.36 0 0 0-.027.111c-.008.051-.021.098-.031.104a.246.246 0 0 0-.029.094 1.098 1.098 0 0 1-.039.16 2.619 2.619 0 0 0-.049.195.767.767 0 0 1-.051.172c-.016.031-.027.08-.027.111s-.014.068-.029.086c-.016.016-.029.061-.029.1s-.012.096-.027.123a.459.459 0 0 0-.041.125c-.006.041-.02.074-.029.074-.012 0-.02.033-.02.072a.22.22 0 0 1-.029.111c-.016.021-.029.066-.029.1s-.014.078-.029.1c-.016.02-.029.064-.029.1s-.012.092-.027.127c-.039.092-.09.275-.09.322a.063.063 0 0 1-.029.053c-.018.006-.029.035-.029.07 0 .053-.012.064-.09.098-.082.035-.137.039-.633.039-.443 0-.545-.006-.553-.027-.014-.031.016-.168.039-.186.008-.006.033-.047.055-.09s.043-.082.049-.088a.777.777 0 0 0 .098-.201c0-.016.014-.033.029-.041.016-.006.029-.027.029-.049s.012-.047.025-.055a.655.655 0 0 0 .092-.148.914.914 0 0 1 .092-.154.084.084 0 0 0 .025-.057c0-.021.008-.037.018-.037s.021-.016.027-.035a.637.637 0 0 1 .094-.16c.008-.006.02-.031.027-.059a.238.238 0 0 1 .041-.074c.016-.014.027-.039.027-.055s.008-.027.016-.027.025-.023.037-.055c.014-.029.033-.066.043-.082a2.39 2.39 0 0 0 .178-.313c0-.012.008-.02.018-.02s.027-.027.039-.059c.01-.033.029-.059.039-.059.012 0 .021-.018.021-.037 0-.021.014-.051.029-.068.016-.016.029-.037.029-.047 0-.012.014-.023.029-.031.016-.006.029-.029.029-.051s.014-.045.029-.051c.016-.008.029-.027.029-.047s.014-.045.029-.059c.016-.014.029-.033.029-.043 0-.012.027-.059.059-.107a.356.356 0 0 0 .059-.115c0-.014.012-.027.025-.027.012 0 .041-.037.063-.082s.063-.109.094-.141c.029-.033.053-.074.053-.094s.008-.035.018-.035c.01 0 .025-.023.037-.055.01-.029.037-.072.061-.096s.041-.051.041-.061c0-.01.018-.033.039-.053s.039-.043.039-.051c0-.014.037-.059.15-.18.055-.057.074-.027.068.104zM22.929 6.617c-.012.031-.033.066-.047.08s-.025.053-.025.084c0 .031-.008.057-.02.057-.01 0-.02.016-.02.033 0 .02-.012.059-.027.088s-.033.078-.041.111-.021.064-.031.07c-.01.008-.018.031-.018.055s-.012.066-.027.094a.574.574 0 0 0-.039.121c-.008.041-.021.072-.031.072-.008 0-.021.035-.029.078s-.02.078-.029.078c-.01 0-.021.037-.029.082a.465.465 0 0 1-.027.104.97.97 0 0 0-.059.147.754.754 0 0 1-.063.145c-.01.012-.018.043-.018.072s-.014.066-.029.084a.127.127 0 0 0-.029.08c0 .027-.012.07-.027.094s-.033.076-.039.115c-.008.041-.021.074-.031.074-.012 0-.02.023-.02.053a.179.179 0 0 1-.029.092c-.016.021-.029.059-.029.082s-.012.053-.027.064c-.016.012-.031.051-.037.086-.01.068-.061.219-.092.272-.012.02-.02.049-.02.066s-.012.055-.027.082a1.126 1.126 0 0 0-.09.268c-.008.043-.025.08-.037.084s-.021.031-.021.059c0 .029-.014.07-.029.09-.016.021-.029.063-.029.092s-.014.057-.029.064c-.018.006-.029.035-.029.076 0 .037-.014.078-.029.092s-.029.053-.029.09c0 .035-.008.068-.018.076a.631.631 0 0 0-.063.152 1.202 1.202 0 0 1-.057.16c-.008.01-.021.051-.029.088s-.021.076-.029.088c-.008.01-.021.051-.029.088s-.02.076-.027.088c-.008.01-.035.086-.061.166a.851.851 0 0 1-.061.166.32.32 0 0 0-.027.094.215.215 0 0 1-.029.082c-.01.006-.021.045-.029.088s-.021.078-.031.078c-.01 0-.018.02-.018.043a.3.3 0 0 1-.029.102c-.016.029-.029.074-.029.098s-.014.061-.029.082c-.016.02-.029.059-.029.086s-.012.066-.027.088a.395.395 0 0 0-.039.111c-.008.041-.021.074-.031.074-.012 0-.02.025-.02.055a.193.193 0 0 1-.029.094c-.016.02-.029.061-.029.088s-.014.066-.029.088c-.016.02-.029.059-.029.086s-.014.074-.029.105a.242.242 0 0 0-.029.088.15.15 0 0 1-.029.072c-.016.02-.029.059-.029.086s-.014.066-.029.086c-.016.021-.029.061-.029.088s-.014.068-.029.088a.192.192 0 0 0-.029.098.195.195 0 0 1-.029.098.184.184 0 0 0-.029.096.146.146 0 0 1-.029.084c-.016.018-.029.053-.029.082s-.014.07-.029.09c-.016.021-.029.066-.029.1s-.014.078-.029.1c-.016.02-.029.074-.029.119s-.01.084-.021.088c-.012.004-.021.059-.023.123-.004.092.004.127.035.16.059.07.158.049.191-.039.006-.018.021-.033.033-.033.01 0 .02-.029.02-.066s.014-.092.029-.123a.465.465 0 0 0 .039-.129c.006-.039.02-.072.029-.072.012 0 .02-.037.02-.084 0-.045.014-.1.029-.119.016-.021.029-.061.029-.088s.014-.076.029-.107c.016-.029.029-.07.029-.088s.014-.049.029-.068a.215.215 0 0 0 .029-.111c0-.047.01-.076.029-.084.02-.006.029-.037.029-.084a.22.22 0 0 1 .029-.111.18.18 0 0 0 .029-.094c0-.029.008-.055.018-.055s.027-.039.039-.086c.012-.049.029-.094.041-.1.01-.006.02-.041.02-.078s.008-.07.018-.076c.01-.008.023-.047.031-.09s.02-.082.029-.088c.008-.006.021-.049.027-.098.008-.049.021-.088.033-.088.01 0 .018-.02.018-.045 0-.023.014-.059.029-.078a.334.334 0 0 0 .039-.115.49.49 0 0 1 .041-.129.217.217 0 0 0 .027-.078c0-.041.051-.082.104-.082.049 0 .125.049.203.131.023.025.047.045.053.045s.043.031.084.068c.041.037.082.068.09.068s.035.021.061.049c.025.027.055.049.066.049s.029.012.037.025a.36.36 0 0 0 .09.07c.039.023.072.053.072.063s.008.018.018.018c.012 0 .049.025.084.059.035.031.074.059.088.059.012 0 .031.012.039.025.025.039.195.162.279.201a.111.111 0 0 1 .045.041c.008.014.023.025.033.025s.041.021.07.049a.28.28 0 0 0 .1.061c.025.008.045.021.045.035 0 .012.037.039.084.061a.617.617 0 0 1 .131.084.28.28 0 0 0 .094.055c.023.008.043.02.043.029s.012.018.025.018c.014 0 .061.025.104.057a.427.427 0 0 0 .121.068c.023.008.043.021.043.031 0 .008.023.021.053.029.029.006.059.02.064.025.018.025.264.141.295.141.018 0 .037.014.045.029.006.016.035.029.064.029.031 0 .072.012.094.027a.658.658 0 0 0 .313.039c.043-.01.049-.021.049-.105 0-.086-.006-.098-.063-.133a.463.463 0 0 0-.141-.049c-.043-.008-.082-.02-.088-.029s-.037-.023-.07-.031a3.404 3.404 0 0 1-.44-.207c-.006-.006-.051-.029-.102-.055s-.098-.053-.104-.064c-.008-.01-.029-.018-.051-.018-.02 0-.037-.014-.037-.029s-.012-.029-.027-.029c-.014 0-.037-.014-.051-.029s-.041-.029-.063-.029c-.02 0-.041-.012-.047-.027s-.031-.033-.059-.039c-.025-.008-.047-.021-.047-.031 0-.012-.012-.02-.027-.02s-.031-.012-.037-.025a.269.269 0 0 0-.084-.063c-.043-.021-.084-.049-.092-.063s-.027-.025-.039-.025c-.014 0-.051-.023-.084-.055a.637.637 0 0 0-.178-.121c-.025-.01-.045-.027-.045-.039 0-.01-.014-.02-.029-.02s-.029-.008-.029-.016-.039-.041-.088-.072a1.393 1.393 0 0 1-.227-.176c-.018-.016-.037-.029-.045-.029s-.033-.021-.059-.049c-.025-.027-.053-.049-.063-.049s-.049-.031-.086-.068a.524.524 0 0 0-.121-.094c-.029-.012-.055-.035-.055-.047 0-.014-.008-.025-.02-.025-.01 0-.037-.018-.059-.039s-.039-.049-.039-.059c0-.012-.014-.02-.029-.02-.018 0-.029-.018-.029-.049 0-.027.014-.055.029-.061.016-.008.029-.023.029-.039s.01-.027.02-.027c.012 0 .035-.016.055-.035l.129-.111a3.83 3.83 0 0 0 .221-.201c.07-.066.135-.121.145-.121s.018-.014.018-.029c0-.016.014-.029.029-.029s.029-.01.029-.02c0-.02.207-.229.42-.424.049-.045.088-.09.088-.102s.014-.021.029-.021c.016 0 .029-.014.029-.029s.014-.029.029-.029c.016 0 .029-.014.029-.029s.014-.029.029-.029c.016 0 .029-.014.029-.029s.014-.029.029-.029c.016 0 .029-.014.029-.029s.014-.029.029-.029c.016 0 .029-.014.029-.029s.014-.029.029-.029c.016 0 .029-.014.029-.029s.014-.029.029-.029c.016 0 .029-.014.029-.029s.014-.029.029-.029c.016 0 .029-.014.029-.029s.014-.029.029-.029c.016 0 .029-.014.029-.029s.014-.029.029-.029c.016 0 .029-.014.029-.029s.014-.029.029-.029c.016 0 .029-.014.029-.029s.01-.029.021-.029a.41.41 0 0 0 .102-.09c.178-.195.402-.418.422-.418.012 0 .021-.014.021-.029s.014-.029.029-.029c.016 0 .029-.008.029-.018s.195-.215.436-.457c.563-.569.854-.875.854-.895 0-.01.01-.018.02-.018.012 0 .02-.014.02-.029s.014-.029.029-.029c.049 0 .037-.133-.014-.188-.025-.025-.057-.047-.07-.047-.047 0-.145.082-.307.254l-.297.309c-.078.078-.143.15-.143.16 0 .012-.014.02-.029.02s-.029.008-.029.018c0 .021-.195.217-.217.217-.01 0-.018.014-.018.029s-.014.029-.029.029c-.016 0-.029.014-.029.029s-.014.029-.029.029c-.016 0-.029.01-.029.02 0 .027-1.907 1.934-1.934 1.934-.01 0-.02.014-.02.029s-.014.029-.029.029c-.016 0-.029.014-.029.029s-.014.029-.029.029c-.016 0-.029.014-.029.029s-.008.029-.018.029a.478.478 0 0 0-.115.092c-.164.16-.283.26-.311.26-.014 0-.025.014-.025.031s-.012.027-.023.023c-.039-.014-.043-.16-.006-.191.016-.014.029-.053.029-.086 0-.035.014-.08.029-.102.016-.02.029-.061.029-.09s.014-.064.029-.082c.016-.016.029-.051.029-.078s.008-.051.02-.051c.01 0 .023-.033.029-.074a.459.459 0 0 1 .041-.125.23.23 0 0 0 .027-.098c0-.023.014-.063.029-.082a.144.144 0 0 0 .029-.072c0-.018.014-.059.029-.088a.272.272 0 0 0 .029-.098c0-.023.014-.053.029-.066s.029-.049.029-.078c0-.029.014-.064.029-.078s.029-.053.029-.088c0-.035.014-.074.029-.088s.029-.049.029-.076c0-.029.014-.07.029-.092a.154.154 0 0 0 .029-.082c0-.023.008-.043.02-.043.01 0 .023-.033.029-.074.008-.039.02-.09.029-.111s.023-.068.029-.104c.008-.033.021-.063.031-.063s.018-.02.018-.045c0-.023.014-.068.029-.1a.253.253 0 0 0 .029-.074c0-.012.014-.047.029-.08.016-.035.051-.129.076-.209.072-.225.143-.414.176-.479.018-.033.031-.078.031-.102s.01-.049.02-.055c.012-.006.02-.037.02-.066s.014-.07.029-.092a.153.153 0 0 0 .029-.078c0-.023.014-.053.029-.066s.029-.043.029-.066c0-.023.014-.061.029-.082.016-.02.029-.064.029-.098s.014-.072.029-.086c.016-.014.029-.047.029-.076s.012-.068.027-.09a.348.348 0 0 0 .033-.25c-.018-.047-.031-.053-.109-.053s-.092.006-.113.053zM19.532 23.24a.247.247 0 0 0-.084.086c-.031.063-.039.156-.012.156.01 0 .021.018.027.039.021.086.199.104.281.027.045-.041.055-.066.055-.141 0-.053-.01-.092-.023-.098-.014-.004-.025-.018-.025-.029 0-.025-.09-.072-.135-.072a.258.258 0 0 0-.084.031zM31.478 23.236c-.035.01-.064.029-.064.043 0 .012-.014.033-.029.047-.045.037-.035.139.018.205.041.051.061.059.139.059.082 0 .1-.008.148-.068.031-.037.057-.08.057-.096 0-.059-.07-.176-.111-.186l-.068-.02a.251.251 0 0 0-.088.016zM8.215 23.363c-.045.01-.061.025-.07.076-.008.037-.023.076-.035.088s-.021.045-.021.072a.191.191 0 0 1-.029.09c-.016.02-.029.055-.029.076s-.014.057-.029.076a.179.179 0 0 0-.029.092c0 .027-.012.063-.027.074s-.031.051-.037.086c-.01.074-.043.168-.127.365-.02.049-.043.121-.051.162-.008.039-.021.072-.029.072-.01 0-.021.029-.027.063-.016.111-.111.348-.156.383a.504.504 0 0 1-.131.047c-.094.021-.107.031-.113.078s.002.055.068.066c.041.01.211.016.377.018h.301l.02-.057c.018-.047.014-.061-.025-.092a.213.213 0 0 0-.119-.037c-.041 0-.084-.012-.096-.027-.027-.031-.01-.17.029-.25a.217.217 0 0 0 .027-.084c0-.041.057-.1.111-.115.025-.008.18-.016.344-.018.256-.002.307.002.352.031.029.02.053.049.053.068s.012.051.027.072c.035.053.055.24.029.285-.012.023-.041.037-.078.037-.123 0-.209.117-.109.154.023.008.213.021.418.029.404.014.455.004.455-.08 0-.053-.068-.104-.143-.104s-.131-.033-.131-.074a.146.146 0 0 0-.027-.072.277.277 0 0 1-.035-.098 1.093 1.093 0 0 0-.086-.248c-.016-.027-.027-.064-.027-.08s-.014-.055-.029-.084a.286.286 0 0 1-.029-.109c0-.027-.01-.055-.02-.059-.012-.004-.025-.041-.033-.084-.006-.043-.02-.084-.029-.09s-.023-.045-.029-.088c-.008-.041-.023-.088-.039-.102-.014-.014-.025-.051-.025-.08s-.01-.063-.021-.074a.255.255 0 0 1-.037-.098 1.774 1.774 0 0 0-.092-.281c-.025-.064-.039-.072-.117-.084a.861.861 0 0 0-.289.006zm.164.354a.854.854 0 0 1 .053.143c.006.033.02.074.027.092.031.057.137.412.137.453a.129.129 0 0 1-.033.078c-.027.031-.064.035-.283.035-.209 0-.25-.004-.25-.029 0-.016-.008-.029-.02-.029-.01 0-.02-.021-.02-.047 0-.027.01-.055.02-.061.012-.006.02-.045.02-.086s.012-.086.027-.098c.016-.012.031-.051.037-.086.01-.061.119-.389.141-.426.008-.01.033-.018.059-.018.037 0 .057.02.086.078zM22.687 23.359c-.033.006-.045.021-.045.057 0 .07.043.105.127.105a.4.4 0 0 1 .139.031l.066.031v.758c0 .844.004.82-.131.82-.098 0-.201.053-.201.105 0 .072.08.088.492.092.35.004.389.002.426-.031.078-.072.02-.166-.107-.166-.133 0-.137-.008-.137-.281v-.244l.066-.055c.037-.029.084-.07.104-.09.02-.018.045-.033.055-.033.012 0 .02-.008.02-.018s.018-.021.037-.027c.047-.012.137.072.209.197.029.051.063.102.074.113s.035.043.051.066c.016.023.045.061.064.082.018.023.033.053.033.066s.008.027.02.031c.01.002.031.039.049.078.027.068.027.074-.008.094a.246.246 0 0 1-.086.02c-.051 0-.111.055-.111.102 0 .018.021.045.049.063.039.025.109.031.434.031.418-.002.465-.012.451-.102-.004-.037-.025-.049-.137-.076-.135-.033-.203-.084-.262-.199-.016-.029-.037-.053-.047-.053-.012 0-.02-.012-.02-.027s-.014-.031-.029-.039c-.016-.006-.029-.02-.029-.029s-.025-.049-.059-.084c-.031-.035-.059-.074-.059-.088s-.014-.025-.029-.025c-.016 0-.029-.01-.029-.021s-.053-.092-.117-.178a.738.738 0 0 1-.117-.201c0-.059.057-.125.332-.391a3.61 3.61 0 0 0 .25-.25c.004-.008.02-.014.033-.014s.029-.01.033-.021c.004-.012.051-.025.104-.031.129-.012.186-.041.186-.096 0-.025-.01-.051-.021-.059-.025-.016-.719-.025-.824-.012-.072.01-.074.012-.068.08s.008.07.107.088c.076.012.104.025.111.057.014.055-.014.098-.119.184a3.783 3.783 0 0 0-.225.205.92.92 0 0 1-.152.133c-.012 0-.02.014-.02.029s-.014.029-.029.029c-.016 0-.029.014-.029.029s-.014.029-.029.029c-.016 0-.029.014-.029.029s-.012.029-.027.029c-.016 0-.031.008-.035.018-.002.008-.025.023-.049.029-.035.012-.049.004-.063-.031a4.239 4.239 0 0 1-.012-.713c.014-.045.063-.064.158-.064.07 0 .105-.031.105-.092a.062.062 0 0 0-.043-.061c-.047-.018-.776-.025-.85-.01zM15.193 23.398c-.008.006-.014.029-.014.049s-.008.035-.02.035c-.01 0-.025.023-.031.053-.031.127-.232.389-.346.447-.039.021-.053.041-.049.072.006.037.02.043.1.049s.096.014.111.055c.012.027.02.242.02.477s.008.432.018.438c.01.006.023.033.029.063.014.053.104.143.145.145.012 0 .023.008.023.018 0 .023.166.039.287.027.072-.008.119-.025.154-.057.027-.025.057-.047.068-.047.01 0 .018-.014.018-.029 0-.018.014-.051.029-.076.035-.053.047-.354.016-.385-.014-.014-.033-.014-.063.006-.033.02-.041.045-.041.133 0 .213-.158.338-.303.242-.027-.018-.049-.043-.049-.057s-.012-.029-.023-.033c-.037-.014-.047-.86-.012-.889a.89.89 0 0 1 .231-.039l.205-.016.012-.121-.193-.012c-.275-.014-.277-.016-.277-.32 0-.221-.01-.264-.045-.227zM30.326 23.457c-.006.02-.027.072-.047.117a.466.466 0 0 0-.037.102c0 .012-.008.021-.02.021-.01 0-.02.012-.02.027 0 .039-.225.266-.264.266-.023 0-.031.014-.025.053.006.049.016.055.084.061a.251.251 0 0 1 .098.025c.012.012.023.213.029.483.01.445.012.465.057.537a.445.445 0 0 0 .127.125c.068.045.1.051.24.051.119 0 .174-.008.211-.033.129-.084.17-.174.182-.389l.008-.15h-.061c-.059 0-.061.002-.061.096 0 .246-.203.381-.35.234l-.061-.061v-.432c0-.238.008-.443.016-.455.02-.029.15-.055.275-.051s.178-.021.178-.082c0-.047-.004-.047-.207-.055-.264-.008-.262-.006-.262-.303 0-.209-.002-.221-.039-.221a.065.065 0 0 0-.053.033zM10.487 23.945c-.02.004-.035.018-.035.027s-.016.018-.033.018c-.02 0-.061.029-.094.064-.098.109-.164.109-.166.002 0-.078-.082-.109-.25-.096-.215.018-.258.027-.258.063 0 .047.061.082.139.084.057 0 .074.008.084.043.016.064.014.94-.004.967a.384.384 0 0 1-.121.059c-.082.029-.109.049-.113.08-.006.031.008.049.047.063.068.027.545.037.639.014.064-.018.074-.025.068-.07-.006-.043-.023-.057-.117-.09l-.113-.039v-.352c0-.281.006-.361.029-.393a.14.14 0 0 0 .029-.072c0-.057.059-.143.119-.178a.495.495 0 0 1 .215-.037l.16-.002.063.072a.408.408 0 0 1 .076.135c.006.033.012.225.012.428 0 .307-.006.371-.031.397a.1.1 0 0 1-.064.031c-.07 0-.139.047-.139.098 0 .078.074.098.371.096.301-.002.371-.021.371-.098 0-.055-.043-.084-.148-.105-.041-.008-.066-.025-.074-.055a4.562 4.562 0 0 1-.012-.414c0-.629-.076-.756-.453-.75-.09.002-.178.006-.195.012zM12.024 23.945a.182.182 0 0 0-.076.027c-.012.01-.039.018-.063.018s-.047.014-.055.029c-.006.016-.023.029-.037.029-.016 0-.051.029-.08.066-.096.125-.057.285.078.322.152.043.285-.123.193-.244a.17.17 0 0 1-.029-.092v-.053h.172c.152 0 .18.006.223.043.125.115.148.25.063.361-.027.035-.061.064-.074.064-.016 0-.031.014-.039.029-.006.016-.031.029-.059.029-.025 0-.051.014-.059.029-.006.016-.031.029-.055.029a.16.16 0 0 0-.082.029c-.021.016-.061.029-.086.029s-.059.014-.074.029a.117.117 0 0 1-.068.029c-.02 0-.037.008-.037.02 0 .01-.01.02-.023.02s-.053.033-.088.072c-.053.063-.064.09-.064.172 0 .156.111.283.25.283.072 0 .078-.016.025-.07a.285.285 0 0 1-.064-.275c.029-.109.135-.221.207-.221a.14.14 0 0 0 .078-.029c.016-.016.059-.029.096-.029a.332.332 0 0 0 .129-.033c.031-.02.064-.027.074-.02.008.01.018.082.021.16.008.125.002.154-.037.219-.051.084-.164.201-.193.201-.012 0-.02.008-.02.02 0 .01.008.02.018.02a.4.4 0 0 0 .164-.094c.029-.045.111-.025.182.045a.3.3 0 0 0 .086.068c.012 0 .02.008.02.02s.072.02.178.02c.133 0 .191-.008.234-.033.031-.02.057-.041.057-.051s.014-.029.029-.045a.129.129 0 0 0 .029-.074c0-.025.01-.072.021-.107a.194.194 0 0 0-.027-.186c-.027-.037-.029-.037-.059.021a.564.564 0 0 0-.045.158c-.01.074-.023.107-.059.131-.064.041-.131.037-.188-.016-.049-.041-.051-.051-.063-.393-.02-.535-.053-.637-.238-.725a1.049 1.049 0 0 0-.486-.055zM13.783 23.939l-.107.033a.474.474 0 0 0-.117.047c-.016.014-.043.027-.059.033s-.051.053-.076.104a.327.327 0 0 0 .025.352c.029.037.064.068.078.068.016 0 .031.014.039.029.006.016.031.029.057.029.027 0 .059.014.072.029s.043.029.066.029c.023 0 .061.014.082.029.02.016.07.029.111.029.039 0 .072.008.072.02 0 .01.016.02.035.02.021 0 .063.021.092.047.045.039.055.064.057.137.002.107-.035.148-.182.197-.102.033-.156.031-.303-.006-.096-.025-.109-.049-.096-.16.014-.109-.023-.156-.121-.156-.072 0-.166.078-.166.139 0 .104.123.258.225.283.027.006.055.02.061.029s.131.018.279.018c.213 0 .283-.008.336-.033.037-.018.07-.037.076-.043s.027-.021.049-.033a.187.187 0 0 0 .061-.064.338.338 0 0 1 .045-.066c.033-.033.027-.279-.008-.315-.016-.016-.029-.035-.029-.043 0-.021-.127-.131-.195-.17-.033-.018-.082-.033-.105-.033s-.061-.014-.082-.029a.147.147 0 0 0-.078-.029.669.669 0 0 1-.137-.031c-.203-.068-.262-.199-.141-.318.061-.061.064-.061.258-.061.166.002.205.008.242.039.041.035.045.049.033.137s-.008.104.031.137c.055.049.086.049.166-.002.055-.033.066-.053.066-.109 0-.188-.172-.289-.52-.309a1.215 1.215 0 0 0-.193-.002zM16.459 23.945a.215.215 0 0 0-.076.027.08.08 0 0 1-.043.018c-.053 0-.162.092-.201.168-.055.107-.051.156.016.225a.195.195 0 0 0 .246.025c.041-.027.049-.047.049-.137 0-.059-.008-.105-.018-.105-.027 0-.039-.072-.016-.096a.458.458 0 0 1 .174-.021c.127 0 .164.008.211.043.033.023.059.053.059.066 0 .012.014.033.029.047.049.039.037.168-.021.246-.029.037-.064.066-.078.066-.016 0-.027.008-.027.018 0 .025-.158.1-.211.1-.023 0-.043.008-.043.02 0 .01-.035.025-.078.031-.043.008-.088.025-.1.039a.072.072 0 0 1-.051.027.36.36 0 0 0-.158.102.176.176 0 0 1-.039.047c-.043.045-.041.199.004.285.059.109.141.141.348.139.098-.002.184-.012.189-.021s.029-.023.051-.031a.316.316 0 0 0 .092-.059c.088-.084.139-.084.213-.004.035.039.074.07.088.07s.027.01.031.021c.004.014.072.021.191.021s.188-.008.191-.021c.004-.012.02-.021.033-.021.041 0 .084-.086.117-.232.027-.117.027-.147.006-.191-.043-.092-.082-.068-.105.063-.039.217-.041.223-.115.236-.193.035-.225-.031-.225-.492 0-.324-.014-.436-.063-.516a.535.535 0 0 1-.027-.064c-.008-.018-.023-.033-.037-.033s-.029-.012-.035-.027c-.006-.014-.035-.031-.066-.037a3.651 3.651 0 0 1-.133-.031 1.28 1.28 0 0 0-.371-.008zm.428.721c.041.039.039.148-.002.238-.037.084-.139.199-.174.199a.033.033 0 0 0-.031.023c-.01.029-.268.045-.305.02-.045-.031-.053-.168-.012-.236.02-.033.047-.061.061-.061s.025-.006.025-.016c0-.008.041-.035.094-.059.162-.08.199-.104.199-.123 0-.029.111-.02.145.014zM18.198 23.945a.215.215 0 0 0-.076.027.08.08 0 0 1-.047.018c-.039 0-.18.115-.18.147a.04.04 0 0 1-.023.033c-.018.006-.025.053-.025.143s.008.137.025.141c.012.006.023.021.023.035 0 .031.141.147.182.147.016 0 .039.014.053.029s.053.029.088.029c.035 0 .074.014.088.029s.055.029.09.029c.037 0 .082.008.102.018.018.01.059.027.088.039.031.012.061.039.066.061s.018.039.027.039c.01 0 .018.029.018.066 0 .078-.09.188-.152.188-.023 0-.047.008-.053.02-.031.049-.375-.002-.412-.063-.008-.012-.002-.055.012-.096.021-.063.021-.086 0-.123-.049-.094-.215-.074-.252.031-.025.072-.006.211.029.225.016.006.027.021.027.037s.014.027.029.027c.016 0 .029.008.029.02 0 .01.012.02.025.02a.27.27 0 0 1 .082.031c.094.051.537.047.654-.006.303-.135.342-.483.074-.68a1.194 1.194 0 0 0-.387-.148.31.31 0 0 1-.105-.037.091.091 0 0 0-.059-.02c-.043 0-.148-.109-.148-.156 0-.041.045-.137.064-.137.01 0 .029-.014.045-.029.023-.021.078-.029.225-.029.24 0 .272.021.272.184 0 .164.076.213.195.125.049-.035.059-.057.059-.125 0-.072-.012-.096-.074-.16a.333.333 0 0 0-.133-.088c-.211-.043-.264-.051-.369-.049a2.712 2.712 0 0 0-.176.01zM19.259 23.947c-.021.004-.035.025-.035.055 0 .037.016.057.068.078a.41.41 0 0 0 .115.027c.098 0 .109.057.109.51 0 .488-.012.533-.141.553-.109.018-.152.045-.152.096 0 .074.078.092.401.092.313 0 .381-.018.381-.098 0-.049-.072-.098-.141-.098-.039 0-.061-.014-.072-.045a6.175 6.175 0 0 1-.025-.596 6.95 6.95 0 0 0-.023-.565 2.807 2.807 0 0 0-.485-.01zM20.64 23.953l-.133.031c-.031.006-.061.023-.066.037-.006.016-.018.027-.027.027-.047 0-.154.164-.154.232 0 .023.014.047.029.053.016.008.029.023.029.035 0 .035.088.076.156.074.072-.002.156-.082.156-.148 0-.025-.014-.084-.029-.129s-.023-.09-.018-.1a.6.6 0 0 1 .195-.018c.15 0 .184.006.184.029 0 .016.014.029.029.029s.029.012.029.027c0 .016.012.031.025.035.016.006.023.053.023.143s-.008.137-.023.141c-.014.006-.025.021-.025.035s-.016.029-.033.037a.342.342 0 0 0-.064.027.521.521 0 0 1-.189.082.143.143 0 0 0-.072.029.163.163 0 0 1-.082.029.116.116 0 0 0-.07.025.18.18 0 0 1-.074.039.37.37 0 0 0-.189.176.293.293 0 0 0 .086.342.497.497 0 0 0 .24.064c.131-.004.332-.066.332-.104 0-.008.012-.016.025-.016.016 0 .043-.018.063-.039.053-.059.088-.049.191.053l.096.09.172.002c.156 0 .176-.004.24-.053a.223.223 0 0 0 .082-.111c.008-.031.021-.063.031-.068a.419.419 0 0 0 .018-.158v-.147l-.053.006c-.053.006-.055.012-.061.127-.004.074-.016.129-.033.143-.016.014-.029.035-.029.049 0 .033-.096.055-.16.039-.09-.023-.109-.115-.117-.537-.006-.291-.016-.393-.037-.43-.063-.105-.086-.137-.107-.137-.014 0-.027-.014-.035-.029-.006-.016-.031-.029-.057-.029s-.053-.008-.064-.02c-.027-.027-.336-.041-.428-.018zm.432.752c.021.119-.031.32-.084.32-.014 0-.025.012-.025.023 0 .045-.191.123-.297.123-.078 0-.104-.01-.135-.047-.1-.123.006-.283.256-.381a.305.305 0 0 0 .123-.086c.008-.012.045-.023.082-.023.061 0 .068.006.08.07zM25.534 23.945a.147.147 0 0 0-.066.027c-.012.01-.039.018-.063.018s-.047.014-.055.029c-.006.016-.021.029-.037.029-.031 0-.15.119-.15.152 0 .014-.008.023-.016.023-.041 0-.141.293-.141.412 0 .15.094.397.189.496.147.154.248.191.502.191.205-.002.197 0 .402-.107.059-.031.117-.088.117-.113 0-.012.008-.02.018-.02s.037-.041.061-.094c.023-.051.053-.111.064-.135.025-.057.027-.383 0-.442a1.512 1.512 0 0 1-.047-.107c-.029-.08-.193-.258-.238-.258-.018 0-.033-.014-.033-.029 0-.02-.02-.029-.057-.029-.031 0-.061-.01-.064-.02-.008-.023-.309-.043-.387-.025zm.379.2c.07.047.129.135.129.197a.17.17 0 0 0 .029.086c.039.053.039.354 0 .422a.25.25 0 0 0-.029.092.127.127 0 0 1-.029.072c-.016.016-.029.037-.029.049s-.01.021-.02.021a.196.196 0 0 0-.076.041c-.115.086-.393.039-.467-.078a.412.412 0 0 0-.045-.061c-.039-.033-.078-.238-.07-.373.01-.156.049-.33.076-.33.008 0 .016-.012.016-.023 0-.014.029-.053.064-.086.061-.061.07-.063.229-.064.133-.002.178.006.223.035zM27.382 23.959a.218.218 0 0 1-.082.031c-.016 0-.033.014-.039.029-.008.016-.023.029-.037.029s-.029.018-.035.039c-.018.072-.084.047-.131-.049l-.043-.09-.246.006c-.219.006-.248.01-.254.041-.01.049.072.109.147.111.125 0 .123-.016.123.801v.738l-.053.02-.133.047c-.061.021-.08.037-.084.078-.006.045.004.053.082.072.049.012.217.021.373.021.248 0 .293-.004.332-.035.041-.031.043-.043.023-.084-.018-.031-.047-.051-.092-.059-.164-.027-.176-.043-.176-.244 0-.186.016-.242.068-.242.047 0 .166.055.189.088.008.01.088.018.182.016.18 0 .27-.031.358-.123.066-.068.141-.188.141-.229 0-.02.014-.053.029-.072.043-.057.041-.524 0-.559-.016-.014-.029-.045-.029-.07s-.008-.047-.02-.047c-.01 0-.02-.012-.02-.025 0-.037-.141-.18-.213-.215-.1-.049-.291-.063-.361-.025zm.191.178c.016.016.035.029.043.029.021 0 .063.059.111.156.039.078.043.117.041.342-.002.26-.006.275-.096.408-.061.092-.313.172-.352.111-.006-.01-.035-.023-.064-.031-.037-.008-.076-.043-.121-.113l-.066-.102-.002-.264c0-.221.006-.279.039-.356.021-.053.045-.094.055-.094.008 0 .014-.014.014-.029s.014-.029.029-.029a.047.047 0 0 0 .041-.029c.01-.021.045-.029.154-.029.102 0 .152.008.174.029zM28.894 23.951l-.123.031c-.094.021-.244.162-.322.299a1.096 1.096 0 0 0-.102.363c0 .074.045.242.08.303a.72.72 0 0 1 .039.082c.012.031.029.055.039.055s.018.008.018.02c0 .035.082.102.193.158.102.051.127.057.328.057.125 0 .223-.008.231-.02.006-.012.023-.02.039-.02.033 0 .186-.1.186-.121 0-.008.014-.016.029-.016s.029-.014.029-.029c0-.016.008-.029.018-.029s.025-.02.033-.045a.205.205 0 0 1 .037-.072.784.784 0 0 0 .057-.18.494.494 0 0 0 0-.309.564.564 0 0 0-.061-.186c-.014-.016-.025-.035-.025-.045 0-.031-.172-.199-.203-.199-.014 0-.031-.014-.039-.029-.006-.016-.029-.029-.051-.029a.165.165 0 0 1-.076-.02.889.889 0 0 0-.354-.02zm.332.172c0 .01.021.027.047.043a.125.125 0 0 1 .059.07c.008.025.021.047.031.047.012 0 .02.023.02.053a.294.294 0 0 0 .029.104c.039.066.039.324 0 .399a.245.245 0 0 0-.029.094c0 .076-.131.199-.244.229-.147.037-.358-.025-.389-.115a.515.515 0 0 0-.027-.059c-.072-.125-.082-.168-.082-.336 0-.217.051-.379.152-.477.068-.066.07-.066.252-.066.1 0 .182.008.182.016zM31.215 23.943c-.049.016-.047.117.002.145.021.01.07.02.107.02.047 0 .074.012.088.035.027.051.031.899.004.965-.016.041-.033.055-.076.055-.092 0-.16.043-.16.1 0 .086.055.098.41.092l.322-.006.006-.07c.006-.064 0-.072-.059-.094l-.107-.043-.045-.018v-.561c0-.32-.008-.574-.02-.592-.014-.023-.064-.029-.229-.033a2.15 2.15 0 0 0-.244.006zM32.016 23.943c-.047.014-.045.076.004.125a.156.156 0 0 0 .113.039c.088 0 .115.025.178.166.023.053.053.113.063.131.01.02.018.053.018.074s.008.039.02.039c.01 0 .025.035.031.078.008.043.025.088.039.1.016.012.027.043.027.066s.014.055.029.068a.088.088 0 0 1 .029.057c0 .02.014.051.029.072a.14.14 0 0 1 .029.072.15.15 0 0 0 .02.068.568.568 0 0 1 .086.326.47.47 0 0 1-.035.195.244.244 0 0 0-.031.082c0 .014-.008.025-.02.025-.01 0-.02.012-.02.025s-.031.055-.07.088c-.053.047-.088.063-.147.063h-.076v-.145c0-.174-.023-.207-.145-.207s-.158.047-.154.199c.002.105.008.123.059.164.029.025.07.045.088.047.018 0 .035.01.039.023.006.016.064.027.16.031.129.008.168.002.24-.035.09-.045.24-.186.24-.227 0-.014.006-.027.016-.031a.593.593 0 0 0 .102-.225.12.12 0 0 1 .016-.057.667.667 0 0 0 .063-.145c.025-.07.059-.148.072-.176s.025-.064.025-.082c0-.018.01-.039.02-.045.012-.006.02-.037.02-.066s.014-.07.029-.092c.016-.02.029-.057.029-.08s.012-.066.027-.098a1.08 1.08 0 0 0 .1-.256c.008-.033.022-.063.031-.063s.018-.023.018-.051c0-.084.072-.184.133-.184a.201.201 0 0 0 .098-.039c.039-.031.041-.043.02-.076-.022-.035-.049-.039-.27-.045a2.597 2.597 0 0 0-.277.002c-.074.016-.055.158.022.158.049 0 .1.082.086.135-.006.021-.018.041-.027.041s-.018.025-.018.057c0 .033-.008.064-.02.07-.01.006-.02.029-.02.051a.85.85 0 0 1-.037.148c-.02.063-.049.156-.063.207-.039.137-.104.197-.166.154a.642.642 0 0 1-.076-.17 8.522 8.522 0 0 0-.164-.449c-.055-.117-.041-.244.025-.244.037 0 .109-.059.109-.09 0-.049-.07-.063-.391-.072a4.557 4.557 0 0 0-.375-.002zM16.5 27.872c-.053.004-.107.02-.121.035-.023.021-.027.119-.023.512.006.453.008.485.043.49.061.012.08-.031.09-.211a.842.842 0 0 1 .025-.188c.02-.021.199-.033.275-.02l.07.014v.174c0 .176.021.234.086.234.057 0 .07-.1.07-.533-.002-.352-.006-.442-.029-.473-.025-.031-.057-.037-.211-.041a2.76 2.76 0 0 0-.275.006zm.35.309v.137l-.338.012-.008-.068a.9.9 0 0 1 0-.147l.008-.082.338.012v.137zM26.624 27.876a.85.85 0 0 0-.229.031c-.025.025-.035.961-.012.985.021.021.137.027.395.023.135-.002.188-.01.209-.033.045-.043.047-.965.004-.965-.016 0-.031-.008-.035-.018-.01-.027-.111-.035-.332-.023zm.234.211c.016.035.023.15.023.332 0 .361-.008.377-.195.377-.197 0-.195.006-.195-.399 0-.186.006-.344.014-.35a.59.59 0 0 1 .17-.014c.152 0 .158.002.184.053zM27.669 27.874c-.035.004-.066.02-.074.039-.02.051-.012.967.008.987a.47.47 0 0 0 .172.012c.115-.006.164-.018.189-.043.041-.041.09-.043.09-.004 0 .016.006.029.016.029.008 0 .033.006.055.012.059.016.086-.074.086-.287 0-.191-.023-.264-.088-.279-.072-.018-.164.008-.178.051-.012.041.039.113.082.113.033 0 .053.104.037.207l-.012.086h-.145c-.209 0-.205.008-.205-.401 0-.203.008-.344.02-.352.01-.006.105-.014.209-.016.105-.002.203-.012.217-.02.035-.023.029-.088-.01-.109-.037-.018-.358-.035-.469-.025zM12.802 27.897c-.055.023-.059.078-.006.078.021 0 .074.016.117.033l.078.035v.401c0 .221.008.41.016.424.008.012.031.025.053.029.037.006.039-.008.049-.408.006-.238.018-.422.029-.432s.057-.027.104-.041c.092-.025.119-.064.082-.109-.02-.023-.072-.029-.252-.027-.125 0-.246.008-.27.018zM13.986 27.915c-.047.037-.047.041-.053.485-.004.363 0 .453.021.485.025.033.035.035.08.014.049-.021.051-.027.051-.207 0-.178.002-.184.047-.195.092-.023.186.053.188.147 0 .029.014.063.029.076s.029.039.029.057c.002.043.061.111.113.127.057.02.076-.031.039-.092a.35.35 0 0 1-.043-.098c-.006-.029-.021-.053-.031-.053-.012 0-.02-.035-.02-.078s.01-.078.02-.078a.23.23 0 0 0 .078-.043l.059-.043v-.242c0-.209-.004-.248-.033-.27-.025-.018-.107-.025-.281-.027-.215 0-.254.006-.293.037zm.461.19a.503.503 0 0 1 0 .145l-.012.072-.125.014a.502.502 0 0 1-.174-.008c-.049-.018-.051-.025-.051-.156v-.137h.348l.014.07zM15.191 27.909a.11.11 0 0 0-.031.072c-.006.248.004.83.014.875l.012.057h.18c.246 0 .424-.02.414-.047-.004-.012-.063-.027-.133-.033a2.089 2.089 0 0 1-.236-.035l-.113-.023v-.135c0-.133 0-.133.059-.147.033-.008.059-.021.059-.031s.039-.018.088-.018c.064 0 .088-.008.088-.029 0-.037-.061-.068-.135-.068a.339.339 0 0 1-.109-.02c-.049-.018-.051-.025-.045-.148l.006-.131.098-.025a.877.877 0 0 1 .205-.023c.125.004.195-.016.195-.051 0-.047-.102-.066-.346-.068-.191-.002-.242.004-.268.029zM17.608 27.907c-.014.016-.025.035-.025.045 0 .021.141.082.186.082.014 0 .033.012.043.023.008.014.02.209.025.436l.01.41h.098l.02-.856.094-.023c.117-.029.148-.057.119-.104-.02-.027-.061-.033-.283-.037-.207-.004-.268 0-.285.023zM18.809 27.899c-.031.018-.035.064-.035.516v.498h.047c.027 0 .055-.01.063-.023.008-.012.02-.154.027-.316s.021-.311.029-.33c.021-.051.049-.039.049.023 0 .031.014.066.029.08s.029.049.029.078c0 .029.014.064.029.078s.029.053.029.086c0 .035.014.08.029.102.016.02.029.068.029.107 0 .133.154.172.207.055a.935.935 0 0 0 .082-.262c.004-.043.018-.084.029-.09.01-.008.023-.059.029-.115.006-.061.02-.105.035-.111s.027-.021.027-.037c0-.016.014-.027.029-.027.025 0 .029.047.029.297 0 .164.006.318.012.342.014.049.057.07.107.055.035-.012.037-.041.037-.49 0-.389-.006-.485-.027-.508-.031-.031-.188-.037-.188-.008 0 .01-.014.02-.029.02-.018 0-.029.02-.029.051a.13.13 0 0 1-.029.078.16.16 0 0 0-.029.092.325.325 0 0 1-.029.119.268.268 0 0 0-.029.105c0 .08-.094.262-.133.254-.018-.004-.037-.027-.039-.055-.004-.025-.02-.064-.035-.086s-.027-.068-.027-.102a.315.315 0 0 0-.029-.117.277.277 0 0 1-.029-.105c-.002-.027-.014-.07-.029-.098s-.027-.068-.029-.092a.085.085 0 0 0-.037-.064c-.049-.025-.158-.025-.201.002zM20.362 27.905c-.045.021-.045.023-.045.504 0 .459.002.485.037.504.045.023.588.004.631-.021.02-.014.02-.023-.008-.049-.021-.021-.07-.033-.147-.035-.34-.012-.318-.008-.338-.061a.405.405 0 0 1-.006-.145l.012-.098.143-.033c.152-.033.172-.045.152-.092-.008-.02-.055-.033-.156-.043l-.145-.014v-.289l.074-.004.221-.006c.111 0 .156-.008.18-.033.041-.039.041-.049.006-.086-.035-.033-.543-.035-.611 0zM21.564 27.915c-.031.031-.035.084-.035.504v.471l.045.012a.357.357 0 0 0 .059.012.975.975 0 0 0 .014-.234c0-.174.008-.252.029-.293.031-.061.088-.08.088-.029a.03.03 0 0 0 .029.029c.02 0 .029.02.029.059 0 .031.01.059.02.059.012 0 .02.01.02.023 0 .023.053.15.107.256a.252.252 0 0 1 .029.084c0 .029.074.055.131.043.033-.006.035-.037.035-.504v-.498l-.053-.006-.055-.006v.27c0 .148-.008.281-.018.297-.021.033-.1-.004-.1-.047 0-.016-.008-.029-.02-.029-.01 0-.029-.039-.041-.088s-.029-.094-.039-.1c-.01-.006-.018-.027-.018-.049s-.014-.053-.029-.068a.112.112 0 0 1-.029-.063c0-.045-.092-.141-.133-.139-.018 0-.049.016-.066.035zM22.818 27.895c-.027.008-.051.029-.055.047-.006.025.008.033.059.033.039 0 .088.02.123.047l.059.047-.006.354c-.008.373.008.471.078.471.066 0 .078-.072.074-.408-.008-.471-.012-.443.063-.459.154-.031.213-.086.135-.129-.043-.021-.451-.023-.529-.002zM23.988 27.911c-.021.025-.027.133-.027.506 0 .26.008.481.016.49.018.016.576.01.604-.006.01-.006.016-.229.016-.496 0-.461-.002-.488-.037-.508a1.432 1.432 0 0 0-.291-.02c-.211 0-.258.006-.279.033zm.467.131c.008.008.016.166.02.352.008.408.012.402-.199.402-.084 0-.15-.01-.164-.023-.016-.016-.023-.127-.023-.371 0-.344 0-.35.045-.367.047-.021.299-.014.322.008zM25.174 27.909c-.006.018-.012.236-.012.486s.006.469.012.486c.01.027.053.031.27.031.256 0 .344-.01.344-.039 0-.027-.064-.045-.27-.068-.109-.014-.207-.029-.215-.037s-.016-.199-.016-.424c-.004-.377-.006-.412-.039-.438-.049-.037-.061-.035-.074.002z"/></symbol><symbol id="viber" viewBox="0 0 32 32"><path d="M15.633 1.92c-.873.005-1.748.058-2.63.165-1.688.208-3.36.553-4.965 1.29C5.485 4.548 3.676 6.537 3.15 9.43a38.056 38.056 0 0 0-.505 3.703c-.197 2.418-.075 4.843.61 7.225.54 1.878 1.535 3.565 3.277 4.66.737.462 1.71.688 2.217.922.143.067.178.108.185.117.008.008.027.025.025.175-.018 1.53 0 4.49 0 4.49l.002.637h1.143l.185-.18s2.902-2.793 3.953-3.942c.19-.205.287-.32.307-.332.018-.012-.012-.02.182-.025 1.377-.027 2.752-.08 4.127-.155 1.813-.1 3.66-.273 5.438-1.015 1.547-.648 2.84-1.705 3.622-3.29.8-1.625 1.227-3.348 1.387-5.13.265-2.967.172-5.94-.648-8.87-.483-1.718-1.453-3.17-2.94-4.195C23.937 3 21.929 2.54 19.964 2.247a29.77 29.77 0 0 0-3.462-.317c-.29-.008-.58-.012-.873-.01zm.837 1.29c1.102.03 2.205.138 3.31.303 1.895.282 3.683.713 5.215 1.768 1.242.855 2.017 2.01 2.433 3.482.765 2.74.863 5.547.605 8.415-.148 1.652-.54 3.21-1.262 4.677-.637 1.295-1.633 2.117-2.968 2.675-1.55.648-3.235.82-5.01.918-1.36.075-2.723.125-4.085.152-.342.008-.678.098-.915.273s-.345.337-.492.497c-.75.82-2.245 2.262-3.06 3.053-.005-.955-.012-2.11 0-3.175.005-.328-.07-.663-.258-.927s-.445-.425-.693-.54c-.723-.335-1.668-.59-2.078-.848-1.433-.9-2.245-2.25-2.728-3.93-.632-2.198-.752-4.46-.565-6.762.1-1.195.273-2.393.49-3.58.455-2.502 1.885-4.077 4.16-5.122 1.438-.66 2.973-.985 4.59-1.183a21.821 21.821 0 0 1 3.31-.145zm.27 3.19c-.527 0-1.04.06-1.537.17a.641.641 0 0 0 .286 1.25c.402-.093.822-.14 1.252-.14a5.635 5.635 0 0 1 5.645 5.643c0 .432-.047.852-.14 1.258a.64.64 0 1 0 1.248.28 6.89 6.89 0 0 0 .172-1.537c0-3.815-3.108-6.923-6.925-6.923zm-6.385 1.283a1.257 1.257 0 0 0-.325.027c-1.162.258-2.317 1.1-2.35 2.605.032.21.03.435.107.625.38.93.71 1.89 1.185 2.77 2.313 4.275 5.81 7.248 10.268 9.135.532.225 1.082.273 1.62.047.74-.308 1.367-.782 1.785-1.465.573-.938.58-1.587-.363-2.28-.617-.455-1.225-.922-1.85-1.367-.953-.675-1.982-.793-2.692.392-.038.06-.093.11-.14.16-.365.387-.813.483-1.288.288-1.803-.742-3.195-1.94-4.035-3.723-.495-1.047-.36-1.572.565-2.27.092-.068.18-.14.265-.217.405-.37.512-.81.273-1.307a10.236 10.236 0 0 0-2.18-3.02c-.248-.235-.53-.383-.845-.4zm6.375.637a4.98 4.98 0 0 0-.838.07.643.643 0 0 0-.408 1.05c.152.178.393.26.622.21.2-.033.41-.05.622-.05 2.08 0 3.75 1.67 3.75 3.75 0 .213-.017.422-.05.623-.05.23.032.47.21.623a.64.64 0 0 0 1.05-.408 5.04 5.04 0 0 0-4.96-5.868zm-.09 1.92a.645.645 0 0 0-.563.318.646.646 0 0 0 0 .645c.117.2.332.32.563.318 1.067 0 1.92.853 1.92 1.92a.644.644 0 0 0 .317.563.641.641 0 0 0 .962-.563c0-1.76-1.44-3.2-3.2-3.2z"/></symbol><symbol id="whatsapp" viewBox="0 0 32 32"><path d="M16.016 2.667c-7.341 0-13.318 5.971-13.32 13.313a13.278 13.278 0 0 0 1.779 6.656l-1.807 6.698 6.977-1.648a13.318 13.318 0 0 0 6.365 1.62h.005c7.34 0 13.314-5.973 13.318-13.313a13.227 13.227 0 0 0-3.896-9.422 13.235 13.235 0 0 0-9.419-3.904zm-.003 2.666a10.6 10.6 0 0 1 7.536 3.122 10.576 10.576 0 0 1 3.115 7.534c-.003 5.872-4.779 10.648-10.654 10.648a10.672 10.672 0 0 1-5.089-1.294l-.898-.49-3.617.854.641-2.38.289-1.068-.552-.958a10.64 10.64 0 0 1-1.422-5.323c.003-5.869 4.78-10.646 10.651-10.646zm-4.711 4.5a1.22 1.22 0 0 0-.888.417c-.305.332-1.167 1.136-1.167 2.773s1.193 3.22 1.359 3.443c.165.221 2.302 3.688 5.685 5.021 2.811 1.108 3.382.889 3.992.833.611-.055 1.97-.803 2.247-1.581s.278-1.446.195-1.583c-.083-.139-.305-.221-.638-.388-.332-.167-1.968-.97-2.273-1.081s-.529-.167-.75.167c-.221.333-.857 1.081-1.052 1.302-.195.223-.388.253-.721.086-.333-.168-1.405-.52-2.677-1.654-.989-.881-1.657-1.969-1.852-2.302-.193-.332-.018-.514.148-.68.149-.149.331-.389.497-.583.165-.195.223-.333.333-.555s.054-.417-.029-.583c-.083-.167-.73-1.81-1.026-2.469-.249-.553-.513-.566-.75-.576-.193-.008-.414-.008-.635-.008z"/></symbol><symbol id="instagram" viewBox="0 0 32 32"><path d="M10.24 1.92c-4.587 0-8.32 3.733-8.32 8.32v11.52c0 4.587 3.733 8.32 8.32 8.32h11.52c4.587 0 8.32-3.733 8.32-8.32V10.24c0-4.587-3.733-8.32-8.32-8.32H10.24zm0 1.28h11.52a7.031 7.031 0 0 1 7.04 7.04v11.52a7.031 7.031 0 0 1-7.04 7.04H10.24a7.031 7.031 0 0 1-7.04-7.04V10.24a7.031 7.031 0 0 1 7.04-7.04zm13.44 3.84a1.28 1.28 0 1 0 0 2.56 1.28 1.28 0 1 0 0-2.56zM16 8.96c-3.88 0-7.04 3.159-7.04 7.04s3.159 7.04 7.04 7.04c3.881 0 7.04-3.16 7.04-7.04S19.88 8.96 16 8.96zm0 1.28c3.189 0 5.76 2.571 5.76 5.76s-2.571 5.76-5.76 5.76c-3.189 0-5.76-2.571-5.76-5.76s2.571-5.76 5.76-5.76z"/></symbol><symbol id="telegram" viewBox="0 0 32 32"><path d="M28.401 3.831c-.312.014-.615.1-.889.21-.271.109-1.83.774-4.133 1.759s-5.296 2.266-8.262 3.538C9.183 11.88 3.352 14.382 3.352 14.382l.042-.016s-.352.118-.709.366c-.178.124-.37.285-.527.519s-.272.566-.229.916c.152 1.232 1.429 1.581 1.429 1.581l.005.003 5.697 1.95c.145.485 1.728 5.767 2.076 6.886.192.619.372.975.56 1.219.094.122.192.216.301.285a.832.832 0 0 0 .134.066h.002l.016.005-.015-.004.031.015c.02.007.033.007.059.012.652.228 1.192-.195 1.192-.195l.023-.017 3.5-3.246 5.68 4.429.071.032c.994.441 1.893.195 2.391-.21s.694-.927.694-.927l.021-.055L29.97 6.242c.107-.487.122-.907.021-1.287s-.345-.711-.652-.894a1.663 1.663 0 0 0-.94-.229zm.034 1.302c.127-.006.22.009.25.026s.043.015.071.122c.028.107.044.333-.034.686l-.003.008-4.15 21.628c-.01.022-.096.222-.294.383-.201.164-.425.292-1.02.043l-6.39-4.977-1.857-1.394L25.447 9.377a.64.64 0 0 0-.487-1.055h-.017.001a.633.633 0 0 0-.341.109l.002-.001L9.5 18.5l-5.706-1.954s-.567-.315-.594-.535c-.002-.012-.008-.001.021-.045s.103-.118.196-.182c.186-.129.397-.207.397-.207l.021-.008.021-.009s5.831-2.502 11.765-5.044c2.967-1.271 5.959-2.552 8.261-3.536s3.964-1.692 4.105-1.749c.16-.064.32-.09.446-.096zm-6.923 6.894-7.92 9.317-.034.044-.001.002a.498.498 0 0 0-.033.051l-.002.003a.632.632 0 0 0-.083.243V21.696l-1.031 4.637c-.017-.05-.029-.068-.047-.128v-.001c-.328-1.052-1.821-6.035-2.027-6.724l11.18-7.454zm-7.022 10.84 1.422 1.067-2.09 1.938.668-3.005z"/></symbol></defs></svg>