<svg aria-hidden="true" style="width:0;height:0;position:absolute;overflow:hidden" xmlns="http://www.w3.org/2000/svg"><defs><symbol id="phone" viewBox="0 0 32 32"><path d="m9.052 3.023 1.897-.572a3.716 3.716 0 0 1 4.46 2.033l1.181 2.627a3.714 3.714 0 0 1-.855 4.239l-2.063 1.924a.316.316 0 0 0-.062.083c-.216.441.111 1.619 1.139 3.4 1.159 2.007 2.054 2.801 2.468 2.678l2.708-.828a3.713 3.713 0 0 1 4.098 1.379L25.7 22.31a3.714 3.714 0 0 1-.458 4.87L23.8 28.546a4.284 4.284 0 0 1-3.819 1.084c-4.02-.836-7.621-4.073-10.834-9.638C5.931 14.421 4.929 9.68 6.221 5.779a4.286 4.286 0 0 1 2.832-2.756zm.495 1.641a2.572 2.572 0 0 0-1.699 1.654c-1.113 3.361-.211 7.63 2.783 12.817 2.992 5.182 6.235 8.097 9.699 8.817a2.574 2.574 0 0 0 2.292-.651l1.442-1.366a2 2 0 0 0 .247-2.622l-1.677-2.324a2 2 0 0 0-2.207-.742l-2.714.83c-1.502.448-2.913-.804-4.448-3.462-1.299-2.25-1.75-3.875-1.194-5.01a2 2 0 0 1 .433-.584l2.063-1.924a2 2 0 0 0 .46-2.283l-1.181-2.627a2 2 0 0 0-2.401-1.095l-1.897.572z"/></symbol><symbol id="instagram" viewBox="0 0 32 32"><path d="M10.24 1.92c-4.587 0-8.32 3.733-8.32 8.32v11.52c0 4.587 3.733 8.32 8.32 8.32h11.52c4.587 0 8.32-3.733 8.32-8.32V10.24c0-4.587-3.733-8.32-8.32-8.32H10.24zm0 1.28h11.52a7.031 7.031 0 0 1 7.04 7.04v11.52a7.031 7.031 0 0 1-7.04 7.04H10.24a7.031 7.031 0 0 1-7.04-7.04V10.24a7.031 7.031 0 0 1 7.04-7.04zm13.44 3.84a1.28 1.28 0 1 0 0 2.56 1.28 1.28 0 1 0 0-2.56zM16 8.96c-3.88 0-7.04 3.159-7.04 7.04s3.159 7.04 7.04 7.04c3.881 0 7.04-3.16 7.04-7.04S19.88 8.96 16 8.96zm0 1.28c3.189 0 5.76 2.571 5.76 5.76s-2.571 5.76-5.76 5.76c-3.189 0-5.76-2.571-5.76-5.76s2.571-5.76 5.76-5.76z"/></symbol><symbol id="telegram" viewBox="0 0 32 32"><path d="M28.401 3.831c-.312.014-.615.1-.889.21-.271.109-1.83.774-4.133 1.759s-5.296 2.266-8.262 3.538C9.183 11.88 3.352 14.382 3.352 14.382l.042-.016s-.352.118-.709.366c-.178.124-.37.285-.527.519s-.272.566-.229.916c.152 1.232 1.429 1.581 1.429 1.581l.005.003 5.697 1.95c.145.485 1.728 5.767 2.076 6.886.192.619.372.975.56 1.219.094.122.192.216.301.285a.832.832 0 0 0 .134.066h.002l.016.005-.015-.004.031.015c.02.007.033.007.059.012.652.228 1.192-.195 1.192-.195l.023-.017 3.5-3.246 5.68 4.429.071.032c.994.441 1.893.195 2.391-.21s.694-.927.694-.927l.021-.055L29.97 6.242c.107-.487.122-.907.021-1.287s-.345-.711-.652-.894a1.663 1.663 0 0 0-.94-.229zm.034 1.302c.127-.006.22.009.25.026s.043.015.071.122c.028.107.044.333-.034.686l-.003.008-4.15 21.628c-.01.022-.096.222-.294.383-.201.164-.425.292-1.02.043l-6.39-4.977-1.857-1.394L25.447 9.377a.64.64 0 0 0-.487-1.055h-.017.001a.633.633 0 0 0-.341.109l.002-.001L9.5 18.5l-5.706-1.954s-.567-.315-.594-.535c-.002-.012-.008-.001.021-.045s.103-.118.196-.182c.186-.129.397-.207.397-.207l.021-.008.021-.009s5.831-2.502 11.765-5.044c2.967-1.271 5.959-2.552 8.261-3.536s3.964-1.692 4.105-1.749c.16-.064.32-.09.446-.096zm-6.923 6.894-7.92 9.317-.034.044-.001.002a.498.498 0 0 0-.033.051l-.002.003a.632.632 0 0 0-.083.243V21.696l-1.031 4.637c-.017-.05-.029-.068-.047-.128v-.001c-.328-1.052-1.821-6.035-2.027-6.724l11.18-7.454zm-7.022 10.84 1.422 1.067-2.09 1.938.668-3.005z"/></symbol><symbol id="logo-black" viewBox="0 0 41 32"><path d="M14.285 4.309c-.11.112-.235.233-.277.273-.042.042-.088.086-.1.1l-.229.229a119.092 119.092 0 0 0-1.023 1.021l-.762.76c-.772.772-1.109 1.119-1.109 1.138 0 .014-.01.026-.022.026-.028 0-2.55 2.52-2.55 2.55 0 .012.014.028.03.034.016.008.03.02.03.03 0 .026.209.237.235.237.014 0 .024.008.024.02 0 .026.074.1.1.1.012 0 .02.008.02.02 0 .024.096.12.12.12.012 0 .02.014.02.03s.014.03.03.03.03.014.03.03.014.03.03.03.03.008.03.02c0 .024.096.12.12.12.012 0 .02.014.02.03s.014.03.03.03.03.014.03.03.014.03.03.03.03.008.03.018c0 .022.159.181.181.181.01 0 .018.014.018.03s.014.03.03.03.03.008.03.018.038.054.082.1c.046.044.09.082.1.082s.018.014.018.03.014.03.03.03.03.008.03.018c0 .01.038.054.082.1.046.044.09.082.1.082s.018.014.018.03.014.03.03.03.03.008.03.02c0 .022.072.1.092.1s.108.1.108.122c0 .01.014.018.03.018s.03.014.03.03.014.03.03.03.03.008.03.02c0 .018.094.12.11.12.018 0 .09.08.09.1 0 .01.014.02.03.02s.03.014.03.03.014.03.03.03c.018 0 .038.016.044.034.016.042.08.106.106.106.012 0 .02.014.02.03s.014.03.03.03.03.008.03.018a.6.6 0 0 0 .177.181c.012 0 .022.014.022.03s.014.03.03.03.03.014.03.03.01.03.024.03c.026 0 .116.096.116.124 0 .008.014.016.03.016s.03.014.03.03.014.03.03.03.03.014.03.03.008.03.02.03a.6.6 0 0 1 .179.179c0 .01.014.02.03.02s.03.008.03.02c0 .026.074.1.098.1.01 0 .026.018.032.04s.026.04.042.04c.016 0 .028.014.028.03s.014.03.03.03.03.014.03.03.014.03.03.03.03.008.03.02c0 .024.096.12.12.12.012 0 .02.014.02.03s.014.03.03.03.03.014.03.03.014.03.03.03.03.006.03.014c0 .026.155.185.179.185.01 0 .02.014.02.03s.014.03.03.03.03.014.03.03.008.03.02.03c.024 0 .12.096.12.12 0 .012.014.02.03.02s.03.014.03.03.014.03.03.03.03.014.03.03.008.03.02.03c.024 0 .12.096.12.12 0 .012.014.02.03.02s.03.014.03.03.014.03.03.03.03.012.03.024c0 .014.028.044.06.066a.204.204 0 0 1 .072.074c.006.02.024.036.04.036s.028.014.028.03.014.03.03.03.03.008.03.02c0 .024.158.179.181.179.01 0 .018.014.018.03s.014.03.03.03.03.008.03.02c0 .024.158.179.181.179.01 0 .018.014.018.03s.014.03.03.03.03.014.03.03.014.03.03.03.03.014.03.03.014.03.032.03c.018 0 .036.018.042.04s.024.04.038.04c.016 0 .028.014.028.03s.014.03.03.03.03.014.03.03.014.03.03.03.03.014.03.03.014.03.032.03c.018 0 .036.018.042.04s.018.04.028.04c.022 0 .158.136.158.16 0 .01.016.022.036.028a.204.204 0 0 1 .074.072c.022.032.052.06.066.06.012 0 .024.014.024.03s.01.03.02.03a.6.6 0 0 1 .179.179c0 .012.014.02.03.02s.03.014.03.03.014.03.03.03.03.014.03.03.01.03.024.03c.026 0 .116.096.116.124 0 .008.014.016.03.016s.03.014.03.03.01.03.02.03c.026 0 .1.074.1.1 0 .01.01.02.022.02.026 0 .177.155.177.181 0 .01.014.018.03.018s.03.012.03.028c0 .014.018.032.04.038s.04.024.04.042c0 .018.014.032.03.032s.03.014.03.03.014.03.03.03.03.014.03.03.014.03.03.03.03.012.03.028.018.036.04.042.04.026.04.042c0 .016.01.028.02.028.026 0 .1.074.1.1 0 .01.01.02.02.02.024 0 .179.157.179.181 0 .01.014.018.03.018s.03.014.03.03.008.03.02.03c.028 0 .179.15.179.175 0 .014.014.024.03.024s.03.014.03.03.008.03.02.03c.028 0 .179.15.179.175 0 .014.01.024.02.024.02 0 .1.072.1.09 0 .014.078.09.092.09.02 0 .108.1.108.122 0 .01.014.018.03.018s.03.014.03.03.014.03.03.03.03.008.03.02c0 .018.094.12.11.12.018 0 .15.142.15.16 0 .012.014.02.03.02.018 0 .038.016.044.034.014.034.078.106.096.106s.09.08.09.1c0 .01.01.02.024.02.026 0 .175.152.175.179 0 .012.01.02.02.02.028 0 .239.211.239.239 0 .01.014.02.03.02s.03.014.03.03.008.03.02.03a.6.6 0 0 1 .179.179c0 .01.014.02.03.02s.03.014.03.03.01.03.022.03c.026 0 .297.275.297.301 0 .01.008.018.02.018.026 0 .319.293.319.319 0 .012.008.02.018.02.026 0 .361.335.361.359 0 .012.01.02.02.02.028 0 .239.211.239.239 0 .01.014.02.03.02s.03.014.03.03.01.03.024.03c.026 0 .175.152.175.179 0 .012.01.02.02.02.026 0 .498.475.498.498 0 .012.01.02.02.02.026 0 .1.074.1.098 0 .01.018.026.04.032s.04.026.04.042c0 .016.014.028.03.028s.03.014.03.03.014.03.03.03.03.014.03.03.01.03.02.03c.012 0 .038.018.06.04.072.072.132.052.271-.09a.859.859 0 0 1 .148-.13.02.02 0 0 0 .02-.02c0-.012.144-.163.319-.337.175-.175.319-.327.319-.339s.01-.022.02-.022c.028 0 .957-.929.957-.957 0-.01.01-.02.022-.02.026 0 1.852-1.828 1.852-1.854 0-.012.01-.02.02-.02.026 0 1.595-1.567 1.595-1.595 0-.01.01-.02.02-.02.028 0 .618-.59.618-.618 0-.01.01-.02.02-.02.028 0 1.854-1.826 1.854-1.854 0-.01.01-.02.022-.02.03 0 .177-.148.177-.177 0-.012.008-.022.02-.022.026 0 .498-.473.498-.498 0-.01.01-.02.02-.02.026 0 .239-.215.239-.241 0-.01.014-.018.03-.018s.03-.014.03-.03.01-.03.022-.03c.026 0 .237-.213.237-.241 0-.01.01-.018.022-.018.03 0 .237-.207.237-.237 0-.012.014-.022.03-.022s.03-.014.03-.03.008-.03.018-.03a.643.643 0 0 0 .181-.179c0-.012.014-.02.03-.02s.03-.014.03-.03.008-.03.018-.03a.6.6 0 0 0 .181-.177c0-.012.008-.022.02-.022.026 0 .16-.132.16-.155 0-.012.018-.028.04-.034s.04-.026.04-.042c0-.016.014-.028.03-.028s.03-.014.03-.03.008-.03.02-.03a.656.656 0 0 0 .179-.181c0-.01.014-.018.03-.018s.03-.014.03-.03.01-.03.02-.03c.026 0 .498-.475.498-.5 0-.01.014-.018.03-.018s.03-.014.03-.03.008-.03.018-.03a.643.643 0 0 0 .181-.179c0-.012.014-.02.03-.02s.03-.014.03-.03.008-.03.018-.03a.643.643 0 0 0 .181-.179c0-.012.01-.02.02-.02a.802.802 0 0 0 .16-.14.843.843 0 0 0 .14-.159c0-.01.008-.02.02-.02.026 0 .618-.594.618-.62 0-.02-.66-.704-.871-.905-.058-.056-.67-.664-1.358-1.354-.688-.688-1.384-1.384-1.547-1.545-.163-.16-.379-.375-.479-.479a45.046 45.046 0 0 0-.863-.861c-.02-.018-.122-.122-.225-.231l-.283-.297c-.195-.203-.634-.626-.65-.626-.01 0-.044.032-.076.07s-.07.07-.082.07c-.014 0-.026.01-.026.022 0 .014-.016.034-.034.048-.03.022-.024.036.066.132.054.06.187.197.297.309l.227.229c.084.088.419.411.453.439.02.018.098.094.169.169l.259.263c.146.142.132.128.321.321.08.082.175.175.211.209s.104.1.15.148c.08.082.923.923.959.955.008.008.08.084.16.165.078.082.195.201.261.265l.169.167c.028.028.177.177.335.331.155.155.283.293.283.305 0 .014.016.03.036.036.02.008.124.1.227.207.106.106.203.205.219.219.106.1.817.829.873.893.04.046.094.094.12.108.056.03.108.088.152.165.03.054.028.06-.036.144-.036.05-.072.09-.082.09-.008 0-.076.064-.15.144-.201.213-.427.435-.447.435-.008 0-.016.01-.016.02 0 .024-.084.108-.154.154-.026.018-.046.038-.046.048 0 .024-.273.297-.299.297a.02.02 0 0 0-.02.02c0 .026-.074.1-.1.1-.01 0-.02.008-.02.018 0 .024-.215.241-.239.241a.02.02 0 0 0-.02.02c0 .028-.209.239-.237.239-.012 0-.022.012-.022.028s-.018.036-.04.042c-.022.006-.04.022-.04.032 0 .02-.592.616-.61.616a.298.298 0 0 0-.088.092c0 .02-.277.287-.299.287-.01 0-.02.01-.02.022 0 .026-.475.496-.5.496-.01 0-.018.012-.018.028s-.028.046-.06.066c-.034.018-.066.05-.072.07s-.024.036-.04.036-.028.014-.028.03-.014.03-.03.03-.03.008-.03.018c0 .022-.16.181-.181.181-.01 0-.018.014-.018.03s-.014.03-.03.03-.03.006-.03.016c0 .022-.417.443-.439.443-.012 0-.02.014-.02.03s-.014.03-.03.03-.03.012-.03.026c0 .028-.054.08-.106.1-.018.006-.034.026-.034.044 0 .016-.014.03-.03.03s-.03.008-.03.02c0 .018-.211.239-.229.239-.01 0-.15.138-.15.15a.871.871 0 0 1-.179.169c-.012 0-.02.014-.02.03s-.008.03-.018.03a.657.657 0 0 0-.181.183c0 .008-.014.016-.03.016s-.03.008-.03.02c0 .024-.074.1-.098.1-.01 0-.032.022-.048.046-.04.062-.205.227-.267.267-.024.016-.046.044-.046.058 0 .016-.014.028-.03.028s-.03.008-.03.02c0 .024-.217.239-.241.239-.01 0-.018.014-.018.03s-.014.03-.03.03-.03.008-.03.02a.643.643 0 0 1-.181.179c-.01 0-.018.008-.018.02 0 .026-.074.1-.1.1a.02.02 0 0 0-.02.02c0 .022-.273.299-.297.299-.008 0-.034.024-.054.052-.064.086-.124.148-.148.148-.01 0-.02.012-.02.028 0 .014-.022.042-.048.06a.72.72 0 0 0-.152.14c0 .02-.594.61-.614.61-.014 0-.024.008-.024.02 0 .028-1.705 1.735-1.733 1.735-.012 0-.022.01-.022.022s-.437.461-.971.995a88.575 88.575 0 0 0-1.057 1.067c-.086.094-.179.138-.241.114-.042-.014-.443-.419-.443-.445 0-.01-.01-.018-.022-.018a.508.508 0 0 1-.177-.177c0-.012-.008-.022-.018-.022-.026 0-.241-.213-.241-.237 0-.012-.014-.022-.03-.022s-.03-.014-.03-.03-.01-.03-.022-.03a.588.588 0 0 1-.177-.181c0-.01-.008-.018-.02-.018-.024 0-.239-.217-.239-.241 0-.01-.008-.018-.02-.018-.024 0-.359-.335-.359-.361a.018.018 0 0 0-.018-.018.6.6 0 0 1-.181-.177c0-.012-.014-.022-.03-.022s-.03-.014-.03-.03-.008-.03-.018-.03c-.024 0-.241-.215-.241-.239 0-.012-.008-.02-.016-.02a.613.613 0 0 1-.183-.179c0-.01-.014-.02-.03-.02s-.03-.014-.03-.03-.014-.03-.03-.03-.03-.012-.03-.026c0-.024-.084-.114-.108-.114-.02 0-.092-.078-.092-.1 0-.012-.01-.02-.022-.02a.588.588 0 0 1-.177-.181c0-.01-.014-.018-.03-.018s-.03-.014-.03-.03-.008-.03-.02-.03a.643.643 0 0 1-.179-.181c0-.01-.014-.018-.03-.018s-.03-.014-.03-.03-.008-.03-.018-.03a1.06 1.06 0 0 1-.241-.241c0-.01-.014-.018-.03-.018s-.03-.014-.03-.03-.012-.03-.028-.03-.036-.018-.042-.04c-.006-.022-.02-.04-.032-.04-.028 0-.098-.066-.098-.094 0-.014-.014-.026-.03-.026s-.03-.014-.03-.03-.008-.03-.018-.03a.643.643 0 0 1-.181-.179c0-.012-.014-.02-.03-.02s-.03-.014-.03-.03-.012-.03-.028-.03-.034-.016-.04-.036a.204.204 0 0 0-.072-.074c-.032-.022-.06-.052-.06-.066 0-.012-.014-.024-.03-.024s-.03-.014-.03-.03-.008-.03-.02-.03c-.026 0-.09-.064-.106-.106-.006-.018-.026-.034-.044-.034-.016 0-.03-.014-.03-.03s-.014-.03-.03-.03-.03-.014-.03-.03-.008-.03-.02-.03a.643.643 0 0 1-.179-.181c0-.01-.014-.018-.03-.018s-.03-.014-.03-.03-.008-.03-.02-.03c-.026 0-.09-.064-.106-.106-.006-.018-.022-.034-.034-.034-.026 0-.1-.074-.1-.1 0-.012-.014-.02-.03-.02s-.03-.014-.03-.03-.01-.03-.022-.03a.588.588 0 0 1-.177-.181c0-.01-.014-.018-.03-.018s-.03-.014-.03-.03-.012-.03-.028-.03-.036-.018-.042-.04c-.006-.022-.022-.04-.032-.04-.024 0-.098-.074-.098-.1 0-.012-.014-.02-.03-.02s-.03-.014-.03-.03-.012-.03-.024-.03c-.014 0-.044-.028-.066-.06a.204.204 0 0 0-.074-.072c-.02-.006-.036-.024-.036-.04s-.014-.028-.03-.028-.03-.014-.03-.03-.014-.03-.03-.03-.03-.014-.03-.03-.014-.03-.03-.03-.03-.012-.03-.028-.018-.036-.04-.042c-.022-.006-.04-.026-.04-.042s-.014-.028-.03-.028-.03-.014-.03-.03-.01-.03-.024-.03c-.026 0-.116-.096-.116-.124 0-.008-.014-.016-.03-.016s-.03-.014-.03-.03-.014-.03-.03-.03-.03-.014-.03-.03-.008-.03-.02-.03a.656.656 0 0 1-.179-.181c0-.01-.014-.018-.03-.018s-.03-.01-.03-.02c0-.024-.074-.1-.098-.1-.01 0-.022-.018-.028-.04s-.024-.04-.042-.04c-.018 0-.032-.014-.032-.03s-.014-.03-.03-.03-.03-.014-.03-.03-.014-.03-.03-.03-.03-.014-.03-.03-.008-.03-.02-.03c-.024 0-.12-.096-.12-.12 0-.012-.014-.02-.03-.02s-.03-.014-.03-.03-.014-.03-.03-.03-.03-.008-.03-.02a.565.565 0 0 0-.175-.179c-.014 0-.024-.014-.024-.03s-.014-.03-.03-.03-.03-.014-.03-.03-.012-.03-.024-.03c-.014 0-.044-.028-.066-.06a.204.204 0 0 0-.074-.072c-.02-.006-.036-.024-.036-.04s-.014-.028-.03-.028-.03-.01-.03-.02c0-.024-.074-.1-.098-.1-.01 0-.022-.018-.028-.04s-.024-.04-.042-.04c-.018 0-.032-.014-.032-.03s-.014-.03-.03-.03-.03-.014-.03-.03-.008-.03-.02-.03c-.026 0-.09-.064-.106-.106-.006-.018-.026-.034-.044-.034-.016 0-.03-.014-.03-.03s-.008-.03-.02-.03c-.01 0-.038-.018-.06-.04s-.04-.05-.04-.06c0-.012-.014-.02-.03-.02s-.03-.014-.03-.03c0-.018-.016-.038-.034-.044-.042-.016-.106-.08-.106-.106 0-.012-.014-.02-.03-.02s-.03-.014-.03-.03-.014-.03-.03-.03-.03-.012-.03-.028-.018-.036-.04-.042-.04-.026-.04-.042c0-.016-.014-.028-.03-.028s-.03-.014-.03-.03-.014-.03-.03-.03-.03-.014-.03-.03-.014-.03-.03-.03-.03-.014-.03-.03c0-.018-.016-.038-.034-.044-.042-.016-.106-.08-.106-.106 0-.012-.014-.02-.03-.02s-.03-.014-.03-.03-.014-.03-.03-.03-.03-.01-.03-.022c0-.03-.084-.118-.114-.118-.014 0-.026-.014-.026-.03s-.014-.03-.03-.03-.03-.014-.03-.03-.008-.03-.02-.03c-.026 0-.1-.074-.1-.098 0-.01-.018-.026-.04-.032s-.04-.026-.04-.042c0-.016-.014-.028-.03-.028s-.03-.01-.03-.02c0-.02-.072-.1-.09-.1a.373.373 0 0 1-.11-.12c0-.012-.014-.02-.03-.02s-.03-.014-.03-.03-.008-.03-.018-.03-.07-.05-.13-.112c-.062-.06-.112-.12-.112-.13s-.014-.018-.03-.018-.03-.014-.03-.03-.012-.03-.028-.03-.036-.018-.042-.04-.02-.04-.032-.04c-.028 0-.098-.066-.098-.094 0-.014-.014-.026-.03-.026s-.03-.014-.03-.03-.012-.03-.028-.03-.036-.018-.042-.04c-.006-.022-.022-.04-.032-.04-.024 0-.098-.074-.098-.1 0-.012-.014-.02-.03-.02s-.03-.014-.03-.03-.012-.03-.028-.03-.034-.016-.04-.036a.204.204 0 0 0-.072-.074c-.032-.022-.06-.052-.06-.066 0-.012-.014-.024-.03-.024s-.03-.014-.03-.03-.008-.03-.02-.03c-.026 0-.1-.074-.1-.098 0-.01-.018-.026-.04-.032s-.04-.026-.04-.042c0-.016-.014-.028-.03-.028s-.03-.014-.03-.03-.008-.03-.02-.03a.656.656 0 0 1-.179-.181c0-.01-.014-.018-.03-.018s-.03-.014-.03-.03-.014-.03-.03-.03-.03-.014-.03-.03-.014-.03-.03-.03-.03-.014-.03-.03c0-.018-.016-.038-.034-.044-.042-.016-.106-.08-.106-.106 0-.012-.014-.02-.03-.02-.022 0-.03-.024-.03-.092v-.092l1.103-1.105a43.905 43.905 0 0 1 1.126-1.105c.014 0 .024-.012.024-.026 0-.012.421-.443.933-.953.512-.512.963-.965 1.003-1.007a8.15 8.15 0 0 1 .293-.291 3.94 3.94 0 0 0 .223-.223c0-.006.09-.1.201-.205.112-.108.231-.227.269-.265.423-.429.722-.738.744-.766.026-.032.024-.04-.004-.062-.018-.014-.034-.034-.034-.048 0-.012-.014-.022-.03-.022s-.03-.01-.03-.022c0-.026-.092-.118-.116-.118-.01 0-.106.09-.213.201z"/><path d="M20.626 6.952c-.032.006-.068.022-.076.038s-.03.028-.044.028c-.016 0-.03.012-.03.024-.002.014-.028.048-.06.076-.034.026-.06.06-.06.074s-.014.026-.03.026-.03.008-.03.016c0 .01-.016.036-.034.06-.086.1-.1.118-.112.15-.006.018-.022.034-.034.034-.01 0-.02.012-.02.026s-.018.046-.04.07c-.022.024-.04.05-.04.058s-.028.052-.06.094c-.034.044-.06.092-.06.106s-.014.026-.03.026a.03.03 0 0 0-.03.03c0 .018-.018.05-.04.074s-.04.056-.04.07c0 .014-.008.026-.02.026-.01 0-.02.014-.02.03s-.008.03-.018.03c-.01 0-.032.032-.05.07s-.042.07-.052.07c-.012 0-.02.018-.02.038a.12.12 0 0 1-.024.066.813.813 0 0 0-.104.165.943.943 0 0 1-.046.066c-.014.014-.026.044-.026.064s-.014.04-.03.048c-.016.006-.03.02-.03.03s-.032.066-.07.124a.618.618 0 0 0-.07.13c0 .014-.014.028-.03.036-.016.006-.03.028-.03.048 0 .022-.014.05-.03.064s-.03.036-.03.05c0 .014-.014.036-.03.05s-.03.042-.03.064c0 .02-.012.042-.028.048s-.036.038-.042.07c-.008.032-.026.058-.042.058s-.028.014-.028.03a.546.546 0 0 1-.102.201c-.01.006-.018.028-.018.05s-.012.044-.028.05c-.016.006-.038.038-.05.07-.01.032-.03.058-.04.058-.012 0-.022.022-.022.048 0 .028-.008.054-.018.06a.5.5 0 0 0-.064.108.481.481 0 0 1-.06.104c-.006.006-.038.06-.07.12-.03.06-.068.118-.082.126s-.026.032-.026.052c0 .02-.014.048-.03.062s-.03.042-.03.062c0 .022-.008.038-.016.038-.018 0-.124.201-.124.235 0 .014-.01.024-.022.024-.01 0-.03.026-.04.06-.012.032-.03.06-.04.06s-.018.014-.018.032c0 .034-.07.158-.114.203-.014.014-.026.034-.026.044 0 .008-.032.034-.07.056-.062.038-.122.044-.692.062-.602.02-.903.042-.979.072-.058.024-.08.165-.032.221.022.026.126.03.726.026.387-.002.712.002.726.012.042.024-.028.281-.082.305a.637.637 0 0 0-.074.134.65.65 0 0 1-.082.14c-.01.006-.02.034-.02.06 0 .024-.012.05-.028.056-.014.006-.034.036-.042.068a.182.182 0 0 1-.026.066c-.014.01-.032.04-.167.299a1.028 1.028 0 0 1-.098.167c-.01.012-.018.04-.018.066s-.008.046-.018.046c-.01 0-.03.03-.044.064-.014.036-.038.078-.052.092s-.026.044-.026.066c0 .02-.008.038-.018.038-.018 0-.181.319-.181.355 0 .012-.01.024-.022.028-.04.014-.028.167.018.215.054.058.163.05.195-.018a.247.247 0 0 1 .042-.06c.024-.018.074-.108.167-.297a.622.622 0 0 1 .098-.164c.012 0 .02-.012.02-.026s.018-.058.04-.1c.022-.04.04-.088.04-.104s.008-.03.018-.03c.01 0 .028-.028.04-.06.01-.034.03-.06.04-.06.012 0 .022-.022.022-.048 0-.028.008-.054.018-.062a.537.537 0 0 0 .082-.136c.034-.068.092-.177.13-.243s.08-.144.094-.175c.014-.03.032-.054.038-.054.008 0 .02-.028.028-.06.008-.034.022-.06.032-.06s.022-.022.03-.05a.158.158 0 0 1 .04-.072.085.085 0 0 0 .028-.06c0-.018.014-.048.03-.064a.242.242 0 0 0 .042-.082c.006-.028.02-.052.028-.052s.022-.022.028-.05a.22.22 0 0 1 .078-.096c.06-.046.084-.05.433-.064.203-.006.413-.022.467-.032s.181-.018.283-.018c.229 0 .253.02.233.205-.006.062-.018.114-.028.114-.008 0-.02.03-.028.064a.743.743 0 0 1-.04.136 2.66 2.66 0 0 0-.1.335c-.008.036-.026.09-.042.12s-.028.078-.028.108-.008.058-.018.064-.028.056-.042.112c-.014.054-.032.1-.042.1s-.018.03-.018.066a.205.205 0 0 1-.028.104.375.375 0 0 0-.04.124.414.414 0 0 1-.042.12.176.176 0 0 0-.03.096.19.19 0 0 1-.03.098c-.016.022-.03.06-.03.084s-.012.07-.028.102a1.687 1.687 0 0 0-.102.293.462.462 0 0 1-.048.118c-.012.012-.022.046-.022.076s-.014.08-.03.112a.495.495 0 0 0-.04.13c-.006.042-.02.076-.03.076-.012 0-.02.03-.02.064a.2.2 0 0 1-.03.104.157.157 0 0 0-.03.07.216.216 0 0 1-.028.084.71.71 0 0 0-.042.13c-.008.042-.022.084-.034.09-.012.008-.024.054-.03.104-.016.13.034.191.15.193.078 0 .09-.006.11-.06.012-.034.03-.06.038-.06s.016-.024.016-.056c0-.03.014-.072.03-.092a.154.154 0 0 0 .03-.072.36.36 0 0 1 .04-.106c.022-.04.04-.1.04-.13 0-.032.014-.074.03-.096.016-.02.03-.06.03-.088s.014-.072.03-.1a.269.269 0 0 0 .03-.094.28.28 0 0 1 .03-.1.648.648 0 0 0 .05-.142c.012-.046.03-.084.04-.084.012 0 .02-.028.02-.06a.29.29 0 0 1 .028-.116.666.666 0 0 0 .04-.13c.008-.04.022-.074.032-.074.012 0 .02-.03.02-.066 0-.034.014-.09.03-.12s.034-.09.042-.13a.358.358 0 0 1 .028-.094.37.37 0 0 0 .028-.09.991.991 0 0 1 .104-.265c.016-.032.028-.076.028-.1s.012-.078.028-.124c.016-.044.048-.148.072-.229.022-.082.054-.175.07-.205.016-.032.03-.078.03-.102s.014-.062.03-.084c.016-.02.03-.06.03-.088s.014-.076.03-.108a.526.526 0 0 0 .042-.134c.008-.044.02-.078.03-.078s.018-.014.018-.03c0-.064.086-.086.389-.1.213-.01.309-.022.331-.042.016-.016.04-.028.05-.028s.028-.024.042-.052c.02-.044.018-.064-.008-.116-.018-.034-.042-.068-.054-.076s-.134-.016-.271-.016c-.225 0-.253-.004-.285-.04-.036-.044-.046-.13-.016-.15.012-.006.026-.052.034-.1.006-.05.02-.09.028-.09s.02-.034.028-.078c.006-.042.026-.102.042-.134s.03-.086.03-.122c0-.034.01-.066.022-.07.01-.004.026-.048.03-.096a.813.813 0 0 1 .04-.165.406.406 0 0 0 .028-.12c0-.024.012-.068.028-.096a.605.605 0 0 0 .04-.128c.008-.044.028-.096.044-.118s.028-.066.028-.098c0-.052.024-.142.084-.323a1.41 1.41 0 0 0 .038-.155.314.314 0 0 1 .036-.12c.01-.014.024-.06.032-.104s.028-.104.042-.134a.27.27 0 0 0 .028-.108c0-.05.01-.086.088-.339.018-.058.032-.126.032-.154s.01-.076.022-.108c.022-.054.052-.209.098-.494l.044-.271a.67.67 0 0 0-.018-.327c-.036-.132-.11-.175-.255-.155zm-.09.742c0 .054-.014.13-.03.167a.517.517 0 0 0-.03.161c0 .048-.008.092-.02.096-.01.002-.028.074-.04.155s-.03.158-.04.167c-.012.012-.02.054-.02.094s-.018.13-.04.197a.872.872 0 0 0-.04.169c0 .026-.01.05-.02.054-.012.004-.03.052-.04.106-.026.146-.082.337-.102.359-.01.01-.018.052-.018.092 0 .042-.008.08-.018.088a.352.352 0 0 0-.044.126.765.765 0 0 1-.038.134.409.409 0 0 0-.028.11c-.008.048-.022.094-.034.1-.01.008-.028.068-.04.136s-.03.124-.04.124c-.01 0-.018.036-.018.078 0 .044-.008.084-.018.092a.352.352 0 0 0-.044.126.71.71 0 0 1-.04.134c-.006.01-.02.06-.028.11s-.024.102-.036.116a.423.423 0 0 0-.036.13c-.01.056-.026.106-.038.11-.01.004-.02.028-.02.054 0 .036-.02.056-.084.088-.078.036-.14.04-.636.05a7.902 7.902 0 0 1-.592-.002c-.036-.008-.044-.026-.044-.084 0-.04.008-.082.018-.094.02-.018.056-.082.215-.387.05-.094.1-.183.114-.199.012-.016.048-.082.08-.146.032-.062.066-.114.076-.114.008 0 .016-.01.016-.024 0-.032.08-.193.102-.207.01-.006.018-.028.018-.05 0-.02.008-.038.02-.038.01 0 .032-.032.048-.07s.04-.07.05-.07c.012 0 .022-.016.022-.038 0-.02.014-.048.03-.062s.03-.038.03-.054c0-.014.014-.032.03-.038.016-.008.03-.034.03-.058 0-.026.01-.054.022-.062.012-.006.034-.042.048-.076.016-.034.05-.092.078-.13s.052-.082.052-.096c0-.014.008-.026.018-.026s.036-.032.056-.07l.086-.164a.71.71 0 0 1 .076-.122.108.108 0 0 0 .024-.054c0-.016.012-.036.026-.044a.418.418 0 0 0 .098-.146c.014-.028.03-.054.036-.06s.022-.032.036-.06a.593.593 0 0 1 .1-.155c.012-.014.024-.04.024-.056s.014-.034.03-.04c.016-.008.03-.026.03-.04 0-.016.012-.034.028-.04s.036-.038.042-.07c.008-.032.026-.058.042-.058s.028-.016.028-.038c0-.02.014-.048.03-.062s.03-.038.03-.054c0-.014.014-.032.03-.038.016-.008.03-.02.03-.03 0-.012.018-.038.04-.062s.04-.056.04-.07c0-.014.014-.026.03-.026s.03-.014.03-.03c0-.05.066-.106.126-.108.052-.002.054.002.054.096zM23.503 7.006a.518.518 0 0 0-.056.128c-.012.046-.03.084-.038.084-.01 0-.022.038-.028.084-.006.048-.022.088-.032.092-.012.004-.022.032-.022.062s-.018.088-.04.132c-.022.044-.04.094-.04.114s-.008.036-.018.036c-.01 0-.024.036-.032.08s-.026.094-.042.108c-.016.016-.028.05-.028.076s-.014.064-.03.084c-.016.022-.03.06-.03.084s-.014.07-.03.102c-.016.03-.048.124-.072.205s-.056.167-.07.189c-.016.022-.028.058-.028.082s-.012.07-.028.102a2.05 2.05 0 0 0-.142.375c-.03.098-.062.187-.072.199-.01.01-.018.044-.018.074s-.008.056-.018.056c-.01 0-.026.03-.034.064a.564.564 0 0 1-.05.136c-.022.038-.038.084-.038.102s-.014.06-.03.09c-.016.032-.03.076-.03.098s-.014.058-.03.078c-.016.022-.03.064-.03.092s-.014.07-.03.092a.173.173 0 0 0-.03.09c0 .03-.014.064-.03.078s-.03.044-.03.068c0 .024-.012.062-.028.084s-.036.076-.044.118c-.008.044-.026.092-.042.106-.014.014-.026.056-.026.092 0 .038-.014.078-.03.092s-.03.044-.03.068a.291.291 0 0 1-.03.1c-.016.03-.03.072-.03.092s-.014.062-.03.094a.667.667 0 0 0-.05.14c-.012.048-.03.086-.04.086-.012 0-.02.022-.02.048s-.014.074-.03.104a.28.28 0 0 0-.03.1.165.165 0 0 1-.03.08.146.146 0 0 0-.03.074c0 .038-.074.279-.102.337a.166.166 0 0 0-.018.06c-.002.014-.018.062-.04.106s-.038.092-.04.106a.213.213 0 0 1-.028.08.481.481 0 0 0-.042.128c-.006.042-.02.076-.03.076-.008 0-.022.038-.03.084a.392.392 0 0 1-.03.106.357.357 0 0 0-.03.098c-.006.044-.026.098-.042.12s-.028.064-.028.094-.014.064-.03.078-.03.054-.03.092c0 .036-.012.078-.026.092-.016.014-.034.062-.042.106s-.022.088-.032.1a.357.357 0 0 0-.03.098c-.006.044-.026.098-.042.12s-.028.07-.028.106c0 .036-.008.066-.02.066-.01 0-.026.036-.032.082-.008.044-.024.092-.038.104a.31.31 0 0 0-.038.11.446.446 0 0 1-.03.12 1.7 1.7 0 0 0-.1.319.304.304 0 0 1-.038.108c-.014.014-.024.05-.024.08 0 .032-.014.09-.03.13a.536.536 0 0 0-.03.169c0 .078.01.108.046.138.052.044.088.046.15.012a.348.348 0 0 0 .124-.223c0-.028.014-.084.03-.124a.398.398 0 0 0 .03-.124c0-.028.014-.068.03-.088a.365.365 0 0 0 .04-.12.371.371 0 0 1 .03-.104c.008-.012.02-.054.028-.094s.026-.1.042-.13c.016-.03.03-.08.03-.108 0-.03.014-.064.03-.078.018-.014.03-.058.03-.102 0-.042.008-.08.018-.086s.042-.09.07-.185c.03-.098.066-.203.082-.235a.584.584 0 0 0 .036-.11c.01-.052.044-.15.086-.249.014-.034.032-.088.04-.12a.292.292 0 0 1 .028-.08.395.395 0 0 0 .03-.104.365.365 0 0 1 .04-.12c.016-.02.03-.06.03-.09s.008-.06.02-.066c.01-.006.03-.05.042-.096.046-.171.14-.177.315-.02.04.036.08.066.088.066s.042.026.074.06c.032.032.068.06.08.06.01 0 .02.008.02.016 0 .01.046.046.1.082.056.036.1.074.1.084s.014.018.03.018.03.01.03.02c0 .012.016.028.036.034.03.012.154.102.225.164l.177.132c.081.06.165.122.185.14.018.016.048.03.064.03s.03.008.03.018c0 .02.327.241.357.241.01 0 .022.014.03.03.006.016.024.03.038.03.016 0 .04.014.054.03s.042.03.062.03c.022 0 .038.012.038.026s.024.036.056.05c.03.012.108.054.173.094.066.038.134.074.15.08.016.008.044.022.06.032s.052.03.08.042c.028.014.062.036.076.05s.04.026.056.026c.018 0 .044.014.06.03.018.016.05.03.074.03s.062.014.082.03c.022.016.062.03.09.03s.07.014.09.03c.056.042.235.04.287-.006.048-.038.08-.144.046-.144-.012 0-.022-.012-.022-.026-.002-.036-.169-.114-.249-.114-.038 0-.07-.008-.07-.018s-.02-.026-.044-.032a1.431 1.431 0 0 1-.215-.092c-.016-.01-.114-.058-.213-.11-.102-.05-.185-.1-.185-.11s-.022-.018-.05-.018c-.026 0-.056-.012-.064-.026a.375.375 0 0 0-.15-.1c-.032-.012-.056-.032-.056-.044 0-.01-.04-.038-.09-.06-.048-.02-.094-.05-.098-.064a.047.047 0 0 0-.038-.026c-.016 0-.044-.018-.064-.04s-.048-.04-.06-.04c-.014 0-.03-.014-.038-.03a.048.048 0 0 0-.042-.03.03.03 0 0 1-.03-.03c0-.018-.018-.03-.05-.03-.028 0-.056-.014-.062-.03-.008-.016-.022-.03-.034-.03a.454.454 0 0 1-.106-.07.49.49 0 0 0-.098-.07.251.251 0 0 1-.066-.056c-.07-.068-.175-.144-.203-.144-.01 0-.02-.014-.02-.03s-.01-.03-.02-.03c-.03 0-.239-.159-.239-.181 0-.01-.014-.018-.03-.018s-.03-.014-.03-.03-.018-.03-.04-.03-.04-.014-.04-.03-.008-.03-.018-.03c-.012 0-.054-.032-.096-.07s-.088-.07-.1-.07c-.014 0-.026-.014-.026-.03s-.014-.03-.03-.03c-.056 0-.036-.112.034-.189.036-.038.078-.07.09-.07.014 0 .026-.014.026-.03s.008-.03.02-.03c.01 0 .076-.058.148-.13.07-.072.138-.13.15-.13s.022-.01.022-.022c0-.012.032-.05.072-.084.16-.14 1.543-1.527 1.543-1.547 0-.012.008-.022.02-.022.024 0 .359-.335.359-.361 0-.01.012-.018.026-.018.03 0 .114-.09.114-.12 0-.012.014-.02.03-.02s.03-.008.03-.02c0-.01.064-.082.14-.159.078-.076.15-.14.16-.14a.02.02 0 0 0 .02-.02c0-.012.028-.048.06-.08.034-.032.06-.068.06-.08 0-.01.01-.02.024-.02a.565.565 0 0 0 .175-.179c0-.012.014-.02.03-.02s.03-.01.03-.02c0-.026.064-.09.106-.106.018-.006.034-.026.034-.044 0-.016.01-.03.02-.03.022 0 .1-.072.1-.092 0-.008.07-.082.155-.167.084-.084.173-.179.199-.211.058-.074.058-.173 0-.227-.05-.046-.074-.05-.148-.016-.06.028-.267.227-.267.257 0 .01-.014.018-.03.018s-.03.014-.03.03-.014.03-.03.03-.03.01-.03.022a.588.588 0 0 1-.181.177.018.018 0 0 0-.018.018c0 .02-.154.183-.622.666a4.283 4.283 0 0 0-.295.317c0 .01-.014.016-.03.016s-.03.008-.03.02c0 .022-.094.12-.116.12-.008 0-.032.028-.054.06s-.052.06-.064.06c-.014 0-.026.008-.026.018 0 .024-.215.241-.239.241a.02.02 0 0 0-.02.02c0 .026-.67.698-.698.698-.01 0-.02.01-.02.022 0 .022-.219.237-.243.237-.01 0-.016.01-.016.02 0 .024-.108.132-.231.233a4.923 4.923 0 0 0-.154.134.625.625 0 0 1-.084.072.682.682 0 0 0-.094.086c-.09.092-.209.148-.241.116-.022-.022.002-.142.028-.142.01 0 .018-.03.018-.068s.008-.074.018-.082c.01-.006.03-.06.042-.12s.032-.11.042-.11c.01 0 .018-.03.018-.066s.012-.082.028-.104c.014-.022.032-.074.04-.114s.026-.1.042-.13a.253.253 0 0 0 .03-.08c0-.012.014-.048.03-.08a.487.487 0 0 0 .04-.132c.006-.04.02-.074.03-.074.012 0 .02-.03.02-.068s.008-.074.018-.082c.012-.006.044-.09.074-.185s.062-.183.072-.197a.26.26 0 0 0 .036-.09c.02-.08.056-.185.092-.265.014-.034.03-.082.038-.11.006-.028.02-.068.03-.09s.028-.078.04-.124.03-.09.04-.096c.012-.006.02-.036.02-.066s.014-.072.03-.092a.165.165 0 0 0 .03-.082c0-.022.018-.076.04-.12s.04-.094.04-.114c0-.018.008-.038.018-.044s.024-.044.032-.086c.008-.04.026-.092.042-.114s.028-.064.028-.094.014-.064.03-.078.03-.048.03-.078.012-.07.026-.092.048-.108.074-.189a.771.771 0 0 1 .076-.175c.012-.014.024-.054.024-.086s.012-.08.028-.104a.352.352 0 0 0 .04-.12c.008-.04.022-.074.032-.074.012 0 .02-.022.02-.048s.014-.074.03-.104c.04-.076.036-.128-.008-.183-.054-.062-.177-.06-.225.004zM19.222 24.9c-.038.028-.044.048-.034.09.01.044.024.052.082.052.098 0 .132-.064.068-.132-.054-.058-.054-.058-.116-.01zM32.225 24.89c-.034.016-.046.038-.046.086 0 .064.004.066.078.066.068 0 .08-.008.09-.052.008-.03.012-.054.008-.056s-.024-.016-.046-.034c-.03-.024-.05-.026-.084-.01zM7.207 24.968a.372.372 0 0 0-.098.199c-.008.042-.022.074-.032.074-.012 0-.026.036-.032.08-.008.044-.026.09-.04.102-.016.012-.028.048-.028.08s-.008.058-.02.058c-.01 0-.024.024-.032.054a1.6 1.6 0 0 1-.12.289c-.016.028-.028.07-.028.092s-.014.05-.03.064c-.016.014-.03.05-.03.08s-.014.066-.03.08a.116.116 0 0 0-.03.078c-.002.028-.014.074-.03.102s-.028.066-.03.084c0 .02-.018.054-.04.076s-.04.058-.04.082a.116.116 0 0 1-.03.07c-.016.018-.03.052-.03.08s-.014.054-.03.06c-.018.008-.03.038-.03.08 0 .038-.008.068-.02.068-.01 0-.02.022-.02.05 0 .068.074.07.092 0a.158.158 0 0 1 .04-.072c.016-.012.028-.046.028-.076s.012-.07.028-.092c.014-.022.034-.07.042-.106s.026-.09.042-.12a.252.252 0 0 0 .028-.074c0-.012.03-.04.066-.066.064-.042.082-.044.548-.044.457 0 .484.002.522.04.022.022.048.04.058.04s.024.026.032.06c.008.032.02.06.03.06.008 0 .026.04.038.088.012.05.03.096.042.102.01.006.02.038.02.072 0 .032.008.058.02.058.01 0 .024.032.032.07.024.136.128.181.128.06 0-.038-.008-.07-.018-.07s-.026-.03-.032-.066c-.008-.034-.026-.078-.04-.094s-.032-.06-.04-.096c-.006-.034-.022-.064-.032-.064s-.018-.02-.018-.046a.152.152 0 0 0-.03-.08.34.34 0 0 1-.04-.116c-.008-.042-.022-.078-.032-.078s-.018-.016-.018-.036a.355.355 0 0 0-.04-.11c-.022-.04-.04-.086-.04-.102s-.012-.042-.026-.056a.196.196 0 0 1-.04-.076 1.14 1.14 0 0 0-.098-.259c-.006-.006-.018-.044-.026-.086s-.028-.088-.042-.104c-.016-.014-.028-.05-.028-.076 0-.028-.014-.06-.03-.074s-.03-.042-.03-.062a.317.317 0 0 0-.04-.112.355.355 0 0 1-.04-.11c0-.02-.008-.036-.02-.036-.01 0-.02-.012-.02-.026 0-.036-.066-.094-.102-.092-.016 0-.046.02-.068.044zm.122.205c.026.028.048.068.048.09 0 .02.008.038.018.038s.024.036.032.08c.008.044.026.094.042.108a.113.113 0 0 1 .028.068c0 .022.012.066.028.098.036.074.08.171.132.295.022.054.054.124.07.154.044.076.038.154-.014.197-.042.034-.084.036-.445.036-.393.002-.399 0-.443-.046l-.044-.046.044-.108a.584.584 0 0 1 .07-.134.208.208 0 0 0 .024-.104c0-.048.01-.08.03-.088.016-.006.03-.032.03-.056 0-.026.014-.064.03-.084a.171.171 0 0 0 .03-.084c0-.026.014-.058.03-.076.016-.016.03-.042.03-.056s.012-.048.026-.076a.423.423 0 0 0 .04-.12c.014-.064.066-.136.102-.138.01-.002.038.02.064.05zM24.316 24.992c-.03.028-.062.05-.074.05-.01 0-.018.014-.018.03s-.008.03-.02.03c-.022 0-.1.072-.1.092s-.1.108-.122.108c-.01 0-.018.01-.018.02 0 .012-.026.048-.06.08-.032.032-.06.068-.06.08 0 .01-.014.02-.03.02a.048.048 0 0 0-.042.03c-.008.016-.024.03-.04.03s-.028.012-.028.026c0 .028-.07.094-.1.094-.012 0-.02.012-.02.028s-.018.036-.04.042c-.022.006-.04.022-.04.032s-.04.058-.09.104a.385.385 0 0 0-.09.11c0 .014-.014.024-.03.024s-.03.008-.03.02c0 .032-.11.078-.155.066-.044-.01-.044-.014-.044-.566 0-.351-.008-.558-.02-.566-.012-.006-.038-.006-.06 0-.04.012-.04.028-.036 1.051.006.971.008 1.041.042 1.061.062.038.074-.022.074-.375v-.335l.1-.098a.46.46 0 0 0 .1-.118c0-.01.014-.02.03-.02s.03-.014.03-.03.014-.03.03-.03.03-.014.03-.03a.03.03 0 0 1 .03-.03.048.048 0 0 0 .042-.03c.008-.018.038-.03.07-.03.038 0 .058.01.058.03 0 .016.01.03.02.03.038 0 .146.14.173.223.006.02.024.036.038.036.016 0 .028.012.028.026 0 .016.018.044.04.064s.04.048.04.064c0 .014.01.026.02.026.012 0 .02.014.02.03 0 .014.012.036.026.044s.036.04.048.07c.014.032.034.056.046.056.01 0 .02.018.02.04s.012.04.028.04.034.022.04.05c.008.028.022.05.032.05.012 0 .02.018.02.04s.012.04.028.04.032.02.04.044c.014.058.104.155.142.155.054 0 .052-.042-.004-.114a2.117 2.117 0 0 1-.076-.102 1.032 1.032 0 0 0-.09-.122c-.022-.026-.04-.06-.04-.076 0-.014-.014-.032-.03-.038-.016-.008-.03-.02-.03-.03a.466.466 0 0 0-.114-.163c-.014-.008-.026-.026-.026-.036 0-.012-.014-.034-.03-.05a.122.122 0 0 1-.03-.07c0-.02-.014-.038-.03-.038s-.03-.012-.03-.028c0-.014-.014-.038-.03-.052s-.03-.042-.03-.064c0-.02-.014-.042-.03-.048-.016-.008-.03-.024-.03-.038s-.014-.036-.03-.05c-.068-.056-.122-.239-.07-.239.012 0 .02-.018.02-.04s.008-.04.018-.04c.024 0 .122-.088.122-.11 0-.02.08-.09.104-.09.008 0 .016-.01.016-.022 0-.026.134-.157.16-.157.012 0 .02-.008.02-.016 0-.01.058-.076.13-.15.118-.12.16-.193.112-.193a.227.227 0 0 0-.07.05zM14.455 25.141a.2.2 0 0 0-.008.112c.008.046.002.1-.022.157-.028.074-.042.09-.086.092a.33.33 0 0 0-.094.016c-.032.014-.028.018.032.03.074.014.114.046.158.13.016.032.024.221.026.66l.004.614.084.082.086.08.209-.004c.144-.004.217-.014.233-.032.022-.022.006-.024-.098-.014-.203.022-.297-.016-.401-.162-.044-.062-.044-.074-.044-.662 0-.331.008-.6.016-.6.01 0 .038-.018.064-.04.04-.034.074-.04.273-.04.187 0 .225-.006.225-.03 0-.026-.042-.03-.255-.03-.317 0-.323-.004-.323-.239 0-.128-.006-.16-.03-.16-.016 0-.038.018-.05.04zM31.069 25.117c-.042.006-.046.018-.046.15 0 .211-.008.227-.116.245-.07.012-.082.018-.044.024a.245.245 0 0 1 .106.064l.056.054-.002.566c0 .496.004.576.036.656.044.114.088.179.116.179.014 0 .028.014.034.03.01.022.056.028.217.028.231 0 .275-.008.275-.05 0-.022-.012-.026-.04-.018a.947.947 0 0 1-.175.016c-.11.004-.148-.004-.207-.042-.042-.026-.076-.056-.076-.068s-.012-.032-.028-.044c-.024-.018-.03-.126-.032-.6a22.467 22.467 0 0 1-.002-.624c.004-.08.136-.124.377-.124.155 0 .205-.006.199-.026-.006-.016-.088-.026-.273-.034-.203-.008-.267-.016-.281-.04-.01-.016-.02-.1-.02-.183s-.006-.155-.014-.16a.147.147 0 0 0-.06 0zM9.187 25.528a.21.21 0 0 1-.072.04c-.024.008-.044.024-.044.034 0 .028.144.02.207-.012.076-.04.297-.04.339 0 .016.016.046.03.068.03.046 0 .203.132.203.169 0 .016.01.03.02.034.04.012.06.253.06.724 0 .449.002.48.038.502.02.014.044.018.05.012.006-.008.012-.255.012-.552-.002-.463-.006-.554-.036-.64-.058-.162-.171-.307-.245-.309a.157.157 0 0 1-.07-.03c-.052-.04-.49-.042-.53-.002zM10.978 25.53c-.006.016-.028.03-.05.03-.034 0-.142.084-.142.11 0 .004-.022.032-.05.062s-.05.064-.05.078c0 .016.018.02.05.014.028-.004.05-.016.05-.026 0-.026.092-.118.118-.118.012 0 .022-.008.022-.018 0-.008.04-.028.09-.042s.096-.034.102-.042a.496.496 0 0 1 .175-.018c.124 0 .173.008.191.03.014.016.036.03.048.03.032 0 .171.138.171.167 0 .016.014.038.03.052.024.02.03.06.026.177l-.006.152-.084.04c-.092.042-.11.07-.048.07.02 0 .048.014.062.03s.038.03.052.03c.022 0 .028.044.028.197 0 .114-.008.205-.02.211a.491.491 0 0 0-.08.162c0 .004.012.008.028.008s.048.028.074.062c.096.128.114.138.217.138.112 0 .142-.046.046-.068a.281.281 0 0 1-.102-.048c-.046-.036-.046-.036-.046-.534.002-.451-.002-.508-.04-.622-.044-.132-.167-.283-.233-.283a.147.147 0 0 1-.072-.03c-.058-.044-.54-.044-.558 0zM12.852 25.53c-.006.016-.028.03-.05.03-.02 0-.09.05-.154.112-.116.112-.116.112-.124.243-.006.122-.002.14.05.205.03.04.084.09.116.11a.885.885 0 0 0 .313.108c.032 0 .09.014.13.03.038.016.11.03.158.03.046 0 .09.008.098.018.006.01.044.03.084.044a.32.32 0 0 1 .12.074c.04.042.046.07.046.191 0 .13-.004.146-.056.195a.726.726 0 0 1-.144.098c-.078.042-.114.046-.315.044-.167-.004-.239-.012-.275-.034a.182.182 0 0 0-.07-.032c-.026 0-.042-.012-.171-.138-.096-.092-.126-.102-.126-.038.002.056.07.14.15.181.217.112.211.112.51.11.241 0 .297-.006.357-.038a.296.296 0 0 1 .09-.038c.024 0 .088-.068.136-.144.046-.072.048-.331.004-.347-.016-.008-.03-.022-.03-.036-.002-.086-.261-.199-.528-.229-.183-.02-.355-.08-.441-.152l-.078-.066.004-.165c.004-.154.008-.167.06-.209.138-.112.48-.169.576-.098.02.016.054.03.074.03.042 0 .193.084.193.106 0 .03.1.116.12.104.012-.006.02-.032.02-.058 0-.056-.152-.211-.203-.211-.02 0-.042-.014-.048-.03-.01-.024-.062-.03-.297-.03s-.287.006-.297.03zM15.838 25.538c-.14.076-.267.211-.267.285 0 .036.01.056.03.056.016 0 .03-.014.03-.03s.012-.03.028-.03.032-.02.04-.046c.006-.026.036-.06.066-.076a.386.386 0 0 0 .082-.054c.014-.012.042-.024.06-.024s.06-.014.092-.03c.074-.04.291-.04.343 0a.14.14 0 0 0 .07.03c.04 0 .138.082.138.116 0 .014.012.024.026.024.03 0 .094.189.094.285 0 .078-.07.173-.126.173a.089.089 0 0 0-.058.028c-.02.018-.09.03-.205.034-.118.006-.179.016-.185.034-.004.014-.044.024-.1.024a.41.41 0 0 0-.152.03.268.268 0 0 1-.084.03.487.487 0 0 0-.138.11l-.11.11v.148c0 .112.008.15.03.16.016.006.03.02.03.032 0 .028.058.082.134.124.082.046.538.05.596.006.034-.026.018-.03-.142-.026-.195.002-.349-.016-.349-.046 0-.01-.012-.018-.028-.018s-.056-.028-.09-.062c-.056-.056-.062-.072-.062-.187 0-.12.004-.134.066-.195a.54.54 0 0 1 .13-.092c.036-.016.064-.034.064-.044s.046-.018.1-.018c.072 0 .1-.008.1-.028 0-.038.475-.066.538-.032.04.022.044.036.036.195-.004.114-.014.173-.032.179-.012.004-.024.028-.024.054s-.014.06-.03.078c-.032.032-.04.072-.012.072.024 0 .152.124.167.163.018.048.253.054.253.006 0-.018-.018-.03-.048-.03-.074 0-.142-.078-.167-.189a5.424 5.424 0 0 1-.034-.598c-.008-.411-.016-.5-.04-.514-.016-.008-.03-.028-.03-.044 0-.032-.104-.116-.213-.171-.1-.052-.52-.052-.616 0zM17.713 25.53a.06.06 0 0 1-.05.03c-.022 0-.054.018-.072.04-.02.022-.046.04-.06.04s-.026.014-.026.03-.008.03-.02.03c-.01 0-.02.012-.02.028 0 .014-.018.05-.04.078s-.04.08-.04.116c0 .078.06.215.096.217.012 0 .024.01.024.02 0 .036.108.118.154.12.024 0 .046.01.05.022s.07.028.146.038a.976.976 0 0 1 .195.038.36.36 0 0 0 .104.022c.072 0 .269.082.269.112 0 .016.014.028.03.028s.03.012.03.028a.04.04 0 0 0 .026.036c.016.006.024.05.024.126s-.008.12-.024.124c-.014.006-.026.022-.026.038s-.012.028-.028.028-.032.012-.038.028-.046.046-.088.066c-.108.052-.546.052-.634 0a.281.281 0 0 0-.082-.034c-.014 0-.028-.014-.036-.03a.048.048 0 0 0-.042-.03c-.016 0-.03-.008-.03-.018 0-.04-.096-.122-.128-.11-.044.016-.02.106.042.154.026.02.06.05.074.066.016.016.038.028.05.028s.056.018.096.04c.066.036.114.04.391.04.251 0 .317-.006.325-.028.006-.016.034-.034.062-.042.068-.016.175-.13.193-.201.03-.12.036-.211.014-.233a.087.087 0 0 1-.022-.054c0-.04-.114-.16-.152-.16-.018 0-.044-.014-.06-.03a.164.164 0 0 0-.094-.03.192.192 0 0 1-.102-.03.328.328 0 0 0-.162-.03.366.366 0 0 1-.162-.028c-.022-.016-.074-.034-.114-.042s-.082-.026-.096-.042c-.012-.016-.034-.028-.046-.028s-.042-.03-.066-.066c-.056-.082-.068-.313-.016-.313.016 0 .03-.012.03-.028 0-.036.108-.104.193-.122.036-.006.07-.022.076-.032.016-.022.303-.024.317 0a.334.334 0 0 0 .102.042c.088.024.229.136.229.177 0 .012.028.022.06.022.064 0 .084-.046.03-.068-.016-.006-.03-.02-.03-.034 0-.03-.118-.13-.209-.177-.066-.034-.118-.04-.343-.04-.219 0-.269.006-.277.03zM20.193 25.552c-.054.028-.096.058-.096.068 0 .012-.008.02-.02.02-.036 0-.102.08-.114.14-.008.048-.004.06.022.06.018 0 .038-.014.046-.032a.44.44 0 0 1 .201-.179.713.713 0 0 0 .126-.042c.134-.056.409 0 .522.106.03.028.054.058.054.068s.014.03.03.046c.02.02.03.082.034.193.006.181-.016.219-.128.219-.032 0-.062.014-.068.03-.01.024-.048.03-.167.03-.114 0-.157.008-.165.028-.008.018-.056.03-.146.036-.08.004-.138.018-.144.032-.004.014-.022.024-.04.024-.044 0-.163.084-.163.114 0 .014-.014.026-.03.026-.044 0-.076.152-.062.287.012.122.03.146.167.245.058.042.084.046.339.046.251 0 .281-.004.313-.04.02-.022.052-.04.074-.04.02 0 .036-.012.036-.028s.012-.032.026-.038c.012-.004.018-.016.01-.024s-.028 0-.046.018-.054.032-.08.032-.05.012-.054.024c-.008.02-.076.026-.255.026s-.247-.006-.253-.026c-.006-.012-.02-.024-.034-.024-.032 0-.098-.074-.128-.146-.028-.066-.032-.167-.006-.183.01-.006.024-.038.032-.07.008-.034.024-.06.04-.06.014 0 .036-.014.05-.028.04-.05.181-.104.329-.13.285-.048.421-.064.483-.052.054.01.064.022.076.09.018.106-.008.341-.042.375-.016.014-.028.04-.028.056s-.008.028-.02.028a.02.02 0 0 0-.02.02c0 .01.014.02.034.02.03 0 .185.154.185.183 0 .01.05.016.11.016.08 0 .11-.008.11-.028 0-.014-.026-.032-.06-.038a.268.268 0 0 1-.104-.058c-.044-.044-.046-.054-.052-.594-.006-.604-.01-.618-.14-.754-.118-.124-.181-.144-.453-.142-.213.002-.249.006-.333.05zM25.245 25.53c-.014.016-.042.03-.062.03s-.052.018-.072.04c-.02.022-.044.04-.052.04-.02 0-.118.09-.118.108 0 .008-.026.048-.058.088s-.064.104-.072.14a.567.567 0 0 1-.042.12c-.044.086-.036.329.02.492.07.211.098.269.126.269.014 0 .026.014.026.03s.014.03.03.03.03.014.03.03.014.03.03.03c.018 0 .036.012.042.028s.034.034.064.042.06.024.068.036c.01.016.114.026.317.03.253.006.307.002.321-.022.008-.018.044-.036.076-.044.034-.008.06-.022.06-.032s.012-.018.028-.018c.03 0 .171-.163.171-.195 0-.012.006-.024.016-.028a.544.544 0 0 0 .06-.12c.042-.104.046-.14.04-.365-.004-.167-.014-.255-.03-.265-.014-.008-.03-.052-.038-.098-.006-.046-.026-.088-.04-.094a.046.046 0 0 1-.028-.042c0-.016-.014-.03-.03-.03s-.03-.014-.03-.03-.014-.03-.03-.03-.03-.014-.03-.03-.012-.03-.026-.03-.04-.018-.06-.04c-.018-.022-.05-.04-.072-.04s-.042-.012-.046-.026c-.006-.018-.086-.026-.287-.03-.227-.004-.281.002-.303.026zm.475.048c0 .008.04.028.09.042s.09.034.09.042c0 .01.01.018.024.018.034 0 .175.155.175.193 0 .018.016.05.034.072.03.032.038.088.044.335.006.271.002.303-.036.377a.383.383 0 0 0-.042.104c0 .018-.14.16-.245.247-.044.038-.138.052-.327.05-.154 0-.203-.008-.295-.05-.06-.028-.11-.06-.11-.072a.02.02 0 0 0-.02-.02c-.026 0-.1-.074-.1-.1 0-.012-.014-.026-.03-.032-.016-.008-.03-.028-.03-.048s-.016-.052-.034-.072c-.032-.03-.036-.076-.036-.337 0-.253.006-.309.036-.355a.218.218 0 0 0 .034-.092.06.06 0 0 1 .03-.05.048.048 0 0 0 .03-.042c0-.016.014-.03.03-.03s.03-.014.03-.03.012-.03.026-.03.048-.016.074-.034c.096-.068.225-.102.395-.104.09-.002.163.006.163.016zM27.384 25.522c-.008.01-.036.028-.062.038s-.048.028-.048.04c0 .03.102.024.167-.01.074-.04.307-.04.359 0 .022.016.06.03.084.03.026 0 .058.014.076.03.016.016.042.03.056.03s.048.032.074.07c.026.038.054.07.064.07s.018.026.018.058.012.068.028.08c.014.012.032.076.038.144a.697.697 0 0 0 .032.155c.014.024.01.07-.008.144-.016.06-.03.14-.03.179s-.014.084-.03.098a.102.102 0 0 0-.03.068c0 .044-.205.251-.249.251a.04.04 0 0 0-.034.024c-.008.02-.076.026-.251.026-.165 0-.249-.008-.265-.026a.113.113 0 0 0-.06-.024c-.04 0-.237-.187-.237-.225 0-.014-.018-.06-.04-.104s-.04-.102-.04-.13c0-.028-.01-.062-.022-.074-.044-.044.01-.443.074-.534.04-.056.036-.11-.01-.11-.07 0-.102-.054-.102-.171 0-.096-.02-.136-.048-.092-.008.014-.02 1.87-.014 2.161.002.068.01.096.03.096.048 0 .056-.106.042-.492-.014-.365-.014-.369.032-.417.024-.026.054-.048.062-.048.01 0 .056.04.102.088s.106.094.134.102a.25.25 0 0 1 .076.042c.04.042.548.04.582-.002a.157.157 0 0 1 .066-.042c.048-.016.233-.183.233-.213 0-.01.012-.03.028-.042.058-.048.092-.223.092-.485 0-.142-.008-.265-.016-.275a.432.432 0 0 1-.042-.106c-.018-.062-.062-.124-.163-.223-.078-.078-.155-.14-.177-.14a.057.057 0 0 1-.048-.03c-.008-.024-.056-.03-.259-.03-.154 0-.253.008-.261.022zM29.34 25.53a.106.106 0 0 1-.064.03c-.038 0-.05.008-.211.169-.064.062-.116.122-.116.134s-.012.038-.028.054a.678.678 0 0 0-.058.203 1.073 1.073 0 0 0-.002.367c.016.118.038.207.056.227s.032.048.032.062c0 .024.042.076.154.189a.791.791 0 0 0 .148.096c.096.05.118.054.363.054.171 0 .279-.01.307-.026.024-.012.082-.046.13-.072.118-.064.255-.217.255-.283 0-.014.012-.04.028-.056.05-.058.052-.656.002-.708a.131.131 0 0 1-.03-.082c0-.028-.014-.056-.03-.062-.016-.008-.03-.02-.03-.032a.522.522 0 0 0-.162-.155c-.01 0-.036-.018-.058-.04s-.056-.04-.074-.04a.146.146 0 0 1-.074-.03c-.058-.044-.494-.042-.538 0zm.507.06c.014.016.042.03.062.03.018 0 .048.014.066.03.016.016.036.03.044.03s.048.038.09.084c.076.086.102.154.167.437.034.142.034.155.004.247a.553.553 0 0 0-.034.148c0 .056-.064.185-.13.263-.048.056-.16.138-.187.138-.01 0-.022.01-.026.022-.018.054-.538.056-.572.002-.006-.012-.038-.028-.068-.034-.03-.008-.054-.026-.054-.042s-.012-.028-.028-.028-.032-.014-.04-.03a.048.048 0 0 0-.042-.03c-.016 0-.03-.016-.03-.038 0-.02-.014-.048-.03-.062s-.03-.05-.03-.08-.014-.066-.03-.08c-.042-.036-.042-.51 0-.566.016-.022.03-.06.03-.084s.014-.054.03-.068c.016-.014.03-.036.03-.048 0-.032.118-.152.148-.152.016 0 .032-.014.04-.03.006-.016.032-.03.056-.03a.266.266 0 0 0 .096-.03c.072-.042.405-.042.439 0zM32.229 25.552c-.038.028-.04.054-.04.752 0 .666.002.724.036.758.02.02.044.03.054.024.024-.014.028-1.537.004-1.553-.008-.004-.032.004-.054.02zM32.817 25.586c0 .036.026.118.058.181a.947.947 0 0 1 .072.173c.008.034.026.066.042.072s.028.036.028.066c0 .03.014.066.03.08s.03.042.03.064c0 .02.018.056.04.08s.04.064.04.088c0 .026.008.05.018.056s.024.042.03.08c.008.038.026.074.042.08s.03.032.03.058c0 .028.012.06.028.072.014.012.032.058.04.102.006.044.02.08.03.08.016 0 .06.13.082.247.014.082.058.09.072.014.008-.032.024-.064.04-.07s.028-.032.028-.058c0-.028.014-.06.03-.074s.03-.044.03-.068c0-.024.012-.06.028-.082a.332.332 0 0 0 .04-.104c.008-.034.028-.068.044-.074s.028-.036.028-.066a.18.18 0 0 1 .03-.094c.016-.022.03-.06.03-.086s.014-.052.03-.058c.016-.008.03-.036.03-.068 0-.03.014-.066.03-.08s.03-.04.03-.06c0-.018.018-.058.04-.086s.04-.074.04-.102c0-.028.008-.052.018-.052s.028-.04.04-.088c.012-.05.03-.096.042-.102.026-.016.026-.144 0-.16-.012-.006-.028.01-.038.036a.208.208 0 0 1-.04.064c-.012.006-.022.044-.022.082 0 .044-.012.074-.03.08-.016.008-.03.028-.03.046s-.018.066-.04.108c-.022.04-.04.096-.04.124s-.008.05-.018.05c-.01 0-.026.028-.032.064a.263.263 0 0 1-.042.092c-.016.014-.028.052-.028.082 0 .032-.012.068-.028.08a.175.175 0 0 0-.042.084c-.008.032-.02.058-.028.058-.01 0-.022.038-.028.084-.006.048-.02.088-.032.092s-.026.038-.034.076c-.01.056-.022.068-.064.068-.062 0-.144-.086-.144-.15 0-.026-.012-.056-.028-.068a.18.18 0 0 1-.04-.092c-.008-.038-.022-.07-.03-.07-.01 0-.024-.032-.03-.07-.008-.038-.022-.07-.032-.07-.012 0-.02-.012-.02-.026 0-.012-.014-.05-.03-.08s-.034-.086-.042-.124a.18.18 0 0 0-.04-.092c-.016-.012-.028-.048-.028-.076a.187.187 0 0 0-.03-.094.158.158 0 0 1-.03-.08c0-.024-.012-.054-.028-.066a.201.201 0 0 1-.044-.088c-.016-.076-.068-.152-.102-.154-.016 0-.026.026-.026.066zM8.717 25.594c-.026.064-.016 1.477.01 1.503.058.058.066-.008.066-.498 0-.401.006-.506.03-.552a.282.282 0 0 0 .03-.098.264.264 0 0 1 .03-.09c.044-.076.036-.1-.03-.1-.048 0-.06-.008-.062-.046l-.008-.074-.008-.056c-.004-.036-.042-.03-.058.01zM19.226 25.592c-.012.032.004.385.028.666.014.14.014.144.028.07.008-.044.016-.235.016-.425.002-.295-.002-.343-.028-.343-.018 0-.036.014-.044.032zM9.002 25.66c-.006.01-.002.02.008.02.012 0 .022-.01.022-.02 0-.012-.004-.02-.008-.02-.006 0-.016.008-.022.02z"/><path d="M27.195 25.66c0 .01.014.02.03.02s.03-.01.03-.02c0-.012-.014-.02-.03-.02s-.03.008-.03.02zM11.245 26.308c0 .032.106.04.243.018.122-.02.066-.048-.096-.048-.118 0-.148.006-.148.03zM10.91 26.378c-.038.02-.082.05-.102.068s-.046.032-.058.032c-.014 0-.024.014-.024.03s-.012.03-.028.03-.034.026-.042.06c-.008.032-.022.064-.032.07-.024.016-.024.189.002.189.012 0 .02.016.02.038 0 .038.084.142.116.142.01 0 .034.018.056.042.034.038.054.04.317.034.237-.004.287-.012.317-.042.02-.018.048-.034.064-.034.03 0 .108-.06.108-.084 0-.026-.04-.018-.072.014-.018.016-.048.03-.07.03s-.038.014-.038.032c0 .03-.028.032-.243.024-.275-.012-.337-.034-.425-.148-.048-.064-.054-.084-.046-.183.006-.062.02-.116.032-.12.014-.004.024-.02.024-.036s.014-.028.03-.028c.018 0 .036-.012.042-.028s.038-.036.07-.042c.032-.008.058-.022.058-.03 0-.01.034-.024.076-.03.116-.02.146-.032.134-.052-.022-.032-.215-.018-.285.022zM19.246 26.906c-.022.116-.012.148.04.15.018 0 .016-.177-.004-.229-.012-.03-.022-.012-.036.08zM16.488 26.956c0 .01.01.02.02.02a.02.02 0 0 0 .02-.02c0-.012-.008-.02-.02-.02a.02.02 0 0 0-.02.02zM16.349 27.016c0 .01.012.02.028.02s.036-.01.042-.02c.006-.012-.006-.02-.028-.02-.024 0-.042.008-.042.02zM33.416 27.315c0 .038-.01.06-.028.06-.016 0-.036.028-.042.064a.263.263 0 0 1-.042.092.1.1 0 0 0-.028.066c0 .02-.014.038-.03.038-.018 0-.036.012-.042.028s-.038.036-.07.042c-.032.008-.058.022-.058.032s-.054.018-.118.018c-.066 0-.124.008-.13.018-.03.048.227.06.275.012a.111.111 0 0 1 .066-.03c.042 0 .165-.11.165-.148 0-.016.012-.032.028-.038s.034-.038.042-.072c.008-.034.022-.066.032-.072.024-.016.024-.169-.002-.169-.01 0-.02.026-.02.06zM32.758 27.733c0 .01.014.02.03.02s.03-.01.03-.02c0-.012-.014-.02-.03-.02s-.03.008-.03.02zM13.035 29.243c-.048.012-.046.03.006.062.05.032.09.006.072-.044-.014-.032-.018-.034-.078-.018zM14.993 29.269c0 .01.01.02.02.02a.02.02 0 0 0 .02-.02c0-.012-.008-.02-.02-.02a.02.02 0 0 0-.02.02zM16.483 29.263c-.008.006-.014.034-.014.06 0 .036.01.046.05.046.05 0 .062-.026.038-.088-.012-.032-.052-.042-.074-.018zM17.386 29.279c0 .032.018.038.068.018.05-.018.038-.048-.018-.048-.032 0-.05.012-.05.03zM18.157 29.261c-.012.012-.006.068.018.185l.01.048.04-.042c.042-.048.05-.144.014-.179-.026-.026-.062-.032-.082-.012zM19.252 29.292c-.036.134.006.189.082.108.064-.068.056-.14-.016-.148-.04-.004-.056.004-.066.04zM20.875 29.308c0 .054.006.06.06.06.062 0 .082-.032.03-.052-.016-.008-.03-.024-.03-.04s-.014-.028-.03-.028c-.02 0-.03.02-.03.06zM22.51 29.269c0 .01.018.02.042.02.022 0 .034-.01.028-.02-.006-.012-.026-.02-.042-.02s-.028.008-.028.02zM26.89 29.661a.897.897 0 0 0-.014.136c0 .034-.012.074-.024.086-.02.02-.02.034 0 .064a.257.257 0 0 1 .024.104c0 .082.02.155.04.155.01 0 .016-.13.016-.287 0-.287-.02-.401-.042-.257zM25.472 29.691a1.92 1.92 0 0 0 .008.455c.01.03.016-.056.018-.225.002-.15-.002-.273-.006-.273s-.012.02-.02.044zM26.637 29.857c0 .054.006.09.014.082.014-.014.01-.154-.006-.169-.004-.004-.008.034-.008.088zM14.983 29.847c-.006.01-.002.038.01.062l.024.042.028-.042c.018-.024.024-.052.018-.062-.016-.026-.064-.026-.08 0zM19.718 29.875c0 .028.01.056.02.062.012.006.02-.002.02-.018 0-.018.018-.032.04-.032.054 0 .05-.032-.004-.048-.07-.018-.076-.016-.076.036zM23.09 29.919c0 .022.006.028.012.012.006-.014.004-.032-.002-.038-.006-.008-.012.004-.01.026zM24.304 29.919c0 .016.01.024.02.018.012-.008.016-.022.01-.032-.018-.028-.03-.022-.03.014zM13.797 29.926c0 .026.022.026.06 0 .024-.016.022-.02-.014-.02-.026 0-.046.008-.046.02zM14.301 29.921c-.036.014-.032.086.002.086.016 0 .042.006.06.012.026.01.032-.002.032-.05 0-.062-.028-.076-.094-.048zM27.823 29.924c.006.012.03.022.05.022s.046.016.058.034c.01.02.026.028.034.02.03-.03-.026-.084-.092-.09-.042-.004-.06 0-.05.014zM21.393 29.986c0 .01.01.02.02.02a.02.02 0 0 0 .02-.02c0-.012-.008-.02-.02-.02a.02.02 0 0 0-.02.02zM16.162 30.058c-.028.074-.014.088.084.086a.517.517 0 0 0 .134-.016c.032-.014.028-.018-.034-.03-.04-.006-.078-.026-.084-.042-.014-.04-.084-.038-.1.002zM16.802 30.054c-.006.016-.042.034-.078.042-.058.014-.06.018-.026.032a.472.472 0 0 0 .126.016c.062.002.084-.006.084-.028 0-.016-.008-.03-.02-.03-.01 0-.02-.014-.02-.03 0-.038-.052-.04-.066-.002zM26.639 30.058c0 .022.006.028.012.012.006-.014.004-.032-.002-.038-.006-.008-.012.004-.01.026zM16.564 30.12c.014.006.032.004.038-.002.008-.006-.004-.012-.026-.01-.022 0-.028.006-.012.012zM27.893 30.297c-.022.052-.04.096-.04.1s.026.008.058.008c.068 0 .092-.046.072-.14-.018-.084-.042-.074-.09.032zM18.682 30.463c0 .042.012.06.044.068.078.022.104-.034.044-.094-.05-.05-.088-.04-.088.026zM21.726 30.419c-.032.03-.012.1.034.122.06.026.072.014.072-.07 0-.056-.008-.066-.046-.066-.026 0-.054.006-.06.014zM15.005 30.539c-.022.022-.012.046.018.046.016 0 .03-.008.03-.018 0-.026-.032-.044-.048-.028z"/></symbol><symbol id="logo-white" viewBox="0 0 41 32"><path d="M15.005 30.539c-.022.022-.012.046.018.046.016 0 .03-.008.03-.018 0-.026-.032-.044-.048-.028z"/></symbol></defs></svg>