<?xml version="1.0" standalone="no"?>
<!DOCTYPE svg PUBLIC "-//W3C//DTD SVG 20010904//EN"
 "http://www.w3.org/TR/2001/REC-SVG-20010904/DTD/svg10.dtd">
<svg version="1.0" xmlns="http://www.w3.org/2000/svg"
 width="2048.000000pt" height="1605.000000pt" viewBox="0 0 2048.000000 1605.000000"
 preserveAspectRatio="xMidYMid meet">

<g transform="translate(0.000000,1605.000000) scale(0.100000,-0.100000)"
fill="#000000" stroke="none">
<path d="M7165 13889 c-55 -56 -118 -117 -139 -137 -21 -21 -44 -43 -50 -50
-6 -6 -58 -58 -115 -115 -57 -56 -117 -115 -133 -132 -17 -16 -188 -187 -380
-380 -193 -192 -365 -364 -382 -381 -387 -387 -556 -561 -556 -571 0 -7 -5
-13 -11 -13 -14 0 -1279 -1264 -1279 -1279 0 -6 7 -14 15 -17 8 -4 15 -10 15
-15 0 -13 105 -119 118 -119 7 0 12 -4 12 -10 0 -13 37 -50 50 -50 6 0 10 -4
10 -10 0 -12 48 -60 60 -60 6 0 10 -7 10 -15 0 -8 7 -15 15 -15 8 0 15 -7 15
-15 0 -8 7 -15 15 -15 8 0 15 -4 15 -10 0 -12 48 -60 60 -60 6 0 10 -7 10 -15
0 -8 7 -15 15 -15 8 0 15 -7 15 -15 0 -8 7 -15 15 -15 8 0 15 -4 15 -9 0 -11
80 -91 91 -91 5 0 9 -7 9 -15 0 -8 7 -15 15 -15 8 0 15 -4 15 -9 0 -5 19 -27
41 -50 23 -22 45 -41 50 -41 5 0 9 -7 9 -15 0 -8 7 -15 15 -15 8 0 15 -4 15
-9 0 -5 19 -27 41 -50 23 -22 45 -41 50 -41 5 0 9 -7 9 -15 0 -8 7 -15 15 -15
8 0 15 -4 15 -10 0 -11 36 -50 46 -50 10 0 54 -50 54 -61 0 -5 7 -9 15 -9 8 0
15 -7 15 -15 0 -8 7 -15 15 -15 8 0 15 -4 15 -10 0 -9 47 -60 55 -60 9 0 45
-40 45 -50 0 -5 7 -10 15 -10 8 0 15 -7 15 -15 0 -8 7 -15 15 -15 9 0 19 -8
22 -17 8 -21 40 -53 53 -53 6 0 10 -7 10 -15 0 -8 7 -15 15 -15 8 0 15 -4 15
-9 0 -13 76 -91 89 -91 6 0 11 -7 11 -15 0 -8 7 -15 15 -15 8 0 15 -7 15 -15
0 -8 5 -15 12 -15 13 0 58 -48 58 -62 0 -4 7 -8 15 -8 8 0 15 -7 15 -15 0 -8
7 -15 15 -15 8 0 15 -7 15 -15 0 -8 4 -15 10 -15 13 0 90 -77 90 -90 0 -5 7
-10 15 -10 8 0 15 -4 15 -10 0 -13 37 -50 49 -50 5 0 13 -9 16 -20 3 -11 13
-20 21 -20 8 0 14 -7 14 -15 0 -8 7 -15 15 -15 8 0 15 -7 15 -15 0 -8 7 -15
15 -15 8 0 15 -4 15 -10 0 -12 48 -60 60 -60 6 0 10 -7 10 -15 0 -8 7 -15 15
-15 8 0 15 -7 15 -15 0 -8 7 -15 15 -15 8 0 15 -3 15 -7 0 -13 78 -93 90 -93
5 0 10 -7 10 -15 0 -8 7 -15 15 -15 8 0 15 -7 15 -15 0 -8 4 -15 10 -15 12 0
60 -48 60 -60 0 -6 7 -10 15 -10 8 0 15 -7 15 -15 0 -8 7 -15 15 -15 8 0 15
-7 15 -15 0 -8 4 -15 10 -15 12 0 60 -48 60 -60 0 -6 7 -10 15 -10 8 0 15 -7
15 -15 0 -8 7 -15 15 -15 8 0 15 -6 15 -12 0 -7 14 -22 30 -33 17 -11 33 -28
36 -37 3 -10 12 -18 20 -18 8 0 14 -7 14 -15 0 -8 7 -15 15 -15 8 0 15 -4 15
-10 0 -12 79 -90 91 -90 5 0 9 -7 9 -15 0 -8 7 -15 15 -15 8 0 15 -4 15 -10 0
-12 79 -90 91 -90 5 0 9 -7 9 -15 0 -8 7 -15 15 -15 8 0 15 -7 15 -15 0 -8 7
-15 15 -15 8 0 15 -7 15 -15 0 -8 7 -15 16 -15 9 0 18 -9 21 -20 3 -11 12 -20
19 -20 8 0 14 -7 14 -15 0 -8 7 -15 15 -15 8 0 15 -7 15 -15 0 -8 7 -15 15
-15 8 0 15 -7 15 -15 0 -8 7 -15 16 -15 9 0 18 -9 21 -20 3 -11 9 -20 14 -20
11 0 79 -68 79 -80 0 -5 8 -11 18 -14 9 -3 26 -19 37 -36 11 -16 26 -30 33
-30 6 0 12 -7 12 -15 0 -8 5 -15 10 -15 13 0 90 -77 90 -90 0 -6 7 -10 15 -10
8 0 15 -7 15 -15 0 -8 7 -15 15 -15 8 0 15 -7 15 -15 0 -8 5 -15 12 -15 13 0
58 -48 58 -62 0 -4 7 -8 15 -8 8 0 15 -7 15 -15 0 -8 5 -15 10 -15 13 0 50
-37 50 -50 0 -5 5 -10 11 -10 13 0 89 -78 89 -91 0 -5 7 -9 15 -9 8 0 15 -6
15 -14 0 -7 9 -16 20 -19 11 -3 20 -12 20 -21 0 -9 7 -16 15 -16 8 0 15 -7 15
-15 0 -8 7 -15 15 -15 8 0 15 -7 15 -15 0 -8 7 -15 15 -15 8 0 15 -6 15 -14 0
-8 9 -18 20 -21 11 -3 20 -13 20 -21 0 -8 5 -14 10 -14 13 0 50 -37 50 -50 0
-5 5 -10 10 -10 12 0 90 -79 90 -91 0 -5 7 -9 15 -9 8 0 15 -7 15 -15 0 -8 4
-15 10 -15 14 0 90 -75 90 -88 0 -7 7 -12 15 -12 8 0 15 -7 15 -15 0 -8 4 -15
10 -15 14 0 90 -75 90 -88 0 -7 5 -12 10 -12 10 0 50 -36 50 -45 0 -7 39 -45
46 -45 10 0 54 -50 54 -61 0 -5 7 -9 15 -9 8 0 15 -7 15 -15 0 -8 7 -15 15
-15 8 0 15 -4 15 -10 0 -9 47 -60 55 -60 9 0 75 -71 75 -80 0 -6 7 -10 15 -10
9 0 19 -8 22 -17 7 -17 39 -53 48 -53 9 0 45 -40 45 -50 0 -5 5 -10 12 -10 13
0 88 -76 88 -90 0 -6 5 -10 10 -10 14 0 120 -106 120 -120 0 -5 7 -10 15 -10
8 0 15 -7 15 -15 0 -8 4 -15 10 -15 13 0 90 -77 90 -90 0 -5 7 -10 15 -10 8 0
15 -7 15 -15 0 -8 5 -15 11 -15 13 0 149 -138 149 -151 0 -5 4 -9 10 -9 13 0
160 -147 160 -160 0 -6 4 -10 9 -10 13 0 181 -168 181 -180 0 -6 5 -10 10 -10
14 0 120 -106 120 -120 0 -5 7 -10 15 -10 8 0 15 -7 15 -15 0 -8 5 -15 12 -15
13 0 88 -76 88 -90 0 -6 5 -10 10 -10 13 0 250 -238 250 -250 0 -6 5 -10 10
-10 13 0 50 -37 50 -49 0 -5 9 -13 20 -16 11 -3 20 -13 20 -21 0 -8 7 -14 15
-14 8 0 15 -7 15 -15 0 -8 7 -15 15 -15 8 0 15 -7 15 -15 0 -8 5 -15 10 -15 6
0 19 -9 30 -20 36 -36 66 -26 136 45 36 36 69 65 74 65 6 0 10 5 10 10 0 6 72
82 160 169 88 88 160 164 160 170 0 6 5 11 10 11 14 0 480 466 480 480 0 5 5
10 11 10 13 0 929 917 929 930 0 6 5 10 10 10 13 0 800 786 800 800 0 5 5 10
10 10 14 0 310 296 310 310 0 5 5 10 10 10 14 0 930 916 930 930 0 5 5 10 11
10 15 0 89 74 89 89 0 6 4 11 10 11 13 0 250 237 250 250 0 5 5 10 10 10 13 0
120 108 120 121 0 5 7 9 15 9 8 0 15 7 15 15 0 8 5 15 11 15 13 0 119 107 119
121 0 5 5 9 11 9 15 0 119 104 119 119 0 6 7 11 15 11 8 0 15 7 15 15 0 8 4
15 9 15 12 0 91 78 91 90 0 6 7 10 15 10 8 0 15 7 15 15 0 8 4 15 9 15 13 0
91 76 91 89 0 6 4 11 10 11 13 0 80 66 80 78 0 6 9 14 20 17 11 3 20 13 20 21
0 8 7 14 15 14 8 0 15 7 15 15 0 8 4 15 10 15 12 0 90 79 90 91 0 5 7 9 15 9
8 0 15 7 15 15 0 8 5 15 10 15 13 0 250 238 250 251 0 5 7 9 15 9 8 0 15 7 15
15 0 8 4 15 9 15 12 0 91 78 91 90 0 6 7 10 15 10 8 0 15 7 15 15 0 8 4 15 9
15 12 0 91 78 91 90 0 6 5 10 10 10 6 0 42 31 80 70 39 38 70 74 70 80 0 5 4
10 10 10 13 0 310 298 310 311 0 10 -331 353 -437 454 -29 28 -336 333 -681
679 -345 345 -694 694 -776 775 -82 80 -190 188 -240 240 -97 101 -402 405
-433 432 -10 9 -61 61 -113 116 -52 55 -116 122 -142 149 -98 102 -318 314
-326 314 -5 0 -22 -16 -38 -35 -16 -19 -35 -35 -41 -35 -7 0 -13 -5 -13 -11 0
-7 -8 -17 -17 -24 -15 -11 -12 -18 33 -66 27 -30 94 -99 149 -155 55 -55 106
-107 114 -115 42 -44 210 -206 227 -220 10 -9 49 -47 85 -85 37 -38 95 -97
130 -132 73 -71 66 -64 161 -161 40 -41 88 -88 106 -105 18 -17 52 -50 75 -74
40 -41 463 -463 481 -479 4 -4 40 -42 80 -83 39 -41 98 -101 131 -133 33 -32
71 -70 85 -84 14 -14 89 -89 168 -166 78 -78 142 -147 142 -153 0 -7 8 -15 18
-18 10 -4 62 -50 114 -104 53 -53 102 -103 110 -110 53 -50 410 -416 438 -448
20 -23 47 -47 60 -54 28 -15 54 -44 76 -83 15 -27 14 -30 -18 -72 -18 -25 -36
-45 -41 -45 -4 0 -38 -32 -75 -72 -101 -107 -214 -218 -224 -218 -4 0 -8 -5
-8 -10 0 -12 -42 -54 -77 -77 -13 -9 -23 -19 -23 -24 0 -12 -137 -149 -150
-149 -5 0 -10 -4 -10 -10 0 -13 -37 -50 -50 -50 -5 0 -10 -4 -10 -9 0 -12
-108 -121 -120 -121 -6 0 -10 -5 -10 -10 0 -14 -105 -120 -119 -120 -6 0 -11
-6 -11 -14 0 -8 -9 -18 -20 -21 -11 -3 -20 -11 -20 -16 0 -10 -297 -309 -306
-309 -6 0 -44 -39 -44 -46 0 -10 -139 -144 -150 -144 -5 0 -10 -5 -10 -11 0
-13 -238 -249 -251 -249 -5 0 -9 -6 -9 -14 0 -8 -14 -23 -30 -33 -17 -9 -33
-25 -36 -35 -3 -10 -12 -18 -20 -18 -8 0 -14 -7 -14 -15 0 -8 -7 -15 -15 -15
-8 0 -15 -4 -15 -9 0 -11 -80 -91 -91 -91 -5 0 -9 -7 -9 -15 0 -8 -7 -15 -15
-15 -8 0 -15 -3 -15 -8 0 -11 -209 -222 -220 -222 -6 0 -10 -7 -10 -15 0 -8
-7 -15 -15 -15 -8 0 -15 -6 -15 -13 0 -14 -27 -40 -53 -50 -9 -3 -17 -13 -17
-22 0 -8 -7 -15 -15 -15 -8 0 -15 -4 -15 -10 0 -9 -106 -120 -115 -120 -5 0
-75 -69 -75 -75 0 -8 -81 -85 -90 -85 -6 0 -10 -7 -10 -15 0 -8 -4 -15 -9 -15
-12 0 -91 -80 -91 -92 0 -4 -7 -8 -15 -8 -8 0 -15 -4 -15 -10 0 -12 -37 -50
-49 -50 -5 0 -16 -11 -24 -23 -20 -31 -103 -114 -134 -134 -12 -8 -23 -22 -23
-29 0 -8 -7 -14 -15 -14 -8 0 -15 -4 -15 -10 0 -12 -109 -120 -121 -120 -5 0
-9 -7 -9 -15 0 -8 -7 -15 -15 -15 -8 0 -15 -4 -15 -10 0 -12 -79 -90 -91 -90
-5 0 -9 -4 -9 -10 0 -13 -37 -50 -50 -50 -5 0 -10 -4 -10 -10 0 -11 -137 -150
-149 -150 -4 0 -17 -12 -27 -26 -32 -43 -62 -74 -74 -74 -5 0 -10 -6 -10 -14
0 -7 -11 -21 -24 -30 -24 -15 -76 -64 -76 -70 0 -10 -298 -306 -308 -306 -7 0
-12 -4 -12 -10 0 -14 -855 -870 -869 -870 -6 0 -11 -5 -11 -11 0 -6 -219 -231
-487 -499 -269 -269 -507 -509 -530 -535 -43 -47 -90 -69 -121 -57 -21 7 -222
210 -222 223 0 5 -5 9 -11 9 -15 0 -89 74 -89 89 0 6 -4 11 -9 11 -13 0 -121
107 -121 119 0 6 -7 11 -15 11 -8 0 -15 7 -15 15 0 8 -5 15 -11 15 -13 0 -89
78 -89 91 0 5 -4 9 -10 9 -12 0 -120 109 -120 121 0 5 -4 9 -10 9 -12 0 -180
168 -180 181 0 5 -4 9 -9 9 -13 0 -91 76 -91 89 0 6 -7 11 -15 11 -8 0 -15 7
-15 15 0 8 -4 15 -9 15 -12 0 -121 108 -121 120 0 6 -4 10 -8 10 -13 0 -92 77
-92 90 0 5 -7 10 -15 10 -8 0 -15 7 -15 15 0 8 -7 15 -15 15 -8 0 -15 6 -15
13 0 12 -42 57 -54 57 -10 0 -46 39 -46 50 0 6 -5 10 -11 10 -13 0 -89 78 -89
91 0 5 -7 9 -15 9 -8 0 -15 7 -15 15 0 8 -4 15 -10 15 -12 0 -90 79 -90 91 0
5 -7 9 -15 9 -8 0 -15 7 -15 15 0 8 -4 15 -9 15 -13 0 -121 108 -121 121 0 5
-7 9 -15 9 -8 0 -15 7 -15 15 0 8 -6 15 -14 15 -8 0 -18 9 -21 20 -3 11 -10
20 -16 20 -14 0 -49 33 -49 47 0 7 -7 13 -15 13 -8 0 -15 7 -15 15 0 8 -4 15
-9 15 -12 0 -91 78 -91 90 0 6 -7 10 -15 10 -8 0 -15 7 -15 15 0 8 -6 15 -14
15 -8 0 -17 8 -20 18 -3 9 -19 26 -36 37 -16 11 -30 26 -30 33 0 6 -7 12 -15
12 -8 0 -15 7 -15 15 0 8 -4 15 -10 15 -13 0 -45 32 -53 53 -3 9 -13 17 -22
17 -8 0 -15 7 -15 15 0 8 -7 15 -15 15 -8 0 -15 7 -15 15 0 8 -4 15 -10 15
-12 0 -90 79 -90 91 0 5 -7 9 -15 9 -8 0 -15 7 -15 15 0 8 -4 15 -10 15 -13 0
-45 32 -53 53 -3 9 -11 17 -17 17 -13 0 -50 37 -50 50 0 6 -7 10 -15 10 -8 0
-15 7 -15 15 0 8 -5 15 -11 15 -13 0 -89 78 -89 91 0 5 -7 9 -15 9 -8 0 -15 7
-15 15 0 8 -6 15 -14 15 -8 0 -18 9 -21 20 -3 11 -11 20 -16 20 -12 0 -49 37
-49 50 0 6 -7 10 -15 10 -8 0 -15 7 -15 15 0 8 -6 15 -12 15 -7 0 -22 14 -33
30 -11 17 -28 33 -37 36 -10 3 -18 12 -18 20 0 8 -7 14 -15 14 -8 0 -15 7 -15
15 0 8 -7 15 -15 15 -8 0 -15 7 -15 15 0 8 -7 15 -15 15 -8 0 -15 6 -15 14 0
8 -9 18 -20 21 -11 3 -20 13 -20 21 0 8 -7 14 -15 14 -8 0 -15 7 -15 15 0 8
-5 15 -12 15 -13 0 -58 48 -58 62 0 4 -7 8 -15 8 -8 0 -15 7 -15 15 0 8 -7 15
-15 15 -8 0 -15 7 -15 15 0 8 -4 15 -10 15 -12 0 -90 79 -90 91 0 5 -7 9 -15
9 -8 0 -15 5 -15 10 0 12 -37 50 -49 50 -5 0 -11 9 -14 20 -3 11 -12 20 -21
20 -9 0 -16 7 -16 15 0 8 -7 15 -15 15 -8 0 -15 7 -15 15 0 8 -7 15 -15 15 -8
0 -15 7 -15 15 0 8 -4 15 -10 15 -12 0 -60 48 -60 60 0 6 -7 10 -15 10 -8 0
-15 7 -15 15 0 8 -7 15 -15 15 -8 0 -15 4 -15 10 0 14 -75 90 -88 90 -7 0 -12
7 -12 15 0 8 -7 15 -15 15 -8 0 -15 7 -15 15 0 8 -6 15 -12 15 -7 0 -22 14
-33 30 -11 17 -28 33 -37 36 -10 3 -18 12 -18 20 0 8 -7 14 -15 14 -8 0 -15 5
-15 10 0 12 -37 50 -49 50 -5 0 -11 9 -14 20 -3 11 -12 20 -21 20 -9 0 -16 7
-16 15 0 8 -7 15 -15 15 -8 0 -15 7 -15 15 0 8 -4 15 -10 15 -13 0 -45 32 -53
53 -3 9 -13 17 -22 17 -8 0 -15 7 -15 15 0 8 -4 15 -10 15 -5 0 -19 9 -30 20
-11 11 -20 25 -20 30 0 6 -7 10 -15 10 -8 0 -15 7 -15 15 0 9 -8 19 -17 22
-21 8 -53 40 -53 53 0 6 -7 10 -15 10 -8 0 -15 7 -15 15 0 8 -7 15 -15 15 -8
0 -15 6 -15 14 0 8 -9 18 -20 21 -11 3 -20 13 -20 21 0 8 -7 14 -15 14 -8 0
-15 7 -15 15 0 8 -7 15 -15 15 -8 0 -15 7 -15 15 0 8 -7 15 -15 15 -8 0 -15 7
-15 15 0 9 -8 19 -17 22 -21 8 -53 40 -53 53 0 6 -7 10 -15 10 -8 0 -15 7 -15
15 0 8 -7 15 -15 15 -8 0 -15 5 -15 11 0 15 -42 59 -57 59 -7 0 -13 7 -13 15
0 8 -7 15 -15 15 -8 0 -15 7 -15 15 0 8 -4 15 -10 15 -13 0 -50 37 -50 49 0 5
-9 13 -20 16 -11 3 -20 13 -20 21 0 8 -7 14 -15 14 -8 0 -15 5 -15 10 0 10
-36 50 -45 50 -8 0 -55 51 -55 60 0 6 -7 10 -15 10 -8 0 -15 7 -15 15 0 8 -4
15 -9 15 -5 0 -35 25 -65 56 -31 30 -56 60 -56 65 0 5 -7 9 -15 9 -8 0 -15 7
-15 15 0 8 -6 15 -14 15 -8 0 -18 9 -21 20 -3 11 -10 20 -16 20 -14 0 -49 33
-49 47 0 7 -7 13 -15 13 -8 0 -15 7 -15 15 0 8 -6 15 -14 15 -8 0 -18 9 -21
20 -3 11 -11 20 -16 20 -12 0 -49 37 -49 50 0 6 -7 10 -15 10 -8 0 -15 7 -15
15 0 8 -6 15 -14 15 -8 0 -17 8 -20 18 -3 9 -19 26 -36 37 -16 11 -30 26 -30
33 0 6 -7 12 -15 12 -8 0 -15 7 -15 15 0 8 -4 15 -10 15 -13 0 -50 37 -50 49
0 5 -9 13 -20 16 -11 3 -20 13 -20 21 0 8 -7 14 -15 14 -8 0 -15 7 -15 15 0 8
-4 15 -10 15 -12 0 -90 79 -90 91 0 5 -7 9 -15 9 -8 0 -15 7 -15 15 0 8 -7 15
-15 15 -8 0 -15 7 -15 15 0 8 -7 15 -15 15 -8 0 -15 7 -15 15 0 9 -8 19 -17
22 -21 8 -53 40 -53 53 0 6 -7 10 -15 10 -11 0 -15 12 -15 46 l0 46 553 554
c305 305 559 554 565 554 7 0 12 6 12 13 0 6 211 222 468 478 257 257 483 484
503 505 19 22 86 87 147 146 62 59 112 110 112 112 0 3 45 50 101 103 56 54
116 114 135 133 212 215 362 370 373 384 13 16 12 20 -2 31 -9 7 -17 17 -17
24 0 6 -7 11 -15 11 -8 0 -15 5 -15 11 0 13 -46 59 -58 59 -5 0 -53 -45 -107
-101z"/>
<path d="M10345 12563 c-16 -3 -34 -11 -38 -19 -4 -8 -15 -14 -22 -14 -8 0
-15 -6 -15 -12 -1 -7 -14 -24 -30 -38 -17 -13 -30 -30 -30 -37 0 -7 -7 -13
-15 -13 -8 0 -15 -4 -15 -8 0 -5 -8 -18 -17 -30 -43 -50 -50 -59 -56 -75 -3
-9 -11 -17 -17 -17 -5 0 -10 -6 -10 -13 0 -7 -9 -23 -20 -35 -11 -12 -20 -25
-20 -29 0 -4 -14 -26 -30 -47 -17 -22 -30 -46 -30 -53 0 -7 -7 -13 -15 -13 -8
0 -15 -7 -15 -15 0 -9 -9 -25 -20 -37 -11 -12 -20 -28 -20 -35 0 -7 -4 -13
-10 -13 -5 0 -10 -7 -10 -15 0 -8 -4 -15 -9 -15 -5 0 -16 -16 -25 -35 -9 -19
-21 -35 -26 -35 -6 0 -10 -9 -10 -19 0 -11 -6 -26 -12 -33 -12 -13 -22 -28
-52 -83 -6 -10 -17 -25 -23 -33 -7 -7 -13 -22 -13 -32 0 -10 -7 -20 -15 -24
-8 -3 -15 -10 -15 -15 0 -5 -16 -33 -35 -62 -19 -30 -35 -59 -35 -65 0 -7 -7
-14 -15 -18 -8 -3 -15 -14 -15 -24 0 -11 -7 -25 -15 -32 -8 -7 -15 -18 -15
-25 0 -7 -7 -18 -15 -25 -8 -7 -15 -21 -15 -32 0 -10 -6 -21 -14 -24 -8 -3
-18 -19 -21 -35 -4 -16 -13 -29 -21 -29 -8 0 -14 -7 -14 -15 0 -17 -38 -93
-51 -101 -5 -3 -9 -14 -9 -25 0 -11 -6 -22 -14 -25 -8 -3 -19 -19 -25 -35 -5
-16 -15 -29 -20 -29 -6 0 -11 -11 -11 -24 0 -14 -4 -27 -9 -30 -5 -4 -19 -27
-32 -54 -12 -26 -26 -49 -30 -52 -3 -3 -19 -30 -35 -60 -15 -30 -34 -59 -41
-63 -7 -4 -13 -16 -13 -26 0 -10 -7 -24 -15 -31 -8 -7 -15 -21 -15 -31 0 -11
-4 -19 -8 -19 -9 0 -62 -101 -62 -118 0 -7 -5 -12 -11 -12 -5 0 -15 -13 -20
-30 -6 -16 -15 -30 -20 -30 -5 0 -9 -7 -9 -16 0 -17 -35 -79 -57 -102 -7 -7
-13 -17 -13 -22 0 -4 -16 -17 -35 -28 -31 -19 -61 -22 -347 -31 -302 -10 -453
-21 -491 -36 -29 -12 -40 -83 -16 -111 11 -13 63 -15 364 -13 194 1 357 -1
364 -6 21 -12 -14 -141 -41 -153 -4 -2 -21 -32 -37 -67 -17 -35 -35 -66 -41
-70 -5 -3 -10 -17 -10 -30 0 -12 -6 -25 -14 -28 -7 -3 -17 -18 -21 -34 -3 -15
-10 -30 -13 -33 -7 -5 -16 -20 -84 -150 -21 -41 -43 -79 -49 -84 -5 -6 -9 -20
-9 -33 0 -13 -4 -23 -9 -23 -5 0 -15 -15 -22 -32 -7 -18 -19 -39 -26 -46 -7
-7 -13 -22 -13 -33 0 -10 -4 -19 -9 -19 -9 0 -91 -160 -91 -178 0 -6 -5 -12
-11 -14 -20 -7 -14 -84 9 -108 27 -29 82 -25 98 9 7 13 16 26 21 30 12 9 37
54 84 149 22 45 44 82 49 82 6 0 10 6 10 13 0 7 9 29 20 50 11 20 20 44 20 52
0 8 4 15 9 15 5 0 14 14 20 30 5 17 15 30 20 30 6 0 11 11 11 24 0 14 4 27 9
31 6 3 24 33 41 68 17 34 46 89 65 122 19 33 40 72 47 88 7 15 16 27 19 27 4
0 10 14 14 30 4 17 11 30 16 30 5 0 11 11 15 25 3 13 12 29 20 36 8 6 14 20
14 30 0 9 7 24 15 32 7 8 17 26 21 41 3 14 10 26 14 26 4 0 11 11 14 25 3 13
21 35 39 48 30 23 42 25 217 32 102 3 207 11 234 16 27 5 91 9 142 9 115 0
127 -10 117 -103 -3 -31 -9 -57 -14 -57 -4 0 -10 -15 -14 -32 -3 -18 -12 -49
-20 -68 -17 -44 -41 -124 -50 -168 -4 -18 -13 -45 -21 -60 -8 -15 -14 -39 -14
-54 0 -15 -4 -29 -9 -32 -5 -3 -14 -28 -21 -56 -7 -27 -16 -50 -21 -50 -5 0
-9 -15 -9 -33 0 -18 -6 -41 -14 -52 -7 -11 -17 -39 -20 -62 -4 -22 -14 -49
-21 -60 -8 -10 -15 -31 -15 -48 0 -16 -7 -39 -15 -49 -8 -11 -15 -30 -15 -42
0 -12 -6 -35 -14 -51 -16 -33 -33 -80 -51 -147 -8 -27 -19 -54 -24 -59 -6 -6
-11 -23 -11 -38 0 -15 -7 -40 -15 -56 -8 -15 -17 -45 -20 -65 -3 -21 -10 -38
-15 -38 -6 0 -10 -15 -10 -32 0 -18 -7 -42 -15 -52 -8 -11 -15 -27 -15 -35 0
-9 -6 -28 -14 -42 -7 -14 -16 -43 -21 -65 -4 -21 -11 -42 -17 -45 -6 -4 -12
-27 -15 -52 -8 -65 17 -96 75 -97 39 0 45 3 55 30 6 17 15 30 19 30 4 0 8 12
8 28 0 15 7 36 15 46 8 11 15 27 15 36 0 8 9 32 20 53 11 20 20 50 20 65 0 16
7 37 15 48 8 10 15 30 15 44 0 14 7 36 15 50 8 14 14 35 15 47 0 12 7 34 15
50 8 15 20 47 25 71 6 23 15 42 20 42 6 0 10 14 10 30 0 17 6 43 14 58 7 15
16 44 20 65 4 20 11 37 16 37 6 0 10 15 10 33 0 17 7 45 15 60 8 15 17 45 21
65 4 20 10 42 14 47 4 6 10 26 14 45 6 32 16 59 52 133 8 16 14 38 14 50 0 12
6 39 14 62 8 22 24 74 36 115 11 41 27 88 35 103 8 16 15 39 15 51 0 12 7 31
15 42 8 10 15 30 15 44 0 14 7 38 15 54 8 16 18 46 21 67 4 22 10 39 15 39 5
0 9 7 9 15 0 32 43 43 195 50 107 5 155 11 166 21 8 8 20 14 25 14 5 0 14 12
21 26 10 22 9 32 -4 58 -9 17 -21 34 -27 38 -6 4 -67 8 -136 8 -113 0 -127 2
-143 20 -18 22 -23 65 -8 75 6 3 13 26 17 50 3 25 10 45 14 45 4 0 10 17 14
39 3 21 13 51 21 67 8 16 15 43 15 61 0 17 5 33 11 35 5 2 13 24 15 48 3 25
12 62 20 83 8 20 14 47 14 60 0 12 6 34 14 48 7 14 16 43 20 64 4 22 14 48 22
59 8 11 14 33 14 49 0 26 12 71 42 162 6 17 14 52 19 78 4 27 12 54 18 60 5 7
12 30 16 52 4 22 14 52 21 67 8 15 14 39 14 54 0 25 5 43 44 170 9 29 16 63
16 77 0 14 5 38 11 54 11 27 26 105 49 248 6 39 16 100 22 136 10 64 8 102 -9
164 -18 66 -55 88 -128 78z m-45 -372 c0 -27 -7 -65 -15 -84 -8 -20 -15 -56
-15 -81 0 -24 -4 -46 -10 -48 -5 -1 -14 -37 -20 -78 -6 -41 -15 -79 -20 -84
-6 -6 -10 -27 -10 -47 0 -20 -9 -65 -20 -99 -11 -34 -20 -73 -20 -85 0 -13 -5
-25 -10 -27 -6 -2 -15 -26 -20 -53 -13 -73 -41 -169 -51 -180 -5 -5 -9 -26 -9
-46 0 -21 -4 -40 -9 -44 -5 -3 -15 -31 -22 -63 -7 -31 -15 -61 -19 -67 -4 -5
-10 -30 -14 -55 -4 -24 -11 -47 -17 -50 -5 -4 -14 -34 -20 -68 -6 -34 -15 -62
-20 -62 -5 0 -9 -18 -9 -39 0 -22 -4 -42 -9 -46 -5 -3 -15 -31 -22 -63 -7 -31
-16 -61 -20 -67 -3 -5 -10 -30 -14 -55 -4 -25 -12 -51 -18 -58 -5 -7 -14 -36
-18 -65 -5 -28 -13 -53 -19 -55 -5 -2 -10 -14 -10 -27 0 -18 -10 -28 -42 -44
-39 -18 -70 -20 -319 -25 -152 -3 -285 -2 -297 1 -18 4 -22 13 -22 42 0 20 4
41 9 47 10 9 28 41 108 194 25 47 50 92 57 100 6 8 24 41 40 73 16 31 33 57
38 57 4 0 8 5 8 12 0 16 40 97 51 104 5 3 9 14 9 25 0 10 4 19 10 19 5 0 16
16 24 35 8 19 20 35 25 35 6 0 11 8 11 19 0 10 7 24 15 31 8 7 15 19 15 27 0
7 7 16 15 19 8 4 15 17 15 29 0 13 5 27 11 31 6 3 17 21 24 38 8 17 25 46 39
65 14 19 26 41 26 48 0 7 4 13 9 13 5 0 18 16 28 35 10 19 29 56 43 82 14 27
31 54 38 61 6 7 12 20 12 27 0 8 6 18 13 22 13 9 30 34 49 73 7 14 15 27 18
30 3 3 11 16 18 30 15 32 33 60 50 78 6 7 12 20 12 28 0 8 7 17 15 20 8 4 15
13 15 20 0 8 6 17 14 20 8 3 18 19 21 35 4 16 13 29 21 29 8 0 14 8 14 19 0
10 7 24 15 31 8 7 15 19 15 27 0 7 7 16 15 19 8 4 15 10 15 15 0 6 9 19 20 31
11 12 20 28 20 35 0 7 7 13 15 13 8 0 15 7 15 15 0 25 33 53 63 54 26 1 27 -1
27 -48z"/>
<path d="M11788 12536 c-9 -12 -21 -41 -28 -64 -6 -23 -15 -42 -19 -42 -5 0
-11 -19 -14 -42 -3 -24 -11 -44 -16 -46 -6 -2 -11 -16 -11 -31 0 -15 -9 -44
-20 -66 -11 -22 -20 -47 -20 -57 0 -10 -4 -18 -9 -18 -5 0 -12 -18 -16 -40 -4
-22 -13 -47 -21 -54 -8 -8 -14 -25 -14 -38 0 -13 -7 -32 -15 -42 -8 -11 -15
-30 -15 -42 0 -12 -7 -35 -15 -51 -8 -15 -24 -62 -36 -103 -12 -41 -28 -84
-35 -95 -8 -11 -14 -29 -14 -41 0 -12 -6 -35 -14 -51 -31 -64 -46 -103 -71
-188 -15 -49 -31 -94 -36 -100 -5 -5 -9 -22 -9 -37 0 -15 -4 -28 -9 -28 -5 0
-13 -15 -17 -32 -3 -18 -15 -49 -25 -68 -11 -19 -19 -42 -19 -51 0 -9 -7 -30
-15 -45 -8 -16 -15 -38 -15 -49 0 -11 -7 -29 -15 -39 -8 -11 -15 -32 -15 -46
0 -14 -7 -35 -15 -46 -8 -10 -15 -31 -15 -45 0 -15 -7 -32 -15 -39 -8 -7 -15
-22 -15 -34 0 -12 -6 -31 -14 -42 -8 -11 -18 -38 -22 -59 -4 -22 -13 -46 -21
-53 -7 -7 -13 -28 -13 -46 0 -19 -7 -39 -15 -46 -8 -7 -15 -22 -15 -34 0 -11
-7 -34 -15 -50 -8 -15 -15 -36 -15 -46 0 -10 -7 -31 -15 -47 -8 -15 -20 -47
-25 -70 -6 -24 -15 -43 -20 -43 -6 0 -10 -11 -10 -24 0 -13 -7 -37 -15 -52 -8
-16 -15 -38 -15 -50 0 -11 -7 -29 -15 -40 -8 -10 -15 -27 -15 -37 0 -19 -37
-140 -51 -169 -5 -10 -9 -23 -9 -30 -1 -7 -9 -31 -20 -53 -11 -22 -19 -46 -20
-53 0 -8 -6 -26 -14 -40 -8 -15 -18 -44 -21 -64 -3 -21 -10 -38 -15 -38 -4 0
-11 -19 -15 -42 -4 -24 -11 -47 -15 -53 -4 -5 -11 -28 -15 -49 -3 -22 -13 -49
-21 -60 -8 -11 -14 -32 -14 -47 0 -15 -7 -32 -15 -39 -8 -7 -15 -27 -15 -46 0
-18 -6 -39 -13 -46 -8 -7 -17 -31 -21 -53 -4 -22 -11 -44 -16 -50 -4 -5 -11
-28 -15 -49 -3 -22 -13 -49 -21 -60 -8 -11 -14 -35 -14 -53 0 -18 -4 -33 -10
-33 -5 0 -13 -18 -16 -41 -4 -22 -12 -46 -19 -52 -6 -7 -15 -32 -19 -55 -3
-24 -10 -51 -15 -60 -16 -34 -43 -118 -50 -160 -5 -24 -13 -48 -19 -54 -7 -7
-12 -25 -12 -40 0 -16 -7 -45 -15 -65 -8 -19 -15 -58 -15 -85 0 -39 5 -54 23
-69 26 -22 44 -23 75 -6 27 16 62 78 62 112 0 14 7 42 15 62 8 19 15 47 15 62
0 14 7 34 15 44 7 11 17 38 20 60 4 23 11 47 15 52 4 6 10 27 14 47 4 20 13
50 21 65 8 15 15 40 15 54 0 15 7 32 15 39 9 7 15 29 15 51 0 21 4 40 9 43 5
3 21 45 35 93 15 49 33 102 41 118 7 17 16 41 18 55 5 26 22 75 43 125 7 17
16 44 20 60 4 17 10 35 14 40 4 6 11 29 15 52 3 22 13 49 20 60 8 10 15 30 15
45 0 15 4 30 10 33 5 3 15 25 21 48 23 86 70 89 158 10 20 -18 40 -33 44 -33
4 0 21 -13 37 -30 16 -16 34 -30 40 -30 5 0 10 -4 10 -8 0 -5 23 -23 50 -41
28 -18 50 -37 50 -42 0 -5 7 -9 15 -9 8 0 15 -5 15 -10 0 -6 8 -14 18 -17 15
-6 77 -51 113 -82 8 -6 48 -36 89 -66 41 -30 83 -61 93 -70 9 -8 24 -15 32
-15 8 0 15 -4 15 -9 0 -10 164 -121 179 -121 5 0 11 -7 15 -15 3 -8 12 -15 19
-15 8 0 20 -7 27 -15 7 -8 21 -15 31 -15 11 0 19 -6 19 -13 0 -7 12 -18 28
-25 15 -6 54 -27 87 -47 33 -19 67 -37 75 -40 8 -4 22 -11 30 -16 8 -5 26 -15
40 -21 14 -7 31 -18 38 -25 7 -7 20 -13 28 -13 9 0 22 -7 30 -15 9 -8 25 -15
37 -15 12 0 31 -7 41 -15 11 -8 31 -15 45 -15 14 0 35 -7 45 -15 28 -21 118
-20 144 3 24 19 40 72 23 72 -6 0 -11 6 -11 13 -1 18 -85 57 -125 57 -19 0
-35 4 -35 9 0 5 -10 13 -22 16 -24 7 -81 31 -108 46 -8 5 -57 29 -107 55 -51
25 -93 50 -93 55 0 5 -11 9 -25 9 -13 0 -28 6 -32 13 -10 15 -38 34 -75 50
-16 6 -28 16 -28 22 0 5 -20 19 -45 30 -24 10 -47 25 -49 32 -3 7 -12 13 -19
13 -8 0 -22 9 -32 20 -10 11 -24 20 -30 20 -7 0 -15 7 -19 15 -3 8 -12 15 -21
15 -8 0 -15 7 -15 15 0 9 -9 15 -25 15 -14 0 -28 7 -31 15 -4 8 -11 15 -17 15
-5 0 -29 16 -53 35 -23 19 -45 35 -49 35 -3 0 -18 12 -33 28 -35 34 -88 72
-102 72 -5 0 -10 7 -10 15 0 8 -5 15 -10 15 -15 0 -120 80 -120 91 0 5 -7 9
-15 9 -8 0 -15 7 -15 15 0 8 -9 15 -20 15 -11 0 -20 7 -20 15 0 8 -4 15 -9 15
-6 0 -27 16 -48 35 -21 19 -44 35 -50 35 -7 0 -13 7 -13 15 0 8 -7 15 -15 15
-28 0 -18 56 17 95 18 19 39 35 45 35 7 0 13 7 13 15 0 8 4 15 10 15 5 0 38
29 74 65 35 36 69 65 75 65 6 0 11 5 11 11 0 6 16 25 36 42 80 70 774 766 774
776 0 6 4 11 10 11 12 0 180 168 180 181 0 5 6 9 13 9 15 0 57 45 57 60 0 6 7
10 15 10 8 0 15 4 15 10 0 5 32 41 70 80 39 38 75 70 80 70 6 0 10 5 10 10 0
6 14 24 30 40 17 16 30 34 30 40 0 5 5 10 12 10 13 0 88 76 88 90 0 6 7 10 15
10 8 0 15 5 15 10 0 13 32 45 53 53 9 3 17 13 17 22 0 8 5 15 10 15 11 0 50
36 50 46 0 4 35 41 78 84 42 42 87 90 100 106 29 37 29 87 0 114 -25 23 -37
25 -74 8 -30 -14 -134 -114 -134 -129 0 -5 -7 -9 -15 -9 -8 0 -15 -7 -15 -15
0 -8 -7 -15 -15 -15 -8 0 -15 -5 -15 -11 0 -13 -78 -89 -91 -89 -5 0 -9 -4 -9
-9 0 -10 -77 -92 -312 -334 -82 -83 -148 -155 -148 -159 0 -5 -7 -8 -15 -8 -8
0 -15 -4 -15 -10 0 -11 -47 -60 -58 -60 -4 0 -16 -14 -27 -30 -11 -16 -26 -30
-32 -30 -7 0 -13 -4 -13 -9 0 -12 -108 -121 -120 -121 -6 0 -10 -5 -10 -10 0
-13 -336 -350 -350 -350 -5 0 -10 -5 -10 -11 0 -11 -110 -119 -122 -119 -5 0
-8 -5 -8 -10 0 -12 -54 -66 -116 -117 -22 -18 -56 -48 -77 -67 -21 -20 -40
-36 -42 -36 -3 0 -24 -20 -47 -43 -45 -46 -105 -74 -121 -58 -11 11 1 71 14
71 5 0 9 15 9 34 0 19 4 37 9 41 5 3 15 30 21 60 6 30 16 55 21 55 5 0 9 15 9
33 0 18 6 41 14 52 7 11 16 37 20 57 4 20 13 50 21 65 8 15 15 33 15 40 0 6 7
24 15 40 8 15 17 45 20 66 3 20 10 37 15 37 6 0 10 15 10 34 0 19 4 37 9 41 6
3 22 45 37 93 15 48 31 92 36 99 6 7 14 27 18 45 10 40 28 93 46 133 7 17 15
41 19 55 3 14 10 34 15 45 5 11 14 39 20 62 6 23 15 45 20 48 6 3 10 18 10 33
0 15 7 36 15 46 8 11 15 29 15 41 0 11 9 38 20 60 11 22 20 47 20 57 0 9 4 19
9 22 5 3 12 22 16 43 4 20 13 46 21 57 8 11 14 32 14 47 0 15 7 32 15 39 8 7
15 24 15 39 0 15 6 35 13 46 7 11 24 54 37 95 14 41 31 81 38 88 6 7 12 27 12
43 0 16 6 40 14 52 8 12 17 39 20 60 4 20 11 37 16 37 6 0 10 11 10 24 0 13 7
37 15 52 20 38 18 64 -4 92 -27 31 -89 30 -113 -2z"/>
<path d="M9641 3561 c-19 -14 -22 -24 -17 -45 5 -22 12 -26 41 -26 49 0 66 32
34 66 -27 29 -27 29 -58 5z"/>
<path d="M16163 3566 c-17 -8 -23 -19 -23 -43 0 -32 2 -33 39 -33 34 0 40 4
45 26 4 15 6 27 4 28 -2 1 -12 8 -23 17 -15 12 -25 13 -42 5z"/>
<path d="M3615 3527 c-27 -30 -41 -57 -49 -100 -4 -21 -11 -37 -16 -37 -6 0
-13 -18 -16 -40 -4 -22 -13 -45 -20 -51 -8 -6 -14 -24 -14 -40 0 -16 -4 -29
-10 -29 -5 0 -12 -12 -16 -27 -6 -29 -36 -99 -60 -145 -8 -14 -14 -35 -14 -46
0 -11 -7 -25 -15 -32 -8 -7 -15 -25 -15 -40 0 -15 -7 -33 -15 -40 -8 -7 -15
-24 -15 -39 -1 -14 -7 -37 -15 -51 -8 -14 -14 -33 -15 -42 0 -10 -9 -27 -20
-38 -11 -11 -20 -29 -20 -41 0 -11 -7 -27 -15 -35 -8 -9 -15 -26 -15 -40 0
-14 -7 -27 -15 -30 -9 -4 -15 -19 -15 -40 0 -19 -4 -34 -10 -34 -5 0 -10 -11
-10 -25 0 -34 37 -35 46 0 3 13 12 29 20 36 8 6 14 23 14 38 0 15 6 35 14 46
7 11 17 35 21 53 4 18 13 45 21 60 8 15 14 32 14 37 0 6 15 20 33 33 32 21 41
22 275 22 229 0 243 -1 262 -20 11 -11 24 -20 29 -20 5 0 12 -13 16 -30 4 -16
10 -30 15 -30 4 0 13 -20 19 -44 6 -25 15 -48 21 -51 5 -3 10 -19 10 -36 0
-16 4 -29 10 -29 5 0 12 -16 16 -35 12 -68 64 -91 64 -30 0 19 -4 35 -9 35 -5
0 -13 15 -16 33 -4 17 -13 39 -20 47 -7 8 -16 30 -20 48 -3 17 -11 32 -16 32
-5 0 -9 10 -9 23 0 12 -7 30 -15 40 -7 11 -17 36 -20 58 -4 21 -11 39 -16 39
-5 0 -9 8 -9 18 0 9 -9 34 -20 55 -11 20 -20 43 -20 51 0 8 -6 21 -13 28 -8 7
-16 25 -20 38 -8 37 -41 124 -49 130 -3 3 -9 22 -13 43 -4 21 -14 44 -21 52
-8 7 -14 25 -14 38 0 14 -7 30 -15 37 -8 7 -15 21 -15 31 0 11 -9 36 -20 56
-11 21 -20 46 -20 55 0 10 -4 18 -10 18 -5 0 -10 6 -10 13 0 18 -33 47 -51 46
-8 0 -23 -10 -34 -22z m61 -103 c13 -14 24 -34 24 -45 0 -10 4 -19 9 -19 5 0
12 -18 16 -40 4 -22 13 -47 21 -54 8 -8 14 -24 14 -34 0 -11 6 -33 14 -49 18
-37 40 -86 66 -148 11 -27 27 -62 35 -77 22 -38 19 -77 -7 -99 -21 -17 -42
-18 -223 -18 -197 -1 -200 0 -222 23 l-22 23 22 54 c12 30 28 60 35 67 6 7 12
31 12 52 0 24 5 40 15 44 8 3 15 16 15 28 0 13 7 32 15 42 8 11 15 30 15 42 0
13 7 29 15 38 8 8 15 21 15 28 0 7 6 24 13 38 8 14 17 41 20 60 7 32 33 68 51
69 5 1 19 -10 32 -25z"/>
<path d="M12196 3515 c-15 -14 -31 -25 -37 -25 -5 0 -9 -7 -9 -15 0 -8 -4 -15
-10 -15 -11 0 -50 -36 -50 -46 0 -10 -50 -54 -61 -54 -5 0 -9 -5 -9 -10 0 -6
-13 -24 -30 -40 -16 -16 -30 -34 -30 -40 0 -5 -7 -10 -15 -10 -9 0 -18 -7 -21
-15 -4 -8 -12 -15 -20 -15 -8 0 -14 -6 -14 -13 0 -14 -35 -47 -50 -47 -6 0
-10 -6 -10 -14 0 -8 -9 -18 -20 -21 -11 -3 -20 -11 -20 -16 0 -5 -20 -29 -45
-52 -25 -24 -45 -49 -45 -55 0 -7 -7 -12 -15 -12 -8 0 -15 -4 -15 -10 0 -16
-55 -39 -78 -33 -22 5 -22 7 -22 284 0 176 -4 280 -10 284 -6 3 -19 3 -30 0
-20 -6 -20 -14 -18 -527 3 -487 4 -522 21 -532 31 -19 37 11 37 188 l0 168 50
49 c28 27 50 53 50 59 0 5 7 10 15 10 8 0 15 7 15 15 0 8 7 15 15 15 8 0 15 7
15 15 0 8 7 15 15 15 9 0 18 7 21 15 4 9 19 15 35 15 19 0 29 -5 29 -15 0 -8
5 -15 10 -15 19 0 73 -70 87 -112 3 -10 12 -18 19 -18 8 0 14 -6 14 -13 0 -8
9 -22 20 -32 11 -10 20 -24 20 -32 0 -7 5 -13 10 -13 6 0 10 -7 10 -15 0 -7 6
-18 13 -22 7 -4 18 -20 24 -35 7 -16 17 -28 23 -28 5 0 10 -9 10 -20 0 -11 6
-20 14 -20 8 0 17 -11 20 -25 4 -14 11 -25 16 -25 6 0 10 -9 10 -20 0 -11 6
-20 14 -20 8 0 16 -10 20 -22 7 -29 52 -78 71 -78 27 0 26 21 -2 57 -15 19
-32 42 -38 51 -14 22 -22 33 -45 61 -11 13 -20 30 -20 38 0 7 -7 16 -15 19 -8
4 -15 10 -15 15 0 13 -42 72 -57 82 -7 4 -13 13 -13 18 0 6 -7 17 -15 25 -8 9
-15 24 -15 35 0 10 -7 19 -15 19 -8 0 -15 6 -15 14 0 7 -7 19 -15 26 -8 7 -15
21 -15 32 0 10 -7 21 -15 24 -8 4 -15 12 -15 19 0 7 -7 18 -15 25 -34 28 -61
120 -35 120 6 0 10 9 10 20 0 11 4 20 9 20 12 0 61 44 61 55 0 10 40 45 52 45
4 0 8 5 8 11 0 13 67 79 80 79 6 0 10 4 10 8 0 5 29 38 65 75 59 60 80 97 56
97 -4 0 -20 -11 -35 -25z"/>
<path d="M7250 3440 c-6 -11 -8 -36 -4 -56 4 -23 1 -50 -11 -79 -14 -37 -21
-45 -43 -46 -15 0 -36 -4 -47 -8 -16 -7 -14 -9 16 -15 37 -7 57 -23 79 -65 8
-16 12 -111 13 -331 l2 -308 42 -41 43 -40 105 2 c72 2 109 7 117 16 11 11 3
12 -49 7 -102 -11 -149 8 -201 81 -22 31 -22 37 -22 332 0 166 4 301 8 301 5
0 19 9 32 20 20 17 37 20 137 20 94 0 113 3 113 15 0 13 -21 15 -128 15 -159
0 -162 2 -162 120 0 64 -3 80 -15 80 -8 0 -19 -9 -25 -20z"/>
<path d="M15583 3452 c-21 -3 -23 -9 -23 -75 0 -106 -4 -114 -58 -123 -35 -6
-41 -9 -22 -12 13 -2 37 -16 53 -32 l28 -27 -1 -284 c0 -249 2 -289 18 -329
22 -57 44 -90 58 -90 7 0 14 -7 17 -15 5 -11 28 -14 109 -14 116 0 138 4 138
25 0 11 -6 13 -20 9 -12 -4 -51 -7 -88 -8 -55 -2 -74 2 -104 21 -21 13 -38 28
-38 34 0 6 -6 16 -14 22 -12 9 -15 63 -16 301 -2 160 -2 300 -1 313 2 40 68
62 189 62 78 0 103 3 100 13 -3 8 -44 13 -137 17 -102 4 -134 8 -141 20 -5 8
-10 50 -10 92 0 42 -3 78 -7 80 -5 2 -18 2 -30 0z"/>
<path d="M4608 3246 c-8 -7 -24 -17 -36 -20 -12 -4 -22 -12 -22 -17 0 -14 72
-10 104 6 38 20 149 20 170 0 8 -8 23 -15 34 -15 23 0 102 -66 102 -85 0 -8 5
-15 10 -17 20 -6 30 -127 30 -363 0 -225 1 -241 19 -252 10 -7 22 -9 25 -6 3
4 6 128 6 277 -1 232 -3 278 -18 321 -29 81 -86 154 -123 155 -8 0 -24 7 -35
15 -26 20 -246 21 -266 1z"/>
<path d="M5506 3245 c-3 -8 -14 -15 -25 -15 -17 0 -71 -42 -71 -55 0 -2 -11
-16 -25 -31 -14 -15 -25 -32 -25 -39 0 -8 9 -10 25 -7 14 2 25 8 25 13 0 13
46 59 59 59 6 0 11 4 11 9 0 4 20 14 45 21 25 7 48 17 51 21 3 5 43 9 88 9 62
0 87 -4 96 -15 7 -8 18 -15 24 -15 16 0 86 -69 86 -84 0 -8 7 -19 15 -26 12
-10 15 -30 13 -89 l-3 -76 -42 -20 c-46 -21 -55 -35 -24 -35 10 0 24 -7 31
-15 7 -8 19 -15 26 -15 11 0 14 -22 14 -99 0 -57 -4 -103 -10 -106 -9 -5 -40
-69 -40 -81 0 -2 6 -4 14 -4 8 0 24 -14 37 -31 48 -64 57 -69 109 -69 56 0 71
23 23 34 -16 3 -38 14 -51 24 -23 18 -23 18 -23 268 1 226 -1 255 -20 312 -22
66 -84 142 -117 142 -9 0 -26 7 -36 15 -29 22 -271 22 -280 0z"/>
<path d="M6446 3245 c-3 -8 -14 -15 -25 -15 -10 0 -45 -25 -77 -56 -58 -56
-58 -56 -62 -122 -3 -61 -1 -70 25 -103 15 -20 42 -45 58 -55 44 -26 125 -54
157 -54 16 0 45 -7 65 -15 19 -8 55 -15 79 -15 23 0 45 -4 49 -9 3 -5 22 -15
42 -22 20 -6 47 -23 60 -37 20 -21 23 -35 23 -96 0 -65 -2 -73 -28 -98 -16
-15 -48 -37 -72 -49 -39 -21 -57 -23 -158 -22 -84 2 -120 6 -138 17 -13 9 -29
16 -35 16 -13 0 -21 6 -86 69 -48 46 -63 51 -63 19 1 -28 35 -70 75 -91 109
-56 106 -56 256 -55 121 0 149 3 179 19 19 11 39 19 45 19 12 0 44 34 68 72
23 36 24 166 2 174 -8 4 -15 11 -15 18 -1 43 -131 100 -265 115 -92 10 -178
40 -221 76 l-39 33 2 83 c2 77 4 84 30 105 69 56 241 85 289 49 10 -8 27 -15
37 -15 21 0 97 -42 97 -53 0 -15 50 -58 60 -52 6 3 10 16 10 29 0 28 -76 106
-102 106 -10 0 -21 7 -24 15 -5 12 -31 15 -149 15 -118 0 -144 -3 -149 -15z"/>
<path d="M7944 3241 c-70 -38 -134 -106 -134 -143 0 -18 5 -28 15 -28 8 0 15
7 15 15 0 8 6 15 14 15 8 0 16 10 20 23 3 13 18 30 33 38 16 8 34 20 41 27 7
6 21 12 30 12 9 0 30 7 46 15 37 20 146 20 172 0 10 -8 26 -15 35 -15 20 0 69
-41 69 -58 0 -7 6 -12 13 -12 15 0 47 -95 47 -143 0 -39 -35 -87 -63 -87 -9 0
-22 -6 -29 -14 -10 -9 -45 -15 -103 -17 -59 -3 -90 -8 -93 -17 -2 -7 -22 -12
-50 -12 -26 0 -60 -7 -76 -15 -15 -8 -35 -15 -42 -15 -8 0 -39 -25 -69 -55
l-55 -55 0 -74 c0 -56 4 -75 15 -80 8 -3 15 -10 15 -16 0 -14 29 -41 67 -62
41 -23 270 -25 299 -3 17 13 9 15 -71 13 -98 -1 -175 8 -175 23 0 5 -6 9 -14
9 -8 0 -28 14 -45 31 -28 28 -31 36 -31 94 0 60 2 67 33 98 19 18 48 39 65 46
18 8 32 17 32 22 0 5 23 9 50 9 36 0 50 4 50 14 0 19 238 33 270 16 20 -11 22
-18 18 -98 -2 -57 -7 -87 -16 -90 -6 -2 -12 -14 -12 -27 0 -13 -7 -30 -15 -39
-16 -16 -20 -36 -6 -36 12 0 76 -62 84 -82 9 -24 127 -27 127 -3 0 9 -9 15
-24 15 -37 0 -71 39 -84 95 -7 28 -14 162 -17 300 -4 206 -8 251 -20 258 -8 4
-15 14 -15 22 0 16 -52 58 -107 86 -50 26 -261 26 -309 0z"/>
<path d="M8884 3245 c-4 -8 -15 -15 -25 -15 -11 0 -27 -9 -36 -20 -10 -11 -23
-20 -30 -20 -7 0 -13 -7 -13 -15 0 -8 -4 -15 -10 -15 -5 0 -10 -6 -10 -14 0
-7 -9 -25 -20 -39 -11 -14 -20 -40 -20 -58 0 -39 30 -108 48 -109 6 0 12 -5
12 -10 0 -18 54 -59 77 -60 12 0 23 -5 25 -11 2 -6 35 -14 73 -19 39 -4 83
-13 98 -19 16 -6 39 -11 52 -11 36 0 135 -41 135 -56 0 -8 7 -14 15 -14 8 0
15 -6 15 -14 0 -8 6 -16 13 -18 8 -3 12 -25 12 -63 0 -38 -4 -60 -12 -62 -7
-3 -13 -11 -13 -19 0 -8 -6 -14 -14 -14 -8 0 -16 -6 -19 -14 -3 -8 -23 -23
-44 -33 -54 -26 -274 -26 -318 0 -16 9 -35 17 -41 17 -7 0 -14 7 -18 15 -3 8
-12 15 -21 15 -8 0 -15 4 -15 9 0 20 -48 61 -64 55 -22 -8 -10 -53 21 -77 13
-10 30 -25 37 -33 8 -8 19 -14 25 -14 6 0 28 -9 48 -20 33 -18 57 -20 196 -20
126 0 159 3 163 14 3 8 17 17 31 21 34 8 88 65 97 101 15 60 18 106 7 117 -6
6 -11 18 -11 27 0 20 -57 80 -76 80 -9 0 -22 7 -30 15 -9 8 -30 15 -47 15 -18
0 -41 7 -51 15 -13 9 -43 15 -81 15 -36 0 -69 6 -81 14 -11 8 -37 17 -57 21
-20 4 -41 13 -48 21 -6 8 -17 14 -23 14 -6 0 -21 15 -33 33 -28 41 -34 157 -8
157 8 0 15 6 15 14 0 18 54 52 97 61 18 3 35 11 38 16 8 11 152 12 159 0 3 -4
26 -14 51 -21 44 -12 115 -68 115 -89 0 -6 14 -11 30 -11 32 0 42 23 15 34 -8
3 -15 10 -15 17 0 15 -59 65 -105 89 -33 17 -59 20 -172 20 -110 0 -135 -3
-139 -15z"/>
<path d="M10128 3234 c-27 -14 -48 -29 -48 -34 0 -6 -4 -10 -10 -10 -18 0 -51
-40 -57 -70 -4 -24 -2 -30 11 -30 9 0 19 7 23 16 11 29 73 84 101 90 15 3 43
12 63 21 67 28 205 0 262 -53 15 -14 27 -29 27 -34 0 -5 7 -15 15 -23 10 -10
15 -41 17 -97 3 -91 -8 -110 -64 -110 -16 0 -31 -7 -34 -15 -5 -12 -24 -15
-84 -15 -57 0 -79 -4 -83 -14 -4 -9 -28 -15 -73 -18 -40 -2 -69 -9 -72 -16 -2
-7 -11 -12 -20 -12 -22 0 -82 -42 -82 -57 0 -7 -7 -13 -15 -13 -22 0 -38 -76
-31 -144 6 -61 15 -73 84 -123 29 -21 42 -23 170 -23 126 0 141 2 157 20 10
11 26 20 37 20 10 0 18 6 18 14 0 8 6 16 13 19 6 2 9 8 5 12 -4 4 -14 0 -23
-9 -9 -9 -27 -16 -40 -16 -13 0 -25 -6 -27 -12 -4 -10 -38 -13 -128 -13 -90 0
-124 3 -127 13 -3 6 -10 12 -17 12 -16 0 -49 37 -64 73 -14 33 -16 84 -3 92 5
3 12 19 16 35 4 17 12 30 20 30 7 0 18 7 25 14 20 25 91 52 165 65 143 24 211
32 242 26 27 -5 32 -11 38 -45 9 -53 -4 -171 -21 -188 -8 -7 -14 -20 -14 -28
0 -8 -4 -14 -10 -14 -5 0 -10 -4 -10 -10 0 -5 7 -10 17 -10 15 0 93 -77 93
-92 0 -5 25 -8 55 -8 40 0 55 4 55 14 0 7 -13 16 -30 19 -16 4 -40 17 -52 29
-22 22 -23 27 -26 298 -3 303 -5 310 -70 378 -59 62 -91 72 -227 71 -107 -1
-125 -3 -167 -25z"/>
<path d="M12662 3245 c-7 -8 -21 -15 -31 -15 -10 0 -26 -9 -36 -20 -10 -11
-22 -20 -26 -20 -10 0 -59 -45 -59 -54 0 -4 -13 -24 -29 -44 -16 -20 -32 -52
-36 -70 -4 -18 -13 -45 -21 -60 -22 -43 -18 -165 10 -247 35 -106 49 -135 63
-135 7 0 13 -7 13 -15 0 -8 7 -15 15 -15 8 0 15 -7 15 -15 0 -8 7 -15 15 -15
9 0 18 -6 21 -14 3 -8 17 -17 32 -21 15 -4 30 -12 34 -18 5 -8 57 -13 159 -15
127 -3 154 -1 161 11 4 9 22 18 38 22 17 4 30 11 30 16 0 5 6 9 14 9 15 0 86
82 86 98 0 6 3 12 8 14 4 2 17 29 30 60 21 52 23 70 20 183 -2 84 -7 128 -15
133 -7 4 -15 26 -19 49 -3 23 -13 44 -20 47 -8 3 -14 12 -14 21 0 8 -7 15 -15
15 -8 0 -15 7 -15 15 0 8 -7 15 -15 15 -8 0 -15 7 -15 15 0 8 -6 15 -13 15 -7
0 -20 9 -30 20 -9 11 -25 20 -36 20 -11 0 -21 6 -23 13 -3 9 -43 13 -144 15
-114 2 -141 -1 -152 -13z m238 -24 c0 -4 20 -14 45 -21 25 -7 45 -17 45 -21 0
-5 5 -9 12 -9 17 0 88 -78 88 -97 0 -9 8 -25 17 -36 15 -16 19 -44 22 -168 3
-136 1 -152 -18 -189 -12 -22 -21 -46 -21 -52 0 -9 -70 -80 -123 -124 -22 -19
-69 -26 -164 -25 -77 0 -102 4 -148 25 -30 14 -55 30 -55 36 0 5 -4 10 -10 10
-13 0 -50 37 -50 50 0 6 -7 13 -15 16 -8 4 -15 14 -15 24 0 10 -8 26 -17 36
-16 15 -18 38 -18 169 0 127 3 155 18 178 9 14 17 35 17 46 0 10 7 21 15 25 8
3 15 12 15 21 0 8 7 15 15 15 8 0 15 7 15 15 0 8 6 15 13 15 7 0 24 8 37 17
48 34 113 51 198 52 45 1 82 -3 82 -8z"/>
<path d="M13735 3249 c-4 -5 -18 -14 -31 -19 -13 -5 -24 -14 -24 -20 0 -15 51
-12 84 5 37 20 154 20 180 0 11 -8 30 -15 42 -15 13 0 29 -7 38 -15 8 -8 21
-15 28 -15 7 0 24 -16 37 -35 13 -19 27 -35 32 -35 5 0 9 -13 9 -29 0 -16 6
-34 14 -40 7 -6 16 -38 19 -72 4 -33 11 -68 16 -78 7 -12 5 -35 -4 -72 -8 -30
-15 -70 -15 -90 0 -20 -7 -42 -15 -49 -8 -7 -15 -22 -15 -34 0 -22 -103 -126
-125 -126 -7 0 -15 -6 -17 -12 -4 -10 -38 -13 -126 -13 -83 0 -125 4 -133 13
-7 6 -21 12 -30 12 -20 0 -119 94 -119 113 0 7 -9 30 -20 52 -11 22 -20 51
-20 65 0 14 -5 31 -11 37 -22 22 5 222 37 268 20 28 18 55 -5 55 -35 0 -51 27
-51 86 0 48 -10 68 -24 46 -4 -7 -10 -938 -7 -1084 1 -34 5 -48 15 -48 24 0
28 53 21 247 -7 183 -7 185 16 209 12 13 27 24 31 24 5 0 28 -20 51 -44 23
-24 53 -47 67 -51 13 -4 30 -14 38 -21 20 -21 275 -20 292 1 6 8 21 17 33 21
24 8 117 92 117 107 0 5 6 15 14 21 29 24 46 112 46 243 0 71 -4 133 -8 138
-5 6 -14 29 -21 53 -9 31 -31 62 -82 112 -39 39 -78 70 -89 70 -10 0 -20 7
-24 15 -4 12 -28 15 -130 15 -77 0 -127 -4 -131 -11z"/>
<path d="M14716 3245 c-8 -8 -22 -15 -32 -15 -19 0 -25 -4 -106 -85 -32 -31
-58 -61 -58 -67 0 -6 -6 -19 -14 -27 -8 -9 -21 -55 -29 -102 -11 -71 -11 -104
-1 -184 8 -59 19 -104 28 -114 9 -10 16 -24 16 -31 0 -12 21 -38 77 -95 13
-12 46 -34 74 -48 48 -25 59 -27 182 -27 86 0 140 5 154 13 12 6 41 23 65 36
59 32 128 109 128 142 0 7 6 20 14 28 25 29 26 329 1 355 -8 8 -15 26 -15 41
0 14 -7 28 -15 31 -8 4 -15 10 -15 16 0 11 -69 78 -81 78 -5 0 -18 9 -29 20
-11 11 -28 20 -37 20 -10 0 -27 7 -37 15 -29 22 -248 21 -270 0z m254 -30 c7
-8 21 -15 31 -15 9 0 24 -7 33 -15 8 -8 18 -15 22 -15 4 0 24 -19 45 -42 38
-43 51 -77 84 -219 17 -71 17 -78 2 -124 -10 -27 -17 -60 -17 -74 0 -28 -32
-93 -65 -132 -24 -28 -80 -69 -94 -69 -5 0 -11 -5 -13 -11 -9 -27 -270 -28
-287 -1 -3 6 -19 14 -34 17 -15 4 -27 13 -27 21 0 8 -6 14 -14 14 -8 0 -16 7
-20 15 -3 8 -12 15 -21 15 -8 0 -15 8 -15 19 0 10 -7 24 -15 31 -8 7 -15 25
-15 40 0 15 -7 33 -15 40 -21 18 -21 256 0 284 8 11 15 30 15 42 0 12 7 27 15
34 8 7 15 18 15 24 0 16 59 76 74 76 8 0 16 7 20 15 3 8 16 15 28 15 13 1 34
7 48 15 36 21 203 21 220 0z"/>
<path d="M16165 3234 c-19 -14 -20 -27 -20 -377 0 -334 1 -363 18 -380 10 -10
22 -15 27 -12 12 7 14 771 2 779 -4 2 -16 -2 -27 -10z"/>
<path d="M16460 3217 c0 -18 13 -59 29 -91 16 -31 33 -71 36 -87 4 -17 13 -33
21 -36 8 -3 14 -18 14 -33 0 -15 7 -33 15 -40 8 -7 15 -21 15 -32 0 -10 9 -28
20 -40 11 -12 20 -32 20 -44 0 -13 4 -25 9 -28 5 -3 12 -21 15 -40 4 -19 13
-37 21 -40 8 -3 15 -16 15 -29 0 -14 6 -30 14 -36 7 -6 16 -29 20 -51 3 -22
10 -40 15 -40 8 0 30 -65 41 -124 7 -41 29 -45 36 -7 4 16 12 32 20 35 8 3 14
16 14 29 0 14 7 30 15 37 8 7 15 22 15 34 0 12 6 30 14 41 7 11 17 34 20 52 4
17 14 34 22 37 8 3 14 18 14 33 0 15 7 37 15 47 8 11 15 30 15 43 0 13 7 26
15 29 8 4 15 18 15 34 0 15 7 33 15 40 8 7 15 20 15 30 0 9 9 29 20 43 11 14
20 37 20 51 0 14 4 26 9 26 5 0 14 20 20 44 6 25 15 48 21 51 13 8 13 72 0 80
-6 3 -14 -5 -19 -18 -6 -14 -15 -28 -20 -32 -6 -3 -11 -22 -11 -41 0 -22 -6
-37 -15 -40 -8 -4 -15 -14 -15 -23 0 -9 -9 -33 -20 -54 -11 -20 -20 -48 -20
-62 0 -14 -4 -25 -9 -25 -5 0 -13 -14 -16 -32 -4 -17 -14 -38 -21 -46 -8 -7
-14 -26 -14 -41 0 -16 -6 -34 -14 -40 -8 -7 -18 -26 -21 -42 -4 -16 -10 -29
-14 -29 -5 0 -11 -19 -14 -42 -3 -24 -10 -44 -16 -46 -6 -2 -13 -19 -17 -38
-5 -28 -11 -34 -32 -34 -31 0 -72 43 -72 75 0 13 -6 28 -14 34 -8 7 -17 27
-20 46 -4 19 -11 35 -15 35 -5 0 -12 16 -15 35 -4 19 -11 35 -16 35 -6 0 -10
6 -10 13 0 6 -7 25 -15 40 -8 15 -17 43 -21 62 -3 19 -12 39 -20 46 -8 6 -14
24 -14 38 0 15 -7 36 -15 47 -8 10 -15 29 -15 40 0 12 -6 27 -14 33 -8 7 -18
27 -22 44 -8 38 -34 76 -51 77 -8 0 -13 -13 -13 -33z"/>
<path d="M4372 3213 c-13 -32 -8 -741 5 -754 29 -29 33 4 33 250 0 201 3 254
15 277 8 16 15 38 15 49 1 11 7 31 15 45 22 38 18 50 -15 50 -24 0 -30 4 -31
23 -1 12 -3 29 -4 37 -1 8 -3 21 -4 28 -2 18 -21 15 -29 -5z"/>
<path d="M9643 3214 c-6 -16 2 -193 14 -334 7 -70 7 -72 14 -35 4 22 8 118 8
213 1 148 -1 172 -14 172 -9 0 -18 -7 -22 -16z"/>
<path d="M4515 3180 c-3 -5 -1 -10 4 -10 6 0 11 5 11 10 0 6 -2 10 -4 10 -3 0
-8 -4 -11 -10z"/>
<path d="M13640 3180 c0 -5 7 -10 15 -10 8 0 15 5 15 10 0 6 -7 10 -15 10 -8
0 -15 -4 -15 -10z"/>
<path d="M5640 2855 c0 -16 53 -20 122 -9 61 10 33 24 -48 24 -59 0 -74 -3
-74 -15z"/>
<path d="M5472 2820 c-19 -10 -41 -25 -51 -34 -10 -9 -23 -16 -29 -16 -7 0
-12 -7 -12 -15 0 -8 -6 -15 -14 -15 -8 0 -17 -13 -21 -30 -4 -16 -11 -32 -16
-35 -12 -8 -12 -95 1 -95 6 0 10 -8 10 -19 0 -19 42 -71 58 -71 5 0 17 -9 28
-21 17 -19 27 -20 159 -17 119 2 144 6 159 21 10 9 24 17 32 17 15 0 54 30 54
42 0 13 -20 9 -36 -7 -9 -8 -24 -15 -35 -15 -11 0 -19 -7 -19 -16 0 -15 -14
-16 -122 -12 -138 6 -169 17 -213 74 -24 32 -27 42 -23 92 3 31 10 58 16 60 7
2 12 10 12 18 0 8 7 14 15 14 9 0 18 6 21 14 3 8 19 18 35 21 16 4 29 11 29
15 0 5 17 12 38 15 58 10 73 16 67 26 -11 16 -108 9 -143 -11z"/>
<path d="M9653 2555 c-11 -58 -6 -74 20 -75 9 0 8 89 -2 115 -6 15 -11 6 -18
-40z"/>
<path d="M8270 2530 c0 -5 5 -10 10 -10 6 0 10 5 10 10 0 6 -4 10 -10 10 -5 0
-10 -4 -10 -10z"/>
<path d="M8200 2500 c0 -5 6 -10 14 -10 8 0 18 5 21 10 3 6 -3 10 -14 10 -12
0 -21 -4 -21 -10z"/>
<path d="M16760 2350 c0 -19 -5 -30 -14 -30 -8 0 -18 -14 -21 -32 -4 -17 -14
-38 -21 -46 -8 -7 -14 -22 -14 -33 0 -10 -7 -19 -15 -19 -9 0 -18 -6 -21 -14
-3 -8 -19 -18 -35 -21 -16 -4 -29 -11 -29 -16 0 -5 -27 -9 -59 -9 -33 0 -62
-4 -65 -9 -15 -24 114 -30 138 -6 8 8 23 15 33 15 21 0 83 55 83 74 0 8 6 16
14 19 8 3 17 19 21 36 4 17 11 33 16 36 12 8 12 85 -1 85 -5 0 -10 -13 -10
-30z"/>
<path d="M16430 2140 c0 -5 7 -10 15 -10 8 0 15 5 15 10 0 6 -7 10 -15 10 -8
0 -15 -4 -15 -10z"/>
<path d="M6538 1383 c-24 -6 -23 -15 3 -31 25 -16 45 -3 36 22 -7 16 -9 17
-39 9z"/>
<path d="M7520 1370 c0 -5 5 -10 10 -10 6 0 10 5 10 10 0 6 -4 10 -10 10 -5 0
-10 -4 -10 -10z"/>
<path d="M8267 1373 c-4 -3 -7 -17 -7 -30 0 -18 5 -23 25 -23 25 0 31 13 19
44 -6 16 -26 21 -37 9z"/>
<path d="M8720 1365 c0 -16 9 -19 34 -9 25 9 19 24 -9 24 -16 0 -25 -6 -25
-15z"/>
<path d="M9107 1374 c-6 -6 -3 -34 9 -93 l5 -24 20 21 c21 24 25 72 7 90 -13
13 -31 16 -41 6z"/>
<path d="M9656 1358 c-18 -67 3 -95 41 -54 32 34 28 70 -8 74 -20 2 -28 -2
-33 -20z"/>
<path d="M10470 1350 c0 -27 3 -30 30 -30 31 0 41 16 15 26 -8 4 -15 12 -15
20 0 8 -7 14 -15 14 -10 0 -15 -10 -15 -30z"/>
<path d="M11290 1370 c0 -5 9 -10 21 -10 11 0 17 5 14 10 -3 6 -13 10 -21 10
-8 0 -14 -4 -14 -10z"/>
<path d="M13487 1173 c-4 -21 -7 -52 -7 -68 0 -17 -6 -37 -12 -43 -10 -10 -10
-17 0 -32 6 -11 12 -34 12 -52 0 -41 10 -78 20 -78 5 0 8 65 8 144 0 144 -10
201 -21 129z"/>
<path d="M12776 1158 c-8 -32 -6 -198 4 -228 5 -15 8 28 9 113 1 75 -1 137 -3
137 -2 0 -6 -10 -10 -22z"/>
<path d="M13360 1075 c0 -27 3 -45 7 -41 7 7 5 77 -3 85 -2 2 -4 -17 -4 -44z"/>
<path d="M7515 1080 c-3 -5 -1 -19 5 -31 l12 -21 14 21 c9 12 12 26 9 31 -8
13 -32 13 -40 0z"/>
<path d="M9890 1066 c0 -14 5 -28 10 -31 6 -3 10 1 10 9 0 9 9 16 20 16 27 0
25 16 -2 24 -35 9 -38 8 -38 -18z"/>
<path d="M11581 1044 c0 -11 3 -14 6 -6 3 7 2 16 -1 19 -3 4 -6 -2 -5 -13z"/>
<path d="M12190 1044 c0 -8 5 -12 10 -9 6 4 8 11 5 16 -9 14 -15 11 -15 -7z"/>
<path d="M6920 1040 c0 -13 11 -13 30 0 12 8 11 10 -7 10 -13 0 -23 -4 -23
-10z"/>
<path d="M7173 1043 c-18 -7 -16 -43 1 -43 8 0 21 -3 30 -6 13 -5 16 1 16 25
0 31 -14 38 -47 24z"/>
<path d="M13955 1041 c3 -6 15 -11 25 -11 10 0 23 -8 29 -17 5 -10 13 -14 17
-10 15 15 -13 42 -46 45 -21 2 -30 0 -25 -7z"/>
<path d="M10730 1010 c0 -5 5 -10 10 -10 6 0 10 5 10 10 0 6 -4 10 -10 10 -5
0 -10 -4 -10 -10z"/>
<path d="M8106 974 c-14 -37 -7 -44 42 -43 26 0 56 4 67 8 16 7 14 9 -17 15
-20 3 -39 13 -42 21 -7 20 -42 19 -50 -1z"/>
<path d="M8427 976 c-3 -8 -21 -17 -39 -21 -29 -7 -30 -9 -13 -16 11 -4 39 -8
63 -8 31 -1 42 3 42 14 0 8 -4 15 -10 15 -5 0 -10 7 -10 15 0 19 -26 20 -33 1z"/>
<path d="M13361 974 c0 -11 3 -14 6 -6 3 7 2 16 -1 19 -3 4 -6 -2 -5 -13z"/>
<path d="M8308 943 c7 -3 16 -2 19 1 4 3 -2 6 -13 5 -11 0 -14 -3 -6 -6z"/>
<path d="M13990 854 c-11 -26 -20 -48 -20 -50 0 -2 13 -4 29 -4 34 0 46 23 36
70 -9 42 -21 37 -45 -16z"/>
<path d="M9370 771 c0 -21 6 -30 22 -34 39 -11 52 17 22 47 -25 25 -44 20 -44
-13z"/>
<path d="M10897 793 c-16 -15 -6 -50 17 -61 30 -13 36 -7 36 35 0 28 -4 33
-23 33 -13 0 -27 -3 -30 -7z"/>
<path d="M7526 733 c-11 -11 -6 -23 9 -23 8 0 15 4 15 9 0 13 -16 22 -24 14z"/>
</g>
</svg>
