<svg aria-hidden="true" style="position: absolute; width: 0; height: 0; overflow: hidden;" version="1.1" xmlns="http://www.w3.org/2000/svg" xmlns:xlink="http://www.w3.org/1999/xlink">
<defs>
<symbol id="phone" viewBox="0 0 32 32">
<path d="M9.052 3.023l1.897-0.572c1.786-0.538 3.695 0.332 4.46 2.033l1.181 2.627c0.652 1.45 0.308 3.155-0.855 4.239l-2.063 1.924c-0.025 0.024-0.046 0.052-0.062 0.083-0.216 0.441 0.111 1.619 1.139 3.4 1.159 2.007 2.054 2.801 2.468 2.678l2.708-0.828c1.52-0.465 3.168 0.089 4.098 1.379l1.677 2.324c1.089 1.509 0.893 3.591-0.458 4.87l-1.442 1.366c-1.019 0.965-2.445 1.37-3.819 1.084-4.020-0.836-7.621-4.073-10.834-9.638-3.216-5.571-4.218-10.312-2.926-14.213 0.439-1.325 1.495-2.353 2.832-2.756zM9.547 4.664c-0.802 0.242-1.436 0.859-1.699 1.654-1.113 3.361-0.211 7.63 2.783 12.817 2.992 5.182 6.235 8.097 9.699 8.817 0.824 0.171 1.68-0.072 2.292-0.651l1.442-1.366c0.727-0.689 0.833-1.81 0.247-2.622l-1.677-2.324c-0.501-0.694-1.388-0.993-2.207-0.742l-2.714 0.83c-1.502 0.448-2.913-0.804-4.448-3.462-1.299-2.25-1.75-3.875-1.194-5.010 0.107-0.219 0.254-0.417 0.433-0.584l2.063-1.924c0.626-0.584 0.811-1.502 0.46-2.283l-1.181-2.627c-0.412-0.916-1.44-1.385-2.401-1.095l-1.897 0.572z"></path>
</symbol>
<symbol id="instagram" viewBox="0 0 32 32">
<path d="M10.24 1.92c-4.587 0-8.32 3.733-8.32 8.32v11.52c0 4.587 3.733 8.32 8.32 8.32h11.52c4.587 0 8.32-3.733 8.32-8.32v-11.52c0-4.587-3.733-8.32-8.32-8.32h-11.52zM10.24 3.2h11.52c3.895 0 7.040 3.145 7.040 7.040v11.52c0 3.895-3.145 7.040-7.040 7.040h-11.52c-3.895 0-7.040-3.145-7.040-7.040v-11.52c0-3.895 3.145-7.040 7.040-7.040zM23.68 7.040c-0.707 0-1.28 0.573-1.28 1.28v0c0 0.707 0.573 1.28 1.28 1.28v0c0.707 0 1.28-0.573 1.28-1.28v0c0-0.707-0.573-1.28-1.28-1.28v0zM16 8.96c-3.88 0-7.040 3.159-7.040 7.040s3.159 7.040 7.040 7.040c3.881 0 7.040-3.16 7.040-7.040s-3.16-7.040-7.040-7.040zM16 10.24c3.189 0 5.76 2.571 5.76 5.76s-2.571 5.76-5.76 5.76c-3.189 0-5.76-2.571-5.76-5.76s2.571-5.76 5.76-5.76z"></path>
</symbol>
<symbol id="telegram" viewBox="0 0 32 32">
<path d="M28.401 3.831c-0.312 0.014-0.615 0.1-0.889 0.21-0.271 0.109-1.83 0.774-4.133 1.759s-5.296 2.266-8.262 3.538c-5.934 2.542-11.765 5.044-11.765 5.044l0.042-0.016c0 0-0.352 0.118-0.709 0.366-0.178 0.124-0.37 0.285-0.527 0.519s-0.272 0.566-0.229 0.916c0.152 1.232 1.429 1.581 1.429 1.581l0.005 0.003 5.697 1.95c0.145 0.485 1.728 5.767 2.076 6.886 0.192 0.619 0.372 0.975 0.56 1.219 0.094 0.122 0.192 0.216 0.301 0.285 0.043 0.027 0.089 0.048 0.134 0.066 0.001 0 0.002-0 0.002 0 0.006 0.002 0.011 0.003 0.016 0.005l-0.015-0.004c0.010 0.004 0.021 0.011 0.031 0.015 0.020 0.007 0.033 0.007 0.059 0.012 0.652 0.228 1.192-0.195 1.192-0.195l0.023-0.017 3.5-3.246 5.68 4.429 0.071 0.032c0.994 0.441 1.893 0.195 2.391-0.21s0.694-0.927 0.694-0.927l0.021-0.055 4.174-21.754c0.107-0.487 0.122-0.907 0.021-1.287s-0.345-0.711-0.652-0.894c-0.307-0.183-0.628-0.242-0.94-0.229zM28.435 5.133c0.127-0.006 0.22 0.009 0.25 0.026s0.043 0.015 0.071 0.122c0.028 0.107 0.044 0.333-0.034 0.686l-0.003 0.008-4.15 21.628c-0.010 0.022-0.096 0.222-0.294 0.383-0.201 0.164-0.425 0.292-1.020 0.043l-6.39-4.977-1.857-1.394 10.439-12.281c0.095-0.111 0.153-0.256 0.153-0.415 0-0.354-0.287-0.64-0.64-0.64-0.006 0-0.012 0-0.017 0l0.001-0c-0.127 0.003-0.243 0.043-0.341 0.109l0.002-0.001-15.105 10.070-5.706-1.954c0 0-0.567-0.315-0.594-0.535-0.002-0.012-0.008-0.001 0.021-0.045s0.103-0.118 0.196-0.182c0.186-0.129 0.397-0.207 0.397-0.207l0.021-0.008 0.021-0.009c0 0 5.831-2.502 11.765-5.044 2.967-1.271 5.959-2.552 8.261-3.536s3.964-1.692 4.105-1.749c0.16-0.064 0.32-0.090 0.446-0.096zM21.512 12.027l-7.92 9.317c-0.011 0.014-0.023 0.029-0.034 0.044l-0.001 0.002c-0.011 0.015-0.023 0.033-0.033 0.051l-0.002 0.003c-0.042 0.071-0.072 0.154-0.083 0.243l-0 0.003c0 0.001 0 0.002 0 0.003s0 0.002 0 0.003v-0l-1.031 4.637c-0.017-0.050-0.029-0.068-0.047-0.128v-0.001c-0.328-1.052-1.821-6.035-2.027-6.724l11.18-7.454zM14.49 22.867l1.422 1.067-2.090 1.938 0.668-3.005z"></path>
</symbol>
<symbol id="logo-black" viewBox="0 0 41 32">
<path d="M14.285 4.309c-0.11 0.112-0.235 0.233-0.277 0.273-0.042 0.042-0.088 0.086-0.1 0.1-0.012 0.012-0.116 0.116-0.229 0.229-0.114 0.112-0.233 0.229-0.265 0.263-0.034 0.032-0.375 0.373-0.758 0.758-0.385 0.383-0.728 0.726-0.762 0.76-0.772 0.772-1.109 1.119-1.109 1.138 0 0.014-0.010 0.026-0.022 0.026-0.028 0-2.55 2.52-2.55 2.55 0 0.012 0.014 0.028 0.030 0.034 0.016 0.008 0.030 0.020 0.030 0.030 0 0.026 0.209 0.237 0.235 0.237 0.014 0 0.024 0.008 0.024 0.020 0 0.026 0.074 0.1 0.1 0.1 0.012 0 0.020 0.008 0.020 0.020 0 0.024 0.096 0.12 0.12 0.12 0.012 0 0.020 0.014 0.020 0.030s0.014 0.030 0.030 0.030c0.016 0 0.030 0.014 0.030 0.030s0.014 0.030 0.030 0.030c0.016 0 0.030 0.008 0.030 0.020 0 0.024 0.096 0.12 0.12 0.12 0.012 0 0.020 0.014 0.020 0.030s0.014 0.030 0.030 0.030c0.016 0 0.030 0.014 0.030 0.030s0.014 0.030 0.030 0.030c0.016 0 0.030 0.008 0.030 0.018 0 0.022 0.159 0.181 0.181 0.181 0.010 0 0.018 0.014 0.018 0.030s0.014 0.030 0.030 0.030c0.016 0 0.030 0.008 0.030 0.018s0.038 0.054 0.082 0.1c0.046 0.044 0.090 0.082 0.1 0.082s0.018 0.014 0.018 0.030c0 0.016 0.014 0.030 0.030 0.030s0.030 0.008 0.030 0.018c0 0.010 0.038 0.054 0.082 0.1 0.046 0.044 0.090 0.082 0.1 0.082s0.018 0.014 0.018 0.030c0 0.016 0.014 0.030 0.030 0.030s0.030 0.008 0.030 0.020c0 0.022 0.072 0.1 0.092 0.1s0.108 0.1 0.108 0.122c0 0.010 0.014 0.018 0.030 0.018s0.030 0.014 0.030 0.030c0 0.016 0.014 0.030 0.030 0.030s0.030 0.008 0.030 0.020c0 0.018 0.094 0.12 0.11 0.12 0.018 0 0.090 0.080 0.090 0.1 0 0.010 0.014 0.020 0.030 0.020s0.030 0.014 0.030 0.030c0 0.016 0.014 0.030 0.030 0.030 0.018 0 0.038 0.016 0.044 0.034 0.016 0.042 0.080 0.106 0.106 0.106 0.012 0 0.020 0.014 0.020 0.030s0.014 0.030 0.030 0.030c0.016 0 0.030 0.008 0.030 0.018 0 0.026 0.152 0.181 0.177 0.181 0.012 0 0.022 0.014 0.022 0.030s0.014 0.030 0.030 0.030c0.016 0 0.030 0.014 0.030 0.030s0.010 0.030 0.024 0.030c0.026 0 0.116 0.096 0.116 0.124 0 0.008 0.014 0.016 0.030 0.016s0.030 0.014 0.030 0.030c0 0.016 0.014 0.030 0.030 0.030s0.030 0.014 0.030 0.030c0 0.016 0.008 0.030 0.020 0.030 0.026 0 0.179 0.154 0.179 0.179 0 0.010 0.014 0.020 0.030 0.020s0.030 0.008 0.030 0.020c0 0.026 0.074 0.1 0.098 0.1 0.010 0 0.026 0.018 0.032 0.040s0.026 0.040 0.042 0.040c0.016 0 0.028 0.014 0.028 0.030s0.014 0.030 0.030 0.030c0.016 0 0.030 0.014 0.030 0.030s0.014 0.030 0.030 0.030c0.016 0 0.030 0.008 0.030 0.020 0 0.024 0.096 0.12 0.12 0.12 0.012 0 0.020 0.014 0.020 0.030s0.014 0.030 0.030 0.030c0.016 0 0.030 0.014 0.030 0.030s0.014 0.030 0.030 0.030c0.016 0 0.030 0.006 0.030 0.014 0 0.026 0.155 0.185 0.179 0.185 0.010 0 0.020 0.014 0.020 0.030s0.014 0.030 0.030 0.030c0.016 0 0.030 0.014 0.030 0.030s0.008 0.030 0.020 0.030c0.024 0 0.12 0.096 0.12 0.12 0 0.012 0.014 0.020 0.030 0.020s0.030 0.014 0.030 0.030c0 0.016 0.014 0.030 0.030 0.030s0.030 0.014 0.030 0.030c0 0.016 0.008 0.030 0.020 0.030 0.024 0 0.12 0.096 0.12 0.12 0 0.012 0.014 0.020 0.030 0.020s0.030 0.014 0.030 0.030c0 0.016 0.014 0.030 0.030 0.030s0.030 0.012 0.030 0.024c0 0.014 0.028 0.044 0.060 0.066 0.034 0.022 0.066 0.056 0.072 0.074 0.006 0.020 0.024 0.036 0.040 0.036s0.028 0.014 0.028 0.030c0 0.016 0.014 0.030 0.030 0.030s0.030 0.008 0.030 0.020c0 0.024 0.158 0.179 0.181 0.179 0.010 0 0.018 0.014 0.018 0.030s0.014 0.030 0.030 0.030c0.016 0 0.030 0.008 0.030 0.020 0 0.024 0.158 0.179 0.181 0.179 0.010 0 0.018 0.014 0.018 0.030s0.014 0.030 0.030 0.030c0.016 0 0.030 0.014 0.030 0.030s0.014 0.030 0.030 0.030c0.016 0 0.030 0.014 0.030 0.030s0.014 0.030 0.032 0.030c0.018 0 0.036 0.018 0.042 0.040s0.024 0.040 0.038 0.040c0.016 0 0.028 0.014 0.028 0.030s0.014 0.030 0.030 0.030c0.016 0 0.030 0.014 0.030 0.030s0.014 0.030 0.030 0.030c0.016 0 0.030 0.014 0.030 0.030s0.014 0.030 0.032 0.030c0.018 0 0.036 0.018 0.042 0.040s0.018 0.040 0.028 0.040c0.022 0 0.158 0.136 0.158 0.16 0 0.010 0.016 0.022 0.036 0.028 0.018 0.006 0.052 0.038 0.074 0.072 0.022 0.032 0.052 0.060 0.066 0.060 0.012 0 0.024 0.014 0.024 0.030s0.010 0.030 0.020 0.030c0.026 0 0.179 0.154 0.179 0.179 0 0.012 0.014 0.020 0.030 0.020s0.030 0.014 0.030 0.030c0 0.016 0.014 0.030 0.030 0.030s0.030 0.014 0.030 0.030c0 0.016 0.010 0.030 0.024 0.030 0.026 0 0.116 0.096 0.116 0.124 0 0.008 0.014 0.016 0.030 0.016s0.030 0.014 0.030 0.030c0 0.016 0.010 0.030 0.020 0.030 0.026 0 0.1 0.074 0.1 0.1 0 0.010 0.010 0.020 0.022 0.020 0.026 0 0.177 0.155 0.177 0.181 0 0.010 0.014 0.018 0.030 0.018s0.030 0.012 0.030 0.028c0 0.014 0.018 0.032 0.040 0.038s0.040 0.024 0.040 0.042c0 0.018 0.014 0.032 0.030 0.032s0.030 0.014 0.030 0.030c0 0.016 0.014 0.030 0.030 0.030s0.030 0.014 0.030 0.030c0 0.016 0.014 0.030 0.030 0.030s0.030 0.012 0.030 0.028c0 0.016 0.018 0.036 0.040 0.042s0.040 0.026 0.040 0.042c0 0.016 0.010 0.028 0.020 0.028 0.026 0 0.1 0.074 0.1 0.1 0 0.010 0.010 0.020 0.020 0.020 0.024 0 0.179 0.157 0.179 0.181 0 0.010 0.014 0.018 0.030 0.018s0.030 0.014 0.030 0.030c0 0.016 0.008 0.030 0.020 0.030 0.028 0 0.179 0.15 0.179 0.175 0 0.014 0.014 0.024 0.030 0.024s0.030 0.014 0.030 0.030c0 0.016 0.008 0.030 0.020 0.030 0.028 0 0.179 0.15 0.179 0.175 0 0.014 0.010 0.024 0.020 0.024 0.020 0 0.1 0.072 0.1 0.090 0 0.014 0.078 0.090 0.092 0.090 0.020 0 0.108 0.1 0.108 0.122 0 0.010 0.014 0.018 0.030 0.018s0.030 0.014 0.030 0.030c0 0.016 0.014 0.030 0.030 0.030s0.030 0.008 0.030 0.020c0 0.018 0.094 0.12 0.11 0.12 0.018 0 0.15 0.142 0.15 0.16 0 0.012 0.014 0.020 0.030 0.020 0.018 0 0.038 0.016 0.044 0.034 0.014 0.034 0.078 0.106 0.096 0.106s0.090 0.080 0.090 0.1c0 0.010 0.010 0.020 0.024 0.020 0.026 0 0.175 0.152 0.175 0.179 0 0.012 0.010 0.020 0.020 0.020 0.028 0 0.239 0.211 0.239 0.239 0 0.010 0.014 0.020 0.030 0.020s0.030 0.014 0.030 0.030c0 0.016 0.008 0.030 0.020 0.030 0.026 0 0.179 0.154 0.179 0.179 0 0.010 0.014 0.020 0.030 0.020s0.030 0.014 0.030 0.030c0 0.016 0.010 0.030 0.022 0.030 0.026 0 0.297 0.275 0.297 0.301 0 0.010 0.008 0.018 0.020 0.018 0.026 0 0.319 0.293 0.319 0.319 0 0.012 0.008 0.020 0.018 0.020 0.026 0 0.361 0.335 0.361 0.359 0 0.012 0.010 0.020 0.020 0.020 0.028 0 0.239 0.211 0.239 0.239 0 0.010 0.014 0.020 0.030 0.020s0.030 0.014 0.030 0.030c0 0.016 0.010 0.030 0.024 0.030 0.026 0 0.175 0.152 0.175 0.179 0 0.012 0.010 0.020 0.020 0.020 0.026 0 0.498 0.475 0.498 0.498 0 0.012 0.010 0.020 0.020 0.020 0.026 0 0.1 0.074 0.1 0.098 0 0.010 0.018 0.026 0.040 0.032s0.040 0.026 0.040 0.042c0 0.016 0.014 0.028 0.030 0.028s0.030 0.014 0.030 0.030c0 0.016 0.014 0.030 0.030 0.030s0.030 0.014 0.030 0.030c0 0.016 0.010 0.030 0.020 0.030 0.012 0 0.038 0.018 0.060 0.040 0.072 0.072 0.132 0.052 0.271-0.090 0.072-0.072 0.138-0.13 0.148-0.13 0.012 0 0.020-0.010 0.020-0.020 0-0.012 0.144-0.163 0.319-0.337 0.175-0.175 0.319-0.327 0.319-0.339s0.010-0.022 0.020-0.022c0.028 0 0.957-0.929 0.957-0.957 0-0.010 0.010-0.020 0.022-0.020 0.026 0 1.852-1.828 1.852-1.854 0-0.012 0.010-0.020 0.020-0.020 0.026 0 1.595-1.567 1.595-1.595 0-0.010 0.010-0.020 0.020-0.020 0.028 0 0.618-0.59 0.618-0.618 0-0.010 0.010-0.020 0.020-0.020 0.028 0 1.854-1.826 1.854-1.854 0-0.010 0.010-0.020 0.022-0.020 0.030 0 0.177-0.148 0.177-0.177 0-0.012 0.008-0.022 0.020-0.022 0.026 0 0.498-0.473 0.498-0.498 0-0.010 0.010-0.020 0.020-0.020 0.026 0 0.239-0.215 0.239-0.241 0-0.010 0.014-0.018 0.030-0.018s0.030-0.014 0.030-0.030c0-0.016 0.010-0.030 0.022-0.030 0.026 0 0.237-0.213 0.237-0.241 0-0.010 0.010-0.018 0.022-0.018 0.030 0 0.237-0.207 0.237-0.237 0-0.012 0.014-0.022 0.030-0.022s0.030-0.014 0.030-0.030c0-0.016 0.008-0.030 0.018-0.030 0.024 0 0.181-0.155 0.181-0.179 0-0.012 0.014-0.020 0.030-0.020s0.030-0.014 0.030-0.030c0-0.016 0.008-0.030 0.018-0.030 0.026 0 0.181-0.152 0.181-0.177 0-0.012 0.008-0.022 0.020-0.022 0.026 0 0.16-0.132 0.16-0.155 0-0.012 0.018-0.028 0.040-0.034s0.040-0.026 0.040-0.042c0-0.016 0.014-0.028 0.030-0.028s0.030-0.014 0.030-0.030c0-0.016 0.008-0.030 0.020-0.030 0.024 0 0.179-0.158 0.179-0.181 0-0.010 0.014-0.018 0.030-0.018s0.030-0.014 0.030-0.030c0-0.016 0.010-0.030 0.020-0.030 0.026 0 0.498-0.475 0.498-0.5 0-0.010 0.014-0.018 0.030-0.018s0.030-0.014 0.030-0.030c0-0.016 0.008-0.030 0.018-0.030 0.024 0 0.181-0.155 0.181-0.179 0-0.012 0.014-0.020 0.030-0.020s0.030-0.014 0.030-0.030c0-0.016 0.008-0.030 0.018-0.030 0.024 0 0.181-0.155 0.181-0.179 0-0.012 0.010-0.020 0.020-0.020 0.012 0 0.084-0.062 0.16-0.14 0.078-0.076 0.14-0.148 0.14-0.159 0-0.010 0.008-0.020 0.020-0.020 0.026 0 0.618-0.594 0.618-0.62 0-0.020-0.66-0.704-0.871-0.905-0.058-0.056-0.67-0.664-1.358-1.354-0.688-0.688-1.384-1.384-1.547-1.545-0.163-0.16-0.379-0.375-0.479-0.479-0.193-0.201-0.802-0.807-0.863-0.861-0.020-0.018-0.122-0.122-0.225-0.231s-0.231-0.243-0.283-0.297c-0.195-0.203-0.634-0.626-0.65-0.626-0.010 0-0.044 0.032-0.076 0.070s-0.070 0.070-0.082 0.070c-0.014 0-0.026 0.010-0.026 0.022 0 0.014-0.016 0.034-0.034 0.048-0.030 0.022-0.024 0.036 0.066 0.132 0.054 0.060 0.187 0.197 0.297 0.309 0.11 0.11 0.211 0.213 0.227 0.229 0.084 0.088 0.419 0.411 0.453 0.439 0.020 0.018 0.098 0.094 0.169 0.169 0.074 0.076 0.189 0.193 0.259 0.263 0.146 0.142 0.132 0.128 0.321 0.321 0.080 0.082 0.175 0.175 0.211 0.209s0.104 0.1 0.15 0.148c0.080 0.082 0.923 0.923 0.959 0.955 0.008 0.008 0.080 0.084 0.16 0.165 0.078 0.082 0.195 0.201 0.261 0.265s0.142 0.14 0.169 0.167c0.028 0.028 0.177 0.177 0.335 0.331 0.155 0.155 0.283 0.293 0.283 0.305 0 0.014 0.016 0.030 0.036 0.036 0.020 0.008 0.124 0.1 0.227 0.207 0.106 0.106 0.203 0.205 0.219 0.219 0.106 0.1 0.817 0.829 0.873 0.893 0.040 0.046 0.094 0.094 0.12 0.108 0.056 0.030 0.108 0.088 0.152 0.165 0.030 0.054 0.028 0.060-0.036 0.144-0.036 0.050-0.072 0.090-0.082 0.090-0.008 0-0.076 0.064-0.15 0.144-0.201 0.213-0.427 0.435-0.447 0.435-0.008 0-0.016 0.010-0.016 0.020 0 0.024-0.084 0.108-0.154 0.154-0.026 0.018-0.046 0.038-0.046 0.048 0 0.024-0.273 0.297-0.299 0.297-0.010 0-0.020 0.008-0.020 0.020 0 0.026-0.074 0.1-0.1 0.1-0.010 0-0.020 0.008-0.020 0.018 0 0.024-0.215 0.241-0.239 0.241-0.012 0-0.020 0.010-0.020 0.020 0 0.028-0.209 0.239-0.237 0.239-0.012 0-0.022 0.012-0.022 0.028s-0.018 0.036-0.040 0.042c-0.022 0.006-0.040 0.022-0.040 0.032 0 0.020-0.592 0.616-0.61 0.616-0.012 0-0.088 0.078-0.088 0.092 0 0.020-0.277 0.287-0.299 0.287-0.010 0-0.020 0.010-0.020 0.022 0 0.026-0.475 0.496-0.5 0.496-0.010 0-0.018 0.012-0.018 0.028s-0.028 0.046-0.060 0.066c-0.034 0.018-0.066 0.050-0.072 0.070s-0.024 0.036-0.040 0.036c-0.016 0-0.028 0.014-0.028 0.030s-0.014 0.030-0.030 0.030c-0.016 0-0.030 0.008-0.030 0.018 0 0.022-0.16 0.181-0.181 0.181-0.010 0-0.018 0.014-0.018 0.030s-0.014 0.030-0.030 0.030c-0.016 0-0.030 0.006-0.030 0.016 0 0.022-0.417 0.443-0.439 0.443-0.012 0-0.020 0.014-0.020 0.030s-0.014 0.030-0.030 0.030c-0.016 0-0.030 0.012-0.030 0.026 0 0.028-0.054 0.080-0.106 0.1-0.018 0.006-0.034 0.026-0.034 0.044 0 0.016-0.014 0.030-0.030 0.030s-0.030 0.008-0.030 0.020c0 0.018-0.211 0.239-0.229 0.239-0.010 0-0.15 0.138-0.15 0.15 0 0.016-0.162 0.169-0.179 0.169-0.012 0-0.020 0.014-0.020 0.030s-0.008 0.030-0.018 0.030c-0.024 0-0.181 0.159-0.181 0.183 0 0.008-0.014 0.016-0.030 0.016s-0.030 0.008-0.030 0.020c0 0.024-0.074 0.1-0.098 0.1-0.010 0-0.032 0.022-0.048 0.046-0.040 0.062-0.205 0.227-0.267 0.267-0.024 0.016-0.046 0.044-0.046 0.058 0 0.016-0.014 0.028-0.030 0.028s-0.030 0.008-0.030 0.020c0 0.024-0.217 0.239-0.241 0.239-0.010 0-0.018 0.014-0.018 0.030s-0.014 0.030-0.030 0.030c-0.016 0-0.030 0.008-0.030 0.020 0 0.024-0.157 0.179-0.181 0.179-0.010 0-0.018 0.008-0.018 0.020 0 0.026-0.074 0.1-0.1 0.1-0.010 0-0.020 0.008-0.020 0.020 0 0.022-0.273 0.299-0.297 0.299-0.008 0-0.034 0.024-0.054 0.052-0.064 0.086-0.124 0.148-0.148 0.148-0.010 0-0.020 0.012-0.020 0.028 0 0.014-0.022 0.042-0.048 0.060-0.048 0.030-0.152 0.128-0.152 0.14 0 0.020-0.594 0.61-0.614 0.61-0.014 0-0.024 0.008-0.024 0.020 0 0.028-1.705 1.735-1.733 1.735-0.012 0-0.022 0.010-0.022 0.022s-0.437 0.461-0.971 0.995c-0.536 0.536-1.011 1.015-1.057 1.067-0.086 0.094-0.179 0.138-0.241 0.114-0.042-0.014-0.443-0.419-0.443-0.445 0-0.010-0.010-0.018-0.022-0.018-0.030 0-0.177-0.148-0.177-0.177 0-0.012-0.008-0.022-0.018-0.022-0.026 0-0.241-0.213-0.241-0.237 0-0.012-0.014-0.022-0.030-0.022s-0.030-0.014-0.030-0.030c0-0.016-0.010-0.030-0.022-0.030-0.026 0-0.177-0.155-0.177-0.181 0-0.010-0.008-0.018-0.020-0.018-0.024 0-0.239-0.217-0.239-0.241 0-0.010-0.008-0.018-0.020-0.018-0.024 0-0.359-0.335-0.359-0.361 0-0.010-0.008-0.018-0.018-0.018-0.026 0-0.181-0.152-0.181-0.177 0-0.012-0.014-0.022-0.030-0.022s-0.030-0.014-0.030-0.030c0-0.016-0.008-0.030-0.018-0.030-0.024 0-0.241-0.215-0.241-0.239 0-0.012-0.008-0.020-0.016-0.020-0.026 0-0.183-0.154-0.183-0.179 0-0.010-0.014-0.020-0.030-0.020s-0.030-0.014-0.030-0.030c0-0.016-0.014-0.030-0.030-0.030s-0.030-0.012-0.030-0.026c0-0.024-0.084-0.114-0.108-0.114-0.020 0-0.092-0.078-0.092-0.1 0-0.012-0.010-0.020-0.022-0.020-0.026 0-0.177-0.155-0.177-0.181 0-0.010-0.014-0.018-0.030-0.018s-0.030-0.014-0.030-0.030c0-0.016-0.008-0.030-0.020-0.030-0.024 0-0.179-0.157-0.179-0.181 0-0.010-0.014-0.018-0.030-0.018s-0.030-0.014-0.030-0.030c0-0.016-0.008-0.030-0.018-0.030-0.026 0-0.241-0.215-0.241-0.241 0-0.010-0.014-0.018-0.030-0.018s-0.030-0.014-0.030-0.030c0-0.016-0.012-0.030-0.028-0.030s-0.036-0.018-0.042-0.040c-0.006-0.022-0.020-0.040-0.032-0.040-0.028 0-0.098-0.066-0.098-0.094 0-0.014-0.014-0.026-0.030-0.026s-0.030-0.014-0.030-0.030c0-0.016-0.008-0.030-0.018-0.030-0.024 0-0.181-0.155-0.181-0.179 0-0.012-0.014-0.020-0.030-0.020s-0.030-0.014-0.030-0.030c0-0.016-0.012-0.030-0.028-0.030s-0.034-0.016-0.040-0.036c-0.006-0.018-0.038-0.052-0.072-0.074-0.032-0.022-0.060-0.052-0.060-0.066 0-0.012-0.014-0.024-0.030-0.024s-0.030-0.014-0.030-0.030c0-0.016-0.008-0.030-0.020-0.030-0.026 0-0.090-0.064-0.106-0.106-0.006-0.018-0.026-0.034-0.044-0.034-0.016 0-0.030-0.014-0.030-0.030s-0.014-0.030-0.030-0.030c-0.016 0-0.030-0.014-0.030-0.030s-0.008-0.030-0.020-0.030c-0.024 0-0.179-0.157-0.179-0.181 0-0.010-0.014-0.018-0.030-0.018s-0.030-0.014-0.030-0.030c0-0.016-0.008-0.030-0.020-0.030-0.026 0-0.090-0.064-0.106-0.106-0.006-0.018-0.022-0.034-0.034-0.034-0.026 0-0.1-0.074-0.1-0.1 0-0.012-0.014-0.020-0.030-0.020s-0.030-0.014-0.030-0.030c0-0.016-0.010-0.030-0.022-0.030-0.026 0-0.177-0.155-0.177-0.181 0-0.010-0.014-0.018-0.030-0.018s-0.030-0.014-0.030-0.030c0-0.016-0.012-0.030-0.028-0.030s-0.036-0.018-0.042-0.040c-0.006-0.022-0.022-0.040-0.032-0.040-0.024 0-0.098-0.074-0.098-0.1 0-0.012-0.014-0.020-0.030-0.020s-0.030-0.014-0.030-0.030c0-0.016-0.012-0.030-0.024-0.030-0.014 0-0.044-0.028-0.066-0.060-0.022-0.034-0.056-0.066-0.074-0.072-0.020-0.006-0.036-0.024-0.036-0.040s-0.014-0.028-0.030-0.028c-0.016 0-0.030-0.014-0.030-0.030s-0.014-0.030-0.030-0.030c-0.016 0-0.030-0.014-0.030-0.030s-0.014-0.030-0.030-0.030c-0.016 0-0.030-0.012-0.030-0.028s-0.018-0.036-0.040-0.042c-0.022-0.006-0.040-0.026-0.040-0.042s-0.014-0.028-0.030-0.028c-0.016 0-0.030-0.014-0.030-0.030s-0.010-0.030-0.024-0.030c-0.026 0-0.116-0.096-0.116-0.124 0-0.008-0.014-0.016-0.030-0.016s-0.030-0.014-0.030-0.030c0-0.016-0.014-0.030-0.030-0.030s-0.030-0.014-0.030-0.030c0-0.016-0.008-0.030-0.020-0.030-0.024 0-0.179-0.158-0.179-0.181 0-0.010-0.014-0.018-0.030-0.018s-0.030-0.010-0.030-0.020c0-0.024-0.074-0.1-0.098-0.1-0.010 0-0.022-0.018-0.028-0.040s-0.024-0.040-0.042-0.040c-0.018 0-0.032-0.014-0.032-0.030s-0.014-0.030-0.030-0.030c-0.016 0-0.030-0.014-0.030-0.030s-0.014-0.030-0.030-0.030c-0.016 0-0.030-0.014-0.030-0.030s-0.008-0.030-0.020-0.030c-0.024 0-0.12-0.096-0.12-0.12 0-0.012-0.014-0.020-0.030-0.020s-0.030-0.014-0.030-0.030c0-0.016-0.014-0.030-0.030-0.030s-0.030-0.008-0.030-0.020c0-0.028-0.15-0.179-0.175-0.179-0.014 0-0.024-0.014-0.024-0.030s-0.014-0.030-0.030-0.030c-0.016 0-0.030-0.014-0.030-0.030s-0.012-0.030-0.024-0.030c-0.014 0-0.044-0.028-0.066-0.060-0.022-0.034-0.056-0.066-0.074-0.072-0.020-0.006-0.036-0.024-0.036-0.040s-0.014-0.028-0.030-0.028c-0.016 0-0.030-0.010-0.030-0.020 0-0.024-0.074-0.1-0.098-0.1-0.010 0-0.022-0.018-0.028-0.040s-0.024-0.040-0.042-0.040c-0.018 0-0.032-0.014-0.032-0.030s-0.014-0.030-0.030-0.030c-0.016 0-0.030-0.014-0.030-0.030s-0.008-0.030-0.020-0.030c-0.026 0-0.090-0.064-0.106-0.106-0.006-0.018-0.026-0.034-0.044-0.034-0.016 0-0.030-0.014-0.030-0.030s-0.008-0.030-0.020-0.030c-0.010 0-0.038-0.018-0.060-0.040s-0.040-0.050-0.040-0.060c0-0.012-0.014-0.020-0.030-0.020s-0.030-0.014-0.030-0.030c0-0.018-0.016-0.038-0.034-0.044-0.042-0.016-0.106-0.080-0.106-0.106 0-0.012-0.014-0.020-0.030-0.020s-0.030-0.014-0.030-0.030c0-0.016-0.014-0.030-0.030-0.030s-0.030-0.012-0.030-0.028c0-0.016-0.018-0.036-0.040-0.042s-0.040-0.026-0.040-0.042c0-0.016-0.014-0.028-0.030-0.028s-0.030-0.014-0.030-0.030c0-0.016-0.014-0.030-0.030-0.030s-0.030-0.014-0.030-0.030c0-0.016-0.014-0.030-0.030-0.030s-0.030-0.014-0.030-0.030c0-0.018-0.016-0.038-0.034-0.044-0.042-0.016-0.106-0.080-0.106-0.106 0-0.012-0.014-0.020-0.030-0.020s-0.030-0.014-0.030-0.030c0-0.016-0.014-0.030-0.030-0.030s-0.030-0.010-0.030-0.022c0-0.030-0.084-0.118-0.114-0.118-0.014 0-0.026-0.014-0.026-0.030s-0.014-0.030-0.030-0.030c-0.016 0-0.030-0.014-0.030-0.030s-0.008-0.030-0.020-0.030c-0.026 0-0.1-0.074-0.1-0.098 0-0.010-0.018-0.026-0.040-0.032s-0.040-0.026-0.040-0.042c0-0.016-0.014-0.028-0.030-0.028s-0.030-0.010-0.030-0.020c0-0.020-0.072-0.1-0.090-0.1-0.016 0-0.11-0.102-0.11-0.12 0-0.012-0.014-0.020-0.030-0.020s-0.030-0.014-0.030-0.030c0-0.016-0.008-0.030-0.018-0.030s-0.070-0.050-0.13-0.112c-0.062-0.060-0.112-0.12-0.112-0.13s-0.014-0.018-0.030-0.018c-0.016 0-0.030-0.014-0.030-0.030s-0.012-0.030-0.028-0.030c-0.016 0-0.036-0.018-0.042-0.040s-0.020-0.040-0.032-0.040c-0.028 0-0.098-0.066-0.098-0.094 0-0.014-0.014-0.026-0.030-0.026s-0.030-0.014-0.030-0.030c0-0.016-0.012-0.030-0.028-0.030s-0.036-0.018-0.042-0.040c-0.006-0.022-0.022-0.040-0.032-0.040-0.024 0-0.098-0.074-0.098-0.1 0-0.012-0.014-0.020-0.030-0.020s-0.030-0.014-0.030-0.030c0-0.016-0.012-0.030-0.028-0.030s-0.034-0.016-0.040-0.036c-0.006-0.018-0.038-0.052-0.072-0.074-0.032-0.022-0.060-0.052-0.060-0.066 0-0.012-0.014-0.024-0.030-0.024s-0.030-0.014-0.030-0.030c0-0.016-0.008-0.030-0.020-0.030-0.026 0-0.1-0.074-0.1-0.098 0-0.010-0.018-0.026-0.040-0.032s-0.040-0.026-0.040-0.042c0-0.016-0.014-0.028-0.030-0.028s-0.030-0.014-0.030-0.030c0-0.016-0.008-0.030-0.020-0.030-0.024 0-0.179-0.158-0.179-0.181 0-0.010-0.014-0.018-0.030-0.018s-0.030-0.014-0.030-0.030c0-0.016-0.014-0.030-0.030-0.030s-0.030-0.014-0.030-0.030c0-0.016-0.014-0.030-0.030-0.030s-0.030-0.014-0.030-0.030c0-0.018-0.016-0.038-0.034-0.044-0.042-0.016-0.106-0.080-0.106-0.106 0-0.012-0.014-0.020-0.030-0.020-0.022 0-0.030-0.024-0.030-0.092v-0.092l1.103-1.105c0.608-0.608 1.115-1.105 1.126-1.105 0.014 0 0.024-0.012 0.024-0.026 0-0.012 0.421-0.443 0.933-0.953 0.512-0.512 0.963-0.965 1.003-1.007 0.038-0.044 0.171-0.173 0.293-0.291 0.124-0.118 0.223-0.219 0.223-0.223 0-0.006 0.090-0.1 0.201-0.205 0.112-0.108 0.231-0.227 0.269-0.265 0.423-0.429 0.722-0.738 0.744-0.766 0.026-0.032 0.024-0.040-0.004-0.062-0.018-0.014-0.034-0.034-0.034-0.048 0-0.012-0.014-0.022-0.030-0.022s-0.030-0.010-0.030-0.022c0-0.026-0.092-0.118-0.116-0.118-0.010 0-0.106 0.090-0.213 0.201z"></path>
<path d="M20.626 6.952c-0.032 0.006-0.068 0.022-0.076 0.038s-0.030 0.028-0.044 0.028c-0.016 0-0.030 0.012-0.030 0.024-0.002 0.014-0.028 0.048-0.060 0.076-0.034 0.026-0.060 0.060-0.060 0.074s-0.014 0.026-0.030 0.026c-0.016 0-0.030 0.008-0.030 0.016 0 0.010-0.016 0.036-0.034 0.060-0.086 0.1-0.1 0.118-0.112 0.15-0.006 0.018-0.022 0.034-0.034 0.034-0.010 0-0.020 0.012-0.020 0.026s-0.018 0.046-0.040 0.070c-0.022 0.024-0.040 0.050-0.040 0.058s-0.028 0.052-0.060 0.094c-0.034 0.044-0.060 0.092-0.060 0.106s-0.014 0.026-0.030 0.026c-0.016 0-0.030 0.014-0.030 0.030 0 0.018-0.018 0.050-0.040 0.074s-0.040 0.056-0.040 0.070c0 0.014-0.008 0.026-0.020 0.026-0.010 0-0.020 0.014-0.020 0.030s-0.008 0.030-0.018 0.030c-0.010 0-0.032 0.032-0.050 0.070s-0.042 0.070-0.052 0.070c-0.012 0-0.020 0.018-0.020 0.038 0 0.022-0.012 0.052-0.024 0.066-0.024 0.026-0.044 0.056-0.104 0.165-0.012 0.020-0.034 0.050-0.046 0.066-0.014 0.014-0.026 0.044-0.026 0.064s-0.014 0.040-0.030 0.048c-0.016 0.006-0.030 0.020-0.030 0.030s-0.032 0.066-0.070 0.124c-0.038 0.060-0.070 0.118-0.070 0.13 0 0.014-0.014 0.028-0.030 0.036-0.016 0.006-0.030 0.028-0.030 0.048 0 0.022-0.014 0.050-0.030 0.064s-0.030 0.036-0.030 0.050c0 0.014-0.014 0.036-0.030 0.050s-0.030 0.042-0.030 0.064c0 0.020-0.012 0.042-0.028 0.048s-0.036 0.038-0.042 0.070c-0.008 0.032-0.026 0.058-0.042 0.058s-0.028 0.014-0.028 0.030c0 0.034-0.076 0.185-0.102 0.201-0.010 0.006-0.018 0.028-0.018 0.050s-0.012 0.044-0.028 0.050c-0.016 0.006-0.038 0.038-0.050 0.070-0.010 0.032-0.030 0.058-0.040 0.058-0.012 0-0.022 0.022-0.022 0.048 0 0.028-0.008 0.054-0.018 0.060-0.010 0.008-0.038 0.054-0.064 0.108-0.024 0.052-0.052 0.098-0.060 0.104-0.006 0.006-0.038 0.060-0.070 0.12-0.030 0.060-0.068 0.118-0.082 0.126s-0.026 0.032-0.026 0.052c0 0.020-0.014 0.048-0.030 0.062s-0.030 0.042-0.030 0.062c0 0.022-0.008 0.038-0.016 0.038-0.018 0-0.124 0.201-0.124 0.235 0 0.014-0.010 0.024-0.022 0.024-0.010 0-0.030 0.026-0.040 0.060-0.012 0.032-0.030 0.060-0.040 0.060s-0.018 0.014-0.018 0.032c0 0.034-0.070 0.158-0.114 0.203-0.014 0.014-0.026 0.034-0.026 0.044 0 0.008-0.032 0.034-0.070 0.056-0.062 0.038-0.122 0.044-0.692 0.062-0.602 0.020-0.903 0.042-0.979 0.072-0.058 0.024-0.080 0.165-0.032 0.221 0.022 0.026 0.126 0.030 0.726 0.026 0.387-0.002 0.712 0.002 0.726 0.012 0.042 0.024-0.028 0.281-0.082 0.305-0.008 0.004-0.042 0.064-0.074 0.134-0.034 0.070-0.070 0.132-0.082 0.14-0.010 0.006-0.020 0.034-0.020 0.060 0 0.024-0.012 0.050-0.028 0.056-0.014 0.006-0.034 0.036-0.042 0.068-0.006 0.030-0.020 0.060-0.026 0.066-0.014 0.010-0.032 0.040-0.167 0.299-0.042 0.082-0.086 0.158-0.098 0.167-0.010 0.012-0.018 0.040-0.018 0.066s-0.008 0.046-0.018 0.046c-0.010 0-0.030 0.030-0.044 0.064-0.014 0.036-0.038 0.078-0.052 0.092s-0.026 0.044-0.026 0.066c0 0.020-0.008 0.038-0.018 0.038-0.018 0-0.181 0.319-0.181 0.355 0 0.012-0.010 0.024-0.022 0.028-0.040 0.014-0.028 0.167 0.018 0.215 0.054 0.058 0.163 0.050 0.195-0.018 0.014-0.026 0.032-0.052 0.042-0.060 0.024-0.018 0.074-0.108 0.167-0.297 0.044-0.090 0.088-0.164 0.098-0.164 0.012 0 0.020-0.012 0.020-0.026s0.018-0.058 0.040-0.1c0.022-0.040 0.040-0.088 0.040-0.104s0.008-0.030 0.018-0.030c0.010 0 0.028-0.028 0.040-0.060 0.010-0.034 0.030-0.060 0.040-0.060 0.012 0 0.022-0.022 0.022-0.048 0-0.028 0.008-0.054 0.018-0.062 0.012-0.006 0.048-0.066 0.082-0.136 0.034-0.068 0.092-0.177 0.13-0.243s0.080-0.144 0.094-0.175c0.014-0.030 0.032-0.054 0.038-0.054 0.008 0 0.020-0.028 0.028-0.060 0.008-0.034 0.022-0.060 0.032-0.060s0.022-0.022 0.030-0.050c0.006-0.026 0.024-0.058 0.040-0.072 0.016-0.012 0.028-0.040 0.028-0.060 0-0.018 0.014-0.048 0.030-0.064 0.014-0.016 0.034-0.052 0.042-0.082 0.006-0.028 0.020-0.052 0.028-0.052s0.022-0.022 0.028-0.050c0.006-0.026 0.042-0.070 0.078-0.096 0.060-0.046 0.084-0.050 0.433-0.064 0.203-0.006 0.413-0.022 0.467-0.032s0.181-0.018 0.283-0.018c0.229 0 0.253 0.020 0.233 0.205-0.006 0.062-0.018 0.114-0.028 0.114-0.008 0-0.020 0.030-0.028 0.064-0.006 0.036-0.024 0.098-0.040 0.136-0.034 0.088-0.082 0.247-0.1 0.335-0.008 0.036-0.026 0.090-0.042 0.12s-0.028 0.078-0.028 0.108c0 0.030-0.008 0.058-0.018 0.064s-0.028 0.056-0.042 0.112c-0.014 0.054-0.032 0.1-0.042 0.1s-0.018 0.030-0.018 0.066c0 0.036-0.012 0.082-0.028 0.104-0.014 0.022-0.034 0.078-0.040 0.124-0.008 0.044-0.028 0.098-0.042 0.12-0.016 0.020-0.030 0.062-0.030 0.096 0 0.032-0.014 0.078-0.030 0.098-0.016 0.022-0.030 0.060-0.030 0.084s-0.012 0.070-0.028 0.102c-0.032 0.066-0.066 0.159-0.102 0.293-0.016 0.054-0.038 0.108-0.048 0.118-0.012 0.012-0.022 0.046-0.022 0.076s-0.014 0.080-0.030 0.112c-0.016 0.030-0.034 0.090-0.040 0.13-0.006 0.042-0.020 0.076-0.030 0.076-0.012 0-0.020 0.030-0.020 0.064 0 0.036-0.014 0.084-0.030 0.104-0.016 0.022-0.030 0.054-0.030 0.070 0 0.018-0.012 0.056-0.028 0.084-0.014 0.028-0.032 0.086-0.042 0.13-0.008 0.042-0.022 0.084-0.034 0.090-0.012 0.008-0.024 0.054-0.030 0.104-0.016 0.13 0.034 0.191 0.15 0.193 0.078 0 0.090-0.006 0.11-0.060 0.012-0.034 0.030-0.060 0.038-0.060s0.016-0.024 0.016-0.056c0-0.030 0.014-0.072 0.030-0.092 0.016-0.022 0.030-0.054 0.030-0.072 0-0.016 0.018-0.064 0.040-0.106 0.022-0.040 0.040-0.1 0.040-0.13 0-0.032 0.014-0.074 0.030-0.096 0.016-0.020 0.030-0.060 0.030-0.088s0.014-0.072 0.030-0.1c0.016-0.028 0.028-0.070 0.030-0.094 0-0.024 0.014-0.068 0.030-0.1 0.016-0.030 0.040-0.094 0.050-0.142 0.012-0.046 0.030-0.084 0.040-0.084 0.012 0 0.020-0.028 0.020-0.060 0-0.034 0.012-0.086 0.028-0.116 0.014-0.030 0.032-0.088 0.040-0.13 0.008-0.040 0.022-0.074 0.032-0.074 0.012 0 0.020-0.030 0.020-0.066 0-0.034 0.014-0.090 0.030-0.12s0.034-0.090 0.042-0.13c0.008-0.040 0.020-0.084 0.028-0.094 0.008-0.012 0.020-0.052 0.028-0.090 0.012-0.064 0.032-0.118 0.104-0.265 0.016-0.032 0.028-0.076 0.028-0.1s0.012-0.078 0.028-0.124c0.016-0.044 0.048-0.148 0.072-0.229 0.022-0.082 0.054-0.175 0.070-0.205 0.016-0.032 0.030-0.078 0.030-0.102s0.014-0.062 0.030-0.084c0.016-0.020 0.030-0.060 0.030-0.088s0.014-0.076 0.030-0.108c0.016-0.032 0.036-0.092 0.042-0.134 0.008-0.044 0.020-0.078 0.030-0.078s0.018-0.014 0.018-0.030c0-0.064 0.086-0.086 0.389-0.1 0.213-0.010 0.309-0.022 0.331-0.042 0.016-0.016 0.040-0.028 0.050-0.028s0.028-0.024 0.042-0.052c0.020-0.044 0.018-0.064-0.008-0.116-0.018-0.034-0.042-0.068-0.054-0.076s-0.134-0.016-0.271-0.016c-0.225 0-0.253-0.004-0.285-0.040-0.036-0.044-0.046-0.13-0.016-0.15 0.012-0.006 0.026-0.052 0.034-0.1 0.006-0.050 0.020-0.090 0.028-0.090s0.020-0.034 0.028-0.078c0.006-0.042 0.026-0.102 0.042-0.134s0.030-0.086 0.030-0.122c0-0.034 0.010-0.066 0.022-0.070 0.010-0.004 0.026-0.048 0.030-0.096 0.006-0.050 0.024-0.124 0.040-0.165 0.016-0.040 0.028-0.094 0.028-0.12 0-0.024 0.012-0.068 0.028-0.096 0.014-0.028 0.032-0.086 0.040-0.128 0.008-0.044 0.028-0.096 0.044-0.118s0.028-0.066 0.028-0.098c0-0.052 0.024-0.142 0.084-0.323 0.012-0.034 0.028-0.104 0.038-0.155 0.008-0.054 0.024-0.108 0.036-0.12 0.010-0.014 0.024-0.060 0.032-0.104s0.028-0.104 0.042-0.134c0.016-0.030 0.028-0.078 0.028-0.108 0-0.050 0.010-0.086 0.088-0.339 0.018-0.058 0.032-0.126 0.032-0.154s0.010-0.076 0.022-0.108c0.022-0.054 0.052-0.209 0.098-0.494 0.012-0.078 0.032-0.199 0.044-0.271 0.020-0.128 0.016-0.203-0.018-0.327-0.036-0.132-0.11-0.175-0.255-0.155zM20.536 7.694c0 0.054-0.014 0.13-0.030 0.167-0.016 0.040-0.030 0.112-0.030 0.161 0 0.048-0.008 0.092-0.020 0.096-0.010 0.002-0.028 0.074-0.040 0.155s-0.030 0.158-0.040 0.167c-0.012 0.012-0.020 0.054-0.020 0.094s-0.018 0.13-0.040 0.197c-0.022 0.068-0.040 0.146-0.040 0.169 0 0.026-0.010 0.050-0.020 0.054-0.012 0.004-0.030 0.052-0.040 0.106-0.026 0.146-0.082 0.337-0.102 0.359-0.010 0.010-0.018 0.052-0.018 0.092 0 0.042-0.008 0.080-0.018 0.088-0.010 0.006-0.030 0.062-0.044 0.126-0.014 0.062-0.030 0.122-0.038 0.134-0.008 0.010-0.020 0.060-0.028 0.11-0.008 0.048-0.022 0.094-0.034 0.1-0.010 0.008-0.028 0.068-0.040 0.136s-0.030 0.124-0.040 0.124c-0.010 0-0.018 0.036-0.018 0.078 0 0.044-0.008 0.084-0.018 0.092-0.010 0.006-0.030 0.062-0.044 0.126-0.014 0.062-0.032 0.122-0.040 0.134-0.006 0.010-0.020 0.060-0.028 0.11s-0.024 0.102-0.036 0.116c-0.010 0.014-0.028 0.072-0.036 0.13-0.010 0.056-0.026 0.106-0.038 0.11-0.010 0.004-0.020 0.028-0.020 0.054 0 0.036-0.020 0.056-0.084 0.088-0.078 0.036-0.14 0.040-0.636 0.050-0.303 0.006-0.568 0.004-0.592-0.002-0.036-0.008-0.044-0.026-0.044-0.084 0-0.040 0.008-0.082 0.018-0.094 0.020-0.018 0.056-0.082 0.215-0.387 0.050-0.094 0.1-0.183 0.114-0.199 0.012-0.016 0.048-0.082 0.080-0.146 0.032-0.062 0.066-0.114 0.076-0.114 0.008 0 0.016-0.010 0.016-0.024 0-0.032 0.080-0.193 0.102-0.207 0.010-0.006 0.018-0.028 0.018-0.050 0-0.020 0.008-0.038 0.020-0.038 0.010 0 0.032-0.032 0.048-0.070s0.040-0.070 0.050-0.070c0.012 0 0.022-0.016 0.022-0.038 0-0.020 0.014-0.048 0.030-0.062s0.030-0.038 0.030-0.054c0-0.014 0.014-0.032 0.030-0.038 0.016-0.008 0.030-0.034 0.030-0.058 0-0.026 0.010-0.054 0.022-0.062 0.012-0.006 0.034-0.042 0.048-0.076 0.016-0.034 0.050-0.092 0.078-0.13s0.052-0.082 0.052-0.096c0-0.014 0.008-0.026 0.018-0.026s0.036-0.032 0.056-0.070c0.020-0.038 0.058-0.112 0.086-0.164 0.028-0.054 0.062-0.108 0.076-0.122 0.012-0.014 0.024-0.040 0.024-0.054 0-0.016 0.012-0.036 0.026-0.044 0.026-0.018 0.060-0.068 0.098-0.146 0.014-0.028 0.030-0.054 0.036-0.060s0.022-0.032 0.036-0.060c0.030-0.064 0.066-0.12 0.1-0.155 0.012-0.014 0.024-0.040 0.024-0.056s0.014-0.034 0.030-0.040c0.016-0.008 0.030-0.026 0.030-0.040 0-0.016 0.012-0.034 0.028-0.040s0.036-0.038 0.042-0.070c0.008-0.032 0.026-0.058 0.042-0.058s0.028-0.016 0.028-0.038c0-0.020 0.014-0.048 0.030-0.062s0.030-0.038 0.030-0.054c0-0.014 0.014-0.032 0.030-0.038 0.016-0.008 0.030-0.020 0.030-0.030 0-0.012 0.018-0.038 0.040-0.062s0.040-0.056 0.040-0.070c0-0.014 0.014-0.026 0.030-0.026s0.030-0.014 0.030-0.030c0-0.050 0.066-0.106 0.126-0.108 0.052-0.002 0.054 0.002 0.054 0.096z"></path>
<path d="M23.503 7.006c-0.018 0.024-0.042 0.082-0.056 0.128-0.012 0.046-0.030 0.084-0.038 0.084-0.010 0-0.022 0.038-0.028 0.084-0.006 0.048-0.022 0.088-0.032 0.092-0.012 0.004-0.022 0.032-0.022 0.062s-0.018 0.088-0.040 0.132c-0.022 0.044-0.040 0.094-0.040 0.114s-0.008 0.036-0.018 0.036c-0.010 0-0.024 0.036-0.032 0.080s-0.026 0.094-0.042 0.108c-0.016 0.016-0.028 0.050-0.028 0.076s-0.014 0.064-0.030 0.084c-0.016 0.022-0.030 0.060-0.030 0.084s-0.014 0.070-0.030 0.102c-0.016 0.030-0.048 0.124-0.072 0.205s-0.056 0.167-0.070 0.189c-0.016 0.022-0.028 0.058-0.028 0.082s-0.012 0.070-0.028 0.102c-0.062 0.128-0.092 0.205-0.142 0.375-0.030 0.098-0.062 0.187-0.072 0.199-0.010 0.010-0.018 0.044-0.018 0.074s-0.008 0.056-0.018 0.056c-0.010 0-0.026 0.030-0.034 0.064-0.006 0.036-0.030 0.098-0.050 0.136-0.022 0.038-0.038 0.084-0.038 0.102s-0.014 0.060-0.030 0.090c-0.016 0.032-0.030 0.076-0.030 0.098s-0.014 0.058-0.030 0.078c-0.016 0.022-0.030 0.064-0.030 0.092s-0.014 0.070-0.030 0.092c-0.016 0.020-0.030 0.062-0.030 0.090 0 0.030-0.014 0.064-0.030 0.078s-0.030 0.044-0.030 0.068c0 0.024-0.012 0.062-0.028 0.084s-0.036 0.076-0.044 0.118c-0.008 0.044-0.026 0.092-0.042 0.106-0.014 0.014-0.026 0.056-0.026 0.092 0 0.038-0.014 0.078-0.030 0.092s-0.030 0.044-0.030 0.068c0 0.022-0.014 0.068-0.030 0.1-0.016 0.030-0.030 0.072-0.030 0.092s-0.014 0.062-0.030 0.094c-0.016 0.030-0.040 0.094-0.050 0.14-0.012 0.048-0.030 0.086-0.040 0.086-0.012 0-0.020 0.022-0.020 0.048s-0.014 0.074-0.030 0.104c-0.016 0.032-0.030 0.076-0.030 0.1 0 0.022-0.014 0.058-0.030 0.080-0.016 0.020-0.030 0.054-0.030 0.074 0 0.038-0.074 0.279-0.102 0.337-0.010 0.020-0.018 0.046-0.018 0.060-0.002 0.014-0.018 0.062-0.040 0.106s-0.038 0.092-0.040 0.106c0 0.016-0.012 0.052-0.028 0.080-0.016 0.030-0.036 0.088-0.042 0.128-0.006 0.042-0.020 0.076-0.030 0.076-0.008 0-0.022 0.038-0.030 0.084-0.008 0.048-0.022 0.094-0.030 0.106-0.008 0.010-0.022 0.056-0.030 0.098-0.006 0.044-0.026 0.098-0.042 0.12s-0.028 0.064-0.028 0.094c0 0.030-0.014 0.064-0.030 0.078s-0.030 0.054-0.030 0.092c0 0.036-0.012 0.078-0.026 0.092-0.016 0.014-0.034 0.062-0.042 0.106s-0.022 0.088-0.032 0.1c-0.008 0.010-0.022 0.056-0.030 0.098-0.006 0.044-0.026 0.098-0.042 0.12s-0.028 0.070-0.028 0.106c0 0.036-0.008 0.066-0.020 0.066-0.010 0-0.026 0.036-0.032 0.082-0.008 0.044-0.024 0.092-0.038 0.104-0.012 0.014-0.030 0.064-0.038 0.11-0.006 0.048-0.020 0.102-0.030 0.12-0.032 0.068-0.086 0.235-0.1 0.319-0.010 0.048-0.026 0.096-0.038 0.108-0.014 0.014-0.024 0.050-0.024 0.080 0 0.032-0.014 0.090-0.030 0.13-0.016 0.038-0.030 0.116-0.030 0.169 0 0.078 0.010 0.108 0.046 0.138 0.052 0.044 0.088 0.046 0.15 0.012 0.054-0.032 0.124-0.155 0.124-0.223 0-0.028 0.014-0.084 0.030-0.124 0.016-0.038 0.030-0.094 0.030-0.124 0-0.028 0.014-0.068 0.030-0.088 0.014-0.022 0.034-0.076 0.040-0.12 0.008-0.046 0.022-0.094 0.030-0.104 0.008-0.012 0.020-0.054 0.028-0.094s0.026-0.1 0.042-0.13c0.016-0.030 0.030-0.080 0.030-0.108 0-0.030 0.014-0.064 0.030-0.078 0.018-0.014 0.030-0.058 0.030-0.102 0-0.042 0.008-0.080 0.018-0.086s0.042-0.090 0.070-0.185c0.030-0.098 0.066-0.203 0.082-0.235 0.014-0.034 0.032-0.082 0.036-0.11 0.010-0.052 0.044-0.15 0.086-0.249 0.014-0.034 0.032-0.088 0.040-0.12 0.008-0.034 0.020-0.070 0.028-0.080 0.008-0.012 0.022-0.058 0.030-0.104 0.006-0.044 0.026-0.098 0.040-0.12 0.016-0.020 0.030-0.060 0.030-0.090s0.008-0.060 0.020-0.066c0.010-0.006 0.030-0.050 0.042-0.096 0.046-0.171 0.14-0.177 0.315-0.020 0.040 0.036 0.080 0.066 0.088 0.066s0.042 0.026 0.074 0.060c0.032 0.032 0.068 0.060 0.080 0.060 0.010 0 0.020 0.008 0.020 0.016 0 0.010 0.046 0.046 0.1 0.082 0.056 0.036 0.1 0.074 0.1 0.084s0.014 0.018 0.030 0.018c0.016 0 0.030 0.010 0.030 0.020 0 0.012 0.016 0.028 0.036 0.034 0.030 0.012 0.154 0.102 0.225 0.164 0.016 0.012 0.096 0.072 0.177 0.132s0.165 0.122 0.185 0.14c0.018 0.016 0.048 0.030 0.064 0.030s0.030 0.008 0.030 0.018c0 0.020 0.327 0.241 0.357 0.241 0.010 0 0.022 0.014 0.030 0.030 0.006 0.016 0.024 0.030 0.038 0.030 0.016 0 0.040 0.014 0.054 0.030s0.042 0.030 0.062 0.030c0.022 0 0.038 0.012 0.038 0.026s0.024 0.036 0.056 0.050c0.030 0.012 0.108 0.054 0.173 0.094 0.066 0.038 0.134 0.074 0.15 0.080 0.016 0.008 0.044 0.022 0.060 0.032s0.052 0.030 0.080 0.042c0.028 0.014 0.062 0.036 0.076 0.050s0.040 0.026 0.056 0.026c0.018 0 0.044 0.014 0.060 0.030 0.018 0.016 0.050 0.030 0.074 0.030s0.062 0.014 0.082 0.030c0.022 0.016 0.062 0.030 0.090 0.030s0.070 0.014 0.090 0.030c0.056 0.042 0.235 0.040 0.287-0.006 0.048-0.038 0.080-0.144 0.046-0.144-0.012 0-0.022-0.012-0.022-0.026-0.002-0.036-0.169-0.114-0.249-0.114-0.038 0-0.070-0.008-0.070-0.018s-0.020-0.026-0.044-0.032c-0.048-0.014-0.162-0.062-0.215-0.092-0.016-0.010-0.114-0.058-0.213-0.11-0.102-0.050-0.185-0.1-0.185-0.11s-0.022-0.018-0.050-0.018c-0.026 0-0.056-0.012-0.064-0.026-0.020-0.030-0.076-0.068-0.15-0.1-0.032-0.012-0.056-0.032-0.056-0.044 0-0.010-0.040-0.038-0.090-0.060-0.048-0.020-0.094-0.050-0.098-0.064-0.006-0.014-0.024-0.026-0.038-0.026-0.016 0-0.044-0.018-0.064-0.040s-0.048-0.040-0.060-0.040c-0.014 0-0.030-0.014-0.038-0.030-0.006-0.016-0.024-0.030-0.042-0.030-0.016 0-0.030-0.014-0.030-0.030 0-0.018-0.018-0.030-0.050-0.030-0.028 0-0.056-0.014-0.062-0.030-0.008-0.016-0.022-0.030-0.034-0.030-0.010 0-0.058-0.032-0.106-0.070-0.046-0.038-0.090-0.070-0.098-0.070-0.006 0-0.036-0.024-0.066-0.056-0.070-0.068-0.175-0.144-0.203-0.144-0.010 0-0.020-0.014-0.020-0.030s-0.010-0.030-0.020-0.030c-0.030 0-0.239-0.159-0.239-0.181 0-0.010-0.014-0.018-0.030-0.018s-0.030-0.014-0.030-0.030c0-0.016-0.018-0.030-0.040-0.030s-0.040-0.014-0.040-0.030c0-0.016-0.008-0.030-0.018-0.030-0.012 0-0.054-0.032-0.096-0.070s-0.088-0.070-0.1-0.070c-0.014 0-0.026-0.014-0.026-0.030s-0.014-0.030-0.030-0.030c-0.056 0-0.036-0.112 0.034-0.189 0.036-0.038 0.078-0.070 0.090-0.070 0.014 0 0.026-0.014 0.026-0.030s0.008-0.030 0.020-0.030c0.010 0 0.076-0.058 0.148-0.13 0.070-0.072 0.138-0.13 0.15-0.13s0.022-0.010 0.022-0.022c0-0.012 0.032-0.050 0.072-0.084 0.16-0.14 1.543-1.527 1.543-1.547 0-0.012 0.008-0.022 0.020-0.022 0.024 0 0.359-0.335 0.359-0.361 0-0.010 0.012-0.018 0.026-0.018 0.030 0 0.114-0.090 0.114-0.12 0-0.012 0.014-0.020 0.030-0.020s0.030-0.008 0.030-0.020c0-0.010 0.064-0.082 0.14-0.159 0.078-0.076 0.15-0.14 0.16-0.14 0.012 0 0.020-0.010 0.020-0.020 0-0.012 0.028-0.048 0.060-0.080 0.034-0.032 0.060-0.068 0.060-0.080 0-0.010 0.010-0.020 0.024-0.020 0.026 0 0.175-0.152 0.175-0.179 0-0.012 0.014-0.020 0.030-0.020s0.030-0.010 0.030-0.020c0-0.026 0.064-0.090 0.106-0.106 0.018-0.006 0.034-0.026 0.034-0.044 0-0.016 0.010-0.030 0.020-0.030 0.022 0 0.1-0.072 0.1-0.092 0-0.008 0.070-0.082 0.155-0.167 0.084-0.084 0.173-0.179 0.199-0.211 0.058-0.074 0.058-0.173 0-0.227-0.050-0.046-0.074-0.050-0.148-0.016-0.060 0.028-0.267 0.227-0.267 0.257 0 0.010-0.014 0.018-0.030 0.018s-0.030 0.014-0.030 0.030c0 0.016-0.014 0.030-0.030 0.030s-0.030 0.010-0.030 0.022c0 0.026-0.155 0.177-0.181 0.177-0.010 0-0.018 0.008-0.018 0.018 0 0.020-0.154 0.183-0.622 0.666-0.163 0.165-0.295 0.309-0.295 0.317 0 0.010-0.014 0.016-0.030 0.016s-0.030 0.008-0.030 0.020c0 0.022-0.094 0.12-0.116 0.12-0.008 0-0.032 0.028-0.054 0.060s-0.052 0.060-0.064 0.060c-0.014 0-0.026 0.008-0.026 0.018 0 0.024-0.215 0.241-0.239 0.241-0.012 0-0.020 0.010-0.020 0.020 0 0.026-0.67 0.698-0.698 0.698-0.010 0-0.020 0.010-0.020 0.022 0 0.022-0.219 0.237-0.243 0.237-0.010 0-0.016 0.010-0.016 0.020 0 0.024-0.108 0.132-0.231 0.233-0.044 0.036-0.112 0.096-0.154 0.134-0.042 0.040-0.080 0.072-0.084 0.072-0.006 0-0.048 0.040-0.094 0.086-0.090 0.092-0.209 0.148-0.241 0.116-0.022-0.022 0.002-0.142 0.028-0.142 0.010 0 0.018-0.030 0.018-0.068s0.008-0.074 0.018-0.082c0.010-0.006 0.030-0.060 0.042-0.12s0.032-0.11 0.042-0.11c0.010 0 0.018-0.030 0.018-0.066s0.012-0.082 0.028-0.104c0.014-0.022 0.032-0.074 0.040-0.114s0.026-0.1 0.042-0.13c0.016-0.030 0.030-0.066 0.030-0.080 0-0.012 0.014-0.048 0.030-0.080 0.016-0.030 0.034-0.090 0.040-0.132 0.006-0.040 0.020-0.074 0.030-0.074 0.012 0 0.020-0.030 0.020-0.068s0.008-0.074 0.018-0.082c0.012-0.006 0.044-0.090 0.074-0.185s0.062-0.183 0.072-0.197c0.012-0.014 0.028-0.054 0.036-0.090 0.020-0.080 0.056-0.185 0.092-0.265 0.014-0.034 0.030-0.082 0.038-0.11 0.006-0.028 0.020-0.068 0.030-0.090s0.028-0.078 0.040-0.124c0.012-0.046 0.030-0.090 0.040-0.096 0.012-0.006 0.020-0.036 0.020-0.066s0.014-0.072 0.030-0.092c0.016-0.022 0.030-0.058 0.030-0.082 0-0.022 0.018-0.076 0.040-0.12s0.040-0.094 0.040-0.114c0-0.018 0.008-0.038 0.018-0.044s0.024-0.044 0.032-0.086c0.008-0.040 0.026-0.092 0.042-0.114s0.028-0.064 0.028-0.094c0-0.030 0.014-0.064 0.030-0.078s0.030-0.048 0.030-0.078c0-0.030 0.012-0.070 0.026-0.092s0.048-0.108 0.074-0.189c0.028-0.082 0.062-0.162 0.076-0.175 0.012-0.014 0.024-0.054 0.024-0.086s0.012-0.080 0.028-0.104c0.016-0.024 0.034-0.078 0.040-0.12 0.008-0.040 0.022-0.074 0.032-0.074 0.012 0 0.020-0.022 0.020-0.048s0.014-0.074 0.030-0.104c0.040-0.076 0.036-0.128-0.008-0.183-0.054-0.062-0.177-0.060-0.225 0.004z"></path>
<path d="M19.222 24.9c-0.038 0.028-0.044 0.048-0.034 0.090 0.010 0.044 0.024 0.052 0.082 0.052 0.098 0 0.132-0.064 0.068-0.132-0.054-0.058-0.054-0.058-0.116-0.010z"></path>
<path d="M32.225 24.89c-0.034 0.016-0.046 0.038-0.046 0.086 0 0.064 0.004 0.066 0.078 0.066 0.068 0 0.080-0.008 0.090-0.052 0.008-0.030 0.012-0.054 0.008-0.056s-0.024-0.016-0.046-0.034c-0.030-0.024-0.050-0.026-0.084-0.010z"></path>
<path d="M7.207 24.968c-0.054 0.060-0.082 0.114-0.098 0.199-0.008 0.042-0.022 0.074-0.032 0.074-0.012 0-0.026 0.036-0.032 0.080-0.008 0.044-0.026 0.090-0.040 0.102-0.016 0.012-0.028 0.048-0.028 0.080s-0.008 0.058-0.020 0.058c-0.010 0-0.024 0.024-0.032 0.054-0.012 0.058-0.072 0.197-0.12 0.289-0.016 0.028-0.028 0.070-0.028 0.092s-0.014 0.050-0.030 0.064c-0.016 0.014-0.030 0.050-0.030 0.080s-0.014 0.066-0.030 0.080c-0.016 0.014-0.030 0.048-0.030 0.078-0.002 0.028-0.014 0.074-0.030 0.102s-0.028 0.066-0.030 0.084c0 0.020-0.018 0.054-0.040 0.076s-0.040 0.058-0.040 0.082c0 0.022-0.014 0.054-0.030 0.070-0.016 0.018-0.030 0.052-0.030 0.080s-0.014 0.054-0.030 0.060c-0.018 0.008-0.030 0.038-0.030 0.080 0 0.038-0.008 0.068-0.020 0.068-0.010 0-0.020 0.022-0.020 0.050 0 0.068 0.074 0.070 0.092 0 0.006-0.026 0.024-0.058 0.040-0.072 0.016-0.012 0.028-0.046 0.028-0.076s0.012-0.070 0.028-0.092c0.014-0.022 0.034-0.070 0.042-0.106s0.026-0.090 0.042-0.12c0.016-0.030 0.028-0.064 0.028-0.074 0-0.012 0.030-0.040 0.066-0.066 0.064-0.042 0.082-0.044 0.548-0.044 0.457 0 0.484 0.002 0.522 0.040 0.022 0.022 0.048 0.040 0.058 0.040s0.024 0.026 0.032 0.060c0.008 0.032 0.020 0.060 0.030 0.060 0.008 0 0.026 0.040 0.038 0.088 0.012 0.050 0.030 0.096 0.042 0.102 0.010 0.006 0.020 0.038 0.020 0.072 0 0.032 0.008 0.058 0.020 0.058 0.010 0 0.024 0.032 0.032 0.070 0.024 0.136 0.128 0.181 0.128 0.060 0-0.038-0.008-0.070-0.018-0.070s-0.026-0.030-0.032-0.066c-0.008-0.034-0.026-0.078-0.040-0.094s-0.032-0.060-0.040-0.096c-0.006-0.034-0.022-0.064-0.032-0.064s-0.018-0.020-0.018-0.046c0-0.024-0.014-0.060-0.030-0.080-0.014-0.022-0.034-0.072-0.040-0.116-0.008-0.042-0.022-0.078-0.032-0.078s-0.018-0.016-0.018-0.036c0-0.018-0.018-0.068-0.040-0.11-0.022-0.040-0.040-0.086-0.040-0.102s-0.012-0.042-0.026-0.056c-0.016-0.014-0.032-0.050-0.040-0.076-0.016-0.074-0.082-0.247-0.098-0.259-0.006-0.006-0.018-0.044-0.026-0.086s-0.028-0.088-0.042-0.104c-0.016-0.014-0.028-0.050-0.028-0.076 0-0.028-0.014-0.060-0.030-0.074s-0.030-0.042-0.030-0.062c0-0.022-0.018-0.072-0.040-0.112-0.022-0.042-0.040-0.092-0.040-0.11 0-0.020-0.008-0.036-0.020-0.036-0.010 0-0.020-0.012-0.020-0.026 0-0.036-0.066-0.094-0.102-0.092-0.016 0-0.046 0.020-0.068 0.044zM7.329 25.173c0.026 0.028 0.048 0.068 0.048 0.090 0 0.020 0.008 0.038 0.018 0.038s0.024 0.036 0.032 0.080c0.008 0.044 0.026 0.094 0.042 0.108 0.016 0.016 0.028 0.048 0.028 0.068 0 0.022 0.012 0.066 0.028 0.098 0.036 0.074 0.080 0.171 0.132 0.295 0.022 0.054 0.054 0.124 0.070 0.154 0.044 0.076 0.038 0.154-0.014 0.197-0.042 0.034-0.084 0.036-0.445 0.036-0.393 0.002-0.399 0-0.443-0.046l-0.044-0.046 0.044-0.108c0.024-0.060 0.056-0.12 0.070-0.134 0.012-0.014 0.024-0.062 0.024-0.104 0-0.048 0.010-0.080 0.030-0.088 0.016-0.006 0.030-0.032 0.030-0.056 0-0.026 0.014-0.064 0.030-0.084 0.016-0.022 0.030-0.060 0.030-0.084 0-0.026 0.014-0.058 0.030-0.076 0.016-0.016 0.030-0.042 0.030-0.056s0.012-0.048 0.026-0.076c0.016-0.028 0.034-0.082 0.040-0.12 0.014-0.064 0.066-0.136 0.102-0.138 0.010-0.002 0.038 0.020 0.064 0.050z"></path>
<path d="M24.316 24.992c-0.030 0.028-0.062 0.050-0.074 0.050-0.010 0-0.018 0.014-0.018 0.030s-0.008 0.030-0.020 0.030c-0.022 0-0.1 0.072-0.1 0.092s-0.1 0.108-0.122 0.108c-0.010 0-0.018 0.010-0.018 0.020 0 0.012-0.026 0.048-0.060 0.080-0.032 0.032-0.060 0.068-0.060 0.080 0 0.010-0.014 0.020-0.030 0.020-0.018 0-0.036 0.014-0.042 0.030-0.008 0.016-0.024 0.030-0.040 0.030s-0.028 0.012-0.028 0.026c0 0.028-0.070 0.094-0.1 0.094-0.012 0-0.020 0.012-0.020 0.028s-0.018 0.036-0.040 0.042c-0.022 0.006-0.040 0.022-0.040 0.032s-0.040 0.058-0.090 0.104c-0.050 0.048-0.090 0.098-0.090 0.11 0 0.014-0.014 0.024-0.030 0.024s-0.030 0.008-0.030 0.020c0 0.032-0.11 0.078-0.155 0.066-0.044-0.010-0.044-0.014-0.044-0.566 0-0.351-0.008-0.558-0.020-0.566-0.012-0.006-0.038-0.006-0.060 0-0.040 0.012-0.040 0.028-0.036 1.051 0.006 0.971 0.008 1.041 0.042 1.061 0.062 0.038 0.074-0.022 0.074-0.375v-0.335l0.1-0.098c0.056-0.054 0.1-0.106 0.1-0.118 0-0.010 0.014-0.020 0.030-0.020s0.030-0.014 0.030-0.030c0-0.016 0.014-0.030 0.030-0.030s0.030-0.014 0.030-0.030c0-0.016 0.014-0.030 0.030-0.030 0.018 0 0.036-0.014 0.042-0.030 0.008-0.018 0.038-0.030 0.070-0.030 0.038 0 0.058 0.010 0.058 0.030 0 0.016 0.010 0.030 0.020 0.030 0.038 0 0.146 0.14 0.173 0.223 0.006 0.020 0.024 0.036 0.038 0.036 0.016 0 0.028 0.012 0.028 0.026 0 0.016 0.018 0.044 0.040 0.064s0.040 0.048 0.040 0.064c0 0.014 0.010 0.026 0.020 0.026 0.012 0 0.020 0.014 0.020 0.030 0 0.014 0.012 0.036 0.026 0.044s0.036 0.040 0.048 0.070c0.014 0.032 0.034 0.056 0.046 0.056 0.010 0 0.020 0.018 0.020 0.040s0.012 0.040 0.028 0.040c0.016 0 0.034 0.022 0.040 0.050 0.008 0.028 0.022 0.050 0.032 0.050 0.012 0 0.020 0.018 0.020 0.040s0.012 0.040 0.028 0.040c0.016 0 0.032 0.020 0.040 0.044 0.014 0.058 0.104 0.155 0.142 0.155 0.054 0 0.052-0.042-0.004-0.114-0.030-0.038-0.064-0.084-0.076-0.102-0.028-0.044-0.044-0.066-0.090-0.122-0.022-0.026-0.040-0.060-0.040-0.076 0-0.014-0.014-0.032-0.030-0.038-0.016-0.008-0.030-0.020-0.030-0.030 0-0.026-0.084-0.144-0.114-0.163-0.014-0.008-0.026-0.026-0.026-0.036 0-0.012-0.014-0.034-0.030-0.050-0.016-0.018-0.030-0.048-0.030-0.070 0-0.020-0.014-0.038-0.030-0.038s-0.030-0.012-0.030-0.028c0-0.014-0.014-0.038-0.030-0.052s-0.030-0.042-0.030-0.064c0-0.020-0.014-0.042-0.030-0.048-0.016-0.008-0.030-0.024-0.030-0.038s-0.014-0.036-0.030-0.050c-0.068-0.056-0.122-0.239-0.070-0.239 0.012 0 0.020-0.018 0.020-0.040s0.008-0.040 0.018-0.040c0.024 0 0.122-0.088 0.122-0.11 0-0.020 0.080-0.090 0.104-0.090 0.008 0 0.016-0.010 0.016-0.022 0-0.026 0.134-0.157 0.16-0.157 0.012 0 0.020-0.008 0.020-0.016 0-0.010 0.058-0.076 0.13-0.15 0.118-0.12 0.16-0.193 0.112-0.193-0.008 0-0.040 0.022-0.070 0.050z"></path>
<path d="M14.455 25.141c-0.012 0.022-0.016 0.072-0.008 0.112 0.008 0.046 0.002 0.1-0.022 0.157-0.028 0.074-0.042 0.090-0.086 0.092-0.030 0-0.072 0.008-0.094 0.016-0.032 0.014-0.028 0.018 0.032 0.030 0.074 0.014 0.114 0.046 0.158 0.13 0.016 0.032 0.024 0.221 0.026 0.66l0.004 0.614 0.084 0.082 0.086 0.080 0.209-0.004c0.144-0.004 0.217-0.014 0.233-0.032 0.022-0.022 0.006-0.024-0.098-0.014-0.203 0.022-0.297-0.016-0.401-0.162-0.044-0.062-0.044-0.074-0.044-0.662 0-0.331 0.008-0.6 0.016-0.6 0.010 0 0.038-0.018 0.064-0.040 0.040-0.034 0.074-0.040 0.273-0.040 0.187 0 0.225-0.006 0.225-0.030 0-0.026-0.042-0.030-0.255-0.030-0.317 0-0.323-0.004-0.323-0.239 0-0.128-0.006-0.16-0.030-0.16-0.016 0-0.038 0.018-0.050 0.040z"></path>
<path d="M31.069 25.117c-0.042 0.006-0.046 0.018-0.046 0.15 0 0.211-0.008 0.227-0.116 0.245-0.070 0.012-0.082 0.018-0.044 0.024 0.026 0.004 0.074 0.032 0.106 0.064l0.056 0.054-0.002 0.566c0 0.496 0.004 0.576 0.036 0.656 0.044 0.114 0.088 0.179 0.116 0.179 0.014 0 0.028 0.014 0.034 0.030 0.010 0.022 0.056 0.028 0.217 0.028 0.231 0 0.275-0.008 0.275-0.050 0-0.022-0.012-0.026-0.040-0.018-0.024 0.008-0.102 0.014-0.175 0.016-0.11 0.004-0.148-0.004-0.207-0.042-0.042-0.026-0.076-0.056-0.076-0.068s-0.012-0.032-0.028-0.044c-0.024-0.018-0.030-0.126-0.032-0.6-0.004-0.319-0.004-0.598-0.002-0.624 0.004-0.080 0.136-0.124 0.377-0.124 0.155 0 0.205-0.006 0.199-0.026-0.006-0.016-0.088-0.026-0.273-0.034-0.203-0.008-0.267-0.016-0.281-0.040-0.010-0.016-0.020-0.1-0.020-0.183s-0.006-0.155-0.014-0.16c-0.010-0.004-0.036-0.004-0.060 0z"></path>
<path d="M9.187 25.528c-0.016 0.014-0.048 0.034-0.072 0.040-0.024 0.008-0.044 0.024-0.044 0.034 0 0.028 0.144 0.020 0.207-0.012 0.076-0.040 0.297-0.040 0.339 0 0.016 0.016 0.046 0.030 0.068 0.030 0.046 0 0.203 0.132 0.203 0.169 0 0.016 0.010 0.030 0.020 0.034 0.040 0.012 0.060 0.253 0.060 0.724 0 0.449 0.002 0.48 0.038 0.502 0.020 0.014 0.044 0.018 0.050 0.012 0.006-0.008 0.012-0.255 0.012-0.552-0.002-0.463-0.006-0.554-0.036-0.64-0.058-0.162-0.171-0.307-0.245-0.309-0.016 0-0.048-0.014-0.070-0.030-0.052-0.040-0.49-0.042-0.53-0.002z"></path>
<path d="M10.978 25.53c-0.006 0.016-0.028 0.030-0.050 0.030-0.034 0-0.142 0.084-0.142 0.11 0 0.004-0.022 0.032-0.050 0.062s-0.050 0.064-0.050 0.078c0 0.016 0.018 0.020 0.050 0.014 0.028-0.004 0.050-0.016 0.050-0.026 0-0.026 0.092-0.118 0.118-0.118 0.012 0 0.022-0.008 0.022-0.018 0-0.008 0.040-0.028 0.090-0.042s0.096-0.034 0.102-0.042c0.006-0.010 0.086-0.018 0.175-0.018 0.124 0 0.173 0.008 0.191 0.030 0.014 0.016 0.036 0.030 0.048 0.030 0.032 0 0.171 0.138 0.171 0.167 0 0.016 0.014 0.038 0.030 0.052 0.024 0.020 0.030 0.060 0.026 0.177l-0.006 0.152-0.084 0.040c-0.092 0.042-0.11 0.070-0.048 0.070 0.020 0 0.048 0.014 0.062 0.030s0.038 0.030 0.052 0.030c0.022 0 0.028 0.044 0.028 0.197 0 0.114-0.008 0.205-0.020 0.211-0.018 0.010-0.080 0.138-0.080 0.162 0 0.004 0.012 0.008 0.028 0.008s0.048 0.028 0.074 0.062c0.096 0.128 0.114 0.138 0.217 0.138 0.112 0 0.142-0.046 0.046-0.068-0.032-0.006-0.076-0.028-0.102-0.048-0.046-0.036-0.046-0.036-0.046-0.534 0.002-0.451-0.002-0.508-0.040-0.622-0.044-0.132-0.167-0.283-0.233-0.283-0.018 0-0.052-0.014-0.072-0.030-0.058-0.044-0.54-0.044-0.558 0z"></path>
<path d="M12.852 25.53c-0.006 0.016-0.028 0.030-0.050 0.030-0.020 0-0.090 0.050-0.154 0.112-0.116 0.112-0.116 0.112-0.124 0.243-0.006 0.122-0.002 0.14 0.050 0.205 0.030 0.040 0.084 0.090 0.116 0.11 0.088 0.052 0.249 0.108 0.313 0.108 0.032 0 0.090 0.014 0.13 0.030 0.038 0.016 0.11 0.030 0.158 0.030 0.046 0 0.090 0.008 0.098 0.018 0.006 0.010 0.044 0.030 0.084 0.044 0.040 0.012 0.094 0.046 0.12 0.074 0.040 0.042 0.046 0.070 0.046 0.191 0 0.13-0.004 0.146-0.056 0.195-0.032 0.030-0.096 0.074-0.144 0.098-0.078 0.042-0.114 0.046-0.315 0.044-0.167-0.004-0.239-0.012-0.275-0.034-0.026-0.018-0.058-0.032-0.070-0.032-0.026 0-0.042-0.012-0.171-0.138-0.096-0.092-0.126-0.102-0.126-0.038 0.002 0.056 0.070 0.14 0.15 0.181 0.217 0.112 0.211 0.112 0.51 0.11 0.241 0 0.297-0.006 0.357-0.038 0.038-0.022 0.078-0.038 0.090-0.038 0.024 0 0.088-0.068 0.136-0.144 0.046-0.072 0.048-0.331 0.004-0.347-0.016-0.008-0.030-0.022-0.030-0.036-0.002-0.086-0.261-0.199-0.528-0.229-0.183-0.020-0.355-0.080-0.441-0.152l-0.078-0.066 0.004-0.165c0.004-0.154 0.008-0.167 0.060-0.209 0.138-0.112 0.48-0.169 0.576-0.098 0.020 0.016 0.054 0.030 0.074 0.030 0.042 0 0.193 0.084 0.193 0.106 0 0.030 0.1 0.116 0.12 0.104 0.012-0.006 0.020-0.032 0.020-0.058 0-0.056-0.152-0.211-0.203-0.211-0.020 0-0.042-0.014-0.048-0.030-0.010-0.024-0.062-0.030-0.297-0.030s-0.287 0.006-0.297 0.030z"></path>
<path d="M15.838 25.538c-0.14 0.076-0.267 0.211-0.267 0.285 0 0.036 0.010 0.056 0.030 0.056 0.016 0 0.030-0.014 0.030-0.030s0.012-0.030 0.028-0.030c0.016 0 0.032-0.020 0.040-0.046 0.006-0.026 0.036-0.060 0.066-0.076 0.032-0.016 0.068-0.040 0.082-0.054 0.014-0.012 0.042-0.024 0.060-0.024s0.060-0.014 0.092-0.030c0.074-0.040 0.291-0.040 0.343 0 0.020 0.016 0.052 0.030 0.070 0.030 0.040 0 0.138 0.082 0.138 0.116 0 0.014 0.012 0.024 0.026 0.024 0.030 0 0.094 0.189 0.094 0.285 0 0.078-0.070 0.173-0.126 0.173-0.018 0-0.044 0.012-0.058 0.028-0.020 0.018-0.090 0.030-0.205 0.034-0.118 0.006-0.179 0.016-0.185 0.034-0.004 0.014-0.044 0.024-0.1 0.024-0.052 0-0.12 0.014-0.152 0.030-0.030 0.016-0.070 0.030-0.084 0.030-0.016 0-0.078 0.050-0.138 0.11l-0.11 0.11v0.148c0 0.112 0.008 0.15 0.030 0.16 0.016 0.006 0.030 0.020 0.030 0.032 0 0.028 0.058 0.082 0.134 0.124 0.082 0.046 0.538 0.050 0.596 0.006 0.034-0.026 0.018-0.030-0.142-0.026-0.195 0.002-0.349-0.016-0.349-0.046 0-0.010-0.012-0.018-0.028-0.018s-0.056-0.028-0.090-0.062c-0.056-0.056-0.062-0.072-0.062-0.187 0-0.12 0.004-0.134 0.066-0.195 0.038-0.036 0.096-0.078 0.13-0.092 0.036-0.016 0.064-0.034 0.064-0.044s0.046-0.018 0.1-0.018c0.072 0 0.1-0.008 0.1-0.028 0-0.038 0.475-0.066 0.538-0.032 0.040 0.022 0.044 0.036 0.036 0.195-0.004 0.114-0.014 0.173-0.032 0.179-0.012 0.004-0.024 0.028-0.024 0.054s-0.014 0.060-0.030 0.078c-0.032 0.032-0.040 0.072-0.012 0.072 0.024 0 0.152 0.124 0.167 0.163 0.018 0.048 0.253 0.054 0.253 0.006 0-0.018-0.018-0.030-0.048-0.030-0.074 0-0.142-0.078-0.167-0.189-0.014-0.056-0.028-0.323-0.034-0.598-0.008-0.411-0.016-0.5-0.040-0.514-0.016-0.008-0.030-0.028-0.030-0.044 0-0.032-0.104-0.116-0.213-0.171-0.1-0.052-0.52-0.052-0.616 0z"></path>
<path d="M17.713 25.53c-0.008 0.016-0.030 0.030-0.050 0.030-0.022 0-0.054 0.018-0.072 0.040-0.020 0.022-0.046 0.040-0.060 0.040s-0.026 0.014-0.026 0.030c0 0.016-0.008 0.030-0.020 0.030-0.010 0-0.020 0.012-0.020 0.028 0 0.014-0.018 0.050-0.040 0.078s-0.040 0.080-0.040 0.116c0 0.078 0.060 0.215 0.096 0.217 0.012 0 0.024 0.010 0.024 0.020 0 0.036 0.108 0.118 0.154 0.12 0.024 0 0.046 0.010 0.050 0.022s0.070 0.028 0.146 0.038c0.078 0.008 0.165 0.026 0.195 0.038 0.032 0.012 0.078 0.022 0.104 0.022 0.072 0 0.269 0.082 0.269 0.112 0 0.016 0.014 0.028 0.030 0.028s0.030 0.012 0.030 0.028c0 0.016 0.012 0.032 0.026 0.036 0.016 0.006 0.024 0.050 0.024 0.126s-0.008 0.12-0.024 0.124c-0.014 0.006-0.026 0.022-0.026 0.038s-0.012 0.028-0.028 0.028c-0.016 0-0.032 0.012-0.038 0.028s-0.046 0.046-0.088 0.066c-0.108 0.052-0.546 0.052-0.634 0-0.032-0.018-0.070-0.034-0.082-0.034-0.014 0-0.028-0.014-0.036-0.030-0.006-0.016-0.024-0.030-0.042-0.030-0.016 0-0.030-0.008-0.030-0.018 0-0.040-0.096-0.122-0.128-0.11-0.044 0.016-0.020 0.106 0.042 0.154 0.026 0.020 0.060 0.050 0.074 0.066 0.016 0.016 0.038 0.028 0.050 0.028s0.056 0.018 0.096 0.040c0.066 0.036 0.114 0.040 0.391 0.040 0.251 0 0.317-0.006 0.325-0.028 0.006-0.016 0.034-0.034 0.062-0.042 0.068-0.016 0.175-0.13 0.193-0.201 0.030-0.12 0.036-0.211 0.014-0.233-0.012-0.012-0.022-0.036-0.022-0.054 0-0.040-0.114-0.16-0.152-0.16-0.018 0-0.044-0.014-0.060-0.030-0.018-0.016-0.060-0.030-0.094-0.030-0.036 0-0.082-0.014-0.102-0.030-0.026-0.018-0.086-0.030-0.162-0.030-0.072 0-0.138-0.012-0.162-0.028-0.022-0.016-0.074-0.034-0.114-0.042s-0.082-0.026-0.096-0.042c-0.012-0.016-0.034-0.028-0.046-0.028s-0.042-0.030-0.066-0.066c-0.056-0.082-0.068-0.313-0.016-0.313 0.016 0 0.030-0.012 0.030-0.028 0-0.036 0.108-0.104 0.193-0.122 0.036-0.006 0.070-0.022 0.076-0.032 0.016-0.022 0.303-0.024 0.317 0 0.006 0.008 0.052 0.028 0.102 0.042 0.088 0.024 0.229 0.136 0.229 0.177 0 0.012 0.028 0.022 0.060 0.022 0.064 0 0.084-0.046 0.030-0.068-0.016-0.006-0.030-0.020-0.030-0.034 0-0.030-0.118-0.13-0.209-0.177-0.066-0.034-0.118-0.040-0.343-0.040-0.219 0-0.269 0.006-0.277 0.030z"></path>
<path d="M20.193 25.552c-0.054 0.028-0.096 0.058-0.096 0.068 0 0.012-0.008 0.020-0.020 0.020-0.036 0-0.102 0.080-0.114 0.14-0.008 0.048-0.004 0.060 0.022 0.060 0.018 0 0.038-0.014 0.046-0.032 0.022-0.058 0.146-0.167 0.201-0.179 0.030-0.006 0.086-0.024 0.126-0.042 0.134-0.056 0.409 0 0.522 0.106 0.030 0.028 0.054 0.058 0.054 0.068s0.014 0.030 0.030 0.046c0.020 0.020 0.030 0.082 0.034 0.193 0.006 0.181-0.016 0.219-0.128 0.219-0.032 0-0.062 0.014-0.068 0.030-0.010 0.024-0.048 0.030-0.167 0.030-0.114 0-0.157 0.008-0.165 0.028-0.008 0.018-0.056 0.030-0.146 0.036-0.080 0.004-0.138 0.018-0.144 0.032-0.004 0.014-0.022 0.024-0.040 0.024-0.044 0-0.163 0.084-0.163 0.114 0 0.014-0.014 0.026-0.030 0.026-0.044 0-0.076 0.152-0.062 0.287 0.012 0.122 0.030 0.146 0.167 0.245 0.058 0.042 0.084 0.046 0.339 0.046 0.251 0 0.281-0.004 0.313-0.040 0.020-0.022 0.052-0.040 0.074-0.040 0.020 0 0.036-0.012 0.036-0.028s0.012-0.032 0.026-0.038c0.012-0.004 0.018-0.016 0.010-0.024s-0.028 0-0.046 0.018c-0.018 0.018-0.054 0.032-0.080 0.032s-0.050 0.012-0.054 0.024c-0.008 0.020-0.076 0.026-0.255 0.026s-0.247-0.006-0.253-0.026c-0.006-0.012-0.020-0.024-0.034-0.024-0.032 0-0.098-0.074-0.128-0.146-0.028-0.066-0.032-0.167-0.006-0.183 0.010-0.006 0.024-0.038 0.032-0.070 0.008-0.034 0.024-0.060 0.040-0.060 0.014 0 0.036-0.014 0.050-0.028 0.040-0.050 0.181-0.104 0.329-0.13 0.285-0.048 0.421-0.064 0.483-0.052 0.054 0.010 0.064 0.022 0.076 0.090 0.018 0.106-0.008 0.341-0.042 0.375-0.016 0.014-0.028 0.040-0.028 0.056s-0.008 0.028-0.020 0.028c-0.010 0-0.020 0.008-0.020 0.020 0 0.010 0.014 0.020 0.034 0.020 0.030 0 0.185 0.154 0.185 0.183 0 0.010 0.050 0.016 0.11 0.016 0.080 0 0.11-0.008 0.11-0.028 0-0.014-0.026-0.032-0.060-0.038-0.032-0.008-0.080-0.034-0.104-0.058-0.044-0.044-0.046-0.054-0.052-0.594-0.006-0.604-0.010-0.618-0.14-0.754-0.118-0.124-0.181-0.144-0.453-0.142-0.213 0.002-0.249 0.006-0.333 0.050z"></path>
<path d="M25.245 25.53c-0.014 0.016-0.042 0.030-0.062 0.030s-0.052 0.018-0.072 0.040c-0.020 0.022-0.044 0.040-0.052 0.040-0.020 0-0.118 0.090-0.118 0.108 0 0.008-0.026 0.048-0.058 0.088s-0.064 0.104-0.072 0.14c-0.008 0.036-0.026 0.090-0.042 0.12-0.044 0.086-0.036 0.329 0.020 0.492 0.070 0.211 0.098 0.269 0.126 0.269 0.014 0 0.026 0.014 0.026 0.030s0.014 0.030 0.030 0.030c0.016 0 0.030 0.014 0.030 0.030s0.014 0.030 0.030 0.030c0.018 0 0.036 0.012 0.042 0.028s0.034 0.034 0.064 0.042c0.030 0.008 0.060 0.024 0.068 0.036 0.010 0.016 0.114 0.026 0.317 0.030 0.253 0.006 0.307 0.002 0.321-0.022 0.008-0.018 0.044-0.036 0.076-0.044 0.034-0.008 0.060-0.022 0.060-0.032s0.012-0.018 0.028-0.018c0.030 0 0.171-0.163 0.171-0.195 0-0.012 0.006-0.024 0.016-0.028 0.008-0.004 0.034-0.058 0.060-0.12 0.042-0.104 0.046-0.14 0.040-0.365-0.004-0.167-0.014-0.255-0.030-0.265-0.014-0.008-0.030-0.052-0.038-0.098-0.006-0.046-0.026-0.088-0.040-0.094-0.016-0.006-0.028-0.024-0.028-0.042 0-0.016-0.014-0.030-0.030-0.030s-0.030-0.014-0.030-0.030c0-0.016-0.014-0.030-0.030-0.030s-0.030-0.014-0.030-0.030c0-0.016-0.012-0.030-0.026-0.030s-0.040-0.018-0.060-0.040c-0.018-0.022-0.050-0.040-0.072-0.040s-0.042-0.012-0.046-0.026c-0.006-0.018-0.086-0.026-0.287-0.030-0.227-0.004-0.281 0.002-0.303 0.026zM25.72 25.578c0 0.008 0.040 0.028 0.090 0.042s0.090 0.034 0.090 0.042c0 0.010 0.010 0.018 0.024 0.018 0.034 0 0.175 0.155 0.175 0.193 0 0.018 0.016 0.050 0.034 0.072 0.030 0.032 0.038 0.088 0.044 0.335 0.006 0.271 0.002 0.303-0.036 0.377-0.024 0.044-0.042 0.092-0.042 0.104 0 0.018-0.14 0.16-0.245 0.247-0.044 0.038-0.138 0.052-0.327 0.050-0.154 0-0.203-0.008-0.295-0.050-0.060-0.028-0.11-0.060-0.11-0.072 0-0.010-0.008-0.020-0.020-0.020-0.026 0-0.1-0.074-0.1-0.1 0-0.012-0.014-0.026-0.030-0.032-0.016-0.008-0.030-0.028-0.030-0.048s-0.016-0.052-0.034-0.072c-0.032-0.030-0.036-0.076-0.036-0.337 0-0.253 0.006-0.309 0.036-0.355 0.018-0.028 0.034-0.070 0.034-0.092 0-0.020 0.014-0.042 0.030-0.050 0.016-0.006 0.030-0.024 0.030-0.042 0-0.016 0.014-0.030 0.030-0.030s0.030-0.014 0.030-0.030c0-0.016 0.012-0.030 0.026-0.030s0.048-0.016 0.074-0.034c0.096-0.068 0.225-0.102 0.395-0.104 0.090-0.002 0.163 0.006 0.163 0.016z"></path>
<path d="M27.384 25.522c-0.008 0.010-0.036 0.028-0.062 0.038s-0.048 0.028-0.048 0.040c0 0.030 0.102 0.024 0.167-0.010 0.074-0.040 0.307-0.040 0.359 0 0.022 0.016 0.060 0.030 0.084 0.030 0.026 0 0.058 0.014 0.076 0.030 0.016 0.016 0.042 0.030 0.056 0.030s0.048 0.032 0.074 0.070c0.026 0.038 0.054 0.070 0.064 0.070s0.018 0.026 0.018 0.058c0 0.032 0.012 0.068 0.028 0.080 0.014 0.012 0.032 0.076 0.038 0.144 0.008 0.066 0.022 0.136 0.032 0.155 0.014 0.024 0.010 0.070-0.008 0.144-0.016 0.060-0.030 0.14-0.030 0.179s-0.014 0.084-0.030 0.098c-0.016 0.014-0.030 0.044-0.030 0.068 0 0.044-0.205 0.251-0.249 0.251-0.014 0-0.030 0.012-0.034 0.024-0.008 0.020-0.076 0.026-0.251 0.026-0.165 0-0.249-0.008-0.265-0.026-0.014-0.012-0.042-0.024-0.060-0.024-0.040 0-0.237-0.187-0.237-0.225 0-0.014-0.018-0.060-0.040-0.104s-0.040-0.102-0.040-0.13c0-0.028-0.010-0.062-0.022-0.074-0.044-0.044 0.010-0.443 0.074-0.534 0.040-0.056 0.036-0.11-0.010-0.11-0.070 0-0.102-0.054-0.102-0.171 0-0.096-0.020-0.136-0.048-0.092-0.008 0.014-0.020 1.87-0.014 2.161 0.002 0.068 0.010 0.096 0.030 0.096 0.048 0 0.056-0.106 0.042-0.492-0.014-0.365-0.014-0.369 0.032-0.417 0.024-0.026 0.054-0.048 0.062-0.048 0.010 0 0.056 0.040 0.102 0.088s0.106 0.094 0.134 0.102c0.026 0.008 0.060 0.028 0.076 0.042 0.040 0.042 0.548 0.040 0.582-0.002 0.012-0.016 0.042-0.034 0.066-0.042 0.048-0.016 0.233-0.183 0.233-0.213 0-0.010 0.012-0.030 0.028-0.042 0.058-0.048 0.092-0.223 0.092-0.485 0-0.142-0.008-0.265-0.016-0.275-0.010-0.012-0.028-0.058-0.042-0.106-0.018-0.062-0.062-0.124-0.163-0.223-0.078-0.078-0.155-0.14-0.177-0.14-0.020 0-0.040-0.014-0.048-0.030-0.008-0.024-0.056-0.030-0.259-0.030-0.154 0-0.253 0.008-0.261 0.022z"></path>
<path d="M29.34 25.53c-0.016 0.016-0.044 0.030-0.064 0.030-0.038 0-0.050 0.008-0.211 0.169-0.064 0.062-0.116 0.122-0.116 0.134s-0.012 0.038-0.028 0.054c-0.016 0.018-0.042 0.11-0.058 0.203-0.022 0.142-0.022 0.207-0.002 0.367 0.016 0.118 0.038 0.207 0.056 0.227s0.032 0.048 0.032 0.062c0 0.024 0.042 0.076 0.154 0.189 0.026 0.024 0.092 0.068 0.148 0.096 0.096 0.050 0.118 0.054 0.363 0.054 0.171 0 0.279-0.010 0.307-0.026 0.024-0.012 0.082-0.046 0.13-0.072 0.118-0.064 0.255-0.217 0.255-0.283 0-0.014 0.012-0.040 0.028-0.056 0.050-0.058 0.052-0.656 0.002-0.708-0.016-0.016-0.030-0.052-0.030-0.082 0-0.028-0.014-0.056-0.030-0.062-0.016-0.008-0.030-0.020-0.030-0.032 0-0.022-0.138-0.155-0.162-0.155-0.010 0-0.036-0.018-0.058-0.040s-0.056-0.040-0.074-0.040c-0.020 0-0.054-0.014-0.074-0.030-0.058-0.044-0.494-0.042-0.538 0zM29.847 25.59c0.014 0.016 0.042 0.030 0.062 0.030 0.018 0 0.048 0.014 0.066 0.030 0.016 0.016 0.036 0.030 0.044 0.030s0.048 0.038 0.090 0.084c0.076 0.086 0.102 0.154 0.167 0.437 0.034 0.142 0.034 0.155 0.004 0.247-0.020 0.054-0.034 0.12-0.034 0.148 0 0.056-0.064 0.185-0.13 0.263-0.048 0.056-0.16 0.138-0.187 0.138-0.010 0-0.022 0.010-0.026 0.022-0.018 0.054-0.538 0.056-0.572 0.002-0.006-0.012-0.038-0.028-0.068-0.034-0.030-0.008-0.054-0.026-0.054-0.042s-0.012-0.028-0.028-0.028c-0.016 0-0.032-0.014-0.040-0.030-0.006-0.016-0.024-0.030-0.042-0.030-0.016 0-0.030-0.016-0.030-0.038 0-0.020-0.014-0.048-0.030-0.062s-0.030-0.050-0.030-0.080c0-0.030-0.014-0.066-0.030-0.080-0.042-0.036-0.042-0.51 0-0.566 0.016-0.022 0.030-0.060 0.030-0.084s0.014-0.054 0.030-0.068c0.016-0.014 0.030-0.036 0.030-0.048 0-0.032 0.118-0.152 0.148-0.152 0.016 0 0.032-0.014 0.040-0.030 0.006-0.016 0.032-0.030 0.056-0.030 0.026-0.002 0.068-0.014 0.096-0.030 0.072-0.042 0.405-0.042 0.439 0z"></path>
<path d="M32.229 25.552c-0.038 0.028-0.040 0.054-0.040 0.752 0 0.666 0.002 0.724 0.036 0.758 0.020 0.020 0.044 0.030 0.054 0.024 0.024-0.014 0.028-1.537 0.004-1.553-0.008-0.004-0.032 0.004-0.054 0.020z"></path>
<path d="M32.817 25.586c0 0.036 0.026 0.118 0.058 0.181 0.032 0.062 0.066 0.142 0.072 0.173 0.008 0.034 0.026 0.066 0.042 0.072s0.028 0.036 0.028 0.066c0 0.030 0.014 0.066 0.030 0.080s0.030 0.042 0.030 0.064c0 0.020 0.018 0.056 0.040 0.080s0.040 0.064 0.040 0.088c0 0.026 0.008 0.050 0.018 0.056s0.024 0.042 0.030 0.080c0.008 0.038 0.026 0.074 0.042 0.080s0.030 0.032 0.030 0.058c0 0.028 0.012 0.060 0.028 0.072 0.014 0.012 0.032 0.058 0.040 0.102 0.006 0.044 0.020 0.080 0.030 0.080 0.016 0 0.060 0.13 0.082 0.247 0.014 0.082 0.058 0.090 0.072 0.014 0.008-0.032 0.024-0.064 0.040-0.070s0.028-0.032 0.028-0.058c0-0.028 0.014-0.060 0.030-0.074s0.030-0.044 0.030-0.068c0-0.024 0.012-0.060 0.028-0.082 0.014-0.022 0.034-0.068 0.040-0.104 0.008-0.034 0.028-0.068 0.044-0.074s0.028-0.036 0.028-0.066c0-0.030 0.014-0.074 0.030-0.094 0.016-0.022 0.030-0.060 0.030-0.086s0.014-0.052 0.030-0.058c0.016-0.008 0.030-0.036 0.030-0.068 0-0.030 0.014-0.066 0.030-0.080s0.030-0.040 0.030-0.060c0-0.018 0.018-0.058 0.040-0.086s0.040-0.074 0.040-0.102c0-0.028 0.008-0.052 0.018-0.052s0.028-0.040 0.040-0.088c0.012-0.050 0.030-0.096 0.042-0.102 0.026-0.016 0.026-0.144 0-0.16-0.012-0.006-0.028 0.010-0.038 0.036-0.012 0.028-0.030 0.056-0.040 0.064-0.012 0.006-0.022 0.044-0.022 0.082 0 0.044-0.012 0.074-0.030 0.080-0.016 0.008-0.030 0.028-0.030 0.046s-0.018 0.066-0.040 0.108c-0.022 0.040-0.040 0.096-0.040 0.124s-0.008 0.050-0.018 0.050c-0.010 0-0.026 0.028-0.032 0.064-0.008 0.034-0.028 0.076-0.042 0.092-0.016 0.014-0.028 0.052-0.028 0.082 0 0.032-0.012 0.068-0.028 0.080-0.016 0.014-0.036 0.052-0.042 0.084-0.008 0.032-0.020 0.058-0.028 0.058-0.010 0-0.022 0.038-0.028 0.084-0.006 0.048-0.020 0.088-0.032 0.092s-0.026 0.038-0.034 0.076c-0.010 0.056-0.022 0.068-0.064 0.068-0.062 0-0.144-0.086-0.144-0.15 0-0.026-0.012-0.056-0.028-0.068-0.016-0.014-0.034-0.054-0.040-0.092-0.008-0.038-0.022-0.070-0.030-0.070-0.010 0-0.024-0.032-0.030-0.070-0.008-0.038-0.022-0.070-0.032-0.070-0.012 0-0.020-0.012-0.020-0.026 0-0.012-0.014-0.050-0.030-0.080s-0.034-0.086-0.042-0.124c-0.006-0.038-0.024-0.078-0.040-0.092-0.016-0.012-0.028-0.048-0.028-0.076 0-0.030-0.014-0.072-0.030-0.094-0.016-0.020-0.030-0.058-0.030-0.080 0-0.024-0.012-0.054-0.028-0.066-0.016-0.014-0.036-0.054-0.044-0.088-0.016-0.076-0.068-0.152-0.102-0.154-0.016 0-0.026 0.026-0.026 0.066z"></path>
<path d="M8.717 25.594c-0.026 0.064-0.016 1.477 0.010 1.503 0.058 0.058 0.066-0.008 0.066-0.498 0-0.401 0.006-0.506 0.030-0.552 0.016-0.032 0.030-0.076 0.030-0.098 0.002-0.022 0.014-0.062 0.030-0.090 0.044-0.076 0.036-0.1-0.030-0.1-0.048 0-0.060-0.008-0.062-0.046-0.002-0.024-0.006-0.058-0.008-0.074s-0.006-0.042-0.008-0.056c-0.004-0.036-0.042-0.030-0.058 0.010z"></path>
<path d="M19.226 25.592c-0.012 0.032 0.004 0.385 0.028 0.666 0.014 0.14 0.014 0.144 0.028 0.070 0.008-0.044 0.016-0.235 0.016-0.425 0.002-0.295-0.002-0.343-0.028-0.343-0.018 0-0.036 0.014-0.044 0.032z"></path>
<path d="M9.002 25.66c-0.006 0.010-0.002 0.020 0.008 0.020 0.012 0 0.022-0.010 0.022-0.020 0-0.012-0.004-0.020-0.008-0.020-0.006 0-0.016 0.008-0.022 0.020z"></path>
<path d="M27.195 25.66c0 0.010 0.014 0.020 0.030 0.020s0.030-0.010 0.030-0.020c0-0.012-0.014-0.020-0.030-0.020s-0.030 0.008-0.030 0.020z"></path>
<path d="M11.245 26.308c0 0.032 0.106 0.040 0.243 0.018 0.122-0.020 0.066-0.048-0.096-0.048-0.118 0-0.148 0.006-0.148 0.030z"></path>
<path d="M10.91 26.378c-0.038 0.020-0.082 0.050-0.102 0.068s-0.046 0.032-0.058 0.032c-0.014 0-0.024 0.014-0.024 0.030s-0.012 0.030-0.028 0.030c-0.016 0-0.034 0.026-0.042 0.060-0.008 0.032-0.022 0.064-0.032 0.070-0.024 0.016-0.024 0.189 0.002 0.189 0.012 0 0.020 0.016 0.020 0.038 0 0.038 0.084 0.142 0.116 0.142 0.010 0 0.034 0.018 0.056 0.042 0.034 0.038 0.054 0.040 0.317 0.034 0.237-0.004 0.287-0.012 0.317-0.042 0.020-0.018 0.048-0.034 0.064-0.034 0.030 0 0.108-0.060 0.108-0.084 0-0.026-0.040-0.018-0.072 0.014-0.018 0.016-0.048 0.030-0.070 0.030s-0.038 0.014-0.038 0.032c0 0.030-0.028 0.032-0.243 0.024-0.275-0.012-0.337-0.034-0.425-0.148-0.048-0.064-0.054-0.084-0.046-0.183 0.006-0.062 0.020-0.116 0.032-0.12 0.014-0.004 0.024-0.020 0.024-0.036s0.014-0.028 0.030-0.028c0.018 0 0.036-0.012 0.042-0.028s0.038-0.036 0.070-0.042c0.032-0.008 0.058-0.022 0.058-0.030 0-0.010 0.034-0.024 0.076-0.030 0.116-0.020 0.146-0.032 0.134-0.052-0.022-0.032-0.215-0.018-0.285 0.022z"></path>
<path d="M19.246 26.906c-0.022 0.116-0.012 0.148 0.040 0.15 0.018 0 0.016-0.177-0.004-0.229-0.012-0.030-0.022-0.012-0.036 0.080z"></path>
<path d="M16.488 26.956c0 0.010 0.010 0.020 0.020 0.020 0.012 0 0.020-0.010 0.020-0.020 0-0.012-0.008-0.020-0.020-0.020-0.010 0-0.020 0.008-0.020 0.020z"></path>
<path d="M16.349 27.016c0 0.010 0.012 0.020 0.028 0.020s0.036-0.010 0.042-0.020c0.006-0.012-0.006-0.020-0.028-0.020-0.024 0-0.042 0.008-0.042 0.020z"></path>
<path d="M33.416 27.315c0 0.038-0.010 0.060-0.028 0.060-0.016 0-0.036 0.028-0.042 0.064-0.008 0.034-0.028 0.076-0.042 0.092-0.016 0.014-0.028 0.044-0.028 0.066 0 0.020-0.014 0.038-0.030 0.038-0.018 0-0.036 0.012-0.042 0.028s-0.038 0.036-0.070 0.042c-0.032 0.008-0.058 0.022-0.058 0.032s-0.054 0.018-0.118 0.018c-0.066 0-0.124 0.008-0.13 0.018-0.030 0.048 0.227 0.060 0.275 0.012 0.016-0.016 0.046-0.030 0.066-0.030 0.042 0 0.165-0.11 0.165-0.148 0-0.016 0.012-0.032 0.028-0.038s0.034-0.038 0.042-0.072c0.008-0.034 0.022-0.066 0.032-0.072 0.024-0.016 0.024-0.169-0.002-0.169-0.010 0-0.020 0.026-0.020 0.060z"></path>
<path d="M32.758 27.733c0 0.010 0.014 0.020 0.030 0.020s0.030-0.010 0.030-0.020c0-0.012-0.014-0.020-0.030-0.020s-0.030 0.008-0.030 0.020z"></path>
<path d="M13.035 29.243c-0.048 0.012-0.046 0.030 0.006 0.062 0.050 0.032 0.090 0.006 0.072-0.044-0.014-0.032-0.018-0.034-0.078-0.018z"></path>
<path d="M14.993 29.269c0 0.010 0.010 0.020 0.020 0.020 0.012 0 0.020-0.010 0.020-0.020 0-0.012-0.008-0.020-0.020-0.020-0.010 0-0.020 0.008-0.020 0.020z"></path>
<path d="M16.483 29.263c-0.008 0.006-0.014 0.034-0.014 0.060 0 0.036 0.010 0.046 0.050 0.046 0.050 0 0.062-0.026 0.038-0.088-0.012-0.032-0.052-0.042-0.074-0.018z"></path>
<path d="M17.386 29.279c0 0.032 0.018 0.038 0.068 0.018 0.050-0.018 0.038-0.048-0.018-0.048-0.032 0-0.050 0.012-0.050 0.030z"></path>
<path d="M18.157 29.261c-0.012 0.012-0.006 0.068 0.018 0.185l0.010 0.048 0.040-0.042c0.042-0.048 0.050-0.144 0.014-0.179-0.026-0.026-0.062-0.032-0.082-0.012z"></path>
<path d="M19.252 29.292c-0.036 0.134 0.006 0.189 0.082 0.108 0.064-0.068 0.056-0.14-0.016-0.148-0.040-0.004-0.056 0.004-0.066 0.040z"></path>
<path d="M20.875 29.308c0 0.054 0.006 0.060 0.060 0.060 0.062 0 0.082-0.032 0.030-0.052-0.016-0.008-0.030-0.024-0.030-0.040s-0.014-0.028-0.030-0.028c-0.020 0-0.030 0.020-0.030 0.060z"></path>
<path d="M22.51 29.269c0 0.010 0.018 0.020 0.042 0.020 0.022 0 0.034-0.010 0.028-0.020-0.006-0.012-0.026-0.020-0.042-0.020s-0.028 0.008-0.028 0.020z"></path>
<path d="M26.89 29.661c-0.008 0.042-0.014 0.104-0.014 0.136 0 0.034-0.012 0.074-0.024 0.086-0.020 0.020-0.020 0.034 0 0.064 0.012 0.022 0.024 0.068 0.024 0.104 0 0.082 0.020 0.155 0.040 0.155 0.010 0 0.016-0.13 0.016-0.287 0-0.287-0.020-0.401-0.042-0.257z"></path>
<path d="M25.472 29.691c-0.016 0.064-0.012 0.395 0.008 0.455 0.010 0.030 0.016-0.056 0.018-0.225 0.002-0.15-0.002-0.273-0.006-0.273s-0.012 0.020-0.020 0.044z"></path>
<path d="M26.637 29.857c0 0.054 0.006 0.090 0.014 0.082 0.014-0.014 0.010-0.154-0.006-0.169-0.004-0.004-0.008 0.034-0.008 0.088z"></path>
<path d="M14.983 29.847c-0.006 0.010-0.002 0.038 0.010 0.062l0.024 0.042 0.028-0.042c0.018-0.024 0.024-0.052 0.018-0.062-0.016-0.026-0.064-0.026-0.080 0z"></path>
<path d="M19.718 29.875c0 0.028 0.010 0.056 0.020 0.062 0.012 0.006 0.020-0.002 0.020-0.018 0-0.018 0.018-0.032 0.040-0.032 0.054 0 0.050-0.032-0.004-0.048-0.070-0.018-0.076-0.016-0.076 0.036z"></path>
<path d="M23.090 29.919c0 0.022 0.006 0.028 0.012 0.012 0.006-0.014 0.004-0.032-0.002-0.038-0.006-0.008-0.012 0.004-0.010 0.026z"></path>
<path d="M24.304 29.919c0 0.016 0.010 0.024 0.020 0.018 0.012-0.008 0.016-0.022 0.010-0.032-0.018-0.028-0.030-0.022-0.030 0.014z"></path>
<path d="M13.797 29.926c0 0.026 0.022 0.026 0.060 0 0.024-0.016 0.022-0.020-0.014-0.020-0.026 0-0.046 0.008-0.046 0.020z"></path>
<path d="M14.301 29.921c-0.036 0.014-0.032 0.086 0.002 0.086 0.016 0 0.042 0.006 0.060 0.012 0.026 0.010 0.032-0.002 0.032-0.050 0-0.062-0.028-0.076-0.094-0.048z"></path>
<path d="M27.823 29.924c0.006 0.012 0.030 0.022 0.050 0.022s0.046 0.016 0.058 0.034c0.010 0.020 0.026 0.028 0.034 0.020 0.030-0.030-0.026-0.084-0.092-0.090-0.042-0.004-0.060 0-0.050 0.014z"></path>
<path d="M21.393 29.986c0 0.010 0.010 0.020 0.020 0.020 0.012 0 0.020-0.010 0.020-0.020 0-0.012-0.008-0.020-0.020-0.020-0.010 0-0.020 0.008-0.020 0.020z"></path>
<path d="M16.162 30.058c-0.028 0.074-0.014 0.088 0.084 0.086 0.052 0 0.112-0.008 0.134-0.016 0.032-0.014 0.028-0.018-0.034-0.030-0.040-0.006-0.078-0.026-0.084-0.042-0.014-0.040-0.084-0.038-0.1 0.002z"></path>
<path d="M16.802 30.054c-0.006 0.016-0.042 0.034-0.078 0.042-0.058 0.014-0.060 0.018-0.026 0.032 0.022 0.008 0.078 0.016 0.126 0.016 0.062 0.002 0.084-0.006 0.084-0.028 0-0.016-0.008-0.030-0.020-0.030-0.010 0-0.020-0.014-0.020-0.030 0-0.038-0.052-0.040-0.066-0.002z"></path>
<path d="M26.639 30.058c0 0.022 0.006 0.028 0.012 0.012 0.006-0.014 0.004-0.032-0.002-0.038-0.006-0.008-0.012 0.004-0.010 0.026z"></path>
<path d="M16.564 30.12c0.014 0.006 0.032 0.004 0.038-0.002 0.008-0.006-0.004-0.012-0.026-0.010-0.022 0-0.028 0.006-0.012 0.012z"></path>
<path d="M27.893 30.297c-0.022 0.052-0.040 0.096-0.040 0.1s0.026 0.008 0.058 0.008c0.068 0 0.092-0.046 0.072-0.14-0.018-0.084-0.042-0.074-0.090 0.032z"></path>
<path d="M18.682 30.463c0 0.042 0.012 0.060 0.044 0.068 0.078 0.022 0.104-0.034 0.044-0.094-0.050-0.050-0.088-0.040-0.088 0.026z"></path>
<path d="M21.726 30.419c-0.032 0.030-0.012 0.1 0.034 0.122 0.060 0.026 0.072 0.014 0.072-0.070 0-0.056-0.008-0.066-0.046-0.066-0.026 0-0.054 0.006-0.060 0.014z"></path>
<path d="M15.005 30.539c-0.022 0.022-0.012 0.046 0.018 0.046 0.016 0 0.030-0.008 0.030-0.018 0-0.026-0.032-0.044-0.048-0.028z"></path>
</symbol>
<symbol id="logo-white" viewBox="0 0 41 32">
<path d="M15.005 30.539c-0.022 0.022-0.012 0.046 0.018 0.046 0.016 0 0.030-0.008 0.030-0.018 0-0.026-0.032-0.044-0.048-0.028z"></path>
</symbol>
</defs>
</svg>
