<svg aria-hidden="true" style="position: absolute; width: 0; height: 0; overflow: hidden;" version="1.1" xmlns="http://www.w3.org/2000/svg" xmlns:xlink="http://www.w3.org/1999/xlink">
<defs>
<symbol id="phone" viewBox="0 0 32 32">
<path d="M9.052 3.023l1.897-0.572c1.786-0.538 3.695 0.332 4.46 2.033l1.181 2.627c0.652 1.45 0.308 3.155-0.855 4.239l-2.063 1.924c-0.025 0.024-0.046 0.052-0.062 0.083-0.216 0.441 0.111 1.619 1.139 3.4 1.159 2.007 2.054 2.801 2.468 2.678l2.708-0.828c1.52-0.465 3.168 0.089 4.098 1.379l1.677 2.324c1.089 1.509 0.893 3.591-0.458 4.87l-1.442 1.366c-1.019 0.965-2.445 1.37-3.819 1.084-4.020-0.836-7.621-4.073-10.834-9.638-3.216-5.571-4.218-10.312-2.926-14.213 0.439-1.325 1.495-2.353 2.832-2.756zM9.547 4.664c-0.802 0.242-1.436 0.859-1.699 1.654-1.113 3.361-0.211 7.63 2.783 12.817 2.992 5.182 6.235 8.097 9.699 8.817 0.824 0.171 1.68-0.072 2.292-0.651l1.442-1.366c0.727-0.689 0.833-1.81 0.247-2.622l-1.677-2.324c-0.501-0.694-1.388-0.993-2.207-0.742l-2.714 0.83c-1.502 0.448-2.913-0.804-4.448-3.462-1.299-2.25-1.75-3.875-1.194-5.010 0.107-0.219 0.254-0.417 0.433-0.584l2.063-1.924c0.626-0.584 0.811-1.502 0.46-2.283l-1.181-2.627c-0.412-0.916-1.44-1.385-2.401-1.095l-1.897 0.572z"></path>
</symbol>
<symbol id="logo-black" viewBox="0 0 40 32">
<path d="M26.428 3.335c-0.020 0.004-0.035 0.018-0.035 0.027s-0.014 0.018-0.029 0.018c-0.016 0-0.029 0.014-0.029 0.029s-0.012 0.029-0.027 0.029c-0.031 0-0.057 0.080-0.039 0.127 0.016 0.041 0.258 0.283 0.283 0.283 0.010 0 0.018 0.014 0.018 0.029s0.014 0.029 0.029 0.029c0.016 0 0.029 0.014 0.029 0.029s0.014 0.029 0.029 0.029c0.016 0 0.029 0.010 0.029 0.022s0.039 0.059 0.086 0.107c0.049 0.047 0.096 0.086 0.107 0.086s0.021 0.014 0.021 0.029c0 0.016 0.014 0.029 0.029 0.029s0.029 0.014 0.029 0.029c0 0.016 0.014 0.029 0.029 0.029s0.029 0.008 0.029 0.018c0 0.012 0.070 0.090 0.158 0.176 0.086 0.088 0.164 0.158 0.176 0.158 0.010 0 0.018 0.014 0.018 0.029s0.014 0.029 0.029 0.029c0.016 0 0.029 0.014 0.029 0.029s0.014 0.029 0.029 0.029c0.016 0 0.029 0.008 0.029 0.018 0 0.012 0.084 0.104 0.188 0.205 0.102 0.104 0.193 0.188 0.205 0.188 0.010 0 0.018 0.014 0.018 0.029s0.014 0.029 0.029 0.029c0.016 0 0.029 0.010 0.029 0.021 0 0.027 0.166 0.193 0.193 0.193 0.012 0 0.021 0.014 0.021 0.029s0.014 0.029 0.029 0.029c0.016 0 0.029 0.014 0.029 0.029s0.014 0.029 0.029 0.029c0.016 0 0.029 0.008 0.029 0.018 0 0.023 0.311 0.334 0.334 0.334 0.010 0 0.018 0.014 0.018 0.029s0.014 0.029 0.029 0.029c0.016 0 0.029 0.014 0.029 0.029s0.014 0.029 0.029 0.029c0.016 0 0.029 0.008 0.029 0.018 0 0.012 0.084 0.104 0.188 0.205 0.102 0.104 0.193 0.188 0.205 0.188 0.010 0 0.018 0.014 0.018 0.029s0.014 0.029 0.029 0.029c0.016 0 0.029 0.014 0.029 0.029s0.014 0.029 0.029 0.029c0.016 0 0.029 0.010 0.029 0.021s0.025 0.047 0.057 0.078c0.031 0.031 0.066 0.057 0.078 0.057s0.021 0.014 0.021 0.029c0 0.016 0.014 0.029 0.029 0.029s0.029 0.014 0.029 0.029c0 0.016 0.014 0.029 0.029 0.029s0.029 0.008 0.029 0.018c0 0.010 0.084 0.102 0.188 0.205s0.195 0.188 0.205 0.188c0.010 0 0.018 0.014 0.018 0.029s0.014 0.029 0.029 0.029c0.016 0 0.029 0.014 0.029 0.029s0.014 0.029 0.029 0.029c0.016 0 0.029 0.008 0.029 0.018 0 0.023 0.311 0.334 0.334 0.334 0.010 0 0.018 0.014 0.018 0.029s0.014 0.029 0.029 0.029c0.016 0 0.029 0.014 0.029 0.029s0.014 0.029 0.029 0.029c0.016 0 0.029 0.010 0.029 0.021s0.039 0.059 0.086 0.107c0.049 0.047 0.096 0.086 0.107 0.086s0.021 0.014 0.021 0.029c0 0.016 0.014 0.029 0.029 0.029s0.029 0.014 0.029 0.029c0 0.016 0.014 0.029 0.029 0.029s0.029 0.008 0.029 0.018c0 0.012 0.070 0.090 0.158 0.176 0.086 0.088 0.164 0.158 0.176 0.158 0.010 0 0.018 0.014 0.018 0.029s0.014 0.029 0.029 0.029c0.016 0 0.029 0.014 0.029 0.029s0.014 0.029 0.029 0.029c0.016 0 0.029 0.008 0.029 0.020 0 0.010 0.109 0.129 0.244 0.266s0.25 0.27 0.256 0.295c0.010 0.039-0.055 0.113-0.473 0.535-0.268 0.27-0.496 0.5-0.51 0.514-0.244 0.234-0.787 0.783-0.787 0.797 0 0.008-0.010 0.016-0.020 0.016-0.018 0-0.217 0.193-0.315 0.305-0.018 0.021-0.131 0.133-0.25 0.248-0.119 0.117-0.217 0.221-0.217 0.231s-0.008 0.018-0.016 0.018c-0.023 0-2.583 2.557-2.583 2.581 0 0.010-0.008 0.018-0.018 0.018-0.025 0-0.451 0.426-0.451 0.451 0 0.010-0.008 0.018-0.020 0.018-0.023 0-3.38 3.354-3.38 3.38 0 0.010-0.008 0.020-0.018 0.020-0.025 0-0.451 0.426-0.451 0.451 0 0.010-0.010 0.018-0.020 0.018-0.012 0-0.42 0.401-0.908 0.889-0.84 0.842-0.891 0.889-0.957 0.889-0.043 0-0.074-0.012-0.080-0.029-0.008-0.016-0.023-0.029-0.039-0.029s-0.027-0.014-0.027-0.029c0-0.016-0.014-0.029-0.029-0.029s-0.029-0.008-0.029-0.020c0-0.025-0.873-0.899-0.899-0.899-0.012 0-0.020-0.008-0.020-0.020 0-0.023-1.168-1.192-1.194-1.192-0.010 0-0.018-0.014-0.018-0.029s-0.014-0.029-0.029-0.029c-0.016 0-0.029-0.014-0.029-0.029s-0.014-0.029-0.029-0.029c-0.016 0-0.029-0.014-0.029-0.029s-0.014-0.029-0.029-0.029c-0.016 0-0.029-0.014-0.029-0.029s-0.014-0.029-0.029-0.029c-0.016 0-0.029-0.014-0.029-0.029s-0.014-0.029-0.029-0.029c-0.016 0-0.029-0.014-0.029-0.029s-0.014-0.029-0.029-0.029c-0.016 0-0.029-0.014-0.029-0.029s-0.014-0.029-0.029-0.029c-0.016 0-0.029-0.014-0.029-0.029s-0.014-0.029-0.029-0.029c-0.016 0-0.029-0.008-0.029-0.018 0-0.023-0.873-0.901-0.899-0.901-0.010 0-0.020-0.014-0.020-0.029s-0.014-0.029-0.029-0.029c-0.016 0-0.029-0.014-0.029-0.029s-0.014-0.029-0.029-0.029c-0.016 0-0.029-0.014-0.029-0.029s-0.014-0.029-0.029-0.029c-0.016 0-0.029-0.014-0.029-0.029s-0.014-0.029-0.029-0.029c-0.016 0-0.029-0.014-0.029-0.029s-0.014-0.029-0.029-0.029c-0.016 0-0.029-0.014-0.029-0.029s-0.014-0.029-0.029-0.029c-0.016 0-0.029-0.008-0.029-0.018 0-0.023-0.817-0.842-0.84-0.842-0.012 0-0.020-0.014-0.020-0.029s-0.014-0.029-0.029-0.029c-0.016 0-0.029-0.014-0.029-0.029s-0.014-0.029-0.029-0.029c-0.016 0-0.029-0.014-0.029-0.029s-0.014-0.029-0.029-0.029c-0.016 0-0.029-0.014-0.029-0.029s-0.014-0.029-0.029-0.029c-0.016 0-0.029-0.014-0.029-0.029s-0.014-0.029-0.029-0.029c-0.016 0-0.029-0.014-0.029-0.029s-0.014-0.029-0.029-0.029c-0.016 0-0.029-0.014-0.029-0.029s-0.014-0.029-0.029-0.029c-0.016 0-0.029-0.008-0.029-0.020 0-0.023-0.817-0.84-0.842-0.84-0.010 0-0.018-0.014-0.018-0.029s-0.014-0.029-0.029-0.029c-0.016 0-0.029-0.014-0.029-0.029s-0.014-0.029-0.029-0.029c-0.016 0-0.029-0.014-0.029-0.029s-0.014-0.029-0.029-0.029c-0.016 0-0.029-0.014-0.029-0.029s-0.014-0.029-0.029-0.029c-0.016 0-0.029-0.014-0.029-0.029s-0.014-0.029-0.029-0.029c-0.016 0-0.029-0.014-0.029-0.029s-0.014-0.029-0.029-0.029c-0.016 0-0.029-0.014-0.029-0.029s-0.014-0.029-0.029-0.029c-0.016 0-0.029-0.014-0.029-0.029s-0.014-0.029-0.029-0.029c-0.016 0-0.029-0.008-0.029-0.018 0-0.023-0.819-0.842-0.842-0.842-0.010 0-0.018-0.014-0.018-0.029s-0.014-0.029-0.029-0.029c-0.016 0-0.029-0.014-0.029-0.029s-0.014-0.029-0.029-0.029c-0.016 0-0.029-0.014-0.029-0.029s-0.014-0.029-0.029-0.029c-0.016 0-0.029-0.014-0.029-0.029s-0.014-0.029-0.029-0.029c-0.016 0-0.029-0.008-0.029-0.020 0-0.010-0.031-0.049-0.068-0.088-0.039-0.037-0.078-0.068-0.088-0.068-0.012 0-0.020-0.008-0.020-0.020 0-0.018-0.258-0.281-0.418-0.424-0.049-0.043-0.090-0.090-0.090-0.102s-0.014-0.021-0.029-0.021c-0.016 0-0.029-0.010-0.029-0.020 0-0.020-0.070-0.098-0.088-0.098-0.014 0-0.088-0.074-0.088-0.088 0-0.018-0.078-0.088-0.098-0.088-0.010 0-0.020-0.014-0.020-0.029s-0.014-0.029-0.029-0.029c-0.016 0-0.029-0.014-0.029-0.029s-0.014-0.029-0.029-0.029c-0.016 0-0.029-0.014-0.029-0.029s-0.014-0.029-0.029-0.029c-0.016 0-0.029-0.014-0.029-0.029s-0.014-0.029-0.029-0.029c-0.016 0-0.029-0.014-0.029-0.029s-0.014-0.029-0.029-0.029c-0.016 0-0.029-0.014-0.029-0.029s-0.014-0.029-0.029-0.029c-0.016 0-0.029-0.014-0.029-0.029s-0.014-0.029-0.029-0.029c-0.016 0-0.029-0.014-0.029-0.029s-0.008-0.029-0.020-0.029c-0.020 0-0.098-0.070-0.098-0.088s-0.139-0.147-0.156-0.147c-0.012 0-0.020-0.014-0.020-0.029s-0.008-0.029-0.018-0.029c-0.020 0-0.256-0.225-0.256-0.242 0-0.020-0.311-0.324-0.33-0.324-0.012 0-0.021-0.014-0.021-0.029s-0.014-0.029-0.029-0.029c-0.016 0-0.029-0.014-0.029-0.029s-0.014-0.029-0.029-0.029c-0.016 0-0.029-0.014-0.029-0.029s-0.014-0.029-0.029-0.029c-0.016 0-0.029-0.014-0.029-0.029s-0.014-0.029-0.029-0.029c-0.016 0-0.029-0.014-0.029-0.029s-0.014-0.029-0.029-0.029c-0.016 0-0.029-0.014-0.029-0.029s-0.014-0.029-0.029-0.029c-0.016 0-0.029-0.014-0.029-0.029s-0.014-0.029-0.029-0.029c-0.016 0-0.029-0.008-0.029-0.018 0-0.025-0.25-0.275-0.275-0.275-0.010 0-0.018-0.014-0.018-0.029s-0.008-0.029-0.020-0.029c-0.023 0-0.195-0.172-0.195-0.195 0-0.012-0.014-0.020-0.029-0.020s-0.029-0.008-0.029-0.020c0-0.023-0.133-0.156-0.156-0.156-0.012 0-0.020-0.010-0.020-0.020 0-0.012-0.018-0.037-0.039-0.059-0.055-0.055-0.047-0.215 0.012-0.215 0.016 0 0.027-0.014 0.027-0.029s0.008-0.029 0.018-0.029c0.025 0 0.393-0.367 0.393-0.393 0-0.010 0.010-0.018 0.020-0.018 0.025 0 0.098-0.072 0.098-0.098 0-0.012 0.010-0.020 0.021-0.020 0.027 0 0.193-0.166 0.193-0.193 0-0.012 0.014-0.021 0.029-0.021s0.029-0.010 0.029-0.020c0-0.025 0.072-0.098 0.098-0.098 0.012 0 0.020-0.014 0.020-0.029s0.014-0.029 0.029-0.029c0.016 0 0.029-0.010 0.029-0.020 0-0.025 0.072-0.098 0.098-0.098 0.012 0 0.020-0.014 0.020-0.029s0.014-0.029 0.029-0.029c0.016 0 0.029-0.014 0.029-0.029s0.008-0.029 0.020-0.029c0.025 0 0.098-0.072 0.098-0.098 0-0.012 0.014-0.020 0.029-0.020s0.029-0.014 0.029-0.029c0-0.016 0.008-0.029 0.020-0.029 0.025 0 0.098-0.072 0.098-0.098 0-0.012 0.014-0.020 0.029-0.020s0.029-0.008 0.029-0.018c0-0.021 0.879-0.901 0.901-0.901 0.010 0 0.018-0.014 0.018-0.029s0.014-0.029 0.029-0.029c0.016 0 0.029-0.014 0.029-0.029s0.014-0.029 0.029-0.029c0.016 0 0.029-0.014 0.029-0.029s0.014-0.029 0.029-0.029c0.016 0 0.029-0.014 0.029-0.029s0.014-0.029 0.029-0.029c0.016 0 0.029-0.014 0.029-0.029s0.014-0.029 0.029-0.029c0.016 0 0.029-0.014 0.029-0.029s0.014-0.029 0.029-0.029c0.016 0 0.029-0.014 0.029-0.029s0.014-0.029 0.029-0.029c0.016 0 0.029-0.008 0.029-0.020 0-0.021 0.527-0.547 0.551-0.547 0.008 0 0.016-0.014 0.016-0.029s0.014-0.029 0.029-0.029c0.016 0 0.029-0.014 0.029-0.029s0.014-0.029 0.029-0.029c0.016 0 0.029-0.014 0.029-0.029s0.014-0.029 0.029-0.029c0.016 0 0.029-0.014 0.029-0.029s0.014-0.029 0.029-0.029c0.016 0 0.029-0.014 0.029-0.029s0.014-0.029 0.029-0.029c0.016 0 0.029-0.014 0.029-0.029s0.014-0.029 0.029-0.029c0.016 0 0.029-0.014 0.029-0.029s0.014-0.029 0.029-0.029c0.016 0 0.029-0.014 0.029-0.029s0.014-0.029 0.029-0.029c0.016 0 0.029-0.014 0.029-0.029s0.014-0.029 0.029-0.029c0.016 0 0.029-0.014 0.029-0.029s0.014-0.029 0.029-0.029c0.016 0 0.029-0.014 0.029-0.029s0.008-0.029 0.020-0.029c0.020 0 0.098-0.070 0.098-0.088s0.078-0.088 0.098-0.088c0.012 0 0.020-0.014 0.020-0.029s0.014-0.029 0.029-0.029c0.016 0 0.029-0.008 0.029-0.020 0-0.020 0.131-0.156 0.148-0.156 0.006 0 0.049-0.041 0.092-0.090 0.104-0.115 0.344-0.359 0.356-0.359 0.016 0 0.264-0.258 0.264-0.275 0-0.010 0.014-0.018 0.029-0.018s0.029-0.014 0.029-0.029c0-0.016 0.014-0.029 0.029-0.029s0.029-0.014 0.029-0.029c0-0.016 0.010-0.029 0.020-0.029 0.012 0 0.041-0.022 0.064-0.047s0.076-0.084 0.117-0.127c0.084-0.090 0.084-0.088-0.039-0.213-0.039-0.037-0.082-0.063-0.113-0.063-0.041 0-0.346 0.295-1.582 1.536-0.844 0.844-1.534 1.541-1.534 1.553 0 0.010-0.014 0.018-0.029 0.018s-0.029 0.014-0.029 0.029c0 0.016-0.014 0.029-0.029 0.029s-0.029 0.008-0.029 0.020c0 0.018-0.129 0.156-0.147 0.156-0.023 0-2.508 2.501-2.518 2.536-0.012 0.035 0.041 0.096 0.318 0.375 0.184 0.184 0.334 0.344 0.334 0.354s0.008 0.018 0.018 0.018c0.023 0 1.311 1.285 1.311 1.309 0 0.012 0.008 0.020 0.020 0.020 0.027 0 6.388 6.359 6.388 6.386 0 0.012 0.010 0.021 0.023 0.021s0.723 0.701 1.577 1.557c1.75 1.752 1.844 1.842 1.899 1.842 0.023 0 0.066-0.023 0.1-0.055 0.092-0.086 0.447-0.442 0.537-0.539 0.045-0.049 0.086-0.090 0.092-0.090 0.018 0 0.207-0.197 0.207-0.215 0-0.012 0.008-0.020 0.020-0.020 0.023 0 0.156-0.133 0.156-0.156 0-0.012 0.014-0.020 0.029-0.020s0.029-0.014 0.029-0.029c0-0.016 0.010-0.029 0.020-0.029 0.025 0 0.098-0.072 0.098-0.098 0-0.012 0.014-0.020 0.029-0.020s0.029-0.010 0.029-0.020c0-0.012 0.055-0.070 0.119-0.133 0.164-0.152 0.682-0.668 0.682-0.68 0-0.016 0.078-0.086 0.098-0.086 0.012 0 0.020-0.014 0.020-0.029s0.010-0.029 0.020-0.029c0.025 0 0.098-0.072 0.098-0.098 0-0.012 0.014-0.020 0.029-0.020s0.029-0.010 0.029-0.020c0-0.020 0.070-0.098 0.088-0.098s0.088-0.078 0.088-0.098c0-0.012 0.014-0.020 0.029-0.020s0.029-0.012 0.029-0.025c0.002-0.012 0.029-0.045 0.064-0.072 0.064-0.053 0.359-0.344 0.498-0.494 0.045-0.051 0.092-0.092 0.102-0.092 0.012 0 0.020-0.014 0.020-0.029s0.008-0.029 0.020-0.029c0.023 0 0.156-0.133 0.156-0.156 0-0.012 0.014-0.020 0.029-0.020s0.029-0.014 0.029-0.029c0-0.016 0.010-0.029 0.020-0.029 0.025 0 0.098-0.072 0.098-0.098 0-0.012 0.014-0.020 0.029-0.020s0.029-0.014 0.029-0.029c0-0.016 0.008-0.029 0.018-0.029 0.025 0 0.842-0.815 0.842-0.84 0-0.012 0.008-0.020 0.020-0.020 0.023 0 0.215-0.191 0.215-0.215 0-0.012 0.008-0.020 0.018-0.020 0.020 0 2.11-2.085 2.19-2.184 0.027-0.033 0.055-0.061 0.063-0.063 0.021 0 0.387-0.371 0.387-0.393 0-0.010 0.014-0.018 0.029-0.018s0.029-0.014 0.029-0.029c0-0.016 0.010-0.029 0.020-0.029 0.025 0 0.098-0.072 0.098-0.098 0-0.012 0.014-0.020 0.029-0.020s0.029-0.014 0.029-0.029c0-0.016 0.008-0.029 0.018-0.029 0.025 0 1.252-1.229 1.252-1.252 0-0.010 0.014-0.018 0.029-0.018s0.029-0.008 0.029-0.020c0-0.010 0.041-0.057 0.092-0.102 0.148-0.133 0.533-0.529 0.533-0.547 0-0.008 0.008-0.016 0.020-0.016 0.023 0 0.215-0.191 0.215-0.215 0-0.012 0.014-0.020 0.029-0.020s0.029-0.014 0.029-0.029c0-0.016 0.008-0.029 0.020-0.029 0.021 0 1.875-1.85 1.875-1.873 0-0.041-0.141-0.195-0.479-0.529-0.201-0.199-1.498-1.493-2.882-2.878-1.383-1.383-2.522-2.512-2.532-2.512-0.010 0.002-0.033 0.006-0.051 0.012z"></path>
<path d="M20.149 6.593c-0.008 0.016-0.020 0.029-0.029 0.029-0.039 0-0.33 0.322-0.33 0.365 0 0.014-0.008 0.025-0.020 0.025-0.010 0-0.020 0.012-0.020 0.027s-0.014 0.031-0.029 0.039c-0.016 0.006-0.029 0.023-0.029 0.039 0 0.014-0.014 0.031-0.029 0.039-0.016 0.006-0.029 0.029-0.029 0.051s-0.012 0.039-0.027 0.039c-0.016 0-0.033 0.021-0.039 0.049-0.008 0.027-0.021 0.049-0.031 0.049-0.012 0-0.020 0.014-0.020 0.029 0 0.018-0.012 0.035-0.025 0.041-0.014 0.004-0.043 0.049-0.063 0.096-0.021 0.049-0.045 0.088-0.055 0.088-0.008 0-0.023 0.020-0.033 0.043-0.023 0.055-0.061 0.111-0.092 0.148-0.014 0.014-0.025 0.039-0.025 0.053 0 0.016-0.012 0.035-0.025 0.043s-0.041 0.051-0.063 0.094c-0.021 0.043-0.051 0.090-0.063 0.104-0.014 0.014-0.025 0.039-0.025 0.055s-0.008 0.027-0.020 0.027c-0.010 0-0.037 0.043-0.063 0.098-0.025 0.053-0.051 0.098-0.059 0.098-0.010 0-0.016 0.010-0.016 0.021 0 0.016-0.205 0.365-0.375 0.639-0.018 0.029-0.033 0.068-0.033 0.086-0.002 0.018-0.014 0.041-0.027 0.049-0.012 0.008-0.043 0.055-0.068 0.104-0.045 0.090-0.066 0.129-0.102 0.19-0.012 0.020-0.027 0.055-0.039 0.078-0.010 0.025-0.027 0.045-0.039 0.045-0.010 0-0.020 0.016-0.020 0.037 0 0.020-0.014 0.047-0.029 0.061s-0.029 0.035-0.029 0.051c0 0.014-0.012 0.037-0.025 0.051-0.012 0.014-0.041 0.063-0.063 0.107-0.021 0.047-0.045 0.084-0.053 0.084-0.006 0-0.018 0.025-0.025 0.057-0.006 0.031-0.025 0.063-0.041 0.068s-0.027 0.031-0.027 0.059c0 0.025-0.014 0.051-0.029 0.059-0.016 0.006-0.029 0.029-0.029 0.051s-0.014 0.045-0.029 0.051c-0.016 0.008-0.029 0.027-0.029 0.047s-0.014 0.045-0.029 0.059c-0.016 0.014-0.029 0.035-0.029 0.049s-0.014 0.035-0.029 0.049c-0.016 0.014-0.029 0.041-0.029 0.061 0 0.021-0.008 0.037-0.018 0.037s-0.023 0.020-0.029 0.043c-0.041 0.148-0.125 0.166-0.92 0.184-0.559 0.012-0.656 0.018-0.727 0.049-0.080 0.035-0.084 0.039-0.084 0.123 0 0.049 0.012 0.094 0.025 0.104 0.029 0.020 0.578 0.010 0.932-0.016 0.332-0.023 0.469-0.002 0.469 0.074 0 0.049-0.111 0.283-0.141 0.295-0.010 0.004-0.016 0.023-0.016 0.043 0 0.018-0.014 0.045-0.029 0.059s-0.029 0.033-0.029 0.043c0 0.010-0.014 0.031-0.029 0.047-0.016 0.018-0.029 0.047-0.029 0.066s-0.014 0.039-0.029 0.047c-0.016 0.006-0.029 0.031-0.029 0.059 0 0.025-0.014 0.051-0.029 0.059-0.016 0.006-0.029 0.027-0.029 0.047 0 0.021-0.014 0.049-0.029 0.063s-0.029 0.041-0.029 0.061c0 0.020-0.010 0.041-0.021 0.047-0.010 0.008-0.029 0.033-0.039 0.055-0.010 0.023-0.049 0.096-0.086 0.16-0.035 0.064-0.102 0.19-0.147 0.279-0.045 0.088-0.090 0.166-0.1 0.172s-0.018 0.023-0.018 0.039c0 0.018-0.014 0.043-0.029 0.059-0.016 0.018-0.029 0.047-0.029 0.068 0 0.020-0.008 0.037-0.018 0.037s-0.023 0.025-0.031 0.059c-0.008 0.031-0.021 0.063-0.031 0.068-0.035 0.021-0.018 0.105 0.031 0.156 0.027 0.027 0.059 0.049 0.068 0.049 0.047 0 0.154-0.074 0.166-0.113 0.006-0.023 0.020-0.043 0.029-0.043 0.012 0 0.020-0.018 0.020-0.037 0-0.021 0.012-0.051 0.027-0.064 0.014-0.016 0.033-0.049 0.041-0.074 0.008-0.027 0.021-0.053 0.029-0.059 0.006-0.006 0.033-0.051 0.057-0.102 0.025-0.053 0.053-0.098 0.063-0.105 0.010-0.006 0.018-0.027 0.018-0.049 0-0.020 0.008-0.037 0.018-0.037s0.023-0.023 0.029-0.051c0.008-0.029 0.027-0.064 0.041-0.080 0.016-0.016 0.029-0.045 0.029-0.066 0-0.020 0.014-0.037 0.029-0.037 0.018 0 0.029-0.018 0.029-0.049 0-0.027 0.014-0.055 0.029-0.061 0.016-0.008 0.029-0.031 0.029-0.057s0.014-0.049 0.029-0.057c0.016-0.006 0.029-0.025 0.031-0.045 0-0.020 0.018-0.063 0.037-0.094 0.031-0.051 0.094-0.166 0.227-0.42 0.021-0.037 0.043-0.072 0.051-0.078 0.006-0.006 0.020-0.035 0.025-0.064 0.008-0.029 0.021-0.053 0.029-0.053 0.010 0 0.021-0.027 0.029-0.059 0.008-0.033 0.020-0.059 0.025-0.059 0.008 0 0.031-0.039 0.053-0.088s0.049-0.088 0.061-0.088c0.014 0 0.027-0.010 0.031-0.021 0.012-0.037 0.309-0.061 0.832-0.066l0.492-0.006v0.111c0 0.068-0.012 0.127-0.029 0.15-0.016 0.020-0.029 0.064-0.029 0.1 0 0.033-0.008 0.066-0.018 0.072s-0.023 0.043-0.031 0.082c-0.006 0.039-0.020 0.086-0.029 0.104s-0.023 0.064-0.029 0.104c-0.006 0.041-0.020 0.074-0.029 0.074-0.012 0-0.020 0.020-0.020 0.043 0 0.025-0.014 0.068-0.027 0.098-0.016 0.031-0.035 0.094-0.043 0.143-0.006 0.049-0.020 0.094-0.029 0.098-0.008 0.006-0.021 0.051-0.029 0.098-0.006 0.049-0.020 0.088-0.027 0.088s-0.021 0.039-0.027 0.088c-0.008 0.049-0.021 0.088-0.029 0.088-0.010 0-0.023 0.031-0.029 0.068-0.008 0.037-0.025 0.092-0.041 0.121s-0.029 0.078-0.029 0.107c0 0.031-0.008 0.055-0.020 0.055-0.010 0-0.020 0.029-0.020 0.066s-0.014 0.080-0.029 0.098c-0.016 0.016-0.029 0.049-0.029 0.074s-0.014 0.064-0.029 0.086c-0.016 0.020-0.029 0.061-0.029 0.090s-0.012 0.064-0.025 0.078c-0.016 0.014-0.031 0.064-0.039 0.113-0.006 0.047-0.021 0.090-0.031 0.094-0.012 0.004-0.021 0.031-0.021 0.061 0 0.027-0.012 0.068-0.027 0.090-0.014 0.021-0.031 0.064-0.035 0.098-0.014 0.070-0.049 0.174-0.086 0.25-0.016 0.031-0.027 0.070-0.027 0.088s-0.014 0.059-0.029 0.090c-0.043 0.082-0.037 0.213 0.010 0.256 0.061 0.055 0.15 0.047 0.205-0.021 0.027-0.031 0.047-0.076 0.049-0.102 0-0.025 0.014-0.059 0.029-0.074 0.016-0.018 0.029-0.057 0.029-0.088 0-0.033 0.014-0.072 0.029-0.088 0.016-0.018 0.029-0.059 0.029-0.092 0-0.035 0.014-0.080 0.029-0.1 0.016-0.021 0.029-0.063 0.029-0.094 0-0.029 0.010-0.055 0.020-0.055 0.012 0 0.020-0.023 0.020-0.055 0-0.029 0.012-0.070 0.027-0.092 0.014-0.021 0.033-0.070 0.041-0.107s0.021-0.078 0.029-0.088c0.008-0.012 0.021-0.053 0.027-0.096 0.008-0.041 0.021-0.090 0.031-0.107 0.020-0.035 0.109-0.305 0.176-0.529 0.023-0.080 0.051-0.16 0.059-0.178 0.010-0.018 0.023-0.064 0.029-0.104 0.008-0.039 0.021-0.076 0.031-0.082s0.018-0.035 0.018-0.066c0-0.031 0.014-0.068 0.029-0.086 0.016-0.016 0.029-0.055 0.029-0.084 0-0.031 0.014-0.074 0.029-0.096 0.016-0.020 0.029-0.064 0.029-0.096 0-0.033 0.014-0.076 0.029-0.096 0.016-0.021 0.029-0.063 0.029-0.092 0-0.027 0.014-0.063 0.029-0.076s0.029-0.053 0.029-0.088c0-0.035 0.014-0.074 0.029-0.088s0.029-0.057 0.029-0.096c0-0.039 0.014-0.096 0.029-0.127 0.016-0.029 0.029-0.072 0.029-0.092 0-0.029 0.049-0.158 0.074-0.193 0.004-0.006 0.141-0.016 0.303-0.021 0.342-0.016 0.404-0.033 0.453-0.123 0.035-0.064 0.035-0.066-0.018-0.121l-0.051-0.057-0.26 0.004c-0.238 0.004-0.262 0.002-0.283-0.033-0.016-0.027-0.018-0.053-0.004-0.088 0.012-0.029 0.020-0.076 0.020-0.105s0.014-0.070 0.029-0.092c0.016-0.020 0.029-0.061 0.029-0.088s0.014-0.066 0.029-0.088c0.016-0.020 0.029-0.070 0.029-0.111 0-0.039 0.008-0.072 0.020-0.072 0.010 0 0.023-0.033 0.029-0.074 0.016-0.096 0.066-0.279 0.090-0.32 0.010-0.020 0.018-0.051 0.018-0.068 0-0.020 0.012-0.059 0.027-0.088 0.016-0.027 0.033-0.096 0.041-0.15s0.020-0.1 0.029-0.1c0.008 0 0.021-0.049 0.029-0.107 0.006-0.059 0.020-0.111 0.029-0.117s0.023-0.051 0.031-0.098c0.006-0.049 0.020-0.088 0.029-0.088s0.018-0.021 0.018-0.049c0-0.025 0.014-0.082 0.029-0.121 0.016-0.041 0.037-0.113 0.049-0.162 0.010-0.049 0.033-0.145 0.049-0.215 0.018-0.070 0.039-0.164 0.047-0.211 0.010-0.047 0.025-0.094 0.037-0.106 0.014-0.014 0.023-0.066 0.023-0.119 0-0.059 0.012-0.106 0.029-0.123 0.020-0.020 0.029-0.068 0.029-0.141 0.002-0.061 0.014-0.133 0.029-0.16s0.029-0.098 0.029-0.156c0.002-0.059 0.014-0.143 0.029-0.186 0.033-0.090 0.039-0.334 0.010-0.352-0.012-0.008-0.033-0.043-0.049-0.080-0.027-0.064-0.029-0.066-0.147-0.066-0.088 0-0.121 0.008-0.129 0.029zM20.146 7.209c-0.002 0.068-0.012 0.133-0.021 0.145s-0.023 0.078-0.031 0.148c-0.008 0.070-0.020 0.145-0.029 0.166s-0.027 0.082-0.037 0.137c-0.033 0.17-0.064 0.293-0.080 0.313-0.008 0.010-0.021 0.061-0.027 0.111-0.008 0.051-0.021 0.098-0.031 0.104-0.008 0.006-0.021 0.047-0.029 0.094-0.008 0.045-0.023 0.117-0.039 0.16-0.014 0.043-0.035 0.131-0.049 0.195-0.012 0.064-0.035 0.143-0.051 0.172-0.016 0.031-0.027 0.080-0.027 0.111s-0.014 0.068-0.029 0.086c-0.016 0.016-0.029 0.061-0.029 0.1s-0.012 0.096-0.027 0.123c-0.016 0.029-0.035 0.086-0.041 0.125-0.006 0.041-0.020 0.074-0.029 0.074-0.012 0-0.020 0.033-0.020 0.072 0 0.041-0.014 0.092-0.029 0.111-0.016 0.021-0.029 0.066-0.029 0.1s-0.014 0.078-0.029 0.1c-0.016 0.020-0.029 0.064-0.029 0.1s-0.012 0.092-0.027 0.127c-0.039 0.092-0.090 0.275-0.090 0.322 0 0.023-0.014 0.045-0.029 0.053-0.018 0.006-0.029 0.035-0.029 0.070 0 0.053-0.012 0.064-0.090 0.098-0.082 0.035-0.137 0.039-0.633 0.039-0.443 0-0.545-0.006-0.553-0.027-0.014-0.031 0.016-0.168 0.039-0.186 0.008-0.006 0.033-0.047 0.055-0.090s0.043-0.082 0.049-0.088c0.023-0.023 0.098-0.176 0.098-0.201 0-0.016 0.014-0.033 0.029-0.041 0.016-0.006 0.029-0.027 0.029-0.049s0.012-0.047 0.025-0.055c0.014-0.008 0.055-0.076 0.092-0.148 0.037-0.074 0.080-0.143 0.092-0.154 0.014-0.012 0.025-0.037 0.025-0.057 0-0.021 0.008-0.037 0.018-0.037s0.021-0.016 0.027-0.035c0.012-0.037 0.074-0.145 0.094-0.16 0.008-0.006 0.020-0.031 0.027-0.059 0.008-0.025 0.027-0.059 0.041-0.074 0.016-0.014 0.027-0.039 0.027-0.055s0.008-0.027 0.016-0.027c0.008 0 0.025-0.023 0.037-0.055 0.014-0.029 0.033-0.066 0.043-0.082 0.061-0.088 0.178-0.297 0.178-0.313 0-0.012 0.008-0.020 0.018-0.020s0.027-0.027 0.039-0.059c0.010-0.033 0.029-0.059 0.039-0.059 0.012 0 0.021-0.018 0.021-0.037 0-0.021 0.014-0.051 0.029-0.068 0.016-0.016 0.029-0.037 0.029-0.047 0-0.012 0.014-0.023 0.029-0.031 0.016-0.006 0.029-0.029 0.029-0.051s0.014-0.045 0.029-0.051c0.016-0.008 0.029-0.027 0.029-0.047s0.014-0.045 0.029-0.059c0.016-0.014 0.029-0.033 0.029-0.043 0-0.012 0.027-0.059 0.059-0.107 0.033-0.047 0.059-0.1 0.059-0.115 0-0.014 0.012-0.027 0.025-0.027 0.012 0 0.041-0.037 0.063-0.082s0.063-0.109 0.094-0.141c0.029-0.033 0.053-0.074 0.053-0.094s0.008-0.035 0.018-0.035c0.010 0 0.025-0.023 0.037-0.055 0.010-0.029 0.037-0.072 0.061-0.096s0.041-0.051 0.041-0.061c0-0.010 0.018-0.033 0.039-0.053s0.039-0.043 0.039-0.051c0-0.014 0.037-0.059 0.15-0.18 0.055-0.057 0.074-0.027 0.068 0.104z"></path>
<path d="M22.929 6.617c-0.012 0.031-0.033 0.066-0.047 0.080s-0.025 0.053-0.025 0.084c0 0.031-0.008 0.057-0.020 0.057-0.010 0-0.020 0.016-0.020 0.033 0 0.020-0.012 0.059-0.027 0.088s-0.033 0.078-0.041 0.111c-0.008 0.033-0.021 0.064-0.031 0.070-0.010 0.008-0.018 0.031-0.018 0.055s-0.012 0.066-0.027 0.094c-0.014 0.027-0.031 0.082-0.039 0.121-0.008 0.041-0.021 0.072-0.031 0.072-0.008 0-0.021 0.035-0.029 0.078s-0.020 0.078-0.029 0.078c-0.010 0-0.021 0.037-0.029 0.082-0.008 0.047-0.020 0.092-0.027 0.104-0.008 0.010-0.035 0.076-0.059 0.147-0.025 0.070-0.053 0.135-0.063 0.145-0.010 0.012-0.018 0.043-0.018 0.072s-0.014 0.066-0.029 0.084c-0.016 0.016-0.029 0.051-0.029 0.080 0 0.027-0.012 0.070-0.027 0.094s-0.033 0.076-0.039 0.115c-0.008 0.041-0.021 0.074-0.031 0.074-0.012 0-0.020 0.023-0.020 0.053 0 0.031-0.014 0.072-0.029 0.092-0.016 0.021-0.029 0.059-0.029 0.082s-0.012 0.053-0.027 0.064c-0.016 0.012-0.031 0.051-0.037 0.086-0.010 0.068-0.061 0.219-0.092 0.272-0.012 0.020-0.020 0.049-0.020 0.066s-0.012 0.055-0.027 0.082c-0.037 0.074-0.072 0.176-0.090 0.268-0.008 0.043-0.025 0.080-0.037 0.084s-0.021 0.031-0.021 0.059c0 0.029-0.014 0.070-0.029 0.090-0.016 0.021-0.029 0.063-0.029 0.092s-0.014 0.057-0.029 0.064c-0.018 0.006-0.029 0.035-0.029 0.076 0 0.037-0.014 0.078-0.029 0.092s-0.029 0.053-0.029 0.090c0 0.035-0.008 0.068-0.018 0.076-0.010 0.006-0.037 0.074-0.063 0.152-0.023 0.076-0.049 0.148-0.057 0.16-0.008 0.010-0.021 0.051-0.029 0.088s-0.021 0.076-0.029 0.088c-0.008 0.010-0.021 0.051-0.029 0.088s-0.020 0.076-0.027 0.088c-0.008 0.010-0.035 0.086-0.061 0.166-0.023 0.080-0.051 0.154-0.061 0.166-0.008 0.010-0.020 0.053-0.027 0.094-0.008 0.039-0.021 0.076-0.029 0.082-0.010 0.006-0.021 0.045-0.029 0.088s-0.021 0.078-0.031 0.078c-0.010 0-0.018 0.020-0.018 0.043 0 0.025-0.014 0.070-0.029 0.102-0.016 0.029-0.029 0.074-0.029 0.098s-0.014 0.061-0.029 0.082c-0.016 0.020-0.029 0.059-0.029 0.086s-0.012 0.066-0.027 0.088c-0.014 0.021-0.031 0.072-0.039 0.111-0.008 0.041-0.021 0.074-0.031 0.074-0.012 0-0.020 0.025-0.020 0.055 0 0.031-0.014 0.072-0.029 0.094-0.016 0.020-0.029 0.061-0.029 0.088s-0.014 0.066-0.029 0.088c-0.016 0.020-0.029 0.059-0.029 0.086s-0.014 0.074-0.029 0.105c-0.016 0.029-0.029 0.070-0.029 0.088 0 0.020-0.014 0.051-0.029 0.072-0.016 0.020-0.029 0.059-0.029 0.086s-0.014 0.066-0.029 0.086c-0.016 0.021-0.029 0.061-0.029 0.088s-0.014 0.068-0.029 0.088c-0.016 0.021-0.029 0.066-0.029 0.098 0 0.033-0.014 0.078-0.029 0.098-0.016 0.021-0.029 0.064-0.029 0.096 0 0.029-0.014 0.068-0.029 0.084-0.016 0.018-0.029 0.053-0.029 0.082s-0.014 0.070-0.029 0.090c-0.016 0.021-0.029 0.066-0.029 0.1s-0.014 0.078-0.029 0.1c-0.016 0.020-0.029 0.074-0.029 0.119s-0.010 0.084-0.021 0.088c-0.012 0.004-0.021 0.059-0.023 0.123-0.004 0.092 0.004 0.127 0.035 0.16 0.059 0.070 0.158 0.049 0.191-0.039 0.006-0.018 0.021-0.033 0.033-0.033 0.010 0 0.020-0.029 0.020-0.066s0.014-0.092 0.029-0.123c0.016-0.029 0.033-0.088 0.039-0.129 0.006-0.039 0.020-0.072 0.029-0.072 0.012 0 0.020-0.037 0.020-0.084 0-0.045 0.014-0.1 0.029-0.119 0.016-0.021 0.029-0.061 0.029-0.088s0.014-0.076 0.029-0.107c0.016-0.029 0.029-0.070 0.029-0.088s0.014-0.049 0.029-0.068c0.016-0.021 0.029-0.070 0.029-0.111 0-0.047 0.010-0.076 0.029-0.084 0.020-0.006 0.029-0.037 0.029-0.084 0-0.041 0.014-0.092 0.029-0.111 0.016-0.021 0.029-0.063 0.029-0.094 0-0.029 0.008-0.055 0.018-0.055s0.027-0.039 0.039-0.086c0.012-0.049 0.029-0.094 0.041-0.1 0.010-0.006 0.020-0.041 0.020-0.078s0.008-0.070 0.018-0.076c0.010-0.008 0.023-0.047 0.031-0.090s0.020-0.082 0.029-0.088c0.008-0.006 0.021-0.049 0.027-0.098 0.008-0.049 0.021-0.088 0.033-0.088 0.010 0 0.018-0.020 0.018-0.045 0-0.023 0.014-0.059 0.029-0.078 0.014-0.021 0.033-0.072 0.039-0.115 0.008-0.043 0.025-0.102 0.041-0.129 0.016-0.029 0.027-0.064 0.027-0.078 0-0.041 0.051-0.082 0.104-0.082 0.049 0 0.125 0.049 0.203 0.131 0.023 0.025 0.047 0.045 0.053 0.045s0.043 0.031 0.084 0.068c0.041 0.037 0.082 0.068 0.090 0.068s0.035 0.021 0.061 0.049c0.025 0.027 0.055 0.049 0.066 0.049s0.029 0.012 0.037 0.025c0.008 0.014 0.049 0.045 0.090 0.070 0.039 0.023 0.072 0.053 0.072 0.063s0.008 0.018 0.018 0.018c0.012 0 0.049 0.025 0.084 0.059 0.035 0.031 0.074 0.059 0.088 0.059 0.012 0 0.031 0.012 0.039 0.025 0.025 0.039 0.195 0.162 0.279 0.201 0.016 0.008 0.037 0.025 0.045 0.041 0.008 0.014 0.023 0.025 0.033 0.025s0.041 0.021 0.070 0.049c0.029 0.027 0.074 0.055 0.1 0.061 0.025 0.008 0.045 0.021 0.045 0.035 0 0.012 0.037 0.039 0.084 0.061 0.045 0.021 0.104 0.059 0.131 0.084 0.027 0.023 0.068 0.049 0.094 0.055 0.023 0.008 0.043 0.020 0.043 0.029s0.012 0.018 0.025 0.018c0.014 0 0.061 0.025 0.104 0.057 0.041 0.031 0.096 0.063 0.121 0.068 0.023 0.008 0.043 0.021 0.043 0.031 0 0.008 0.023 0.021 0.053 0.029 0.029 0.006 0.059 0.020 0.064 0.025 0.018 0.025 0.264 0.141 0.295 0.141 0.018 0 0.037 0.014 0.045 0.029 0.006 0.016 0.035 0.029 0.064 0.029 0.031 0 0.072 0.012 0.094 0.027 0.047 0.031 0.246 0.057 0.313 0.039 0.043-0.010 0.049-0.021 0.049-0.105 0-0.086-0.006-0.098-0.063-0.133-0.035-0.021-0.1-0.043-0.141-0.049-0.043-0.008-0.082-0.020-0.088-0.029s-0.037-0.023-0.070-0.031c-0.055-0.012-0.416-0.184-0.44-0.207-0.006-0.006-0.051-0.029-0.102-0.055s-0.098-0.053-0.104-0.064c-0.008-0.010-0.029-0.018-0.051-0.018-0.020 0-0.037-0.014-0.037-0.029s-0.012-0.029-0.027-0.029c-0.014 0-0.037-0.014-0.051-0.029s-0.041-0.029-0.063-0.029c-0.020 0-0.041-0.012-0.047-0.027s-0.031-0.033-0.059-0.039c-0.025-0.008-0.047-0.021-0.047-0.031 0-0.012-0.012-0.020-0.027-0.020s-0.031-0.012-0.037-0.025c-0.006-0.012-0.043-0.041-0.084-0.063-0.043-0.021-0.084-0.049-0.092-0.063s-0.027-0.025-0.039-0.025c-0.014 0-0.051-0.023-0.084-0.055-0.072-0.063-0.119-0.096-0.178-0.121-0.025-0.010-0.045-0.027-0.045-0.039 0-0.010-0.014-0.020-0.029-0.020s-0.029-0.008-0.029-0.016c0-0.008-0.039-0.041-0.088-0.072-0.082-0.051-0.145-0.1-0.227-0.176-0.018-0.016-0.037-0.029-0.045-0.029s-0.033-0.021-0.059-0.049c-0.025-0.027-0.053-0.049-0.063-0.049s-0.049-0.031-0.086-0.068c-0.037-0.039-0.092-0.080-0.121-0.094-0.029-0.012-0.055-0.035-0.055-0.047 0-0.014-0.008-0.025-0.020-0.025-0.010 0-0.037-0.018-0.059-0.039s-0.039-0.049-0.039-0.059c0-0.012-0.014-0.020-0.029-0.020-0.018 0-0.029-0.018-0.029-0.049 0-0.027 0.014-0.055 0.029-0.061 0.016-0.008 0.029-0.023 0.029-0.039s0.010-0.027 0.020-0.027c0.012 0 0.035-0.016 0.055-0.035 0.020-0.018 0.078-0.068 0.129-0.111 0.053-0.043 0.152-0.133 0.221-0.201 0.070-0.066 0.135-0.121 0.145-0.121s0.018-0.014 0.018-0.029c0-0.016 0.014-0.029 0.029-0.029s0.029-0.010 0.029-0.020c0-0.020 0.207-0.229 0.42-0.424 0.049-0.045 0.088-0.090 0.088-0.102s0.014-0.021 0.029-0.021c0.016 0 0.029-0.014 0.029-0.029s0.014-0.029 0.029-0.029c0.016 0 0.029-0.014 0.029-0.029s0.014-0.029 0.029-0.029c0.016 0 0.029-0.014 0.029-0.029s0.014-0.029 0.029-0.029c0.016 0 0.029-0.014 0.029-0.029s0.014-0.029 0.029-0.029c0.016 0 0.029-0.014 0.029-0.029s0.014-0.029 0.029-0.029c0.016 0 0.029-0.014 0.029-0.029s0.014-0.029 0.029-0.029c0.016 0 0.029-0.014 0.029-0.029s0.014-0.029 0.029-0.029c0.016 0 0.029-0.014 0.029-0.029s0.014-0.029 0.029-0.029c0.016 0 0.029-0.014 0.029-0.029s0.014-0.029 0.029-0.029c0.016 0 0.029-0.014 0.029-0.029s0.014-0.029 0.029-0.029c0.016 0 0.029-0.014 0.029-0.029s0.010-0.029 0.021-0.029c0.010 0 0.057-0.041 0.102-0.090 0.178-0.195 0.402-0.418 0.422-0.418 0.012 0 0.021-0.014 0.021-0.029s0.014-0.029 0.029-0.029c0.016 0 0.029-0.008 0.029-0.018s0.195-0.215 0.436-0.457c0.563-0.569 0.854-0.875 0.854-0.895 0-0.010 0.010-0.018 0.020-0.018 0.012 0 0.020-0.014 0.020-0.029s0.014-0.029 0.029-0.029c0.049 0 0.037-0.133-0.014-0.188-0.025-0.025-0.057-0.047-0.070-0.047-0.047 0-0.145 0.082-0.307 0.254-0.086 0.090-0.221 0.229-0.297 0.309-0.078 0.078-0.143 0.15-0.143 0.16 0 0.012-0.014 0.020-0.029 0.020s-0.029 0.008-0.029 0.018c0 0.021-0.195 0.217-0.217 0.217-0.010 0-0.018 0.014-0.018 0.029s-0.014 0.029-0.029 0.029c-0.016 0-0.029 0.014-0.029 0.029s-0.014 0.029-0.029 0.029c-0.016 0-0.029 0.010-0.029 0.020 0 0.027-1.907 1.934-1.934 1.934-0.010 0-0.020 0.014-0.020 0.029s-0.014 0.029-0.029 0.029c-0.016 0-0.029 0.014-0.029 0.029s-0.014 0.029-0.029 0.029c-0.016 0-0.029 0.014-0.029 0.029s-0.008 0.029-0.018 0.029c-0.010 0-0.063 0.041-0.115 0.092-0.164 0.16-0.283 0.26-0.311 0.26-0.014 0-0.025 0.014-0.025 0.031s-0.012 0.027-0.023 0.023c-0.039-0.014-0.043-0.16-0.006-0.191 0.016-0.014 0.029-0.053 0.029-0.086 0-0.035 0.014-0.080 0.029-0.102 0.016-0.020 0.029-0.061 0.029-0.090s0.014-0.064 0.029-0.082c0.016-0.016 0.029-0.051 0.029-0.078s0.008-0.051 0.020-0.051c0.010 0 0.023-0.033 0.029-0.074 0.006-0.039 0.025-0.096 0.041-0.125 0.016-0.027 0.027-0.072 0.027-0.098 0-0.023 0.014-0.063 0.029-0.082 0.016-0.021 0.029-0.053 0.029-0.072 0-0.018 0.014-0.059 0.029-0.088 0.016-0.031 0.029-0.076 0.029-0.098 0-0.023 0.014-0.053 0.029-0.066s0.029-0.049 0.029-0.078c0-0.029 0.014-0.064 0.029-0.078s0.029-0.053 0.029-0.088c0-0.035 0.014-0.074 0.029-0.088s0.029-0.049 0.029-0.076c0-0.029 0.014-0.070 0.029-0.092 0.016-0.020 0.029-0.057 0.029-0.082 0-0.023 0.008-0.043 0.020-0.043 0.010 0 0.023-0.033 0.029-0.074 0.008-0.039 0.020-0.090 0.029-0.111s0.023-0.068 0.029-0.104c0.008-0.033 0.021-0.063 0.031-0.063s0.018-0.020 0.018-0.045c0-0.023 0.014-0.068 0.029-0.1 0.016-0.029 0.029-0.064 0.029-0.074 0-0.012 0.014-0.047 0.029-0.080 0.016-0.035 0.051-0.129 0.076-0.209 0.072-0.225 0.143-0.414 0.176-0.479 0.018-0.033 0.031-0.078 0.031-0.102s0.010-0.049 0.020-0.055c0.012-0.006 0.020-0.037 0.020-0.066s0.014-0.070 0.029-0.092c0.016-0.020 0.029-0.057 0.029-0.078 0-0.023 0.014-0.053 0.029-0.066s0.029-0.043 0.029-0.066c0-0.023 0.014-0.061 0.029-0.082 0.016-0.020 0.029-0.064 0.029-0.098s0.014-0.072 0.029-0.086c0.016-0.014 0.029-0.047 0.029-0.076s0.012-0.068 0.027-0.090c0.039-0.057 0.057-0.189 0.033-0.25-0.018-0.047-0.031-0.053-0.109-0.053s-0.092 0.006-0.113 0.053z"></path>
<path d="M19.532 23.24c-0.029 0.016-0.068 0.055-0.084 0.086-0.031 0.063-0.039 0.156-0.012 0.156 0.010 0 0.021 0.018 0.027 0.039 0.021 0.086 0.199 0.104 0.281 0.027 0.045-0.041 0.055-0.066 0.055-0.141 0-0.053-0.010-0.092-0.023-0.098-0.014-0.004-0.025-0.018-0.025-0.029 0-0.025-0.090-0.072-0.135-0.072-0.018 0.002-0.055 0.014-0.084 0.031z"></path>
<path d="M31.478 23.236c-0.035 0.010-0.064 0.029-0.064 0.043 0 0.012-0.014 0.033-0.029 0.047-0.045 0.037-0.035 0.139 0.018 0.205 0.041 0.051 0.061 0.059 0.139 0.059 0.082 0 0.1-0.008 0.148-0.068 0.031-0.037 0.057-0.080 0.057-0.096 0-0.059-0.070-0.176-0.111-0.186-0.021-0.006-0.053-0.016-0.068-0.020-0.014-0.002-0.055 0.004-0.088 0.016z"></path>
<path d="M8.215 23.363c-0.045 0.010-0.061 0.025-0.070 0.076-0.008 0.037-0.023 0.076-0.035 0.088s-0.021 0.045-0.021 0.072c0 0.027-0.014 0.068-0.029 0.090-0.016 0.020-0.029 0.055-0.029 0.076s-0.014 0.057-0.029 0.076c-0.016 0.021-0.029 0.063-0.029 0.092 0 0.027-0.012 0.063-0.027 0.074s-0.031 0.051-0.037 0.086c-0.010 0.074-0.043 0.168-0.127 0.365-0.020 0.049-0.043 0.121-0.051 0.162-0.008 0.039-0.021 0.072-0.029 0.072-0.010 0-0.021 0.029-0.027 0.063-0.016 0.111-0.111 0.348-0.156 0.383-0.012 0.012-0.072 0.031-0.131 0.047-0.094 0.021-0.107 0.031-0.113 0.078s0.002 0.055 0.068 0.066c0.041 0.010 0.211 0.016 0.377 0.018h0.301l0.020-0.057c0.018-0.047 0.014-0.061-0.025-0.092-0.027-0.021-0.076-0.037-0.119-0.037-0.041 0-0.084-0.012-0.096-0.027-0.027-0.031-0.010-0.17 0.029-0.25 0.016-0.029 0.027-0.066 0.027-0.084 0-0.041 0.057-0.1 0.111-0.115 0.025-0.008 0.18-0.016 0.344-0.018 0.256-0.002 0.307 0.002 0.352 0.031 0.029 0.020 0.053 0.049 0.053 0.068s0.012 0.051 0.027 0.072c0.035 0.053 0.055 0.24 0.029 0.285-0.012 0.023-0.041 0.037-0.078 0.037-0.123 0-0.209 0.117-0.109 0.154 0.023 0.008 0.213 0.021 0.418 0.029 0.404 0.014 0.455 0.004 0.455-0.080 0-0.053-0.068-0.104-0.143-0.104s-0.131-0.033-0.131-0.074c0-0.020-0.012-0.051-0.027-0.072-0.014-0.021-0.031-0.066-0.035-0.098-0.014-0.070-0.049-0.176-0.086-0.248-0.016-0.027-0.027-0.064-0.027-0.080s-0.014-0.055-0.029-0.084c-0.016-0.031-0.029-0.080-0.029-0.109 0-0.027-0.010-0.055-0.020-0.059-0.012-0.004-0.025-0.041-0.033-0.084-0.006-0.043-0.020-0.084-0.029-0.090s-0.023-0.045-0.029-0.088c-0.008-0.041-0.023-0.088-0.039-0.102-0.014-0.014-0.025-0.051-0.025-0.080s-0.010-0.063-0.021-0.074c-0.012-0.012-0.029-0.057-0.037-0.098-0.016-0.076-0.043-0.156-0.092-0.281-0.025-0.064-0.039-0.072-0.117-0.084-0.105-0.014-0.207-0.012-0.289 0.006zM8.379 23.717c0.021 0.045 0.045 0.107 0.053 0.143 0.006 0.033 0.020 0.074 0.027 0.092 0.031 0.057 0.137 0.412 0.137 0.453 0 0.023-0.014 0.059-0.033 0.078-0.027 0.031-0.064 0.035-0.283 0.035-0.209 0-0.25-0.004-0.25-0.029 0-0.016-0.008-0.029-0.020-0.029-0.010 0-0.020-0.021-0.020-0.047 0-0.027 0.010-0.055 0.020-0.061 0.012-0.006 0.020-0.045 0.020-0.086s0.012-0.086 0.027-0.098c0.016-0.012 0.031-0.051 0.037-0.086 0.010-0.061 0.119-0.389 0.141-0.426 0.008-0.010 0.033-0.018 0.059-0.018 0.037 0 0.057 0.020 0.086 0.078z"></path>
<path d="M22.687 23.359c-0.033 0.006-0.045 0.021-0.045 0.057 0 0.070 0.043 0.105 0.127 0.105 0.039 0 0.102 0.014 0.139 0.031l0.066 0.031v0.758c0 0.844 0.004 0.82-0.131 0.82-0.098 0-0.201 0.053-0.201 0.105 0 0.072 0.080 0.088 0.492 0.092 0.35 0.004 0.389 0.002 0.426-0.031 0.078-0.072 0.020-0.166-0.107-0.166-0.133 0-0.137-0.008-0.137-0.281v-0.244l0.066-0.055c0.037-0.029 0.084-0.070 0.104-0.090 0.020-0.018 0.045-0.033 0.055-0.033 0.012 0 0.020-0.008 0.020-0.018s0.018-0.021 0.037-0.027c0.047-0.012 0.137 0.072 0.209 0.197 0.029 0.051 0.063 0.102 0.074 0.113s0.035 0.043 0.051 0.066c0.016 0.023 0.045 0.061 0.064 0.082 0.018 0.023 0.033 0.053 0.033 0.066s0.008 0.027 0.020 0.031c0.010 0.002 0.031 0.039 0.049 0.078 0.027 0.068 0.027 0.074-0.008 0.094-0.021 0.010-0.061 0.020-0.086 0.020-0.051 0-0.111 0.055-0.111 0.102 0 0.018 0.021 0.045 0.049 0.063 0.039 0.025 0.109 0.031 0.434 0.031 0.418-0.002 0.465-0.012 0.451-0.102-0.004-0.037-0.025-0.049-0.137-0.076-0.135-0.033-0.203-0.084-0.262-0.199-0.016-0.029-0.037-0.053-0.047-0.053-0.012 0-0.020-0.012-0.020-0.027s-0.014-0.031-0.029-0.039c-0.016-0.006-0.029-0.020-0.029-0.029s-0.025-0.049-0.059-0.084c-0.031-0.035-0.059-0.074-0.059-0.088s-0.014-0.025-0.029-0.025c-0.016 0-0.029-0.010-0.029-0.021s-0.053-0.092-0.117-0.178c-0.064-0.088-0.117-0.178-0.117-0.201 0-0.059 0.057-0.125 0.332-0.391 0.135-0.129 0.248-0.24 0.25-0.25 0.004-0.008 0.020-0.014 0.033-0.014s0.029-0.010 0.033-0.021c0.004-0.012 0.051-0.025 0.104-0.031 0.129-0.012 0.186-0.041 0.186-0.096 0-0.025-0.010-0.051-0.021-0.059-0.025-0.016-0.719-0.025-0.824-0.012-0.072 0.010-0.074 0.012-0.068 0.080s0.008 0.070 0.107 0.088c0.076 0.012 0.104 0.025 0.111 0.057 0.014 0.055-0.014 0.098-0.119 0.184-0.051 0.041-0.152 0.133-0.225 0.205-0.074 0.074-0.143 0.133-0.152 0.133-0.012 0-0.020 0.014-0.020 0.029s-0.014 0.029-0.029 0.029c-0.016 0-0.029 0.014-0.029 0.029s-0.014 0.029-0.029 0.029c-0.016 0-0.029 0.014-0.029 0.029s-0.012 0.029-0.027 0.029c-0.016 0-0.031 0.008-0.035 0.018-0.002 0.008-0.025 0.023-0.049 0.029-0.035 0.012-0.049 0.004-0.063-0.031-0.021-0.057-0.031-0.652-0.012-0.713 0.014-0.045 0.063-0.064 0.158-0.064 0.070 0 0.105-0.031 0.105-0.092 0-0.029-0.016-0.051-0.043-0.061-0.047-0.018-0.776-0.025-0.85-0.010z"></path>
<path d="M15.193 23.398c-0.008 0.006-0.014 0.029-0.014 0.049s-0.008 0.035-0.020 0.035c-0.010 0-0.025 0.023-0.031 0.053-0.031 0.127-0.232 0.389-0.346 0.447-0.039 0.021-0.053 0.041-0.049 0.072 0.006 0.037 0.020 0.043 0.1 0.049s0.096 0.014 0.111 0.055c0.012 0.027 0.020 0.242 0.020 0.477s0.008 0.432 0.018 0.438c0.010 0.006 0.023 0.033 0.029 0.063 0.014 0.053 0.104 0.143 0.145 0.145 0.012 0 0.023 0.008 0.023 0.018 0 0.023 0.166 0.039 0.287 0.027 0.072-0.008 0.119-0.025 0.154-0.057 0.027-0.025 0.057-0.047 0.068-0.047 0.010 0 0.018-0.014 0.018-0.029 0-0.018 0.014-0.051 0.029-0.076 0.035-0.053 0.047-0.354 0.016-0.385-0.014-0.014-0.033-0.014-0.063 0.006-0.033 0.020-0.041 0.045-0.041 0.133 0 0.213-0.158 0.338-0.303 0.242-0.027-0.018-0.049-0.043-0.049-0.057s-0.012-0.029-0.023-0.033c-0.037-0.014-0.047-0.86-0.012-0.889 0.014-0.012 0.117-0.029 0.231-0.039l0.205-0.016 0.012-0.121-0.193-0.012c-0.275-0.014-0.277-0.016-0.277-0.32 0-0.221-0.010-0.264-0.045-0.227z"></path>
<path d="M30.326 23.457c-0.006 0.020-0.027 0.072-0.047 0.117-0.021 0.045-0.037 0.092-0.037 0.102 0 0.012-0.008 0.021-0.020 0.021-0.010 0-0.020 0.012-0.020 0.027 0 0.039-0.225 0.266-0.264 0.266-0.023 0-0.031 0.014-0.025 0.053 0.006 0.049 0.016 0.055 0.084 0.061 0.043 0.004 0.088 0.016 0.098 0.025 0.012 0.012 0.023 0.213 0.029 0.483 0.010 0.445 0.012 0.465 0.057 0.537 0.025 0.041 0.082 0.098 0.127 0.125 0.068 0.045 0.1 0.051 0.24 0.051 0.119 0 0.174-0.008 0.211-0.033 0.129-0.084 0.17-0.174 0.182-0.389l0.008-0.15h-0.061c-0.059 0-0.061 0.002-0.061 0.096 0 0.246-0.203 0.381-0.35 0.234l-0.061-0.061v-0.432c0-0.238 0.008-0.443 0.016-0.455 0.020-0.029 0.15-0.055 0.275-0.051s0.178-0.021 0.178-0.082c0-0.047-0.004-0.047-0.207-0.055-0.264-0.008-0.262-0.006-0.262-0.303 0-0.209-0.002-0.221-0.039-0.221-0.021 0-0.045 0.016-0.053 0.033z"></path>
<path d="M10.487 23.945c-0.020 0.004-0.035 0.018-0.035 0.027s-0.016 0.018-0.033 0.018c-0.020 0-0.061 0.029-0.094 0.064-0.098 0.109-0.164 0.109-0.166 0.002 0-0.078-0.082-0.109-0.25-0.096-0.215 0.018-0.258 0.027-0.258 0.063 0 0.047 0.061 0.082 0.139 0.084 0.057 0 0.074 0.008 0.084 0.043 0.016 0.064 0.014 0.94-0.004 0.967-0.008 0.012-0.063 0.039-0.121 0.059-0.082 0.029-0.109 0.049-0.113 0.080-0.006 0.031 0.008 0.049 0.047 0.063 0.068 0.027 0.545 0.037 0.639 0.014 0.064-0.018 0.074-0.025 0.068-0.070-0.006-0.043-0.023-0.057-0.117-0.090l-0.113-0.039v-0.352c0-0.281 0.006-0.361 0.029-0.393 0.016-0.020 0.029-0.053 0.029-0.072 0-0.057 0.059-0.143 0.119-0.178 0.039-0.023 0.105-0.033 0.215-0.037l0.16-0.002 0.063 0.072c0.035 0.041 0.068 0.102 0.076 0.135 0.006 0.033 0.012 0.225 0.012 0.428 0 0.307-0.006 0.371-0.031 0.397-0.016 0.018-0.045 0.031-0.064 0.031-0.070 0-0.139 0.047-0.139 0.098 0 0.078 0.074 0.098 0.371 0.096 0.301-0.002 0.371-0.021 0.371-0.098 0-0.055-0.043-0.084-0.148-0.105-0.041-0.008-0.066-0.025-0.074-0.055-0.006-0.023-0.012-0.211-0.012-0.414 0-0.629-0.076-0.756-0.453-0.75-0.090 0.002-0.178 0.006-0.195 0.012z"></path>
<path d="M12.024 23.945c-0.031 0.004-0.066 0.018-0.076 0.027-0.012 0.010-0.039 0.018-0.063 0.018s-0.047 0.014-0.055 0.029c-0.006 0.016-0.023 0.029-0.037 0.029-0.016 0-0.051 0.029-0.080 0.066-0.096 0.125-0.057 0.285 0.078 0.322 0.152 0.043 0.285-0.123 0.193-0.244-0.016-0.020-0.029-0.061-0.029-0.092v-0.053h0.172c0.152 0 0.18 0.006 0.223 0.043 0.125 0.115 0.148 0.25 0.063 0.361-0.027 0.035-0.061 0.064-0.074 0.064-0.016 0-0.031 0.014-0.039 0.029-0.006 0.016-0.031 0.029-0.059 0.029-0.025 0-0.051 0.014-0.059 0.029-0.006 0.016-0.031 0.029-0.055 0.029-0.025 0-0.063 0.014-0.082 0.029-0.021 0.016-0.061 0.029-0.086 0.029s-0.059 0.014-0.074 0.029c-0.018 0.016-0.047 0.029-0.068 0.029-0.020 0-0.037 0.008-0.037 0.020 0 0.010-0.010 0.020-0.023 0.020s-0.053 0.033-0.088 0.072c-0.053 0.063-0.064 0.090-0.064 0.172 0 0.156 0.111 0.283 0.25 0.283 0.072 0 0.078-0.016 0.025-0.070-0.068-0.074-0.092-0.174-0.064-0.275 0.029-0.109 0.135-0.221 0.207-0.221 0.025 0 0.061-0.014 0.078-0.029 0.016-0.016 0.059-0.029 0.096-0.029 0.039 0 0.096-0.016 0.129-0.033 0.031-0.020 0.064-0.027 0.074-0.020 0.008 0.010 0.018 0.082 0.021 0.16 0.008 0.125 0.002 0.154-0.037 0.219-0.051 0.084-0.164 0.201-0.193 0.201-0.012 0-0.020 0.008-0.020 0.020 0 0.010 0.008 0.020 0.018 0.020 0.029 0 0.147-0.066 0.164-0.094 0.029-0.045 0.111-0.025 0.182 0.045 0.037 0.037 0.076 0.068 0.086 0.068 0.012 0 0.020 0.008 0.020 0.020s0.072 0.020 0.178 0.020c0.133 0 0.191-0.008 0.234-0.033 0.031-0.020 0.057-0.041 0.057-0.051s0.014-0.029 0.029-0.045c0.016-0.018 0.029-0.051 0.029-0.074 0-0.025 0.010-0.072 0.021-0.107 0.023-0.066 0.014-0.129-0.027-0.186-0.027-0.037-0.029-0.037-0.059 0.021-0.018 0.031-0.037 0.104-0.045 0.158-0.010 0.074-0.023 0.107-0.059 0.131-0.064 0.041-0.131 0.037-0.188-0.016-0.049-0.041-0.051-0.051-0.063-0.393-0.020-0.535-0.053-0.637-0.238-0.725-0.109-0.051-0.346-0.078-0.486-0.055z"></path>
<path d="M13.783 23.939c-0.010 0.004-0.059 0.018-0.107 0.033-0.049 0.014-0.102 0.035-0.117 0.047-0.016 0.014-0.043 0.027-0.059 0.033s-0.051 0.053-0.076 0.104c-0.061 0.119-0.051 0.252 0.025 0.352 0.029 0.037 0.064 0.068 0.078 0.068 0.016 0 0.031 0.014 0.039 0.029 0.006 0.016 0.031 0.029 0.057 0.029 0.027 0 0.059 0.014 0.072 0.029s0.043 0.029 0.066 0.029c0.023 0 0.061 0.014 0.082 0.029 0.020 0.016 0.070 0.029 0.111 0.029 0.039 0 0.072 0.008 0.072 0.020 0 0.010 0.016 0.020 0.035 0.020 0.021 0 0.063 0.021 0.092 0.047 0.045 0.039 0.055 0.064 0.057 0.137 0.002 0.107-0.035 0.148-0.182 0.197-0.102 0.033-0.156 0.031-0.303-0.006-0.096-0.025-0.109-0.049-0.096-0.16 0.014-0.109-0.023-0.156-0.121-0.156-0.072 0-0.166 0.078-0.166 0.139 0 0.104 0.123 0.258 0.225 0.283 0.027 0.006 0.055 0.020 0.061 0.029s0.131 0.018 0.279 0.018c0.213 0 0.283-0.008 0.336-0.033 0.037-0.018 0.070-0.037 0.076-0.043s0.027-0.021 0.049-0.033c0.021-0.012 0.049-0.041 0.061-0.064 0.014-0.025 0.033-0.055 0.045-0.066 0.033-0.033 0.027-0.279-0.008-0.315-0.016-0.016-0.029-0.035-0.029-0.043 0-0.021-0.127-0.131-0.195-0.17-0.033-0.018-0.082-0.033-0.105-0.033s-0.061-0.014-0.082-0.029c-0.020-0.016-0.055-0.029-0.078-0.029-0.021 0-0.084-0.014-0.137-0.031-0.203-0.068-0.262-0.199-0.141-0.318 0.061-0.061 0.064-0.061 0.258-0.061 0.166 0.002 0.205 0.008 0.242 0.039 0.041 0.035 0.045 0.049 0.033 0.137s-0.008 0.104 0.031 0.137c0.055 0.049 0.086 0.049 0.166-0.002 0.055-0.033 0.066-0.053 0.066-0.109 0-0.188-0.172-0.289-0.52-0.309-0.096-0.006-0.182-0.006-0.193-0.002z"></path>
<path d="M16.459 23.945c-0.031 0.006-0.066 0.018-0.076 0.027-0.012 0.010-0.031 0.018-0.043 0.018-0.053 0-0.162 0.092-0.201 0.168-0.055 0.107-0.051 0.156 0.016 0.225 0.066 0.066 0.168 0.076 0.246 0.025 0.041-0.027 0.049-0.047 0.049-0.137 0-0.059-0.008-0.105-0.018-0.105-0.027 0-0.039-0.072-0.016-0.096 0.012-0.012 0.090-0.021 0.174-0.021 0.127 0 0.164 0.008 0.211 0.043 0.033 0.023 0.059 0.053 0.059 0.066 0 0.012 0.014 0.033 0.029 0.047 0.049 0.039 0.037 0.168-0.021 0.246-0.029 0.037-0.064 0.066-0.078 0.066-0.016 0-0.027 0.008-0.027 0.018 0 0.025-0.158 0.1-0.211 0.1-0.023 0-0.043 0.008-0.043 0.020 0 0.010-0.035 0.025-0.078 0.031-0.043 0.008-0.088 0.025-0.1 0.039-0.012 0.016-0.035 0.027-0.051 0.027-0.031 0-0.148 0.076-0.158 0.102-0.004 0.010-0.021 0.031-0.039 0.047-0.043 0.045-0.041 0.199 0.004 0.285 0.059 0.109 0.141 0.141 0.348 0.139 0.098-0.002 0.184-0.012 0.189-0.021s0.029-0.023 0.051-0.031c0.021-0.006 0.063-0.033 0.092-0.059 0.088-0.084 0.139-0.084 0.213-0.004 0.035 0.039 0.074 0.070 0.088 0.070s0.027 0.010 0.031 0.021c0.004 0.014 0.072 0.021 0.191 0.021s0.188-0.008 0.191-0.021c0.004-0.012 0.020-0.021 0.033-0.021 0.041 0 0.084-0.086 0.117-0.232 0.027-0.117 0.027-0.147 0.006-0.191-0.043-0.092-0.082-0.068-0.105 0.063-0.039 0.217-0.041 0.223-0.115 0.236-0.193 0.035-0.225-0.031-0.225-0.492 0-0.324-0.014-0.436-0.063-0.516-0.008-0.016-0.021-0.045-0.027-0.064-0.008-0.018-0.023-0.033-0.037-0.033s-0.029-0.012-0.035-0.027c-0.006-0.014-0.035-0.031-0.066-0.037-0.029-0.006-0.090-0.020-0.133-0.031-0.076-0.020-0.256-0.023-0.371-0.008zM16.887 24.666c0.041 0.039 0.039 0.148-0.002 0.238-0.037 0.084-0.139 0.199-0.174 0.199-0.014 0-0.027 0.010-0.031 0.023-0.010 0.029-0.268 0.045-0.305 0.020-0.045-0.031-0.053-0.168-0.012-0.236 0.020-0.033 0.047-0.061 0.061-0.061s0.025-0.006 0.025-0.016c0-0.008 0.041-0.035 0.094-0.059 0.162-0.080 0.199-0.104 0.199-0.123 0-0.029 0.111-0.020 0.145 0.014z"></path>
<path d="M18.198 23.945c-0.031 0.006-0.066 0.018-0.076 0.027-0.012 0.010-0.031 0.018-0.047 0.018-0.039 0-0.18 0.115-0.18 0.147 0 0.014-0.012 0.029-0.023 0.033-0.018 0.006-0.025 0.053-0.025 0.143s0.008 0.137 0.025 0.141c0.012 0.006 0.023 0.021 0.023 0.035 0 0.031 0.141 0.147 0.182 0.147 0.016 0 0.039 0.014 0.053 0.029s0.053 0.029 0.088 0.029c0.035 0 0.074 0.014 0.088 0.029s0.055 0.029 0.090 0.029c0.037 0 0.082 0.008 0.102 0.018 0.018 0.010 0.059 0.027 0.088 0.039 0.031 0.012 0.061 0.039 0.066 0.061s0.018 0.039 0.027 0.039c0.010 0 0.018 0.029 0.018 0.066 0 0.078-0.090 0.188-0.152 0.188-0.023 0-0.047 0.008-0.053 0.020-0.031 0.049-0.375-0.002-0.412-0.063-0.008-0.012-0.002-0.055 0.012-0.096 0.021-0.063 0.021-0.086 0-0.123-0.049-0.094-0.215-0.074-0.252 0.031-0.025 0.072-0.006 0.211 0.029 0.225 0.016 0.006 0.027 0.021 0.027 0.037s0.014 0.027 0.029 0.027c0.016 0 0.029 0.008 0.029 0.020 0 0.010 0.012 0.020 0.025 0.020 0.012 0 0.051 0.014 0.082 0.031 0.094 0.051 0.537 0.047 0.654-0.006 0.303-0.135 0.342-0.483 0.074-0.68-0.066-0.051-0.25-0.121-0.387-0.148-0.047-0.010-0.096-0.027-0.105-0.037-0.012-0.012-0.037-0.020-0.059-0.020-0.043 0-0.148-0.109-0.148-0.156 0-0.041 0.045-0.137 0.064-0.137 0.010 0 0.029-0.014 0.045-0.029 0.023-0.021 0.078-0.029 0.225-0.029 0.24 0 0.272 0.021 0.272 0.184 0 0.164 0.076 0.213 0.195 0.125 0.049-0.035 0.059-0.057 0.059-0.125 0-0.072-0.012-0.096-0.074-0.16-0.041-0.043-0.102-0.082-0.133-0.088-0.211-0.043-0.264-0.051-0.369-0.049-0.064 0.002-0.143 0.006-0.176 0.010z"></path>
<path d="M19.259 23.947c-0.021 0.004-0.035 0.025-0.035 0.055 0 0.037 0.016 0.057 0.068 0.078 0.037 0.014 0.088 0.027 0.115 0.027 0.098 0 0.109 0.057 0.109 0.51 0 0.488-0.012 0.533-0.141 0.553-0.109 0.018-0.152 0.045-0.152 0.096 0 0.074 0.078 0.092 0.401 0.092 0.313 0 0.381-0.018 0.381-0.098 0-0.049-0.072-0.098-0.141-0.098-0.039 0-0.061-0.014-0.072-0.045-0.010-0.023-0.020-0.291-0.025-0.596-0.006-0.303-0.016-0.557-0.023-0.565-0.014-0.014-0.428-0.023-0.485-0.010z"></path>
<path d="M20.64 23.953c-0.043 0.010-0.104 0.025-0.133 0.031-0.031 0.006-0.061 0.023-0.066 0.037-0.006 0.016-0.018 0.027-0.027 0.027-0.047 0-0.154 0.164-0.154 0.232 0 0.023 0.014 0.047 0.029 0.053 0.016 0.008 0.029 0.023 0.029 0.035 0 0.035 0.088 0.076 0.156 0.074 0.072-0.002 0.156-0.082 0.156-0.148 0-0.025-0.014-0.084-0.029-0.129s-0.023-0.090-0.018-0.1c0.006-0.010 0.094-0.018 0.195-0.018 0.15 0 0.184 0.006 0.184 0.029 0 0.016 0.014 0.029 0.029 0.029s0.029 0.012 0.029 0.027c0 0.016 0.012 0.031 0.025 0.035 0.016 0.006 0.023 0.053 0.023 0.143s-0.008 0.137-0.023 0.141c-0.014 0.006-0.025 0.021-0.025 0.035s-0.016 0.029-0.033 0.037c-0.020 0.006-0.049 0.018-0.064 0.027-0.086 0.051-0.156 0.082-0.189 0.082-0.020 0-0.053 0.014-0.072 0.029-0.021 0.016-0.059 0.029-0.082 0.029-0.025 0-0.057 0.012-0.070 0.025-0.014 0.016-0.047 0.031-0.074 0.039-0.063 0.016-0.158 0.105-0.189 0.176-0.053 0.113-0.012 0.273 0.086 0.342 0.051 0.035 0.172 0.068 0.24 0.064 0.131-0.004 0.332-0.066 0.332-0.104 0-0.008 0.012-0.016 0.025-0.016 0.016 0 0.043-0.018 0.063-0.039 0.053-0.059 0.088-0.049 0.191 0.053l0.096 0.090 0.172 0.002c0.156 0 0.176-0.004 0.24-0.053 0.041-0.031 0.074-0.076 0.082-0.111 0.008-0.031 0.021-0.063 0.031-0.068 0.010-0.008 0.018-0.078 0.018-0.158v-0.147l-0.053 0.006c-0.053 0.006-0.055 0.012-0.061 0.127-0.004 0.074-0.016 0.129-0.033 0.143-0.016 0.014-0.029 0.035-0.029 0.049 0 0.033-0.096 0.055-0.16 0.039-0.090-0.023-0.109-0.115-0.117-0.537-0.006-0.291-0.016-0.393-0.037-0.43-0.063-0.105-0.086-0.137-0.107-0.137-0.014 0-0.027-0.014-0.035-0.029-0.006-0.016-0.031-0.029-0.057-0.029s-0.053-0.008-0.064-0.020c-0.027-0.027-0.336-0.041-0.428-0.018zM21.072 24.705c0.021 0.119-0.031 0.32-0.084 0.32-0.014 0-0.025 0.012-0.025 0.023 0 0.045-0.191 0.123-0.297 0.123-0.078 0-0.104-0.010-0.135-0.047-0.1-0.123 0.006-0.283 0.256-0.381 0.049-0.020 0.107-0.059 0.123-0.086 0.008-0.012 0.045-0.023 0.082-0.023 0.061 0 0.068 0.006 0.080 0.070z"></path>
<path d="M25.534 23.945c-0.027 0.004-0.057 0.018-0.066 0.027-0.012 0.010-0.039 0.018-0.063 0.018s-0.047 0.014-0.055 0.029c-0.006 0.016-0.021 0.029-0.037 0.029-0.031 0-0.15 0.119-0.15 0.152 0 0.014-0.008 0.023-0.016 0.023-0.041 0-0.141 0.293-0.141 0.412 0 0.15 0.094 0.397 0.189 0.496 0.147 0.154 0.248 0.191 0.502 0.191 0.205-0.002 0.197 0 0.402-0.107 0.059-0.031 0.117-0.088 0.117-0.113 0-0.012 0.008-0.020 0.018-0.020s0.037-0.041 0.061-0.094c0.023-0.051 0.053-0.111 0.064-0.135 0.025-0.057 0.027-0.383 0-0.442-0.012-0.023-0.033-0.072-0.047-0.107-0.029-0.080-0.193-0.258-0.238-0.258-0.018 0-0.033-0.014-0.033-0.029 0-0.020-0.020-0.029-0.057-0.029-0.031 0-0.061-0.010-0.064-0.020-0.008-0.023-0.309-0.043-0.387-0.025zM25.913 24.145c0.070 0.047 0.129 0.135 0.129 0.197 0 0.027 0.014 0.066 0.029 0.086 0.039 0.053 0.039 0.354 0 0.422-0.016 0.027-0.027 0.068-0.029 0.092 0 0.023-0.014 0.055-0.029 0.072-0.016 0.016-0.029 0.037-0.029 0.049s-0.010 0.021-0.020 0.021c-0.012 0-0.047 0.018-0.076 0.041-0.115 0.086-0.393 0.039-0.467-0.078-0.018-0.027-0.037-0.055-0.045-0.061-0.039-0.033-0.078-0.238-0.070-0.373 0.010-0.156 0.049-0.33 0.076-0.33 0.008 0 0.016-0.012 0.016-0.023 0-0.014 0.029-0.053 0.064-0.086 0.061-0.061 0.070-0.063 0.229-0.064 0.133-0.002 0.178 0.006 0.223 0.035z"></path>
<path d="M27.382 23.959c-0.029 0.018-0.068 0.031-0.082 0.031-0.016 0-0.033 0.014-0.039 0.029-0.008 0.016-0.023 0.029-0.037 0.029s-0.029 0.018-0.035 0.039c-0.018 0.072-0.084 0.047-0.131-0.049l-0.043-0.090-0.246 0.006c-0.219 0.006-0.248 0.010-0.254 0.041-0.010 0.049 0.072 0.109 0.147 0.111 0.125 0 0.123-0.016 0.123 0.801v0.738l-0.053 0.020c-0.031 0.010-0.090 0.031-0.133 0.047-0.061 0.021-0.080 0.037-0.084 0.078-0.006 0.045 0.004 0.053 0.082 0.072 0.049 0.012 0.217 0.021 0.373 0.021 0.248 0 0.293-0.004 0.332-0.035 0.041-0.031 0.043-0.043 0.023-0.084-0.018-0.031-0.047-0.051-0.092-0.059-0.164-0.027-0.176-0.043-0.176-0.244 0-0.186 0.016-0.242 0.068-0.242 0.047 0 0.166 0.055 0.189 0.088 0.008 0.010 0.088 0.018 0.182 0.016 0.18 0 0.27-0.031 0.358-0.123 0.066-0.068 0.141-0.188 0.141-0.229 0-0.020 0.014-0.053 0.029-0.072 0.043-0.057 0.041-0.524 0-0.559-0.016-0.014-0.029-0.045-0.029-0.070s-0.008-0.047-0.020-0.047c-0.010 0-0.020-0.012-0.020-0.025 0-0.037-0.141-0.18-0.213-0.215-0.1-0.049-0.291-0.063-0.361-0.025zM27.573 24.137c0.016 0.016 0.035 0.029 0.043 0.029 0.021 0 0.063 0.059 0.111 0.156 0.039 0.078 0.043 0.117 0.041 0.342-0.002 0.26-0.006 0.275-0.096 0.408-0.061 0.092-0.313 0.172-0.352 0.111-0.006-0.010-0.035-0.023-0.064-0.031-0.037-0.008-0.076-0.043-0.121-0.113l-0.066-0.102-0.002-0.264c0-0.221 0.006-0.279 0.039-0.356 0.021-0.053 0.045-0.094 0.055-0.094 0.008 0 0.014-0.014 0.014-0.029s0.014-0.029 0.029-0.029c0.018 0 0.035-0.014 0.041-0.029 0.010-0.021 0.045-0.029 0.154-0.029 0.102 0 0.152 0.008 0.174 0.029z"></path>
<path d="M28.894 23.951c-0.037 0.010-0.094 0.023-0.123 0.031-0.094 0.021-0.244 0.162-0.322 0.299-0.043 0.074-0.102 0.281-0.102 0.363 0 0.074 0.045 0.242 0.080 0.303 0.010 0.016 0.027 0.053 0.039 0.082 0.012 0.031 0.029 0.055 0.039 0.055s0.018 0.008 0.018 0.020c0 0.035 0.082 0.102 0.193 0.158 0.102 0.051 0.127 0.057 0.328 0.057 0.125 0 0.223-0.008 0.231-0.020 0.006-0.012 0.023-0.020 0.039-0.020 0.033 0 0.186-0.1 0.186-0.121 0-0.008 0.014-0.016 0.029-0.016s0.029-0.014 0.029-0.029c0-0.016 0.008-0.029 0.018-0.029s0.025-0.020 0.033-0.045c0.006-0.023 0.023-0.057 0.037-0.072 0.012-0.016 0.039-0.098 0.057-0.18 0.033-0.143 0.033-0.156 0-0.309-0.018-0.088-0.045-0.172-0.061-0.186-0.014-0.016-0.025-0.035-0.025-0.045 0-0.031-0.172-0.199-0.203-0.199-0.014 0-0.031-0.014-0.039-0.029-0.006-0.016-0.029-0.029-0.051-0.029-0.023 0-0.057-0.008-0.076-0.020-0.051-0.027-0.275-0.039-0.354-0.020zM29.226 24.123c0 0.010 0.021 0.027 0.047 0.043 0.027 0.014 0.053 0.045 0.059 0.070 0.008 0.025 0.021 0.047 0.031 0.047 0.012 0 0.020 0.023 0.020 0.053 0.002 0.031 0.014 0.076 0.029 0.104 0.039 0.066 0.039 0.324 0 0.399-0.016 0.029-0.029 0.072-0.029 0.094 0 0.076-0.131 0.199-0.244 0.229-0.147 0.037-0.358-0.025-0.389-0.115-0.006-0.016-0.018-0.043-0.027-0.059-0.072-0.125-0.082-0.168-0.082-0.336 0-0.217 0.051-0.379 0.152-0.477 0.068-0.066 0.070-0.066 0.252-0.066 0.1 0 0.182 0.008 0.182 0.016z"></path>
<path d="M31.215 23.943c-0.049 0.016-0.047 0.117 0.002 0.145 0.021 0.010 0.070 0.020 0.107 0.020 0.047 0 0.074 0.012 0.088 0.035 0.027 0.051 0.031 0.899 0.004 0.965-0.016 0.041-0.033 0.055-0.076 0.055-0.092 0-0.16 0.043-0.16 0.1 0 0.086 0.055 0.098 0.41 0.092l0.322-0.006 0.006-0.070c0.006-0.064 0-0.072-0.059-0.094-0.035-0.014-0.084-0.033-0.107-0.043l-0.045-0.018v-0.561c0-0.32-0.008-0.574-0.020-0.592-0.014-0.023-0.064-0.029-0.229-0.033-0.115-0.002-0.227 0.002-0.244 0.006z"></path>
<path d="M32.016 23.943c-0.047 0.014-0.045 0.076 0.004 0.125 0.025 0.025 0.064 0.039 0.113 0.039 0.088 0 0.115 0.025 0.178 0.166 0.023 0.053 0.053 0.113 0.063 0.131 0.010 0.020 0.018 0.053 0.018 0.074s0.008 0.039 0.020 0.039c0.010 0 0.025 0.035 0.031 0.078 0.008 0.043 0.025 0.088 0.039 0.1 0.016 0.012 0.027 0.043 0.027 0.066s0.014 0.055 0.029 0.068c0.016 0.014 0.029 0.039 0.029 0.057 0 0.020 0.014 0.051 0.029 0.072 0.016 0.020 0.029 0.053 0.029 0.072 0 0.018 0.008 0.049 0.020 0.068 0.068 0.127 0.088 0.197 0.086 0.326-0.002 0.086-0.014 0.158-0.035 0.195-0.018 0.031-0.031 0.070-0.031 0.082 0 0.014-0.008 0.025-0.020 0.025-0.010 0-0.020 0.012-0.020 0.025s-0.031 0.055-0.070 0.088c-0.053 0.047-0.088 0.063-0.147 0.063h-0.076v-0.145c0-0.174-0.023-0.207-0.145-0.207s-0.158 0.047-0.154 0.199c0.002 0.105 0.008 0.123 0.059 0.164 0.029 0.025 0.070 0.045 0.088 0.047 0.018 0 0.035 0.010 0.039 0.023 0.006 0.016 0.064 0.027 0.16 0.031 0.129 0.008 0.168 0.002 0.24-0.035 0.090-0.045 0.24-0.186 0.24-0.227 0-0.014 0.006-0.027 0.016-0.031 0.023-0.010 0.102-0.182 0.102-0.225 0-0.020 0.008-0.045 0.016-0.057 0.010-0.010 0.039-0.074 0.063-0.145 0.025-0.070 0.059-0.148 0.072-0.176s0.025-0.064 0.025-0.082c0-0.018 0.010-0.039 0.020-0.045 0.012-0.006 0.020-0.037 0.020-0.066s0.014-0.070 0.029-0.092c0.016-0.020 0.029-0.057 0.029-0.080s0.012-0.066 0.027-0.098c0.061-0.125 0.088-0.195 0.1-0.256 0.008-0.033 0.022-0.063 0.031-0.063s0.018-0.023 0.018-0.051c0-0.084 0.072-0.184 0.133-0.184 0.029-0.002 0.072-0.018 0.098-0.039 0.039-0.031 0.041-0.043 0.020-0.076-0.022-0.035-0.049-0.039-0.27-0.045-0.135-0.004-0.26-0.002-0.277 0.002-0.074 0.016-0.055 0.158 0.022 0.158 0.049 0 0.1 0.082 0.086 0.135-0.006 0.021-0.018 0.041-0.027 0.041s-0.018 0.025-0.018 0.057c0 0.033-0.008 0.064-0.020 0.070-0.010 0.006-0.020 0.029-0.020 0.051 0 0.020-0.018 0.088-0.037 0.148-0.020 0.063-0.049 0.156-0.063 0.207-0.039 0.137-0.104 0.197-0.166 0.154-0.012-0.008-0.047-0.084-0.076-0.17-0.064-0.189-0.141-0.397-0.164-0.449-0.055-0.117-0.041-0.244 0.025-0.244 0.037 0 0.109-0.059 0.109-0.090 0-0.049-0.070-0.063-0.391-0.072-0.188-0.006-0.358-0.006-0.375-0.002z"></path>
<path d="M16.5 27.872c-0.053 0.004-0.107 0.020-0.121 0.035-0.023 0.021-0.027 0.119-0.023 0.512 0.006 0.453 0.008 0.485 0.043 0.49 0.061 0.012 0.080-0.031 0.090-0.211 0.006-0.096 0.018-0.18 0.025-0.188 0.020-0.021 0.199-0.033 0.275-0.020l0.070 0.014v0.174c0 0.176 0.021 0.234 0.086 0.234 0.057 0 0.070-0.1 0.070-0.533-0.002-0.352-0.006-0.442-0.029-0.473-0.025-0.031-0.057-0.037-0.211-0.041-0.098-0.002-0.223 0-0.275 0.006zM16.85 28.181v0.137l-0.338 0.012-0.008-0.068c-0.004-0.035-0.004-0.104 0-0.147l0.008-0.082 0.338 0.012v0.137z"></path>
<path d="M26.624 27.876c-0.115 0.006-0.217 0.020-0.229 0.031-0.025 0.025-0.035 0.961-0.012 0.985 0.021 0.021 0.137 0.027 0.395 0.023 0.135-0.002 0.188-0.010 0.209-0.033 0.045-0.043 0.047-0.965 0.004-0.965-0.016 0-0.031-0.008-0.035-0.018-0.010-0.027-0.111-0.035-0.332-0.023zM26.858 28.087c0.016 0.035 0.023 0.15 0.023 0.332 0 0.361-0.008 0.377-0.195 0.377-0.197 0-0.195 0.006-0.195-0.399 0-0.186 0.006-0.344 0.014-0.35 0.006-0.008 0.084-0.014 0.17-0.014 0.152 0 0.158 0.002 0.184 0.053z"></path>
<path d="M27.669 27.874c-0.035 0.004-0.066 0.020-0.074 0.039-0.020 0.051-0.012 0.967 0.008 0.987 0.010 0.010 0.088 0.016 0.172 0.012 0.115-0.006 0.164-0.018 0.189-0.043 0.041-0.041 0.090-0.043 0.090-0.004 0 0.016 0.006 0.029 0.016 0.029 0.008 0 0.033 0.006 0.055 0.012 0.059 0.016 0.086-0.074 0.086-0.287 0-0.191-0.023-0.264-0.088-0.279-0.072-0.018-0.164 0.008-0.178 0.051-0.012 0.041 0.039 0.113 0.082 0.113 0.033 0 0.053 0.104 0.037 0.207l-0.012 0.086h-0.145c-0.209 0-0.205 0.008-0.205-0.401 0-0.203 0.008-0.344 0.020-0.352 0.010-0.006 0.105-0.014 0.209-0.016 0.105-0.002 0.203-0.012 0.217-0.020 0.035-0.023 0.029-0.088-0.010-0.109-0.037-0.018-0.358-0.035-0.469-0.025z"></path>
<path d="M12.802 27.897c-0.055 0.023-0.059 0.078-0.006 0.078 0.021 0 0.074 0.016 0.117 0.033l0.078 0.035v0.401c0 0.221 0.008 0.41 0.016 0.424 0.008 0.012 0.031 0.025 0.053 0.029 0.037 0.006 0.039-0.008 0.049-0.408 0.006-0.238 0.018-0.422 0.029-0.432s0.057-0.027 0.104-0.041c0.092-0.025 0.119-0.064 0.082-0.109-0.020-0.023-0.072-0.029-0.252-0.027-0.125 0-0.246 0.008-0.27 0.018z"></path>
<path d="M13.986 27.915c-0.047 0.037-0.047 0.041-0.053 0.485-0.004 0.363 0 0.453 0.021 0.485 0.025 0.033 0.035 0.035 0.080 0.014 0.049-0.021 0.051-0.027 0.051-0.207 0-0.178 0.002-0.184 0.047-0.195 0.092-0.023 0.186 0.053 0.188 0.147 0 0.029 0.014 0.063 0.029 0.076s0.029 0.039 0.029 0.057c0.002 0.043 0.061 0.111 0.113 0.127 0.057 0.020 0.076-0.031 0.039-0.092-0.016-0.023-0.035-0.066-0.043-0.098-0.006-0.029-0.021-0.053-0.031-0.053-0.012 0-0.020-0.035-0.020-0.078s0.010-0.078 0.020-0.078c0.012 0 0.047-0.020 0.078-0.043l0.059-0.043v-0.242c0-0.209-0.004-0.248-0.033-0.27-0.025-0.018-0.107-0.025-0.281-0.027-0.215 0-0.254 0.006-0.293 0.037zM14.447 28.105c0.006 0.039 0.008 0.104 0 0.145l-0.012 0.072-0.125 0.014c-0.068 0.006-0.145 0.004-0.174-0.008-0.049-0.018-0.051-0.025-0.051-0.156v-0.137h0.348l0.014 0.070z"></path>
<path d="M15.191 27.909c-0.018 0.016-0.031 0.049-0.031 0.072-0.006 0.248 0.004 0.83 0.014 0.875l0.012 0.057h0.18c0.246 0 0.424-0.020 0.414-0.047-0.004-0.012-0.063-0.027-0.133-0.033-0.068-0.006-0.176-0.021-0.236-0.035l-0.113-0.023v-0.135c0-0.133 0-0.133 0.059-0.147 0.033-0.008 0.059-0.021 0.059-0.031s0.039-0.018 0.088-0.018c0.064 0 0.088-0.008 0.088-0.029 0-0.037-0.061-0.068-0.135-0.068-0.031 0-0.080-0.008-0.109-0.020-0.049-0.018-0.051-0.025-0.045-0.148l0.006-0.131 0.098-0.025c0.055-0.014 0.147-0.025 0.205-0.023 0.125 0.004 0.195-0.016 0.195-0.051 0-0.047-0.102-0.066-0.346-0.068-0.191-0.002-0.242 0.004-0.268 0.029z"></path>
<path d="M17.608 27.907c-0.014 0.016-0.025 0.035-0.025 0.045 0 0.021 0.141 0.082 0.186 0.082 0.014 0 0.033 0.012 0.043 0.023 0.008 0.014 0.020 0.209 0.025 0.436l0.010 0.41h0.098l0.020-0.856 0.094-0.023c0.117-0.029 0.148-0.057 0.119-0.104-0.020-0.027-0.061-0.033-0.283-0.037-0.207-0.004-0.268 0-0.285 0.023z"></path>
<path d="M18.809 27.899c-0.031 0.018-0.035 0.064-0.035 0.516v0.498h0.047c0.027 0 0.055-0.010 0.063-0.023 0.008-0.012 0.020-0.154 0.027-0.316s0.021-0.311 0.029-0.33c0.021-0.051 0.049-0.039 0.049 0.023 0 0.031 0.014 0.066 0.029 0.080s0.029 0.049 0.029 0.078c0 0.029 0.014 0.064 0.029 0.078s0.029 0.053 0.029 0.086c0 0.035 0.014 0.080 0.029 0.102 0.016 0.020 0.029 0.068 0.029 0.107 0 0.133 0.154 0.172 0.207 0.055 0.045-0.098 0.072-0.186 0.082-0.262 0.004-0.043 0.018-0.084 0.029-0.090 0.010-0.008 0.023-0.059 0.029-0.115 0.006-0.061 0.020-0.105 0.035-0.111s0.027-0.021 0.027-0.037c0-0.016 0.014-0.027 0.029-0.027 0.025 0 0.029 0.047 0.029 0.297 0 0.164 0.006 0.318 0.012 0.342 0.014 0.049 0.057 0.070 0.107 0.055 0.035-0.012 0.037-0.041 0.037-0.49 0-0.389-0.006-0.485-0.027-0.508-0.031-0.031-0.188-0.037-0.188-0.008 0 0.010-0.014 0.020-0.029 0.020-0.018 0-0.029 0.020-0.029 0.051 0 0.027-0.014 0.063-0.029 0.078-0.016 0.018-0.029 0.059-0.029 0.092 0 0.035-0.014 0.088-0.029 0.119-0.016 0.029-0.029 0.078-0.029 0.105 0 0.080-0.094 0.262-0.133 0.254-0.018-0.004-0.037-0.027-0.039-0.055-0.004-0.025-0.020-0.064-0.035-0.086s-0.027-0.068-0.027-0.102c0-0.033-0.014-0.088-0.029-0.117-0.016-0.031-0.029-0.078-0.029-0.105-0.002-0.027-0.014-0.070-0.029-0.098s-0.027-0.068-0.029-0.092c0-0.023-0.018-0.053-0.037-0.064-0.049-0.025-0.158-0.025-0.201 0.002z"></path>
<path d="M20.362 27.905c-0.045 0.021-0.045 0.023-0.045 0.504 0 0.459 0.002 0.485 0.037 0.504 0.045 0.023 0.588 0.004 0.631-0.021 0.020-0.014 0.020-0.023-0.008-0.049-0.021-0.021-0.070-0.033-0.147-0.035-0.34-0.012-0.318-0.008-0.338-0.061-0.010-0.025-0.012-0.092-0.006-0.145l0.012-0.098 0.143-0.033c0.152-0.033 0.172-0.045 0.152-0.092-0.008-0.020-0.055-0.033-0.156-0.043l-0.145-0.014v-0.289l0.074-0.004c0.039-0.002 0.139-0.004 0.221-0.006 0.111 0 0.156-0.008 0.18-0.033 0.041-0.039 0.041-0.049 0.006-0.086-0.035-0.033-0.543-0.035-0.611 0z"></path>
<path d="M21.564 27.915c-0.031 0.031-0.035 0.084-0.035 0.504v0.471l0.045 0.012c0.023 0.006 0.049 0.012 0.059 0.012 0.008 0 0.014-0.105 0.014-0.234 0-0.174 0.008-0.252 0.029-0.293 0.031-0.061 0.088-0.080 0.088-0.029 0 0.016 0.014 0.029 0.029 0.029 0.020 0 0.029 0.020 0.029 0.059 0 0.031 0.010 0.059 0.020 0.059 0.012 0 0.020 0.010 0.020 0.023 0 0.023 0.053 0.15 0.107 0.256 0.016 0.031 0.029 0.068 0.029 0.084 0 0.029 0.074 0.055 0.131 0.043 0.033-0.006 0.035-0.037 0.035-0.504v-0.498l-0.053-0.006-0.055-0.006v0.27c0 0.148-0.008 0.281-0.018 0.297-0.021 0.033-0.1-0.004-0.1-0.047 0-0.016-0.008-0.029-0.020-0.029-0.010 0-0.029-0.039-0.041-0.088s-0.029-0.094-0.039-0.1c-0.010-0.006-0.018-0.027-0.018-0.049s-0.014-0.053-0.029-0.068c-0.016-0.018-0.029-0.045-0.029-0.063 0-0.045-0.092-0.141-0.133-0.139-0.018 0-0.049 0.016-0.066 0.035z"></path>
<path d="M22.818 27.895c-0.027 0.008-0.051 0.029-0.055 0.047-0.006 0.025 0.008 0.033 0.059 0.033 0.039 0 0.088 0.020 0.123 0.047l0.059 0.047-0.006 0.354c-0.008 0.373 0.008 0.471 0.078 0.471 0.066 0 0.078-0.072 0.074-0.408-0.008-0.471-0.012-0.443 0.063-0.459 0.154-0.031 0.213-0.086 0.135-0.129-0.043-0.021-0.451-0.023-0.529-0.002z"></path>
<path d="M23.988 27.911c-0.021 0.025-0.027 0.133-0.027 0.506 0 0.26 0.008 0.481 0.016 0.49 0.018 0.016 0.576 0.010 0.604-0.006 0.010-0.006 0.016-0.229 0.016-0.496 0-0.461-0.002-0.488-0.037-0.508-0.021-0.010-0.152-0.020-0.291-0.020-0.211 0-0.258 0.006-0.279 0.033zM24.455 28.042c0.008 0.008 0.016 0.166 0.020 0.352 0.008 0.408 0.012 0.402-0.199 0.402-0.084 0-0.15-0.010-0.164-0.023-0.016-0.016-0.023-0.127-0.023-0.371 0-0.344 0-0.35 0.045-0.367 0.047-0.021 0.299-0.014 0.322 0.008z"></path>
<path d="M25.174 27.909c-0.006 0.018-0.012 0.236-0.012 0.486s0.006 0.469 0.012 0.486c0.010 0.027 0.053 0.031 0.27 0.031 0.256 0 0.344-0.010 0.344-0.039 0-0.027-0.064-0.045-0.27-0.068-0.109-0.014-0.207-0.029-0.215-0.037s-0.016-0.199-0.016-0.424c-0.004-0.377-0.006-0.412-0.039-0.438-0.049-0.037-0.061-0.035-0.074 0.002z"></path>
</symbol>
<symbol id="viber" viewBox="0 0 32 32">
<path d="M15.633 1.92c-0.873 0.005-1.748 0.058-2.63 0.165-1.688 0.208-3.36 0.553-4.965 1.29-2.553 1.173-4.362 3.162-4.888 6.055-0.223 1.22-0.402 2.457-0.505 3.703-0.197 2.418-0.075 4.843 0.61 7.225 0.54 1.878 1.535 3.565 3.277 4.66 0.737 0.462 1.71 0.688 2.217 0.922 0.143 0.067 0.178 0.108 0.185 0.117 0.008 0.008 0.027 0.025 0.025 0.175-0.018 1.53 0 4.49 0 4.49l0.002 0.637h1.143l0.185-0.18c0 0 2.902-2.793 3.953-3.942 0.19-0.205 0.287-0.32 0.307-0.332 0.018-0.012-0.012-0.020 0.182-0.025 1.377-0.027 2.752-0.080 4.127-0.155 1.813-0.1 3.66-0.273 5.438-1.015 1.547-0.648 2.84-1.705 3.622-3.29 0.8-1.625 1.227-3.348 1.387-5.13 0.265-2.967 0.172-5.94-0.648-8.87-0.483-1.718-1.453-3.17-2.94-4.195-1.78-1.225-3.788-1.685-5.753-1.978-1.148-0.17-2.303-0.282-3.462-0.317-0.29-0.008-0.58-0.012-0.873-0.010zM16.47 3.21c1.102 0.030 2.205 0.138 3.31 0.303 1.895 0.282 3.683 0.713 5.215 1.768 1.242 0.855 2.017 2.010 2.433 3.482 0.765 2.74 0.863 5.547 0.605 8.415-0.148 1.652-0.54 3.21-1.262 4.677-0.637 1.295-1.633 2.117-2.968 2.675-1.55 0.648-3.235 0.82-5.010 0.918-1.36 0.075-2.723 0.125-4.085 0.152-0.342 0.008-0.678 0.098-0.915 0.273s-0.345 0.337-0.492 0.497c-0.75 0.82-2.245 2.262-3.060 3.053-0.005-0.955-0.012-2.11 0-3.175 0.005-0.328-0.070-0.663-0.258-0.927s-0.445-0.425-0.693-0.54c-0.723-0.335-1.668-0.59-2.078-0.848-1.433-0.9-2.245-2.25-2.728-3.93-0.632-2.198-0.752-4.46-0.565-6.762 0.1-1.195 0.273-2.393 0.49-3.58 0.455-2.502 1.885-4.077 4.16-5.122 1.438-0.66 2.973-0.985 4.59-1.183 1.103-0.135 2.205-0.178 3.31-0.145zM16.74 6.4c-0.527 0-1.040 0.060-1.537 0.17-0.342 0.080-0.56 0.423-0.482 0.768s0.422 0.56 0.768 0.482c0.402-0.093 0.822-0.14 1.252-0.14 3.125 0 5.645 2.52 5.645 5.643 0 0.432-0.047 0.852-0.14 1.258-0.078 0.342 0.137 0.688 0.483 0.765s0.688-0.14 0.765-0.485c0.113-0.495 0.172-1.008 0.172-1.537 0-3.815-3.108-6.923-6.925-6.923zM10.355 7.683c-0.105-0.005-0.213 0.003-0.325 0.027-1.162 0.258-2.317 1.1-2.35 2.605 0.032 0.21 0.030 0.435 0.107 0.625 0.38 0.93 0.71 1.89 1.185 2.77 2.313 4.275 5.81 7.248 10.268 9.135 0.532 0.225 1.082 0.273 1.62 0.047 0.74-0.308 1.367-0.782 1.785-1.465 0.573-0.938 0.58-1.587-0.363-2.28-0.617-0.455-1.225-0.922-1.85-1.367-0.953-0.675-1.982-0.793-2.692 0.392-0.038 0.060-0.093 0.11-0.14 0.16-0.365 0.387-0.813 0.483-1.288 0.288-1.803-0.742-3.195-1.94-4.035-3.723-0.495-1.047-0.36-1.572 0.565-2.27 0.092-0.068 0.18-0.14 0.265-0.217 0.405-0.37 0.512-0.81 0.273-1.307-0.543-1.135-1.265-2.148-2.18-3.020-0.248-0.235-0.53-0.383-0.845-0.4zM16.73 8.32c-0.282 0-0.563 0.023-0.838 0.070-0.232 0.030-0.43 0.185-0.515 0.402-0.085 0.22-0.043 0.467 0.107 0.648 0.152 0.178 0.393 0.26 0.622 0.21 0.2-0.033 0.41-0.050 0.622-0.050 2.080 0 3.75 1.67 3.75 3.75 0 0.213-0.017 0.422-0.050 0.623-0.050 0.23 0.032 0.47 0.21 0.623 0.18 0.15 0.427 0.193 0.648 0.107 0.218-0.085 0.372-0.283 0.402-0.515 0.047-0.275 0.070-0.555 0.070-0.838 0-2.77-2.26-5.030-5.030-5.030zM16.64 10.24c-0.23-0.002-0.445 0.117-0.563 0.318-0.115 0.2-0.115 0.445 0 0.645 0.117 0.2 0.332 0.32 0.563 0.318 1.067 0 1.92 0.853 1.92 1.92-0.003 0.23 0.117 0.445 0.317 0.563 0.2 0.115 0.445 0.115 0.645 0 0.2-0.117 0.32-0.332 0.317-0.563 0-1.76-1.44-3.2-3.2-3.2z"></path>
</symbol>
<symbol id="whatsapp" viewBox="0 0 32 32">
<path d="M16.016 2.667c-7.341 0-13.318 5.971-13.32 13.313-0.001 2.347 0.613 4.638 1.779 6.656l-1.807 6.698 6.977-1.648c1.945 1.061 4.135 1.618 6.365 1.62h0.005c7.34 0 13.314-5.973 13.318-13.313 0.003-3.559-1.381-6.905-3.896-9.422-2.515-2.516-5.857-3.902-9.419-3.904zM16.013 5.333c2.848 0.001 5.524 1.112 7.536 3.122 2.012 2.013 3.117 4.689 3.115 7.534-0.003 5.872-4.779 10.648-10.654 10.648-1.777-0.001-3.538-0.448-5.089-1.294l-0.898-0.49-3.617 0.854 0.641-2.38 0.289-1.068-0.552-0.958c-0.931-1.611-1.423-3.452-1.422-5.323 0.003-5.869 4.78-10.646 10.651-10.646zM11.302 9.833c-0.223 0-0.583 0.083-0.888 0.417-0.305 0.332-1.167 1.136-1.167 2.773s1.193 3.22 1.359 3.443c0.165 0.221 2.302 3.688 5.685 5.021 2.811 1.108 3.382 0.889 3.992 0.833 0.611-0.055 1.97-0.803 2.247-1.581s0.278-1.446 0.195-1.583c-0.083-0.139-0.305-0.221-0.638-0.388-0.332-0.167-1.968-0.97-2.273-1.081s-0.529-0.167-0.75 0.167c-0.221 0.333-0.857 1.081-1.052 1.302-0.195 0.223-0.388 0.253-0.721 0.086-0.333-0.168-1.405-0.52-2.677-1.654-0.989-0.881-1.657-1.969-1.852-2.302-0.193-0.332-0.018-0.514 0.148-0.68 0.149-0.149 0.331-0.389 0.497-0.583 0.165-0.195 0.223-0.333 0.333-0.555s0.054-0.417-0.029-0.583c-0.083-0.167-0.73-1.81-1.026-2.469-0.249-0.553-0.513-0.566-0.75-0.576-0.193-0.008-0.414-0.008-0.635-0.008z"></path>
</symbol>
<symbol id="instagram" viewBox="0 0 32 32">
<path d="M10.24 1.92c-4.587 0-8.32 3.733-8.32 8.32v11.52c0 4.587 3.733 8.32 8.32 8.32h11.52c4.587 0 8.32-3.733 8.32-8.32v-11.52c0-4.587-3.733-8.32-8.32-8.32h-11.52zM10.24 3.2h11.52c3.895 0 7.040 3.145 7.040 7.040v11.52c0 3.895-3.145 7.040-7.040 7.040h-11.52c-3.895 0-7.040-3.145-7.040-7.040v-11.52c0-3.895 3.145-7.040 7.040-7.040zM23.68 7.040c-0.707 0-1.28 0.573-1.28 1.28v0c0 0.707 0.573 1.28 1.28 1.28v0c0.707 0 1.28-0.573 1.28-1.28v0c0-0.707-0.573-1.28-1.28-1.28v0zM16 8.96c-3.88 0-7.040 3.159-7.040 7.040s3.159 7.040 7.040 7.040c3.881 0 7.040-3.16 7.040-7.040s-3.16-7.040-7.040-7.040zM16 10.24c3.189 0 5.76 2.571 5.76 5.76s-2.571 5.76-5.76 5.76c-3.189 0-5.76-2.571-5.76-5.76s2.571-5.76 5.76-5.76z"></path>
</symbol>
<symbol id="telegram" viewBox="0 0 32 32">
<path d="M28.401 3.831c-0.312 0.014-0.615 0.1-0.889 0.21-0.271 0.109-1.83 0.774-4.133 1.759s-5.296 2.266-8.262 3.538c-5.934 2.542-11.765 5.044-11.765 5.044l0.042-0.016c0 0-0.352 0.118-0.709 0.366-0.178 0.124-0.37 0.285-0.527 0.519s-0.272 0.566-0.229 0.916c0.152 1.232 1.429 1.581 1.429 1.581l0.005 0.003 5.697 1.95c0.145 0.485 1.728 5.767 2.076 6.886 0.192 0.619 0.372 0.975 0.56 1.219 0.094 0.122 0.192 0.216 0.301 0.285 0.043 0.027 0.089 0.048 0.134 0.066 0.001 0 0.002-0 0.002 0 0.006 0.002 0.011 0.003 0.016 0.005l-0.015-0.004c0.010 0.004 0.021 0.011 0.031 0.015 0.020 0.007 0.033 0.007 0.059 0.012 0.652 0.228 1.192-0.195 1.192-0.195l0.023-0.017 3.5-3.246 5.68 4.429 0.071 0.032c0.994 0.441 1.893 0.195 2.391-0.21s0.694-0.927 0.694-0.927l0.021-0.055 4.174-21.754c0.107-0.487 0.122-0.907 0.021-1.287s-0.345-0.711-0.652-0.894c-0.307-0.183-0.628-0.242-0.94-0.229zM28.435 5.133c0.127-0.006 0.22 0.009 0.25 0.026s0.043 0.015 0.071 0.122c0.028 0.107 0.044 0.333-0.034 0.686l-0.003 0.008-4.15 21.628c-0.010 0.022-0.096 0.222-0.294 0.383-0.201 0.164-0.425 0.292-1.020 0.043l-6.39-4.977-1.857-1.394 10.439-12.281c0.095-0.111 0.153-0.256 0.153-0.415 0-0.354-0.287-0.64-0.64-0.64-0.006 0-0.012 0-0.017 0l0.001-0c-0.127 0.003-0.243 0.043-0.341 0.109l0.002-0.001-15.105 10.070-5.706-1.954c0 0-0.567-0.315-0.594-0.535-0.002-0.012-0.008-0.001 0.021-0.045s0.103-0.118 0.196-0.182c0.186-0.129 0.397-0.207 0.397-0.207l0.021-0.008 0.021-0.009c0 0 5.831-2.502 11.765-5.044 2.967-1.271 5.959-2.552 8.261-3.536s3.964-1.692 4.105-1.749c0.16-0.064 0.32-0.090 0.446-0.096zM21.512 12.027l-7.92 9.317c-0.011 0.014-0.023 0.029-0.034 0.044l-0.001 0.002c-0.011 0.015-0.023 0.033-0.033 0.051l-0.002 0.003c-0.042 0.071-0.072 0.154-0.083 0.243l-0 0.003c0 0.001 0 0.002 0 0.003s0 0.002 0 0.003v-0l-1.031 4.637c-0.017-0.050-0.029-0.068-0.047-0.128v-0.001c-0.328-1.052-1.821-6.035-2.027-6.724l11.18-7.454zM14.49 22.867l1.422 1.067-2.090 1.938 0.668-3.005z"></path>
</symbol>
</defs>
</svg>
